%TF.GenerationSoftware,KiCad,Pcbnew,(6.0.9-0)*%
%TF.CreationDate,2022-12-20T20:03:51+09:00*%
%TF.ProjectId,RP2040_8key,52503230-3430-45f3-986b-65792e6b6963,rev?*%
%TF.SameCoordinates,Original*%
%TF.FileFunction,Legend,Top*%
%TF.FilePolarity,Positive*%
%FSLAX46Y46*%
G04 Gerber Fmt 4.6, Leading zero omitted, Abs format (unit mm)*
G04 Created by KiCad (PCBNEW (6.0.9-0)) date 2022-12-20 20:03:51*
%MOMM*%
%LPD*%
G01*
G04 APERTURE LIST*
%ADD10C,0.150000*%
%ADD11C,0.100000*%
%ADD12C,0.120000*%
%ADD13C,1.200000*%
G04 APERTURE END LIST*
D10*
X198200000Y-119150000D02*
X199150000Y-119150000D01*
X199150000Y-119150000D02*
X199150000Y-120450000D01*
X199150000Y-120450000D02*
X198200000Y-120450000D01*
X198200000Y-120450000D02*
X198200000Y-119150000D01*
G36*
X198200000Y-119150000D02*
G01*
X199150000Y-119150000D01*
X199150000Y-120450000D01*
X198200000Y-120450000D01*
X198200000Y-119150000D01*
G37*
X194500000Y-124000000D02*
X200250000Y-124000000D01*
X200250000Y-124000000D02*
X200250000Y-118700000D01*
X200250000Y-118700000D02*
X194500000Y-118700000D01*
X194500000Y-118700000D02*
X194500000Y-124000000D01*
X196850000Y-119150000D02*
X197800000Y-119150000D01*
X197800000Y-119150000D02*
X197800000Y-120450000D01*
X197800000Y-120450000D02*
X196850000Y-120450000D01*
X196850000Y-120450000D02*
X196850000Y-119150000D01*
G36*
X196850000Y-119150000D02*
G01*
X197800000Y-119150000D01*
X197800000Y-120450000D01*
X196850000Y-120450000D01*
X196850000Y-119150000D01*
G37*
X196850000Y-121100000D02*
X197800000Y-121100000D01*
X197800000Y-121100000D02*
X197800000Y-122400000D01*
X197800000Y-122400000D02*
X196850000Y-122400000D01*
X196850000Y-122400000D02*
X196850000Y-121100000D01*
G36*
X196850000Y-121100000D02*
G01*
X197800000Y-121100000D01*
X197800000Y-122400000D01*
X196850000Y-122400000D01*
X196850000Y-121100000D01*
G37*
D11*
X196650000Y-120900000D02*
X199350000Y-120900000D01*
X199350000Y-120900000D02*
X199350000Y-122600000D01*
X199350000Y-122600000D02*
X196650000Y-122600000D01*
X196650000Y-122600000D02*
X196650000Y-120900000D01*
D10*
X195500000Y-113850000D02*
X196450000Y-113850000D01*
X196450000Y-113850000D02*
X196450000Y-115150000D01*
X196450000Y-115150000D02*
X195500000Y-115150000D01*
X195500000Y-115150000D02*
X195500000Y-113850000D01*
G36*
X195500000Y-113850000D02*
G01*
X196450000Y-113850000D01*
X196450000Y-115150000D01*
X195500000Y-115150000D01*
X195500000Y-113850000D01*
G37*
D11*
X196650000Y-113650000D02*
X199350000Y-113650000D01*
X199350000Y-113650000D02*
X199350000Y-115350000D01*
X199350000Y-115350000D02*
X196650000Y-115350000D01*
X196650000Y-115350000D02*
X196650000Y-113650000D01*
X195300000Y-115600000D02*
X198000000Y-115600000D01*
X198000000Y-115600000D02*
X198000000Y-117300000D01*
X198000000Y-117300000D02*
X195300000Y-117300000D01*
X195300000Y-117300000D02*
X195300000Y-115600000D01*
D10*
X195500000Y-119150000D02*
X196450000Y-119150000D01*
X196450000Y-119150000D02*
X196450000Y-120450000D01*
X196450000Y-120450000D02*
X195500000Y-120450000D01*
X195500000Y-120450000D02*
X195500000Y-119150000D01*
G36*
X195500000Y-119150000D02*
G01*
X196450000Y-119150000D01*
X196450000Y-120450000D01*
X195500000Y-120450000D01*
X195500000Y-119150000D01*
G37*
X196850000Y-113850000D02*
X197800000Y-113850000D01*
X197800000Y-113850000D02*
X197800000Y-115150000D01*
X197800000Y-115150000D02*
X196850000Y-115150000D01*
X196850000Y-115150000D02*
X196850000Y-113850000D01*
G36*
X196850000Y-113850000D02*
G01*
X197800000Y-113850000D01*
X197800000Y-115150000D01*
X196850000Y-115150000D01*
X196850000Y-113850000D01*
G37*
X198200000Y-113850000D02*
X199150000Y-113850000D01*
X199150000Y-113850000D02*
X199150000Y-115150000D01*
X199150000Y-115150000D02*
X198200000Y-115150000D01*
X198200000Y-115150000D02*
X198200000Y-113850000D01*
G36*
X198200000Y-113850000D02*
G01*
X199150000Y-113850000D01*
X199150000Y-115150000D01*
X198200000Y-115150000D01*
X198200000Y-113850000D01*
G37*
X195550000Y-115800000D02*
X196500000Y-115800000D01*
X196500000Y-115800000D02*
X196500000Y-117100000D01*
X196500000Y-117100000D02*
X195550000Y-117100000D01*
X195550000Y-117100000D02*
X195550000Y-115800000D01*
G36*
X195550000Y-115800000D02*
G01*
X196500000Y-115800000D01*
X196500000Y-117100000D01*
X195550000Y-117100000D01*
X195550000Y-115800000D01*
G37*
X196850000Y-115800000D02*
X197800000Y-115800000D01*
X197800000Y-115800000D02*
X197800000Y-117100000D01*
X197800000Y-117100000D02*
X196850000Y-117100000D01*
X196850000Y-117100000D02*
X196850000Y-115800000D01*
G36*
X196850000Y-115800000D02*
G01*
X197800000Y-115800000D01*
X197800000Y-117100000D01*
X196850000Y-117100000D01*
X196850000Y-115800000D01*
G37*
X194500000Y-118700000D02*
X200250000Y-118700000D01*
X200250000Y-118700000D02*
X200250000Y-113400000D01*
X200250000Y-113400000D02*
X194500000Y-113400000D01*
X194500000Y-113400000D02*
X194500000Y-118700000D01*
X195500000Y-121100000D02*
X196450000Y-121100000D01*
X196450000Y-121100000D02*
X196450000Y-122400000D01*
X196450000Y-122400000D02*
X195500000Y-122400000D01*
X195500000Y-122400000D02*
X195500000Y-121100000D01*
G36*
X195500000Y-121100000D02*
G01*
X196450000Y-121100000D01*
X196450000Y-122400000D01*
X195500000Y-122400000D01*
X195500000Y-121100000D01*
G37*
X198250000Y-115800000D02*
X199200000Y-115800000D01*
X199200000Y-115800000D02*
X199200000Y-117100000D01*
X199200000Y-117100000D02*
X198250000Y-117100000D01*
X198250000Y-117100000D02*
X198250000Y-115800000D01*
G36*
X198250000Y-115800000D02*
G01*
X199200000Y-115800000D01*
X199200000Y-117100000D01*
X198250000Y-117100000D01*
X198250000Y-115800000D01*
G37*
X198200000Y-121100000D02*
X199150000Y-121100000D01*
X199150000Y-121100000D02*
X199150000Y-122400000D01*
X199150000Y-122400000D02*
X198200000Y-122400000D01*
X198200000Y-122400000D02*
X198200000Y-121100000D01*
G36*
X198200000Y-121100000D02*
G01*
X199150000Y-121100000D01*
X199150000Y-122400000D01*
X198200000Y-122400000D01*
X198200000Y-121100000D01*
G37*
D11*
X195300000Y-118950000D02*
X198000000Y-118950000D01*
X198000000Y-118950000D02*
X198000000Y-120650000D01*
X198000000Y-120650000D02*
X195300000Y-120650000D01*
X195300000Y-120650000D02*
X195300000Y-118950000D01*
X199621428Y-121411904D02*
X200078571Y-121411904D01*
X199850000Y-122211904D02*
X199850000Y-121411904D01*
X195069047Y-123523809D02*
X195183333Y-123561904D01*
X195373809Y-123561904D01*
X195450000Y-123523809D01*
X195488095Y-123485714D01*
X195526190Y-123409523D01*
X195526190Y-123333333D01*
X195488095Y-123257142D01*
X195450000Y-123219047D01*
X195373809Y-123180952D01*
X195221428Y-123142857D01*
X195145238Y-123104761D01*
X195107142Y-123066666D01*
X195069047Y-122990476D01*
X195069047Y-122914285D01*
X195107142Y-122838095D01*
X195145238Y-122800000D01*
X195221428Y-122761904D01*
X195411904Y-122761904D01*
X195526190Y-122800000D01*
X195983333Y-123561904D02*
X195907142Y-123523809D01*
X195869047Y-123447619D01*
X195869047Y-122761904D01*
X196630952Y-123561904D02*
X196630952Y-123142857D01*
X196592857Y-123066666D01*
X196516666Y-123028571D01*
X196364285Y-123028571D01*
X196288095Y-123066666D01*
X196630952Y-123523809D02*
X196554761Y-123561904D01*
X196364285Y-123561904D01*
X196288095Y-123523809D01*
X196250000Y-123447619D01*
X196250000Y-123371428D01*
X196288095Y-123295238D01*
X196364285Y-123257142D01*
X196554761Y-123257142D01*
X196630952Y-123219047D01*
X196935714Y-123028571D02*
X197126190Y-123561904D01*
X197316666Y-123028571D01*
X197926190Y-123523809D02*
X197850000Y-123561904D01*
X197697619Y-123561904D01*
X197621428Y-123523809D01*
X197583333Y-123447619D01*
X197583333Y-123142857D01*
X197621428Y-123066666D01*
X197697619Y-123028571D01*
X197850000Y-123028571D01*
X197926190Y-123066666D01*
X197964285Y-123142857D01*
X197964285Y-123219047D01*
X197583333Y-123295238D01*
X198535714Y-123866666D02*
X198497619Y-123828571D01*
X198421428Y-123714285D01*
X198383333Y-123638095D01*
X198345238Y-123523809D01*
X198307142Y-123333333D01*
X198307142Y-123180952D01*
X198345238Y-122990476D01*
X198383333Y-122876190D01*
X198421428Y-122800000D01*
X198497619Y-122685714D01*
X198535714Y-122647619D01*
X199297619Y-123561904D02*
X199030952Y-123180952D01*
X198840476Y-123561904D02*
X198840476Y-122761904D01*
X199145238Y-122761904D01*
X199221428Y-122800000D01*
X199259523Y-122838095D01*
X199297619Y-122914285D01*
X199297619Y-123028571D01*
X199259523Y-123104761D01*
X199221428Y-123142857D01*
X199145238Y-123180952D01*
X198840476Y-123180952D01*
X199564285Y-123866666D02*
X199602380Y-123828571D01*
X199678571Y-123714285D01*
X199716666Y-123638095D01*
X199754761Y-123523809D01*
X199792857Y-123333333D01*
X199792857Y-123180952D01*
X199754761Y-122990476D01*
X199716666Y-122876190D01*
X199678571Y-122800000D01*
X199602380Y-122685714D01*
X199564285Y-122647619D01*
X195147619Y-117011904D02*
X194880952Y-116630952D01*
X194690476Y-117011904D02*
X194690476Y-116211904D01*
X194995238Y-116211904D01*
X195071428Y-116250000D01*
X195109523Y-116288095D01*
X195147619Y-116364285D01*
X195147619Y-116478571D01*
X195109523Y-116554761D01*
X195071428Y-116592857D01*
X194995238Y-116630952D01*
X194690476Y-116630952D01*
X194821428Y-118261904D02*
X194821428Y-117461904D01*
X195088095Y-118033333D01*
X195354761Y-117461904D01*
X195354761Y-118261904D01*
X196078571Y-118261904D02*
X196078571Y-117842857D01*
X196040476Y-117766666D01*
X195964285Y-117728571D01*
X195811904Y-117728571D01*
X195735714Y-117766666D01*
X196078571Y-118223809D02*
X196002380Y-118261904D01*
X195811904Y-118261904D01*
X195735714Y-118223809D01*
X195697619Y-118147619D01*
X195697619Y-118071428D01*
X195735714Y-117995238D01*
X195811904Y-117957142D01*
X196002380Y-117957142D01*
X196078571Y-117919047D01*
X196421428Y-118223809D02*
X196497619Y-118261904D01*
X196650000Y-118261904D01*
X196726190Y-118223809D01*
X196764285Y-118147619D01*
X196764285Y-118109523D01*
X196726190Y-118033333D01*
X196650000Y-117995238D01*
X196535714Y-117995238D01*
X196459523Y-117957142D01*
X196421428Y-117880952D01*
X196421428Y-117842857D01*
X196459523Y-117766666D01*
X196535714Y-117728571D01*
X196650000Y-117728571D01*
X196726190Y-117766666D01*
X196992857Y-117728571D02*
X197297619Y-117728571D01*
X197107142Y-117461904D02*
X197107142Y-118147619D01*
X197145238Y-118223809D01*
X197221428Y-118261904D01*
X197297619Y-118261904D01*
X197869047Y-118223809D02*
X197792857Y-118261904D01*
X197640476Y-118261904D01*
X197564285Y-118223809D01*
X197526190Y-118147619D01*
X197526190Y-117842857D01*
X197564285Y-117766666D01*
X197640476Y-117728571D01*
X197792857Y-117728571D01*
X197869047Y-117766666D01*
X197907142Y-117842857D01*
X197907142Y-117919047D01*
X197526190Y-117995238D01*
X198250000Y-118261904D02*
X198250000Y-117728571D01*
X198250000Y-117880952D02*
X198288095Y-117804761D01*
X198326190Y-117766666D01*
X198402380Y-117728571D01*
X198478571Y-117728571D01*
X198973809Y-118566666D02*
X198935714Y-118528571D01*
X198859523Y-118414285D01*
X198821428Y-118338095D01*
X198783333Y-118223809D01*
X198745238Y-118033333D01*
X198745238Y-117880952D01*
X198783333Y-117690476D01*
X198821428Y-117576190D01*
X198859523Y-117500000D01*
X198935714Y-117385714D01*
X198973809Y-117347619D01*
X199659523Y-118261904D02*
X199278571Y-118261904D01*
X199278571Y-117461904D01*
X199850000Y-118566666D02*
X199888095Y-118528571D01*
X199964285Y-118414285D01*
X200002380Y-118338095D01*
X200040476Y-118223809D01*
X200078571Y-118033333D01*
X200078571Y-117880952D01*
X200040476Y-117690476D01*
X200002380Y-117576190D01*
X199964285Y-117500000D01*
X199888095Y-117385714D01*
X199850000Y-117347619D01*
X199571428Y-114061904D02*
X200028571Y-114061904D01*
X199800000Y-114861904D02*
X199800000Y-114061904D01*
X195147619Y-120261904D02*
X194880952Y-119880952D01*
X194690476Y-120261904D02*
X194690476Y-119461904D01*
X194995238Y-119461904D01*
X195071428Y-119500000D01*
X195109523Y-119538095D01*
X195147619Y-119614285D01*
X195147619Y-119728571D01*
X195109523Y-119804761D01*
X195071428Y-119842857D01*
X194995238Y-119880952D01*
X194690476Y-119880952D01*
D10*
%TO.C,U3*%
X171888095Y-108752380D02*
X171888095Y-109561904D01*
X171935714Y-109657142D01*
X171983333Y-109704761D01*
X172078571Y-109752380D01*
X172269047Y-109752380D01*
X172364285Y-109704761D01*
X172411904Y-109657142D01*
X172459523Y-109561904D01*
X172459523Y-108752380D01*
X172840476Y-108752380D02*
X173459523Y-108752380D01*
X173126190Y-109133333D01*
X173269047Y-109133333D01*
X173364285Y-109180952D01*
X173411904Y-109228571D01*
X173459523Y-109323809D01*
X173459523Y-109561904D01*
X173411904Y-109657142D01*
X173364285Y-109704761D01*
X173269047Y-109752380D01*
X172983333Y-109752380D01*
X172888095Y-109704761D01*
X172840476Y-109657142D01*
%TO.C,SW5*%
X94166666Y-124954761D02*
X94309523Y-125002380D01*
X94547619Y-125002380D01*
X94642857Y-124954761D01*
X94690476Y-124907142D01*
X94738095Y-124811904D01*
X94738095Y-124716666D01*
X94690476Y-124621428D01*
X94642857Y-124573809D01*
X94547619Y-124526190D01*
X94357142Y-124478571D01*
X94261904Y-124430952D01*
X94214285Y-124383333D01*
X94166666Y-124288095D01*
X94166666Y-124192857D01*
X94214285Y-124097619D01*
X94261904Y-124050000D01*
X94357142Y-124002380D01*
X94595238Y-124002380D01*
X94738095Y-124050000D01*
X95071428Y-124002380D02*
X95309523Y-125002380D01*
X95500000Y-124288095D01*
X95690476Y-125002380D01*
X95928571Y-124002380D01*
X96785714Y-124002380D02*
X96309523Y-124002380D01*
X96261904Y-124478571D01*
X96309523Y-124430952D01*
X96404761Y-124383333D01*
X96642857Y-124383333D01*
X96738095Y-124430952D01*
X96785714Y-124478571D01*
X96833333Y-124573809D01*
X96833333Y-124811904D01*
X96785714Y-124907142D01*
X96738095Y-124954761D01*
X96642857Y-125002380D01*
X96404761Y-125002380D01*
X96309523Y-124954761D01*
X96261904Y-124907142D01*
%TO.C,R1*%
X186883333Y-93182380D02*
X186550000Y-92706190D01*
X186311904Y-93182380D02*
X186311904Y-92182380D01*
X186692857Y-92182380D01*
X186788095Y-92230000D01*
X186835714Y-92277619D01*
X186883333Y-92372857D01*
X186883333Y-92515714D01*
X186835714Y-92610952D01*
X186788095Y-92658571D01*
X186692857Y-92706190D01*
X186311904Y-92706190D01*
X187835714Y-93182380D02*
X187264285Y-93182380D01*
X187550000Y-93182380D02*
X187550000Y-92182380D01*
X187454761Y-92325238D01*
X187359523Y-92420476D01*
X187264285Y-92468095D01*
%TO.C,J1*%
X178666666Y-99697380D02*
X178666666Y-100411666D01*
X178619047Y-100554523D01*
X178523809Y-100649761D01*
X178380952Y-100697380D01*
X178285714Y-100697380D01*
X179666666Y-100697380D02*
X179095238Y-100697380D01*
X179380952Y-100697380D02*
X179380952Y-99697380D01*
X179285714Y-99840238D01*
X179190476Y-99935476D01*
X179095238Y-99983095D01*
%TO.C,SD1*%
X190954761Y-100011904D02*
X191002380Y-99869047D01*
X191002380Y-99630952D01*
X190954761Y-99535714D01*
X190907142Y-99488095D01*
X190811904Y-99440476D01*
X190716666Y-99440476D01*
X190621428Y-99488095D01*
X190573809Y-99535714D01*
X190526190Y-99630952D01*
X190478571Y-99821428D01*
X190430952Y-99916666D01*
X190383333Y-99964285D01*
X190288095Y-100011904D01*
X190192857Y-100011904D01*
X190097619Y-99964285D01*
X190050000Y-99916666D01*
X190002380Y-99821428D01*
X190002380Y-99583333D01*
X190050000Y-99440476D01*
X191002380Y-99011904D02*
X190002380Y-99011904D01*
X190002380Y-98773809D01*
X190050000Y-98630952D01*
X190145238Y-98535714D01*
X190240476Y-98488095D01*
X190430952Y-98440476D01*
X190573809Y-98440476D01*
X190764285Y-98488095D01*
X190859523Y-98535714D01*
X190954761Y-98630952D01*
X191002380Y-98773809D01*
X191002380Y-99011904D01*
X191002380Y-97488095D02*
X191002380Y-98059523D01*
X191002380Y-97773809D02*
X190002380Y-97773809D01*
X190145238Y-97869047D01*
X190240476Y-97964285D01*
X190288095Y-98059523D01*
%TO.C,SW8*%
X151316666Y-124954761D02*
X151459523Y-125002380D01*
X151697619Y-125002380D01*
X151792857Y-124954761D01*
X151840476Y-124907142D01*
X151888095Y-124811904D01*
X151888095Y-124716666D01*
X151840476Y-124621428D01*
X151792857Y-124573809D01*
X151697619Y-124526190D01*
X151507142Y-124478571D01*
X151411904Y-124430952D01*
X151364285Y-124383333D01*
X151316666Y-124288095D01*
X151316666Y-124192857D01*
X151364285Y-124097619D01*
X151411904Y-124050000D01*
X151507142Y-124002380D01*
X151745238Y-124002380D01*
X151888095Y-124050000D01*
X152221428Y-124002380D02*
X152459523Y-125002380D01*
X152650000Y-124288095D01*
X152840476Y-125002380D01*
X153078571Y-124002380D01*
X153602380Y-124430952D02*
X153507142Y-124383333D01*
X153459523Y-124335714D01*
X153411904Y-124240476D01*
X153411904Y-124192857D01*
X153459523Y-124097619D01*
X153507142Y-124050000D01*
X153602380Y-124002380D01*
X153792857Y-124002380D01*
X153888095Y-124050000D01*
X153935714Y-124097619D01*
X153983333Y-124192857D01*
X153983333Y-124240476D01*
X153935714Y-124335714D01*
X153888095Y-124383333D01*
X153792857Y-124430952D01*
X153602380Y-124430952D01*
X153507142Y-124478571D01*
X153459523Y-124526190D01*
X153411904Y-124621428D01*
X153411904Y-124811904D01*
X153459523Y-124907142D01*
X153507142Y-124954761D01*
X153602380Y-125002380D01*
X153792857Y-125002380D01*
X153888095Y-124954761D01*
X153935714Y-124907142D01*
X153983333Y-124811904D01*
X153983333Y-124621428D01*
X153935714Y-124526190D01*
X153888095Y-124478571D01*
X153792857Y-124430952D01*
%TO.C,F1*%
X187208571Y-100483333D02*
X187208571Y-100816666D01*
X187732380Y-100816666D02*
X186732380Y-100816666D01*
X186732380Y-100340476D01*
X187732380Y-99435714D02*
X187732380Y-100007142D01*
X187732380Y-99721428D02*
X186732380Y-99721428D01*
X186875238Y-99816666D01*
X186970476Y-99911904D01*
X187018095Y-100007142D01*
%TO.C,STLED1*%
X186300000Y-91724761D02*
X186442857Y-91772380D01*
X186680952Y-91772380D01*
X186776190Y-91724761D01*
X186823809Y-91677142D01*
X186871428Y-91581904D01*
X186871428Y-91486666D01*
X186823809Y-91391428D01*
X186776190Y-91343809D01*
X186680952Y-91296190D01*
X186490476Y-91248571D01*
X186395238Y-91200952D01*
X186347619Y-91153333D01*
X186300000Y-91058095D01*
X186300000Y-90962857D01*
X186347619Y-90867619D01*
X186395238Y-90820000D01*
X186490476Y-90772380D01*
X186728571Y-90772380D01*
X186871428Y-90820000D01*
X187157142Y-90772380D02*
X187728571Y-90772380D01*
X187442857Y-91772380D02*
X187442857Y-90772380D01*
X188538095Y-91772380D02*
X188061904Y-91772380D01*
X188061904Y-90772380D01*
X188871428Y-91248571D02*
X189204761Y-91248571D01*
X189347619Y-91772380D02*
X188871428Y-91772380D01*
X188871428Y-90772380D01*
X189347619Y-90772380D01*
X189776190Y-91772380D02*
X189776190Y-90772380D01*
X190014285Y-90772380D01*
X190157142Y-90820000D01*
X190252380Y-90915238D01*
X190300000Y-91010476D01*
X190347619Y-91200952D01*
X190347619Y-91343809D01*
X190300000Y-91534285D01*
X190252380Y-91629523D01*
X190157142Y-91724761D01*
X190014285Y-91772380D01*
X189776190Y-91772380D01*
X191300000Y-91772380D02*
X190728571Y-91772380D01*
X191014285Y-91772380D02*
X191014285Y-90772380D01*
X190919047Y-90915238D01*
X190823809Y-91010476D01*
X190728571Y-91058095D01*
%TO.C,C1*%
X191333333Y-116017142D02*
X191285714Y-116064761D01*
X191142857Y-116112380D01*
X191047619Y-116112380D01*
X190904761Y-116064761D01*
X190809523Y-115969523D01*
X190761904Y-115874285D01*
X190714285Y-115683809D01*
X190714285Y-115540952D01*
X190761904Y-115350476D01*
X190809523Y-115255238D01*
X190904761Y-115160000D01*
X191047619Y-115112380D01*
X191142857Y-115112380D01*
X191285714Y-115160000D01*
X191333333Y-115207619D01*
X192285714Y-116112380D02*
X191714285Y-116112380D01*
X192000000Y-116112380D02*
X192000000Y-115112380D01*
X191904761Y-115255238D01*
X191809523Y-115350476D01*
X191714285Y-115398095D01*
%TO.C,D7*%
X147552380Y-121888095D02*
X146552380Y-121888095D01*
X146552380Y-121650000D01*
X146600000Y-121507142D01*
X146695238Y-121411904D01*
X146790476Y-121364285D01*
X146980952Y-121316666D01*
X147123809Y-121316666D01*
X147314285Y-121364285D01*
X147409523Y-121411904D01*
X147504761Y-121507142D01*
X147552380Y-121650000D01*
X147552380Y-121888095D01*
X146552380Y-120983333D02*
X146552380Y-120316666D01*
X147552380Y-120745238D01*
%TO.C,D1*%
X109452380Y-102738095D02*
X108452380Y-102738095D01*
X108452380Y-102500000D01*
X108500000Y-102357142D01*
X108595238Y-102261904D01*
X108690476Y-102214285D01*
X108880952Y-102166666D01*
X109023809Y-102166666D01*
X109214285Y-102214285D01*
X109309523Y-102261904D01*
X109404761Y-102357142D01*
X109452380Y-102500000D01*
X109452380Y-102738095D01*
X109452380Y-101214285D02*
X109452380Y-101785714D01*
X109452380Y-101500000D02*
X108452380Y-101500000D01*
X108595238Y-101595238D01*
X108690476Y-101690476D01*
X108738095Y-101785714D01*
%TO.C,D8*%
X166552380Y-121938095D02*
X165552380Y-121938095D01*
X165552380Y-121700000D01*
X165600000Y-121557142D01*
X165695238Y-121461904D01*
X165790476Y-121414285D01*
X165980952Y-121366666D01*
X166123809Y-121366666D01*
X166314285Y-121414285D01*
X166409523Y-121461904D01*
X166504761Y-121557142D01*
X166552380Y-121700000D01*
X166552380Y-121938095D01*
X165980952Y-120795238D02*
X165933333Y-120890476D01*
X165885714Y-120938095D01*
X165790476Y-120985714D01*
X165742857Y-120985714D01*
X165647619Y-120938095D01*
X165600000Y-120890476D01*
X165552380Y-120795238D01*
X165552380Y-120604761D01*
X165600000Y-120509523D01*
X165647619Y-120461904D01*
X165742857Y-120414285D01*
X165790476Y-120414285D01*
X165885714Y-120461904D01*
X165933333Y-120509523D01*
X165980952Y-120604761D01*
X165980952Y-120795238D01*
X166028571Y-120890476D01*
X166076190Y-120938095D01*
X166171428Y-120985714D01*
X166361904Y-120985714D01*
X166457142Y-120938095D01*
X166504761Y-120890476D01*
X166552380Y-120795238D01*
X166552380Y-120604761D01*
X166504761Y-120509523D01*
X166457142Y-120461904D01*
X166361904Y-120414285D01*
X166171428Y-120414285D01*
X166076190Y-120461904D01*
X166028571Y-120509523D01*
X165980952Y-120604761D01*
%TO.C,R7*%
X168133333Y-102072380D02*
X167800000Y-101596190D01*
X167561904Y-102072380D02*
X167561904Y-101072380D01*
X167942857Y-101072380D01*
X168038095Y-101120000D01*
X168085714Y-101167619D01*
X168133333Y-101262857D01*
X168133333Y-101405714D01*
X168085714Y-101500952D01*
X168038095Y-101548571D01*
X167942857Y-101596190D01*
X167561904Y-101596190D01*
X168466666Y-101072380D02*
X169133333Y-101072380D01*
X168704761Y-102072380D01*
%TO.C,R5*%
X180582380Y-107516666D02*
X180106190Y-107850000D01*
X180582380Y-108088095D02*
X179582380Y-108088095D01*
X179582380Y-107707142D01*
X179630000Y-107611904D01*
X179677619Y-107564285D01*
X179772857Y-107516666D01*
X179915714Y-107516666D01*
X180010952Y-107564285D01*
X180058571Y-107611904D01*
X180106190Y-107707142D01*
X180106190Y-108088095D01*
X179582380Y-106611904D02*
X179582380Y-107088095D01*
X180058571Y-107135714D01*
X180010952Y-107088095D01*
X179963333Y-106992857D01*
X179963333Y-106754761D01*
X180010952Y-106659523D01*
X180058571Y-106611904D01*
X180153809Y-106564285D01*
X180391904Y-106564285D01*
X180487142Y-106611904D01*
X180534761Y-106659523D01*
X180582380Y-106754761D01*
X180582380Y-106992857D01*
X180534761Y-107088095D01*
X180487142Y-107135714D01*
%TO.C,SW9*%
X170242857Y-122028571D02*
X170385714Y-122076190D01*
X170433333Y-122123809D01*
X170480952Y-122219047D01*
X170480952Y-122361904D01*
X170433333Y-122457142D01*
X170385714Y-122504761D01*
X170290476Y-122552380D01*
X169909523Y-122552380D01*
X169909523Y-121552380D01*
X170242857Y-121552380D01*
X170338095Y-121600000D01*
X170385714Y-121647619D01*
X170433333Y-121742857D01*
X170433333Y-121838095D01*
X170385714Y-121933333D01*
X170338095Y-121980952D01*
X170242857Y-122028571D01*
X169909523Y-122028571D01*
X171100000Y-121552380D02*
X171290476Y-121552380D01*
X171385714Y-121600000D01*
X171480952Y-121695238D01*
X171528571Y-121885714D01*
X171528571Y-122219047D01*
X171480952Y-122409523D01*
X171385714Y-122504761D01*
X171290476Y-122552380D01*
X171100000Y-122552380D01*
X171004761Y-122504761D01*
X170909523Y-122409523D01*
X170861904Y-122219047D01*
X170861904Y-121885714D01*
X170909523Y-121695238D01*
X171004761Y-121600000D01*
X171100000Y-121552380D01*
X172147619Y-121552380D02*
X172338095Y-121552380D01*
X172433333Y-121600000D01*
X172528571Y-121695238D01*
X172576190Y-121885714D01*
X172576190Y-122219047D01*
X172528571Y-122409523D01*
X172433333Y-122504761D01*
X172338095Y-122552380D01*
X172147619Y-122552380D01*
X172052380Y-122504761D01*
X171957142Y-122409523D01*
X171909523Y-122219047D01*
X171909523Y-121885714D01*
X171957142Y-121695238D01*
X172052380Y-121600000D01*
X172147619Y-121552380D01*
X172861904Y-121552380D02*
X173433333Y-121552380D01*
X173147619Y-122552380D02*
X173147619Y-121552380D01*
%TO.C,C6*%
X182347142Y-105666666D02*
X182394761Y-105714285D01*
X182442380Y-105857142D01*
X182442380Y-105952380D01*
X182394761Y-106095238D01*
X182299523Y-106190476D01*
X182204285Y-106238095D01*
X182013809Y-106285714D01*
X181870952Y-106285714D01*
X181680476Y-106238095D01*
X181585238Y-106190476D01*
X181490000Y-106095238D01*
X181442380Y-105952380D01*
X181442380Y-105857142D01*
X181490000Y-105714285D01*
X181537619Y-105666666D01*
X181442380Y-104809523D02*
X181442380Y-105000000D01*
X181490000Y-105095238D01*
X181537619Y-105142857D01*
X181680476Y-105238095D01*
X181870952Y-105285714D01*
X182251904Y-105285714D01*
X182347142Y-105238095D01*
X182394761Y-105190476D01*
X182442380Y-105095238D01*
X182442380Y-104904761D01*
X182394761Y-104809523D01*
X182347142Y-104761904D01*
X182251904Y-104714285D01*
X182013809Y-104714285D01*
X181918571Y-104761904D01*
X181870952Y-104809523D01*
X181823333Y-104904761D01*
X181823333Y-105095238D01*
X181870952Y-105190476D01*
X181918571Y-105238095D01*
X182013809Y-105285714D01*
%TO.C,C15*%
X172157142Y-102967142D02*
X172109523Y-103014761D01*
X171966666Y-103062380D01*
X171871428Y-103062380D01*
X171728571Y-103014761D01*
X171633333Y-102919523D01*
X171585714Y-102824285D01*
X171538095Y-102633809D01*
X171538095Y-102490952D01*
X171585714Y-102300476D01*
X171633333Y-102205238D01*
X171728571Y-102110000D01*
X171871428Y-102062380D01*
X171966666Y-102062380D01*
X172109523Y-102110000D01*
X172157142Y-102157619D01*
X173109523Y-103062380D02*
X172538095Y-103062380D01*
X172823809Y-103062380D02*
X172823809Y-102062380D01*
X172728571Y-102205238D01*
X172633333Y-102300476D01*
X172538095Y-102348095D01*
X174014285Y-102062380D02*
X173538095Y-102062380D01*
X173490476Y-102538571D01*
X173538095Y-102490952D01*
X173633333Y-102443333D01*
X173871428Y-102443333D01*
X173966666Y-102490952D01*
X174014285Y-102538571D01*
X174061904Y-102633809D01*
X174061904Y-102871904D01*
X174014285Y-102967142D01*
X173966666Y-103014761D01*
X173871428Y-103062380D01*
X173633333Y-103062380D01*
X173538095Y-103014761D01*
X173490476Y-102967142D01*
%TO.C,SW4*%
X151316666Y-105904761D02*
X151459523Y-105952380D01*
X151697619Y-105952380D01*
X151792857Y-105904761D01*
X151840476Y-105857142D01*
X151888095Y-105761904D01*
X151888095Y-105666666D01*
X151840476Y-105571428D01*
X151792857Y-105523809D01*
X151697619Y-105476190D01*
X151507142Y-105428571D01*
X151411904Y-105380952D01*
X151364285Y-105333333D01*
X151316666Y-105238095D01*
X151316666Y-105142857D01*
X151364285Y-105047619D01*
X151411904Y-105000000D01*
X151507142Y-104952380D01*
X151745238Y-104952380D01*
X151888095Y-105000000D01*
X152221428Y-104952380D02*
X152459523Y-105952380D01*
X152650000Y-105238095D01*
X152840476Y-105952380D01*
X153078571Y-104952380D01*
X153888095Y-105285714D02*
X153888095Y-105952380D01*
X153650000Y-104904761D02*
X153411904Y-105619047D01*
X154030952Y-105619047D01*
%TO.C,C4*%
X182567142Y-120766666D02*
X182614761Y-120814285D01*
X182662380Y-120957142D01*
X182662380Y-121052380D01*
X182614761Y-121195238D01*
X182519523Y-121290476D01*
X182424285Y-121338095D01*
X182233809Y-121385714D01*
X182090952Y-121385714D01*
X181900476Y-121338095D01*
X181805238Y-121290476D01*
X181710000Y-121195238D01*
X181662380Y-121052380D01*
X181662380Y-120957142D01*
X181710000Y-120814285D01*
X181757619Y-120766666D01*
X181995714Y-119909523D02*
X182662380Y-119909523D01*
X181614761Y-120147619D02*
X182329047Y-120385714D01*
X182329047Y-119766666D01*
%TO.C,R6*%
X176333333Y-121172380D02*
X176000000Y-120696190D01*
X175761904Y-121172380D02*
X175761904Y-120172380D01*
X176142857Y-120172380D01*
X176238095Y-120220000D01*
X176285714Y-120267619D01*
X176333333Y-120362857D01*
X176333333Y-120505714D01*
X176285714Y-120600952D01*
X176238095Y-120648571D01*
X176142857Y-120696190D01*
X175761904Y-120696190D01*
X177190476Y-120172380D02*
X177000000Y-120172380D01*
X176904761Y-120220000D01*
X176857142Y-120267619D01*
X176761904Y-120410476D01*
X176714285Y-120600952D01*
X176714285Y-120981904D01*
X176761904Y-121077142D01*
X176809523Y-121124761D01*
X176904761Y-121172380D01*
X177095238Y-121172380D01*
X177190476Y-121124761D01*
X177238095Y-121077142D01*
X177285714Y-120981904D01*
X177285714Y-120743809D01*
X177238095Y-120648571D01*
X177190476Y-120600952D01*
X177095238Y-120553333D01*
X176904761Y-120553333D01*
X176809523Y-120600952D01*
X176761904Y-120648571D01*
X176714285Y-120743809D01*
%TO.C,R8*%
X168133333Y-103122380D02*
X167800000Y-102646190D01*
X167561904Y-103122380D02*
X167561904Y-102122380D01*
X167942857Y-102122380D01*
X168038095Y-102170000D01*
X168085714Y-102217619D01*
X168133333Y-102312857D01*
X168133333Y-102455714D01*
X168085714Y-102550952D01*
X168038095Y-102598571D01*
X167942857Y-102646190D01*
X167561904Y-102646190D01*
X168704761Y-102550952D02*
X168609523Y-102503333D01*
X168561904Y-102455714D01*
X168514285Y-102360476D01*
X168514285Y-102312857D01*
X168561904Y-102217619D01*
X168609523Y-102170000D01*
X168704761Y-102122380D01*
X168895238Y-102122380D01*
X168990476Y-102170000D01*
X169038095Y-102217619D01*
X169085714Y-102312857D01*
X169085714Y-102360476D01*
X169038095Y-102455714D01*
X168990476Y-102503333D01*
X168895238Y-102550952D01*
X168704761Y-102550952D01*
X168609523Y-102598571D01*
X168561904Y-102646190D01*
X168514285Y-102741428D01*
X168514285Y-102931904D01*
X168561904Y-103027142D01*
X168609523Y-103074761D01*
X168704761Y-103122380D01*
X168895238Y-103122380D01*
X168990476Y-103074761D01*
X169038095Y-103027142D01*
X169085714Y-102931904D01*
X169085714Y-102741428D01*
X169038095Y-102646190D01*
X168990476Y-102598571D01*
X168895238Y-102550952D01*
%TO.C,SW3*%
X132266666Y-105904761D02*
X132409523Y-105952380D01*
X132647619Y-105952380D01*
X132742857Y-105904761D01*
X132790476Y-105857142D01*
X132838095Y-105761904D01*
X132838095Y-105666666D01*
X132790476Y-105571428D01*
X132742857Y-105523809D01*
X132647619Y-105476190D01*
X132457142Y-105428571D01*
X132361904Y-105380952D01*
X132314285Y-105333333D01*
X132266666Y-105238095D01*
X132266666Y-105142857D01*
X132314285Y-105047619D01*
X132361904Y-105000000D01*
X132457142Y-104952380D01*
X132695238Y-104952380D01*
X132838095Y-105000000D01*
X133171428Y-104952380D02*
X133409523Y-105952380D01*
X133600000Y-105238095D01*
X133790476Y-105952380D01*
X134028571Y-104952380D01*
X134314285Y-104952380D02*
X134933333Y-104952380D01*
X134600000Y-105333333D01*
X134742857Y-105333333D01*
X134838095Y-105380952D01*
X134885714Y-105428571D01*
X134933333Y-105523809D01*
X134933333Y-105761904D01*
X134885714Y-105857142D01*
X134838095Y-105904761D01*
X134742857Y-105952380D01*
X134457142Y-105952380D01*
X134361904Y-105904761D01*
X134314285Y-105857142D01*
%TO.C,C7*%
X183347142Y-105666666D02*
X183394761Y-105714285D01*
X183442380Y-105857142D01*
X183442380Y-105952380D01*
X183394761Y-106095238D01*
X183299523Y-106190476D01*
X183204285Y-106238095D01*
X183013809Y-106285714D01*
X182870952Y-106285714D01*
X182680476Y-106238095D01*
X182585238Y-106190476D01*
X182490000Y-106095238D01*
X182442380Y-105952380D01*
X182442380Y-105857142D01*
X182490000Y-105714285D01*
X182537619Y-105666666D01*
X182442380Y-105333333D02*
X182442380Y-104666666D01*
X183442380Y-105095238D01*
%TO.C,C8*%
X186083333Y-115997142D02*
X186035714Y-116044761D01*
X185892857Y-116092380D01*
X185797619Y-116092380D01*
X185654761Y-116044761D01*
X185559523Y-115949523D01*
X185511904Y-115854285D01*
X185464285Y-115663809D01*
X185464285Y-115520952D01*
X185511904Y-115330476D01*
X185559523Y-115235238D01*
X185654761Y-115140000D01*
X185797619Y-115092380D01*
X185892857Y-115092380D01*
X186035714Y-115140000D01*
X186083333Y-115187619D01*
X186654761Y-115520952D02*
X186559523Y-115473333D01*
X186511904Y-115425714D01*
X186464285Y-115330476D01*
X186464285Y-115282857D01*
X186511904Y-115187619D01*
X186559523Y-115140000D01*
X186654761Y-115092380D01*
X186845238Y-115092380D01*
X186940476Y-115140000D01*
X186988095Y-115187619D01*
X187035714Y-115282857D01*
X187035714Y-115330476D01*
X186988095Y-115425714D01*
X186940476Y-115473333D01*
X186845238Y-115520952D01*
X186654761Y-115520952D01*
X186559523Y-115568571D01*
X186511904Y-115616190D01*
X186464285Y-115711428D01*
X186464285Y-115901904D01*
X186511904Y-115997142D01*
X186559523Y-116044761D01*
X186654761Y-116092380D01*
X186845238Y-116092380D01*
X186940476Y-116044761D01*
X186988095Y-115997142D01*
X187035714Y-115901904D01*
X187035714Y-115711428D01*
X186988095Y-115616190D01*
X186940476Y-115568571D01*
X186845238Y-115520952D01*
%TO.C,U2*%
X177688095Y-108332380D02*
X177688095Y-109141904D01*
X177735714Y-109237142D01*
X177783333Y-109284761D01*
X177878571Y-109332380D01*
X178069047Y-109332380D01*
X178164285Y-109284761D01*
X178211904Y-109237142D01*
X178259523Y-109141904D01*
X178259523Y-108332380D01*
X178688095Y-108427619D02*
X178735714Y-108380000D01*
X178830952Y-108332380D01*
X179069047Y-108332380D01*
X179164285Y-108380000D01*
X179211904Y-108427619D01*
X179259523Y-108522857D01*
X179259523Y-108618095D01*
X179211904Y-108760952D01*
X178640476Y-109332380D01*
X179259523Y-109332380D01*
%TO.C,D2*%
X128452380Y-102738095D02*
X127452380Y-102738095D01*
X127452380Y-102500000D01*
X127500000Y-102357142D01*
X127595238Y-102261904D01*
X127690476Y-102214285D01*
X127880952Y-102166666D01*
X128023809Y-102166666D01*
X128214285Y-102214285D01*
X128309523Y-102261904D01*
X128404761Y-102357142D01*
X128452380Y-102500000D01*
X128452380Y-102738095D01*
X127547619Y-101785714D02*
X127500000Y-101738095D01*
X127452380Y-101642857D01*
X127452380Y-101404761D01*
X127500000Y-101309523D01*
X127547619Y-101261904D01*
X127642857Y-101214285D01*
X127738095Y-101214285D01*
X127880952Y-101261904D01*
X128452380Y-101833333D01*
X128452380Y-101214285D01*
%TO.C,C11*%
X168957142Y-111367142D02*
X168909523Y-111414761D01*
X168766666Y-111462380D01*
X168671428Y-111462380D01*
X168528571Y-111414761D01*
X168433333Y-111319523D01*
X168385714Y-111224285D01*
X168338095Y-111033809D01*
X168338095Y-110890952D01*
X168385714Y-110700476D01*
X168433333Y-110605238D01*
X168528571Y-110510000D01*
X168671428Y-110462380D01*
X168766666Y-110462380D01*
X168909523Y-110510000D01*
X168957142Y-110557619D01*
X169909523Y-111462380D02*
X169338095Y-111462380D01*
X169623809Y-111462380D02*
X169623809Y-110462380D01*
X169528571Y-110605238D01*
X169433333Y-110700476D01*
X169338095Y-110748095D01*
X170861904Y-111462380D02*
X170290476Y-111462380D01*
X170576190Y-111462380D02*
X170576190Y-110462380D01*
X170480952Y-110605238D01*
X170385714Y-110700476D01*
X170290476Y-110748095D01*
%TO.C,C5*%
X178447142Y-107466666D02*
X178494761Y-107514285D01*
X178542380Y-107657142D01*
X178542380Y-107752380D01*
X178494761Y-107895238D01*
X178399523Y-107990476D01*
X178304285Y-108038095D01*
X178113809Y-108085714D01*
X177970952Y-108085714D01*
X177780476Y-108038095D01*
X177685238Y-107990476D01*
X177590000Y-107895238D01*
X177542380Y-107752380D01*
X177542380Y-107657142D01*
X177590000Y-107514285D01*
X177637619Y-107466666D01*
X177542380Y-106561904D02*
X177542380Y-107038095D01*
X178018571Y-107085714D01*
X177970952Y-107038095D01*
X177923333Y-106942857D01*
X177923333Y-106704761D01*
X177970952Y-106609523D01*
X178018571Y-106561904D01*
X178113809Y-106514285D01*
X178351904Y-106514285D01*
X178447142Y-106561904D01*
X178494761Y-106609523D01*
X178542380Y-106704761D01*
X178542380Y-106942857D01*
X178494761Y-107038095D01*
X178447142Y-107085714D01*
%TO.C,SW6*%
X113216666Y-124954761D02*
X113359523Y-125002380D01*
X113597619Y-125002380D01*
X113692857Y-124954761D01*
X113740476Y-124907142D01*
X113788095Y-124811904D01*
X113788095Y-124716666D01*
X113740476Y-124621428D01*
X113692857Y-124573809D01*
X113597619Y-124526190D01*
X113407142Y-124478571D01*
X113311904Y-124430952D01*
X113264285Y-124383333D01*
X113216666Y-124288095D01*
X113216666Y-124192857D01*
X113264285Y-124097619D01*
X113311904Y-124050000D01*
X113407142Y-124002380D01*
X113645238Y-124002380D01*
X113788095Y-124050000D01*
X114121428Y-124002380D02*
X114359523Y-125002380D01*
X114550000Y-124288095D01*
X114740476Y-125002380D01*
X114978571Y-124002380D01*
X115788095Y-124002380D02*
X115597619Y-124002380D01*
X115502380Y-124050000D01*
X115454761Y-124097619D01*
X115359523Y-124240476D01*
X115311904Y-124430952D01*
X115311904Y-124811904D01*
X115359523Y-124907142D01*
X115407142Y-124954761D01*
X115502380Y-125002380D01*
X115692857Y-125002380D01*
X115788095Y-124954761D01*
X115835714Y-124907142D01*
X115883333Y-124811904D01*
X115883333Y-124573809D01*
X115835714Y-124478571D01*
X115788095Y-124430952D01*
X115692857Y-124383333D01*
X115502380Y-124383333D01*
X115407142Y-124430952D01*
X115359523Y-124478571D01*
X115311904Y-124573809D01*
%TO.C,C14*%
X172107142Y-101967142D02*
X172059523Y-102014761D01*
X171916666Y-102062380D01*
X171821428Y-102062380D01*
X171678571Y-102014761D01*
X171583333Y-101919523D01*
X171535714Y-101824285D01*
X171488095Y-101633809D01*
X171488095Y-101490952D01*
X171535714Y-101300476D01*
X171583333Y-101205238D01*
X171678571Y-101110000D01*
X171821428Y-101062380D01*
X171916666Y-101062380D01*
X172059523Y-101110000D01*
X172107142Y-101157619D01*
X173059523Y-102062380D02*
X172488095Y-102062380D01*
X172773809Y-102062380D02*
X172773809Y-101062380D01*
X172678571Y-101205238D01*
X172583333Y-101300476D01*
X172488095Y-101348095D01*
X173916666Y-101395714D02*
X173916666Y-102062380D01*
X173678571Y-101014761D02*
X173440476Y-101729047D01*
X174059523Y-101729047D01*
%TO.C,C9*%
X181367142Y-120766666D02*
X181414761Y-120814285D01*
X181462380Y-120957142D01*
X181462380Y-121052380D01*
X181414761Y-121195238D01*
X181319523Y-121290476D01*
X181224285Y-121338095D01*
X181033809Y-121385714D01*
X180890952Y-121385714D01*
X180700476Y-121338095D01*
X180605238Y-121290476D01*
X180510000Y-121195238D01*
X180462380Y-121052380D01*
X180462380Y-120957142D01*
X180510000Y-120814285D01*
X180557619Y-120766666D01*
X181462380Y-120290476D02*
X181462380Y-120100000D01*
X181414761Y-120004761D01*
X181367142Y-119957142D01*
X181224285Y-119861904D01*
X181033809Y-119814285D01*
X180652857Y-119814285D01*
X180557619Y-119861904D01*
X180510000Y-119909523D01*
X180462380Y-120004761D01*
X180462380Y-120195238D01*
X180510000Y-120290476D01*
X180557619Y-120338095D01*
X180652857Y-120385714D01*
X180890952Y-120385714D01*
X180986190Y-120338095D01*
X181033809Y-120290476D01*
X181081428Y-120195238D01*
X181081428Y-120004761D01*
X181033809Y-119909523D01*
X180986190Y-119861904D01*
X180890952Y-119814285D01*
%TO.C,D5*%
X109452380Y-121938095D02*
X108452380Y-121938095D01*
X108452380Y-121700000D01*
X108500000Y-121557142D01*
X108595238Y-121461904D01*
X108690476Y-121414285D01*
X108880952Y-121366666D01*
X109023809Y-121366666D01*
X109214285Y-121414285D01*
X109309523Y-121461904D01*
X109404761Y-121557142D01*
X109452380Y-121700000D01*
X109452380Y-121938095D01*
X108452380Y-120461904D02*
X108452380Y-120938095D01*
X108928571Y-120985714D01*
X108880952Y-120938095D01*
X108833333Y-120842857D01*
X108833333Y-120604761D01*
X108880952Y-120509523D01*
X108928571Y-120461904D01*
X109023809Y-120414285D01*
X109261904Y-120414285D01*
X109357142Y-120461904D01*
X109404761Y-120509523D01*
X109452380Y-120604761D01*
X109452380Y-120842857D01*
X109404761Y-120938095D01*
X109357142Y-120985714D01*
%TO.C,R2*%
X181672380Y-101866666D02*
X181196190Y-102200000D01*
X181672380Y-102438095D02*
X180672380Y-102438095D01*
X180672380Y-102057142D01*
X180720000Y-101961904D01*
X180767619Y-101914285D01*
X180862857Y-101866666D01*
X181005714Y-101866666D01*
X181100952Y-101914285D01*
X181148571Y-101961904D01*
X181196190Y-102057142D01*
X181196190Y-102438095D01*
X180767619Y-101485714D02*
X180720000Y-101438095D01*
X180672380Y-101342857D01*
X180672380Y-101104761D01*
X180720000Y-101009523D01*
X180767619Y-100961904D01*
X180862857Y-100914285D01*
X180958095Y-100914285D01*
X181100952Y-100961904D01*
X181672380Y-101533333D01*
X181672380Y-100914285D01*
%TO.C,C2*%
X188833333Y-116067142D02*
X188785714Y-116114761D01*
X188642857Y-116162380D01*
X188547619Y-116162380D01*
X188404761Y-116114761D01*
X188309523Y-116019523D01*
X188261904Y-115924285D01*
X188214285Y-115733809D01*
X188214285Y-115590952D01*
X188261904Y-115400476D01*
X188309523Y-115305238D01*
X188404761Y-115210000D01*
X188547619Y-115162380D01*
X188642857Y-115162380D01*
X188785714Y-115210000D01*
X188833333Y-115257619D01*
X189214285Y-115257619D02*
X189261904Y-115210000D01*
X189357142Y-115162380D01*
X189595238Y-115162380D01*
X189690476Y-115210000D01*
X189738095Y-115257619D01*
X189785714Y-115352857D01*
X189785714Y-115448095D01*
X189738095Y-115590952D01*
X189166666Y-116162380D01*
X189785714Y-116162380D01*
%TO.C,C10*%
X168857142Y-115017142D02*
X168809523Y-115064761D01*
X168666666Y-115112380D01*
X168571428Y-115112380D01*
X168428571Y-115064761D01*
X168333333Y-114969523D01*
X168285714Y-114874285D01*
X168238095Y-114683809D01*
X168238095Y-114540952D01*
X168285714Y-114350476D01*
X168333333Y-114255238D01*
X168428571Y-114160000D01*
X168571428Y-114112380D01*
X168666666Y-114112380D01*
X168809523Y-114160000D01*
X168857142Y-114207619D01*
X169809523Y-115112380D02*
X169238095Y-115112380D01*
X169523809Y-115112380D02*
X169523809Y-114112380D01*
X169428571Y-114255238D01*
X169333333Y-114350476D01*
X169238095Y-114398095D01*
X170428571Y-114112380D02*
X170523809Y-114112380D01*
X170619047Y-114160000D01*
X170666666Y-114207619D01*
X170714285Y-114302857D01*
X170761904Y-114493333D01*
X170761904Y-114731428D01*
X170714285Y-114921904D01*
X170666666Y-115017142D01*
X170619047Y-115064761D01*
X170523809Y-115112380D01*
X170428571Y-115112380D01*
X170333333Y-115064761D01*
X170285714Y-115017142D01*
X170238095Y-114921904D01*
X170190476Y-114731428D01*
X170190476Y-114493333D01*
X170238095Y-114302857D01*
X170285714Y-114207619D01*
X170333333Y-114160000D01*
X170428571Y-114112380D01*
%TO.C,D3*%
X147452380Y-102738095D02*
X146452380Y-102738095D01*
X146452380Y-102500000D01*
X146500000Y-102357142D01*
X146595238Y-102261904D01*
X146690476Y-102214285D01*
X146880952Y-102166666D01*
X147023809Y-102166666D01*
X147214285Y-102214285D01*
X147309523Y-102261904D01*
X147404761Y-102357142D01*
X147452380Y-102500000D01*
X147452380Y-102738095D01*
X146452380Y-101833333D02*
X146452380Y-101214285D01*
X146833333Y-101547619D01*
X146833333Y-101404761D01*
X146880952Y-101309523D01*
X146928571Y-101261904D01*
X147023809Y-101214285D01*
X147261904Y-101214285D01*
X147357142Y-101261904D01*
X147404761Y-101309523D01*
X147452380Y-101404761D01*
X147452380Y-101690476D01*
X147404761Y-101785714D01*
X147357142Y-101833333D01*
%TO.C,SW10*%
X183947619Y-122552380D02*
X183614285Y-122076190D01*
X183376190Y-122552380D02*
X183376190Y-121552380D01*
X183757142Y-121552380D01*
X183852380Y-121600000D01*
X183900000Y-121647619D01*
X183947619Y-121742857D01*
X183947619Y-121885714D01*
X183900000Y-121980952D01*
X183852380Y-122028571D01*
X183757142Y-122076190D01*
X183376190Y-122076190D01*
X184376190Y-122028571D02*
X184709523Y-122028571D01*
X184852380Y-122552380D02*
X184376190Y-122552380D01*
X184376190Y-121552380D01*
X184852380Y-121552380D01*
X185233333Y-122504761D02*
X185376190Y-122552380D01*
X185614285Y-122552380D01*
X185709523Y-122504761D01*
X185757142Y-122457142D01*
X185804761Y-122361904D01*
X185804761Y-122266666D01*
X185757142Y-122171428D01*
X185709523Y-122123809D01*
X185614285Y-122076190D01*
X185423809Y-122028571D01*
X185328571Y-121980952D01*
X185280952Y-121933333D01*
X185233333Y-121838095D01*
X185233333Y-121742857D01*
X185280952Y-121647619D01*
X185328571Y-121600000D01*
X185423809Y-121552380D01*
X185661904Y-121552380D01*
X185804761Y-121600000D01*
X186233333Y-122028571D02*
X186566666Y-122028571D01*
X186709523Y-122552380D02*
X186233333Y-122552380D01*
X186233333Y-121552380D01*
X186709523Y-121552380D01*
X186995238Y-121552380D02*
X187566666Y-121552380D01*
X187280952Y-122552380D02*
X187280952Y-121552380D01*
%TO.C,R4*%
X179582380Y-107516666D02*
X179106190Y-107850000D01*
X179582380Y-108088095D02*
X178582380Y-108088095D01*
X178582380Y-107707142D01*
X178630000Y-107611904D01*
X178677619Y-107564285D01*
X178772857Y-107516666D01*
X178915714Y-107516666D01*
X179010952Y-107564285D01*
X179058571Y-107611904D01*
X179106190Y-107707142D01*
X179106190Y-108088095D01*
X178915714Y-106659523D02*
X179582380Y-106659523D01*
X178534761Y-106897619D02*
X179249047Y-107135714D01*
X179249047Y-106516666D01*
%TO.C,D6*%
X128552380Y-121938095D02*
X127552380Y-121938095D01*
X127552380Y-121700000D01*
X127600000Y-121557142D01*
X127695238Y-121461904D01*
X127790476Y-121414285D01*
X127980952Y-121366666D01*
X128123809Y-121366666D01*
X128314285Y-121414285D01*
X128409523Y-121461904D01*
X128504761Y-121557142D01*
X128552380Y-121700000D01*
X128552380Y-121938095D01*
X127552380Y-120509523D02*
X127552380Y-120700000D01*
X127600000Y-120795238D01*
X127647619Y-120842857D01*
X127790476Y-120938095D01*
X127980952Y-120985714D01*
X128361904Y-120985714D01*
X128457142Y-120938095D01*
X128504761Y-120890476D01*
X128552380Y-120795238D01*
X128552380Y-120604761D01*
X128504761Y-120509523D01*
X128457142Y-120461904D01*
X128361904Y-120414285D01*
X128123809Y-120414285D01*
X128028571Y-120461904D01*
X127980952Y-120509523D01*
X127933333Y-120604761D01*
X127933333Y-120795238D01*
X127980952Y-120890476D01*
X128028571Y-120938095D01*
X128123809Y-120985714D01*
%TO.C,C3*%
X177347142Y-107466666D02*
X177394761Y-107514285D01*
X177442380Y-107657142D01*
X177442380Y-107752380D01*
X177394761Y-107895238D01*
X177299523Y-107990476D01*
X177204285Y-108038095D01*
X177013809Y-108085714D01*
X176870952Y-108085714D01*
X176680476Y-108038095D01*
X176585238Y-107990476D01*
X176490000Y-107895238D01*
X176442380Y-107752380D01*
X176442380Y-107657142D01*
X176490000Y-107514285D01*
X176537619Y-107466666D01*
X176442380Y-107133333D02*
X176442380Y-106514285D01*
X176823333Y-106847619D01*
X176823333Y-106704761D01*
X176870952Y-106609523D01*
X176918571Y-106561904D01*
X177013809Y-106514285D01*
X177251904Y-106514285D01*
X177347142Y-106561904D01*
X177394761Y-106609523D01*
X177442380Y-106704761D01*
X177442380Y-106990476D01*
X177394761Y-107085714D01*
X177347142Y-107133333D01*
%TO.C,D4*%
X166652380Y-102738095D02*
X165652380Y-102738095D01*
X165652380Y-102500000D01*
X165700000Y-102357142D01*
X165795238Y-102261904D01*
X165890476Y-102214285D01*
X166080952Y-102166666D01*
X166223809Y-102166666D01*
X166414285Y-102214285D01*
X166509523Y-102261904D01*
X166604761Y-102357142D01*
X166652380Y-102500000D01*
X166652380Y-102738095D01*
X165985714Y-101309523D02*
X166652380Y-101309523D01*
X165604761Y-101547619D02*
X166319047Y-101785714D01*
X166319047Y-101166666D01*
%TO.C,C13*%
X182697142Y-108342857D02*
X182744761Y-108390476D01*
X182792380Y-108533333D01*
X182792380Y-108628571D01*
X182744761Y-108771428D01*
X182649523Y-108866666D01*
X182554285Y-108914285D01*
X182363809Y-108961904D01*
X182220952Y-108961904D01*
X182030476Y-108914285D01*
X181935238Y-108866666D01*
X181840000Y-108771428D01*
X181792380Y-108628571D01*
X181792380Y-108533333D01*
X181840000Y-108390476D01*
X181887619Y-108342857D01*
X182792380Y-107390476D02*
X182792380Y-107961904D01*
X182792380Y-107676190D02*
X181792380Y-107676190D01*
X181935238Y-107771428D01*
X182030476Y-107866666D01*
X182078095Y-107961904D01*
X181792380Y-107057142D02*
X181792380Y-106438095D01*
X182173333Y-106771428D01*
X182173333Y-106628571D01*
X182220952Y-106533333D01*
X182268571Y-106485714D01*
X182363809Y-106438095D01*
X182601904Y-106438095D01*
X182697142Y-106485714D01*
X182744761Y-106533333D01*
X182792380Y-106628571D01*
X182792380Y-106914285D01*
X182744761Y-107009523D01*
X182697142Y-107057142D01*
%TO.C,Y1*%
X177973809Y-124976190D02*
X177973809Y-125452380D01*
X177640476Y-124452380D02*
X177973809Y-124976190D01*
X178307142Y-124452380D01*
X179164285Y-125452380D02*
X178592857Y-125452380D01*
X178878571Y-125452380D02*
X178878571Y-124452380D01*
X178783333Y-124595238D01*
X178688095Y-124690476D01*
X178592857Y-124738095D01*
%TO.C,SW2*%
X113216666Y-105904761D02*
X113359523Y-105952380D01*
X113597619Y-105952380D01*
X113692857Y-105904761D01*
X113740476Y-105857142D01*
X113788095Y-105761904D01*
X113788095Y-105666666D01*
X113740476Y-105571428D01*
X113692857Y-105523809D01*
X113597619Y-105476190D01*
X113407142Y-105428571D01*
X113311904Y-105380952D01*
X113264285Y-105333333D01*
X113216666Y-105238095D01*
X113216666Y-105142857D01*
X113264285Y-105047619D01*
X113311904Y-105000000D01*
X113407142Y-104952380D01*
X113645238Y-104952380D01*
X113788095Y-105000000D01*
X114121428Y-104952380D02*
X114359523Y-105952380D01*
X114550000Y-105238095D01*
X114740476Y-105952380D01*
X114978571Y-104952380D01*
X115311904Y-105047619D02*
X115359523Y-105000000D01*
X115454761Y-104952380D01*
X115692857Y-104952380D01*
X115788095Y-105000000D01*
X115835714Y-105047619D01*
X115883333Y-105142857D01*
X115883333Y-105238095D01*
X115835714Y-105380952D01*
X115264285Y-105952380D01*
X115883333Y-105952380D01*
%TO.C,SW1*%
X94166666Y-105904761D02*
X94309523Y-105952380D01*
X94547619Y-105952380D01*
X94642857Y-105904761D01*
X94690476Y-105857142D01*
X94738095Y-105761904D01*
X94738095Y-105666666D01*
X94690476Y-105571428D01*
X94642857Y-105523809D01*
X94547619Y-105476190D01*
X94357142Y-105428571D01*
X94261904Y-105380952D01*
X94214285Y-105333333D01*
X94166666Y-105238095D01*
X94166666Y-105142857D01*
X94214285Y-105047619D01*
X94261904Y-105000000D01*
X94357142Y-104952380D01*
X94595238Y-104952380D01*
X94738095Y-105000000D01*
X95071428Y-104952380D02*
X95309523Y-105952380D01*
X95500000Y-105238095D01*
X95690476Y-105952380D01*
X95928571Y-104952380D01*
X96833333Y-105952380D02*
X96261904Y-105952380D01*
X96547619Y-105952380D02*
X96547619Y-104952380D01*
X96452380Y-105095238D01*
X96357142Y-105190476D01*
X96261904Y-105238095D01*
%TO.C,R3*%
X177572380Y-101816666D02*
X177096190Y-102150000D01*
X177572380Y-102388095D02*
X176572380Y-102388095D01*
X176572380Y-102007142D01*
X176620000Y-101911904D01*
X176667619Y-101864285D01*
X176762857Y-101816666D01*
X176905714Y-101816666D01*
X177000952Y-101864285D01*
X177048571Y-101911904D01*
X177096190Y-102007142D01*
X177096190Y-102388095D01*
X176572380Y-101483333D02*
X176572380Y-100864285D01*
X176953333Y-101197619D01*
X176953333Y-101054761D01*
X177000952Y-100959523D01*
X177048571Y-100911904D01*
X177143809Y-100864285D01*
X177381904Y-100864285D01*
X177477142Y-100911904D01*
X177524761Y-100959523D01*
X177572380Y-101054761D01*
X177572380Y-101340476D01*
X177524761Y-101435714D01*
X177477142Y-101483333D01*
%TO.C,J2*%
X196866666Y-104502380D02*
X196866666Y-105216666D01*
X196819047Y-105359523D01*
X196723809Y-105454761D01*
X196580952Y-105502380D01*
X196485714Y-105502380D01*
X197295238Y-104597619D02*
X197342857Y-104550000D01*
X197438095Y-104502380D01*
X197676190Y-104502380D01*
X197771428Y-104550000D01*
X197819047Y-104597619D01*
X197866666Y-104692857D01*
X197866666Y-104788095D01*
X197819047Y-104930952D01*
X197247619Y-105502380D01*
X197866666Y-105502380D01*
%TO.C,SW7*%
X132266666Y-124954761D02*
X132409523Y-125002380D01*
X132647619Y-125002380D01*
X132742857Y-124954761D01*
X132790476Y-124907142D01*
X132838095Y-124811904D01*
X132838095Y-124716666D01*
X132790476Y-124621428D01*
X132742857Y-124573809D01*
X132647619Y-124526190D01*
X132457142Y-124478571D01*
X132361904Y-124430952D01*
X132314285Y-124383333D01*
X132266666Y-124288095D01*
X132266666Y-124192857D01*
X132314285Y-124097619D01*
X132361904Y-124050000D01*
X132457142Y-124002380D01*
X132695238Y-124002380D01*
X132838095Y-124050000D01*
X133171428Y-124002380D02*
X133409523Y-125002380D01*
X133600000Y-124288095D01*
X133790476Y-125002380D01*
X134028571Y-124002380D01*
X134314285Y-124002380D02*
X134980952Y-124002380D01*
X134552380Y-125002380D01*
%TO.C,C12*%
X181497142Y-108392857D02*
X181544761Y-108440476D01*
X181592380Y-108583333D01*
X181592380Y-108678571D01*
X181544761Y-108821428D01*
X181449523Y-108916666D01*
X181354285Y-108964285D01*
X181163809Y-109011904D01*
X181020952Y-109011904D01*
X180830476Y-108964285D01*
X180735238Y-108916666D01*
X180640000Y-108821428D01*
X180592380Y-108678571D01*
X180592380Y-108583333D01*
X180640000Y-108440476D01*
X180687619Y-108392857D01*
X181592380Y-107440476D02*
X181592380Y-108011904D01*
X181592380Y-107726190D02*
X180592380Y-107726190D01*
X180735238Y-107821428D01*
X180830476Y-107916666D01*
X180878095Y-108011904D01*
X180687619Y-107059523D02*
X180640000Y-107011904D01*
X180592380Y-106916666D01*
X180592380Y-106678571D01*
X180640000Y-106583333D01*
X180687619Y-106535714D01*
X180782857Y-106488095D01*
X180878095Y-106488095D01*
X181020952Y-106535714D01*
X181592380Y-107107142D01*
X181592380Y-106488095D01*
D12*
%TO.C,J4*%
X199450000Y-106650000D02*
X199450000Y-108650000D01*
X195350000Y-106650000D02*
X199450000Y-106650000D01*
X199450000Y-108650000D02*
X195350000Y-108650000D01*
X195350000Y-108650000D02*
X195350000Y-106650000D01*
%TO.C,U3*%
X169650000Y-108510000D02*
X175650000Y-108510000D01*
X172650000Y-103290000D02*
X175650000Y-103290000D01*
D10*
%TO.C,SW5*%
X106500000Y-114550000D02*
X106500000Y-112550000D01*
X93500000Y-125550000D02*
X95500000Y-125550000D01*
X95500000Y-112550000D02*
X93500000Y-112550000D01*
X106500000Y-112550000D02*
X104500000Y-112550000D01*
X93500000Y-125550000D02*
X93500000Y-123550000D01*
X106500000Y-125550000D02*
X106500000Y-123550000D01*
X93500000Y-112550000D02*
X93500000Y-114550000D01*
X104500000Y-125550000D02*
X106500000Y-125550000D01*
D12*
%TO.C,R1*%
X184746359Y-92880000D02*
X185053641Y-92880000D01*
X184746359Y-92120000D02*
X185053641Y-92120000D01*
%TO.C,J1*%
X183200000Y-96200000D02*
X183200000Y-94200000D01*
X183200000Y-90400000D02*
X173800000Y-90400000D01*
X173800000Y-92300000D02*
X173800000Y-90400000D01*
X173800000Y-96200000D02*
X173800000Y-94200000D01*
X183200000Y-92300000D02*
X183200000Y-90400000D01*
%TO.C,SD1*%
X191550000Y-104800000D02*
X191550000Y-100900000D01*
X189550000Y-104800000D02*
X189550000Y-100900000D01*
X189550000Y-104800000D02*
X191550000Y-104800000D01*
D10*
%TO.C,SW8*%
X163650000Y-114550000D02*
X163650000Y-112550000D01*
X150650000Y-125550000D02*
X150650000Y-123550000D01*
X152650000Y-112550000D02*
X150650000Y-112550000D01*
X150650000Y-125550000D02*
X152650000Y-125550000D01*
X163650000Y-112550000D02*
X161650000Y-112550000D01*
X150650000Y-112550000D02*
X150650000Y-114550000D01*
X161650000Y-125550000D02*
X163650000Y-125550000D01*
X163650000Y-125550000D02*
X163650000Y-123550000D01*
D12*
%TO.C,F1*%
X186740000Y-102337221D02*
X186740000Y-102662779D01*
X187760000Y-102337221D02*
X187760000Y-102662779D01*
D11*
%TO.C,STLED1*%
X186040000Y-91300000D02*
G75*
G03*
X186040000Y-91300000I-50000J0D01*
G01*
D12*
%TO.C,C1*%
X191607836Y-114140000D02*
X191392164Y-114140000D01*
X191607836Y-114860000D02*
X191392164Y-114860000D01*
%TO.C,D7*%
X146100000Y-126700000D02*
X146100000Y-122800000D01*
X146100000Y-126700000D02*
X148100000Y-126700000D01*
X148100000Y-126700000D02*
X148100000Y-122800000D01*
%TO.C,D1*%
X108000000Y-107650000D02*
X110000000Y-107650000D01*
X108000000Y-107650000D02*
X108000000Y-103750000D01*
X110000000Y-107650000D02*
X110000000Y-103750000D01*
%TO.C,D8*%
X167100000Y-126750000D02*
X167100000Y-122850000D01*
X165100000Y-126750000D02*
X165100000Y-122850000D01*
X165100000Y-126750000D02*
X167100000Y-126750000D01*
%TO.C,R7*%
X170403641Y-101220000D02*
X170096359Y-101220000D01*
X170403641Y-101980000D02*
X170096359Y-101980000D01*
%TO.C,U1*%
X192310000Y-107540000D02*
X191050000Y-107540000D01*
X192310000Y-111300000D02*
X192310000Y-107540000D01*
X185490000Y-113550000D02*
X185490000Y-107540000D01*
X185490000Y-107540000D02*
X186750000Y-107540000D01*
%TO.C,R5*%
X180530000Y-105653641D02*
X180530000Y-105346359D01*
X179770000Y-105653641D02*
X179770000Y-105346359D01*
%TO.C,SW9*%
X173080000Y-127800000D02*
X173200000Y-127800000D01*
X169920000Y-123400000D02*
X169800000Y-123400000D01*
X172070000Y-123400000D02*
X170930000Y-123400000D01*
X173200000Y-123400000D02*
X173080000Y-123400000D01*
X173200000Y-127800000D02*
X173200000Y-123400000D01*
X169800000Y-123400000D02*
X169800000Y-127800000D01*
X169800000Y-127800000D02*
X169920000Y-127800000D01*
X170930000Y-127800000D02*
X172070000Y-127800000D01*
%TO.C,C6*%
X183510000Y-105607836D02*
X183510000Y-105392164D01*
X182790000Y-105607836D02*
X182790000Y-105392164D01*
%TO.C,C15*%
X175157836Y-102960000D02*
X174942164Y-102960000D01*
X175157836Y-102240000D02*
X174942164Y-102240000D01*
D10*
%TO.C,SW4*%
X150650000Y-106500000D02*
X150650000Y-104500000D01*
X150650000Y-106500000D02*
X152650000Y-106500000D01*
X152650000Y-93500000D02*
X150650000Y-93500000D01*
X163650000Y-93500000D02*
X161650000Y-93500000D01*
X163650000Y-95500000D02*
X163650000Y-93500000D01*
X150650000Y-93500000D02*
X150650000Y-95500000D01*
X163650000Y-106500000D02*
X163650000Y-104500000D01*
X161650000Y-106500000D02*
X163650000Y-106500000D01*
D12*
%TO.C,C4*%
X182510000Y-122392164D02*
X182510000Y-122607836D01*
X181790000Y-122392164D02*
X181790000Y-122607836D01*
%TO.C,R6*%
X178653641Y-120370000D02*
X178346359Y-120370000D01*
X178653641Y-121130000D02*
X178346359Y-121130000D01*
%TO.C,R8*%
X170403641Y-102980000D02*
X170096359Y-102980000D01*
X170403641Y-102220000D02*
X170096359Y-102220000D01*
D10*
%TO.C,SW3*%
X133600000Y-93500000D02*
X131600000Y-93500000D01*
X144600000Y-106500000D02*
X144600000Y-104500000D01*
X131600000Y-93500000D02*
X131600000Y-95500000D01*
X142600000Y-106500000D02*
X144600000Y-106500000D01*
X131600000Y-106500000D02*
X131600000Y-104500000D01*
X131600000Y-106500000D02*
X133600000Y-106500000D01*
X144600000Y-93500000D02*
X142600000Y-93500000D01*
X144600000Y-95500000D02*
X144600000Y-93500000D01*
D12*
%TO.C,C7*%
X183790000Y-105607836D02*
X183790000Y-105392164D01*
X184510000Y-105607836D02*
X184510000Y-105392164D01*
%TO.C,C8*%
X186142164Y-114860000D02*
X186357836Y-114860000D01*
X186142164Y-114140000D02*
X186357836Y-114140000D01*
%TO.C,U2*%
X175490000Y-117210000D02*
X174840000Y-117210000D01*
X182060000Y-109990000D02*
X182060000Y-110640000D01*
X181410000Y-117210000D02*
X182060000Y-117210000D01*
X181410000Y-109990000D02*
X182060000Y-109990000D01*
X174840000Y-117210000D02*
X174840000Y-116560000D01*
X175490000Y-109990000D02*
X174840000Y-109990000D01*
X182060000Y-117210000D02*
X182060000Y-116560000D01*
%TO.C,D2*%
X127000000Y-107650000D02*
X127000000Y-103750000D01*
X127000000Y-107650000D02*
X129000000Y-107650000D01*
X129000000Y-107650000D02*
X129000000Y-103750000D01*
%TO.C,C11*%
X171957836Y-110640000D02*
X171742164Y-110640000D01*
X171957836Y-111360000D02*
X171742164Y-111360000D01*
%TO.C,C5*%
X177690000Y-105607836D02*
X177690000Y-105392164D01*
X178410000Y-105607836D02*
X178410000Y-105392164D01*
D10*
%TO.C,SW6*%
X125550000Y-125550000D02*
X125550000Y-123550000D01*
X123550000Y-125550000D02*
X125550000Y-125550000D01*
X112550000Y-112550000D02*
X112550000Y-114550000D01*
X125550000Y-114550000D02*
X125550000Y-112550000D01*
X125550000Y-112550000D02*
X123550000Y-112550000D01*
X112550000Y-125550000D02*
X112550000Y-123550000D01*
X112550000Y-125550000D02*
X114550000Y-125550000D01*
X114550000Y-112550000D02*
X112550000Y-112550000D01*
D12*
%TO.C,C14*%
X175157836Y-101240000D02*
X174942164Y-101240000D01*
X175157836Y-101960000D02*
X174942164Y-101960000D01*
%TO.C,C9*%
X180690000Y-122392164D02*
X180690000Y-122607836D01*
X181410000Y-122392164D02*
X181410000Y-122607836D01*
%TO.C,D5*%
X108000000Y-126750000D02*
X110000000Y-126750000D01*
X108000000Y-126750000D02*
X108000000Y-122850000D01*
X110000000Y-126750000D02*
X110000000Y-122850000D01*
%TO.C,R2*%
X180770000Y-103346359D02*
X180770000Y-103653641D01*
X181530000Y-103346359D02*
X181530000Y-103653641D01*
%TO.C,C2*%
X189107836Y-114860000D02*
X188892164Y-114860000D01*
X189107836Y-114140000D02*
X188892164Y-114140000D01*
%TO.C,C10*%
X171957836Y-114240000D02*
X171742164Y-114240000D01*
X171957836Y-114960000D02*
X171742164Y-114960000D01*
%TO.C,D3*%
X146000000Y-107650000D02*
X146000000Y-103750000D01*
X148000000Y-107650000D02*
X148000000Y-103750000D01*
X146000000Y-107650000D02*
X148000000Y-107650000D01*
%TO.C,SW10*%
X187100000Y-127800000D02*
X187100000Y-123400000D01*
X185970000Y-123400000D02*
X184830000Y-123400000D01*
X183700000Y-127800000D02*
X183820000Y-127800000D01*
X187100000Y-123400000D02*
X186980000Y-123400000D01*
X183700000Y-123400000D02*
X183700000Y-127800000D01*
X183820000Y-123400000D02*
X183700000Y-123400000D01*
X184830000Y-127800000D02*
X185970000Y-127800000D01*
X186980000Y-127800000D02*
X187100000Y-127800000D01*
%TO.C,J3*%
X195350000Y-112050000D02*
X195350000Y-110050000D01*
X199450000Y-112050000D02*
X195350000Y-112050000D01*
X199450000Y-110050000D02*
X199450000Y-112050000D01*
X195350000Y-110050000D02*
X199450000Y-110050000D01*
%TO.C,R4*%
X178670000Y-105653641D02*
X178670000Y-105346359D01*
X179430000Y-105653641D02*
X179430000Y-105346359D01*
%TO.C,D6*%
X127100000Y-126750000D02*
X129100000Y-126750000D01*
X127100000Y-126750000D02*
X127100000Y-122850000D01*
X129100000Y-126750000D02*
X129100000Y-122850000D01*
%TO.C,C3*%
X176690000Y-105607836D02*
X176690000Y-105392164D01*
X177410000Y-105607836D02*
X177410000Y-105392164D01*
%TO.C,D4*%
X167200000Y-107650000D02*
X167200000Y-103750000D01*
X165200000Y-107650000D02*
X167200000Y-107650000D01*
X165200000Y-107650000D02*
X165200000Y-103750000D01*
%TO.C,C13*%
X181790000Y-105607836D02*
X181790000Y-105392164D01*
X182510000Y-105607836D02*
X182510000Y-105392164D01*
%TO.C,Y1*%
X176450000Y-121400000D02*
X176450000Y-123400000D01*
X176650000Y-121400000D02*
X177650000Y-121400000D01*
X177650000Y-123800000D02*
X176650000Y-123800000D01*
X177650000Y-123800000D02*
X177650000Y-124200000D01*
X180250000Y-123800000D02*
X179450000Y-123800000D01*
X176650000Y-123400000D02*
X176650000Y-121400000D01*
X176650000Y-123400000D02*
X176650000Y-123800000D01*
X176450000Y-123400000D02*
X176450000Y-123800000D01*
X180250000Y-123400000D02*
X180250000Y-123800000D01*
X180250000Y-121400000D02*
X180250000Y-123400000D01*
X179450000Y-121400000D02*
X180250000Y-121400000D01*
D10*
%TO.C,SW2*%
X123550000Y-106500000D02*
X125550000Y-106500000D01*
X125550000Y-93500000D02*
X123550000Y-93500000D01*
X112550000Y-93500000D02*
X112550000Y-95500000D01*
X125550000Y-106500000D02*
X125550000Y-104500000D01*
X112550000Y-106500000D02*
X114550000Y-106500000D01*
X114550000Y-93500000D02*
X112550000Y-93500000D01*
X112550000Y-106500000D02*
X112550000Y-104500000D01*
X125550000Y-95500000D02*
X125550000Y-93500000D01*
%TO.C,SW1*%
X95500000Y-93500000D02*
X93500000Y-93500000D01*
X106500000Y-95500000D02*
X106500000Y-93500000D01*
X106500000Y-93500000D02*
X104500000Y-93500000D01*
X93500000Y-93500000D02*
X93500000Y-95500000D01*
X104500000Y-106500000D02*
X106500000Y-106500000D01*
X93500000Y-106500000D02*
X93500000Y-104500000D01*
X93500000Y-106500000D02*
X95500000Y-106500000D01*
X106500000Y-106500000D02*
X106500000Y-104500000D01*
D12*
%TO.C,R3*%
X176670000Y-103346359D02*
X176670000Y-103653641D01*
X177430000Y-103346359D02*
X177430000Y-103653641D01*
D10*
%TO.C,J2*%
X194200000Y-92350000D02*
X194700000Y-92350000D01*
X200200000Y-92350000D02*
X199700000Y-92350000D01*
X194700000Y-92350000D02*
X194700000Y-90450000D01*
X200200000Y-104350000D02*
X194200000Y-104350000D01*
X199700000Y-92350000D02*
X199700000Y-90450000D01*
X194700000Y-90450000D02*
X199700000Y-90450000D01*
X200200000Y-92350000D02*
X200200000Y-104350000D01*
X194200000Y-104350000D02*
X194200000Y-92350000D01*
%TO.C,SW7*%
X133600000Y-112550000D02*
X131600000Y-112550000D01*
X131600000Y-125550000D02*
X133600000Y-125550000D01*
X144600000Y-114550000D02*
X144600000Y-112550000D01*
X142600000Y-125550000D02*
X144600000Y-125550000D01*
X144600000Y-125550000D02*
X144600000Y-123550000D01*
X144600000Y-112550000D02*
X142600000Y-112550000D01*
X131600000Y-112550000D02*
X131600000Y-114550000D01*
X131600000Y-125550000D02*
X131600000Y-123550000D01*
D12*
%TO.C,C12*%
X180790000Y-105607836D02*
X180790000Y-105392164D01*
X181510000Y-105607836D02*
X181510000Y-105392164D01*
%TD*%
D13*
%TO.C,J2*%
X197200000Y-100850000D03*
X197200000Y-93850000D03*
%TD*%
M02*
