M48
; DRILL file {KiCad (6.0.9-0)} date 
; FORMAT={-:-/ absolute / metric / decimal}
; #@! TF.CreationDate,2022-12-20T20:03:54+09:00
; #@! TF.GenerationSoftware,Kicad,Pcbnew,(6.0.9-0)
; #@! TF.FileFunction,Plated,1,2,PTH
FMAT,2
METRIC
; #@! TA.AperFunction,Plated,PTH,ViaDrill
T1C0.350
; #@! TA.AperFunction,Plated,PTH,ViaDrill
T2C0.400
; #@! TA.AperFunction,Plated,PTH,ComponentDrill
T3C0.500
; #@! TA.AperFunction,Plated,PTH,ComponentDrill
T4C0.600
; #@! TA.AperFunction,Plated,PTH,ComponentDrill
T5C1.500
%
G90
G05
T1
X169.25Y-108.392
X177.351Y-112.391
X177.351Y-113.591
X177.351Y-114.791
X178.002Y-107.991
X178.451Y-112.391
X178.451Y-113.591
X178.451Y-114.791
X179.151Y-115.69
X179.651Y-112.391
X179.651Y-113.591
X179.651Y-114.791
X179.951Y-111.191
T2
X166.2Y-108.4
X168.55Y-103.22
X169.2Y-125.0
X171.2Y-116.6
X171.3Y-112.2
X171.9Y-102.6
X172.0Y-117.7
X172.201Y-115.6
X172.907Y-112.342
X173.678Y-112.978
X173.859Y-125.614
X174.5Y-118.2
X174.566Y-126.321
X174.6Y-100.749
X175.273Y-127.028
X175.979Y-127.734
X176.551Y-102.091
X177.1Y-119.6
X178.05Y-100.3
X178.076Y-104.275
X178.4Y-126.4
X180.845Y-119.755
X181.931Y-124.131
X182.0Y-125.15
X182.6Y-118.2
X182.9Y-109.1
X184.95Y-94.9
X184.95Y-104.1
X187.6Y-114.6
X193.95Y-110.05
X196.1Y-112.85
X197.4Y-109.35
X198.7Y-112.85
T5
X96.19Y-97.46
X96.19Y-116.51
X102.54Y-94.92
X102.54Y-113.97
X115.24Y-97.46
X115.24Y-116.51
X121.59Y-94.92
X121.59Y-113.97
X134.29Y-97.46
X134.29Y-116.51
X140.64Y-94.92
X140.64Y-113.97
X153.34Y-97.46
X153.34Y-116.51
X159.69Y-94.92
X159.69Y-113.97
T3
X195.1Y-103.6G85X195.1Y-104.7
G05
X199.3Y-95.1G85X199.3Y-96.2
G05
X199.3Y-98.1G85X199.3Y-99.2
G05
X199.3Y-102.1G85X199.3Y-103.2
G05
T4
X174.18Y-93.55G85X174.18Y-92.95
G05
X174.18Y-97.98G85X174.18Y-96.88
G05
X182.82Y-93.55G85X182.82Y-92.95
G05
X182.82Y-97.98G85X182.82Y-96.88
G05
T0
M30
