%TF.GenerationSoftware,KiCad,Pcbnew,(6.0.9-0)*%
%TF.CreationDate,2022-12-20T20:03:51+09:00*%
%TF.ProjectId,RP2040_8key,52503230-3430-45f3-986b-65792e6b6963,rev?*%
%TF.SameCoordinates,Original*%
%TF.FileFunction,Paste,Top*%
%TF.FilePolarity,Positive*%
%FSLAX46Y46*%
G04 Gerber Fmt 4.6, Leading zero omitted, Abs format (unit mm)*
G04 Created by KiCad (PCBNEW (6.0.9-0)) date 2022-12-20 20:03:51*
%MOMM*%
%LPD*%
G01*
G04 APERTURE LIST*
G04 Aperture macros list*
%AMRoundRect*
0 Rectangle with rounded corners*
0 $1 Rounding radius*
0 $2 $3 $4 $5 $6 $7 $8 $9 X,Y pos of 4 corners*
0 Add a 4 corners polygon primitive as box body*
4,1,4,$2,$3,$4,$5,$6,$7,$8,$9,$2,$3,0*
0 Add four circle primitives for the rounded corners*
1,1,$1+$1,$2,$3*
1,1,$1+$1,$4,$5*
1,1,$1+$1,$6,$7*
1,1,$1+$1,$8,$9*
0 Add four rect primitives between the rounded corners*
20,1,$1+$1,$2,$3,$4,$5,0*
20,1,$1+$1,$4,$5,$6,$7,0*
20,1,$1+$1,$6,$7,$8,$9,0*
20,1,$1+$1,$8,$9,$2,$3,0*%
G04 Aperture macros list end*
%ADD10RoundRect,0.125000X-0.250000X-0.125000X0.250000X-0.125000X0.250000X0.125000X-0.250000X0.125000X0*%
%ADD11RoundRect,0.250000X-0.435000X-0.615000X0.435000X-0.615000X0.435000X0.615000X-0.435000X0.615000X0*%
%ADD12RoundRect,0.135000X-0.135000X-0.185000X0.135000X-0.185000X0.135000X0.185000X-0.135000X0.185000X0*%
%ADD13R,0.600000X1.450000*%
%ADD14R,0.300000X1.450000*%
%ADD15R,1.200000X0.900000*%
%ADD16RoundRect,0.218750X-0.256250X0.218750X-0.256250X-0.218750X0.256250X-0.218750X0.256250X0.218750X0*%
%ADD17RoundRect,0.147500X0.147500X0.172500X-0.147500X0.172500X-0.147500X-0.172500X0.147500X-0.172500X0*%
%ADD18RoundRect,0.140000X0.140000X0.170000X-0.140000X0.170000X-0.140000X-0.170000X0.140000X-0.170000X0*%
%ADD19RoundRect,0.135000X0.135000X0.185000X-0.135000X0.185000X-0.135000X-0.185000X0.135000X-0.185000X0*%
%ADD20R,3.800000X2.000000*%
%ADD21R,1.500000X2.000000*%
%ADD22RoundRect,0.135000X0.185000X-0.135000X0.185000X0.135000X-0.185000X0.135000X-0.185000X-0.135000X0*%
%ADD23R,0.650000X1.050000*%
%ADD24RoundRect,0.140000X0.170000X-0.140000X0.170000X0.140000X-0.170000X0.140000X-0.170000X-0.140000X0*%
%ADD25RoundRect,0.140000X-0.170000X0.140000X-0.170000X-0.140000X0.170000X-0.140000X0.170000X0.140000X0*%
%ADD26RoundRect,0.140000X-0.140000X-0.170000X0.140000X-0.170000X0.140000X0.170000X-0.140000X0.170000X0*%
%ADD27RoundRect,0.050000X-0.050000X-0.387500X0.050000X-0.387500X0.050000X0.387500X-0.050000X0.387500X0*%
%ADD28RoundRect,0.050000X-0.387500X-0.050000X0.387500X-0.050000X0.387500X0.050000X-0.387500X0.050000X0*%
%ADD29RoundRect,0.249999X-0.395001X-0.395001X0.395001X-0.395001X0.395001X0.395001X-0.395001X0.395001X0*%
%ADD30RoundRect,0.135000X-0.185000X0.135000X-0.185000X-0.135000X0.185000X-0.135000X0.185000X0.135000X0*%
%ADD31R,0.400000X1.900000*%
G04 APERTURE END LIST*
D10*
%TO.C,U3*%
X175350000Y-103995000D03*
X175350000Y-105265000D03*
X175350000Y-106535000D03*
X175350000Y-107805000D03*
X169950000Y-107805000D03*
X169950000Y-106535000D03*
X169950000Y-105265000D03*
X169950000Y-103995000D03*
D11*
X171800000Y-106975000D03*
X173500000Y-104825000D03*
X173500000Y-106975000D03*
X171800000Y-104825000D03*
%TD*%
D12*
%TO.C,R1*%
X185410000Y-92500000D03*
X184390000Y-92500000D03*
%TD*%
D13*
%TO.C,J1*%
X181750000Y-98345000D03*
X180950000Y-98345000D03*
D14*
X180250000Y-98345000D03*
X179250000Y-98345000D03*
X177750000Y-98345000D03*
X176750000Y-98345000D03*
D13*
X176050000Y-98345000D03*
X175250000Y-98345000D03*
X175250000Y-98345000D03*
X176050000Y-98345000D03*
D14*
X177250000Y-98345000D03*
X178250000Y-98345000D03*
X178750000Y-98345000D03*
X179750000Y-98345000D03*
D13*
X180950000Y-98345000D03*
X181750000Y-98345000D03*
%TD*%
D15*
%TO.C,SD1*%
X190550000Y-100900000D03*
X190550000Y-104200000D03*
%TD*%
D16*
%TO.C,F1*%
X187250000Y-103287500D03*
X187250000Y-101712500D03*
%TD*%
D17*
%TO.C,STLED1*%
X184415000Y-91300000D03*
X185385000Y-91300000D03*
%TD*%
D18*
%TO.C,C1*%
X191020000Y-114500000D03*
X191980000Y-114500000D03*
%TD*%
D15*
%TO.C,D7*%
X147100000Y-126100000D03*
X147100000Y-122800000D03*
%TD*%
%TO.C,D1*%
X109000000Y-107050000D03*
X109000000Y-103750000D03*
%TD*%
%TO.C,D8*%
X166100000Y-126150000D03*
X166100000Y-122850000D03*
%TD*%
D19*
%TO.C,R7*%
X169740000Y-101600000D03*
X170760000Y-101600000D03*
%TD*%
D20*
%TO.C,U1*%
X188900000Y-106300000D03*
D21*
X191200000Y-112600000D03*
X188900000Y-112600000D03*
X186600000Y-112600000D03*
%TD*%
D22*
%TO.C,R5*%
X180150000Y-104990000D03*
X180150000Y-106010000D03*
%TD*%
D23*
%TO.C,SW9*%
X172575000Y-127675000D03*
X172575000Y-123525000D03*
X170425000Y-127675000D03*
X170425000Y-123525000D03*
%TD*%
D24*
%TO.C,C6*%
X183150000Y-105020000D03*
X183150000Y-105980000D03*
%TD*%
D18*
%TO.C,C15*%
X174570000Y-102600000D03*
X175530000Y-102600000D03*
%TD*%
D25*
%TO.C,C4*%
X182150000Y-122980000D03*
X182150000Y-122020000D03*
%TD*%
D19*
%TO.C,R6*%
X177990000Y-120750000D03*
X179010000Y-120750000D03*
%TD*%
%TO.C,R8*%
X169740000Y-102600000D03*
X170760000Y-102600000D03*
%TD*%
D24*
%TO.C,C7*%
X184150000Y-105020000D03*
X184150000Y-105980000D03*
%TD*%
D26*
%TO.C,C8*%
X186730000Y-114500000D03*
X185770000Y-114500000D03*
%TD*%
D27*
%TO.C,U2*%
X175850000Y-110162500D03*
X176250000Y-110162500D03*
X176650000Y-110162500D03*
X177050000Y-110162500D03*
X177450000Y-110162500D03*
X177850000Y-110162500D03*
X178250000Y-110162500D03*
X178650000Y-110162500D03*
X179050000Y-110162500D03*
X179450000Y-110162500D03*
X179850000Y-110162500D03*
X180250000Y-110162500D03*
X180650000Y-110162500D03*
X181050000Y-110162500D03*
D28*
X181887500Y-111000000D03*
X181887500Y-111400000D03*
X181887500Y-111800000D03*
X181887500Y-112200000D03*
X181887500Y-112600000D03*
X181887500Y-113000000D03*
X181887500Y-113400000D03*
X181887500Y-113800000D03*
X181887500Y-114200000D03*
X181887500Y-114600000D03*
X181887500Y-115000000D03*
X181887500Y-115400000D03*
X181887500Y-115800000D03*
X181887500Y-116200000D03*
D27*
X181050000Y-117037500D03*
X180650000Y-117037500D03*
X180250000Y-117037500D03*
X179850000Y-117037500D03*
X179450000Y-117037500D03*
X179050000Y-117037500D03*
X178650000Y-117037500D03*
X178250000Y-117037500D03*
X177850000Y-117037500D03*
X177450000Y-117037500D03*
X177050000Y-117037500D03*
X176650000Y-117037500D03*
X176250000Y-117037500D03*
X175850000Y-117037500D03*
D28*
X175012500Y-116200000D03*
X175012500Y-115800000D03*
X175012500Y-115400000D03*
X175012500Y-115000000D03*
X175012500Y-114600000D03*
X175012500Y-114200000D03*
X175012500Y-113800000D03*
X175012500Y-113400000D03*
X175012500Y-113000000D03*
X175012500Y-112600000D03*
X175012500Y-112200000D03*
X175012500Y-111800000D03*
X175012500Y-111400000D03*
X175012500Y-111000000D03*
D29*
X177650000Y-114400000D03*
X179250000Y-114400000D03*
X177650000Y-112800000D03*
X179250000Y-112800000D03*
%TD*%
D15*
%TO.C,D2*%
X128000000Y-107050000D03*
X128000000Y-103750000D03*
%TD*%
D18*
%TO.C,C11*%
X171370000Y-111000000D03*
X172330000Y-111000000D03*
%TD*%
D24*
%TO.C,C5*%
X178050000Y-105020000D03*
X178050000Y-105980000D03*
%TD*%
D18*
%TO.C,C14*%
X174570000Y-101600000D03*
X175530000Y-101600000D03*
%TD*%
D25*
%TO.C,C9*%
X181050000Y-122980000D03*
X181050000Y-122020000D03*
%TD*%
D15*
%TO.C,D5*%
X109000000Y-126150000D03*
X109000000Y-122850000D03*
%TD*%
D30*
%TO.C,R2*%
X181150000Y-104010000D03*
X181150000Y-102990000D03*
%TD*%
D18*
%TO.C,C2*%
X188520000Y-114500000D03*
X189480000Y-114500000D03*
%TD*%
%TO.C,C10*%
X171370000Y-114600000D03*
X172330000Y-114600000D03*
%TD*%
D15*
%TO.C,D3*%
X147000000Y-107050000D03*
X147000000Y-103750000D03*
%TD*%
D23*
%TO.C,SW10*%
X186475000Y-123525000D03*
X186475000Y-127675000D03*
X184325000Y-127675000D03*
X184325000Y-123525000D03*
%TD*%
D22*
%TO.C,R4*%
X179050000Y-104990000D03*
X179050000Y-106010000D03*
%TD*%
D15*
%TO.C,D6*%
X128100000Y-126150000D03*
X128100000Y-122850000D03*
%TD*%
D24*
%TO.C,C3*%
X177050000Y-105020000D03*
X177050000Y-105980000D03*
%TD*%
D15*
%TO.C,D4*%
X166200000Y-103750000D03*
X166200000Y-107050000D03*
%TD*%
D24*
%TO.C,C13*%
X182150000Y-105020000D03*
X182150000Y-105980000D03*
%TD*%
D31*
%TO.C,Y1*%
X179650000Y-122600000D03*
X178450000Y-122600000D03*
X177250000Y-122600000D03*
%TD*%
D30*
%TO.C,R3*%
X177050000Y-104010000D03*
X177050000Y-102990000D03*
%TD*%
D24*
%TO.C,C12*%
X181150000Y-105020000D03*
X181150000Y-105980000D03*
%TD*%
M02*
