%TF.GenerationSoftware,KiCad,Pcbnew,7.0.7*%
%TF.CreationDate,2023-12-20T03:25:26+09:00*%
%TF.ProjectId,RP2040_8key,52503230-3430-45f3-986b-65792e6b6963,rev?*%
%TF.SameCoordinates,Original*%
%TF.FileFunction,Legend,Top*%
%TF.FilePolarity,Positive*%
%FSLAX46Y46*%
G04 Gerber Fmt 4.6, Leading zero omitted, Abs format (unit mm)*
G04 Created by KiCad (PCBNEW 7.0.7) date 2023-12-20 03:25:26*
%MOMM*%
%LPD*%
G01*
G04 APERTURE LIST*
%ADD10C,0.150000*%
%ADD11C,0.800000*%
%ADD12C,0.100000*%
%ADD13C,0.120000*%
%ADD14C,1.200000*%
G04 APERTURE END LIST*
D10*
X198200000Y-119150000D02*
X199150000Y-119150000D01*
X199150000Y-120450000D01*
X198200000Y-120450000D01*
X198200000Y-119150000D01*
G36*
X198200000Y-119150000D02*
G01*
X199150000Y-119150000D01*
X199150000Y-120450000D01*
X198200000Y-120450000D01*
X198200000Y-119150000D01*
G37*
X194500000Y-118700000D02*
X200250000Y-118700000D01*
X200250000Y-124000000D01*
X194500000Y-124000000D01*
X194500000Y-118700000D01*
D11*
X196000000Y-116350000D02*
X197400000Y-116350000D01*
X197400000Y-116550000D01*
X196000000Y-116550000D01*
X196000000Y-116350000D01*
D10*
X196850000Y-119150000D02*
X197800000Y-119150000D01*
X197800000Y-120450000D01*
X196850000Y-120450000D01*
X196850000Y-119150000D01*
G36*
X196850000Y-119150000D02*
G01*
X197800000Y-119150000D01*
X197800000Y-120450000D01*
X196850000Y-120450000D01*
X196850000Y-119150000D01*
G37*
X196850000Y-121100000D02*
X197800000Y-121100000D01*
X197800000Y-122400000D01*
X196850000Y-122400000D01*
X196850000Y-121100000D01*
G36*
X196850000Y-121100000D02*
G01*
X197800000Y-121100000D01*
X197800000Y-122400000D01*
X196850000Y-122400000D01*
X196850000Y-121100000D01*
G37*
D12*
X196650000Y-120900000D02*
X199350000Y-120900000D01*
X199350000Y-122600000D01*
X196650000Y-122600000D01*
X196650000Y-120900000D01*
D10*
X195500000Y-113850000D02*
X196450000Y-113850000D01*
X196450000Y-115150000D01*
X195500000Y-115150000D01*
X195500000Y-113850000D01*
G36*
X195500000Y-113850000D02*
G01*
X196450000Y-113850000D01*
X196450000Y-115150000D01*
X195500000Y-115150000D01*
X195500000Y-113850000D01*
G37*
D12*
X196650000Y-113650000D02*
X199350000Y-113650000D01*
X199350000Y-115350000D01*
X196650000Y-115350000D01*
X196650000Y-113650000D01*
D11*
X197300000Y-114400000D02*
X198700000Y-114400000D01*
X198700000Y-114600000D01*
X197300000Y-114600000D01*
X197300000Y-114400000D01*
D12*
X195300000Y-115600000D02*
X198000000Y-115600000D01*
X198000000Y-117300000D01*
X195300000Y-117300000D01*
X195300000Y-115600000D01*
D10*
X195500000Y-119150000D02*
X196450000Y-119150000D01*
X196450000Y-120450000D01*
X195500000Y-120450000D01*
X195500000Y-119150000D01*
G36*
X195500000Y-119150000D02*
G01*
X196450000Y-119150000D01*
X196450000Y-120450000D01*
X195500000Y-120450000D01*
X195500000Y-119150000D01*
G37*
X196850000Y-113850000D02*
X197800000Y-113850000D01*
X197800000Y-115150000D01*
X196850000Y-115150000D01*
X196850000Y-113850000D01*
G36*
X196850000Y-113850000D02*
G01*
X197800000Y-113850000D01*
X197800000Y-115150000D01*
X196850000Y-115150000D01*
X196850000Y-113850000D01*
G37*
X198200000Y-113850000D02*
X199150000Y-113850000D01*
X199150000Y-115150000D01*
X198200000Y-115150000D01*
X198200000Y-113850000D01*
G36*
X198200000Y-113850000D02*
G01*
X199150000Y-113850000D01*
X199150000Y-115150000D01*
X198200000Y-115150000D01*
X198200000Y-113850000D01*
G37*
X195550000Y-115800000D02*
X196500000Y-115800000D01*
X196500000Y-117100000D01*
X195550000Y-117100000D01*
X195550000Y-115800000D01*
G36*
X195550000Y-115800000D02*
G01*
X196500000Y-115800000D01*
X196500000Y-117100000D01*
X195550000Y-117100000D01*
X195550000Y-115800000D01*
G37*
X196850000Y-115800000D02*
X197800000Y-115800000D01*
X197800000Y-117100000D01*
X196850000Y-117100000D01*
X196850000Y-115800000D01*
G36*
X196850000Y-115800000D02*
G01*
X197800000Y-115800000D01*
X197800000Y-117100000D01*
X196850000Y-117100000D01*
X196850000Y-115800000D01*
G37*
X194500000Y-113400000D02*
X200250000Y-113400000D01*
X200250000Y-118700000D01*
X194500000Y-118700000D01*
X194500000Y-113400000D01*
D11*
X195900000Y-119700000D02*
X197300000Y-119700000D01*
X197300000Y-119900000D01*
X195900000Y-119900000D01*
X195900000Y-119700000D01*
X197250000Y-121650000D02*
X198650000Y-121650000D01*
X198650000Y-121850000D01*
X197250000Y-121850000D01*
X197250000Y-121650000D01*
D10*
X195500000Y-121100000D02*
X196450000Y-121100000D01*
X196450000Y-122400000D01*
X195500000Y-122400000D01*
X195500000Y-121100000D01*
G36*
X195500000Y-121100000D02*
G01*
X196450000Y-121100000D01*
X196450000Y-122400000D01*
X195500000Y-122400000D01*
X195500000Y-121100000D01*
G37*
X198250000Y-115800000D02*
X199200000Y-115800000D01*
X199200000Y-117100000D01*
X198250000Y-117100000D01*
X198250000Y-115800000D01*
G36*
X198250000Y-115800000D02*
G01*
X199200000Y-115800000D01*
X199200000Y-117100000D01*
X198250000Y-117100000D01*
X198250000Y-115800000D01*
G37*
X198200000Y-121100000D02*
X199150000Y-121100000D01*
X199150000Y-122400000D01*
X198200000Y-122400000D01*
X198200000Y-121100000D01*
G36*
X198200000Y-121100000D02*
G01*
X199150000Y-121100000D01*
X199150000Y-122400000D01*
X198200000Y-122400000D01*
X198200000Y-121100000D01*
G37*
D12*
X195300000Y-118950000D02*
X198000000Y-118950000D01*
X198000000Y-120650000D01*
X195300000Y-120650000D01*
X195300000Y-118950000D01*
X199621428Y-121414895D02*
X200078571Y-121414895D01*
X199849999Y-122214895D02*
X199849999Y-121414895D01*
X195069047Y-123526800D02*
X195183333Y-123564895D01*
X195183333Y-123564895D02*
X195373809Y-123564895D01*
X195373809Y-123564895D02*
X195450000Y-123526800D01*
X195450000Y-123526800D02*
X195488095Y-123488704D01*
X195488095Y-123488704D02*
X195526190Y-123412514D01*
X195526190Y-123412514D02*
X195526190Y-123336323D01*
X195526190Y-123336323D02*
X195488095Y-123260133D01*
X195488095Y-123260133D02*
X195450000Y-123222038D01*
X195450000Y-123222038D02*
X195373809Y-123183942D01*
X195373809Y-123183942D02*
X195221428Y-123145847D01*
X195221428Y-123145847D02*
X195145238Y-123107752D01*
X195145238Y-123107752D02*
X195107143Y-123069657D01*
X195107143Y-123069657D02*
X195069047Y-122993466D01*
X195069047Y-122993466D02*
X195069047Y-122917276D01*
X195069047Y-122917276D02*
X195107143Y-122841085D01*
X195107143Y-122841085D02*
X195145238Y-122802990D01*
X195145238Y-122802990D02*
X195221428Y-122764895D01*
X195221428Y-122764895D02*
X195411905Y-122764895D01*
X195411905Y-122764895D02*
X195526190Y-122802990D01*
X195983333Y-123564895D02*
X195907143Y-123526800D01*
X195907143Y-123526800D02*
X195869048Y-123450609D01*
X195869048Y-123450609D02*
X195869048Y-122764895D01*
X196630953Y-123564895D02*
X196630953Y-123145847D01*
X196630953Y-123145847D02*
X196592858Y-123069657D01*
X196592858Y-123069657D02*
X196516667Y-123031561D01*
X196516667Y-123031561D02*
X196364286Y-123031561D01*
X196364286Y-123031561D02*
X196288096Y-123069657D01*
X196630953Y-123526800D02*
X196554762Y-123564895D01*
X196554762Y-123564895D02*
X196364286Y-123564895D01*
X196364286Y-123564895D02*
X196288096Y-123526800D01*
X196288096Y-123526800D02*
X196250000Y-123450609D01*
X196250000Y-123450609D02*
X196250000Y-123374419D01*
X196250000Y-123374419D02*
X196288096Y-123298228D01*
X196288096Y-123298228D02*
X196364286Y-123260133D01*
X196364286Y-123260133D02*
X196554762Y-123260133D01*
X196554762Y-123260133D02*
X196630953Y-123222038D01*
X196935715Y-123031561D02*
X197126191Y-123564895D01*
X197126191Y-123564895D02*
X197316668Y-123031561D01*
X197926192Y-123526800D02*
X197850001Y-123564895D01*
X197850001Y-123564895D02*
X197697620Y-123564895D01*
X197697620Y-123564895D02*
X197621430Y-123526800D01*
X197621430Y-123526800D02*
X197583334Y-123450609D01*
X197583334Y-123450609D02*
X197583334Y-123145847D01*
X197583334Y-123145847D02*
X197621430Y-123069657D01*
X197621430Y-123069657D02*
X197697620Y-123031561D01*
X197697620Y-123031561D02*
X197850001Y-123031561D01*
X197850001Y-123031561D02*
X197926192Y-123069657D01*
X197926192Y-123069657D02*
X197964287Y-123145847D01*
X197964287Y-123145847D02*
X197964287Y-123222038D01*
X197964287Y-123222038D02*
X197583334Y-123298228D01*
X198535715Y-123869657D02*
X198497620Y-123831561D01*
X198497620Y-123831561D02*
X198421429Y-123717276D01*
X198421429Y-123717276D02*
X198383334Y-123641085D01*
X198383334Y-123641085D02*
X198345239Y-123526800D01*
X198345239Y-123526800D02*
X198307144Y-123336323D01*
X198307144Y-123336323D02*
X198307144Y-123183942D01*
X198307144Y-123183942D02*
X198345239Y-122993466D01*
X198345239Y-122993466D02*
X198383334Y-122879180D01*
X198383334Y-122879180D02*
X198421429Y-122802990D01*
X198421429Y-122802990D02*
X198497620Y-122688704D01*
X198497620Y-122688704D02*
X198535715Y-122650609D01*
X199297620Y-123564895D02*
X199030953Y-123183942D01*
X198840477Y-123564895D02*
X198840477Y-122764895D01*
X198840477Y-122764895D02*
X199145239Y-122764895D01*
X199145239Y-122764895D02*
X199221429Y-122802990D01*
X199221429Y-122802990D02*
X199259524Y-122841085D01*
X199259524Y-122841085D02*
X199297620Y-122917276D01*
X199297620Y-122917276D02*
X199297620Y-123031561D01*
X199297620Y-123031561D02*
X199259524Y-123107752D01*
X199259524Y-123107752D02*
X199221429Y-123145847D01*
X199221429Y-123145847D02*
X199145239Y-123183942D01*
X199145239Y-123183942D02*
X198840477Y-123183942D01*
X199564286Y-123869657D02*
X199602381Y-123831561D01*
X199602381Y-123831561D02*
X199678572Y-123717276D01*
X199678572Y-123717276D02*
X199716667Y-123641085D01*
X199716667Y-123641085D02*
X199754762Y-123526800D01*
X199754762Y-123526800D02*
X199792858Y-123336323D01*
X199792858Y-123336323D02*
X199792858Y-123183942D01*
X199792858Y-123183942D02*
X199754762Y-122993466D01*
X199754762Y-122993466D02*
X199716667Y-122879180D01*
X199716667Y-122879180D02*
X199678572Y-122802990D01*
X199678572Y-122802990D02*
X199602381Y-122688704D01*
X199602381Y-122688704D02*
X199564286Y-122650609D01*
X195147619Y-117014895D02*
X194880952Y-116633942D01*
X194690476Y-117014895D02*
X194690476Y-116214895D01*
X194690476Y-116214895D02*
X194995238Y-116214895D01*
X194995238Y-116214895D02*
X195071428Y-116252990D01*
X195071428Y-116252990D02*
X195109523Y-116291085D01*
X195109523Y-116291085D02*
X195147619Y-116367276D01*
X195147619Y-116367276D02*
X195147619Y-116481561D01*
X195147619Y-116481561D02*
X195109523Y-116557752D01*
X195109523Y-116557752D02*
X195071428Y-116595847D01*
X195071428Y-116595847D02*
X194995238Y-116633942D01*
X194995238Y-116633942D02*
X194690476Y-116633942D01*
X194821429Y-118264895D02*
X194821429Y-117464895D01*
X194821429Y-117464895D02*
X195088095Y-118036323D01*
X195088095Y-118036323D02*
X195354762Y-117464895D01*
X195354762Y-117464895D02*
X195354762Y-118264895D01*
X196078572Y-118264895D02*
X196078572Y-117845847D01*
X196078572Y-117845847D02*
X196040477Y-117769657D01*
X196040477Y-117769657D02*
X195964286Y-117731561D01*
X195964286Y-117731561D02*
X195811905Y-117731561D01*
X195811905Y-117731561D02*
X195735715Y-117769657D01*
X196078572Y-118226800D02*
X196002381Y-118264895D01*
X196002381Y-118264895D02*
X195811905Y-118264895D01*
X195811905Y-118264895D02*
X195735715Y-118226800D01*
X195735715Y-118226800D02*
X195697619Y-118150609D01*
X195697619Y-118150609D02*
X195697619Y-118074419D01*
X195697619Y-118074419D02*
X195735715Y-117998228D01*
X195735715Y-117998228D02*
X195811905Y-117960133D01*
X195811905Y-117960133D02*
X196002381Y-117960133D01*
X196002381Y-117960133D02*
X196078572Y-117922038D01*
X196421429Y-118226800D02*
X196497620Y-118264895D01*
X196497620Y-118264895D02*
X196650001Y-118264895D01*
X196650001Y-118264895D02*
X196726191Y-118226800D01*
X196726191Y-118226800D02*
X196764287Y-118150609D01*
X196764287Y-118150609D02*
X196764287Y-118112514D01*
X196764287Y-118112514D02*
X196726191Y-118036323D01*
X196726191Y-118036323D02*
X196650001Y-117998228D01*
X196650001Y-117998228D02*
X196535715Y-117998228D01*
X196535715Y-117998228D02*
X196459525Y-117960133D01*
X196459525Y-117960133D02*
X196421429Y-117883942D01*
X196421429Y-117883942D02*
X196421429Y-117845847D01*
X196421429Y-117845847D02*
X196459525Y-117769657D01*
X196459525Y-117769657D02*
X196535715Y-117731561D01*
X196535715Y-117731561D02*
X196650001Y-117731561D01*
X196650001Y-117731561D02*
X196726191Y-117769657D01*
X196992858Y-117731561D02*
X197297620Y-117731561D01*
X197107144Y-117464895D02*
X197107144Y-118150609D01*
X197107144Y-118150609D02*
X197145239Y-118226800D01*
X197145239Y-118226800D02*
X197221429Y-118264895D01*
X197221429Y-118264895D02*
X197297620Y-118264895D01*
X197869049Y-118226800D02*
X197792858Y-118264895D01*
X197792858Y-118264895D02*
X197640477Y-118264895D01*
X197640477Y-118264895D02*
X197564287Y-118226800D01*
X197564287Y-118226800D02*
X197526191Y-118150609D01*
X197526191Y-118150609D02*
X197526191Y-117845847D01*
X197526191Y-117845847D02*
X197564287Y-117769657D01*
X197564287Y-117769657D02*
X197640477Y-117731561D01*
X197640477Y-117731561D02*
X197792858Y-117731561D01*
X197792858Y-117731561D02*
X197869049Y-117769657D01*
X197869049Y-117769657D02*
X197907144Y-117845847D01*
X197907144Y-117845847D02*
X197907144Y-117922038D01*
X197907144Y-117922038D02*
X197526191Y-117998228D01*
X198250001Y-118264895D02*
X198250001Y-117731561D01*
X198250001Y-117883942D02*
X198288096Y-117807752D01*
X198288096Y-117807752D02*
X198326191Y-117769657D01*
X198326191Y-117769657D02*
X198402382Y-117731561D01*
X198402382Y-117731561D02*
X198478572Y-117731561D01*
X198973810Y-118569657D02*
X198935715Y-118531561D01*
X198935715Y-118531561D02*
X198859524Y-118417276D01*
X198859524Y-118417276D02*
X198821429Y-118341085D01*
X198821429Y-118341085D02*
X198783334Y-118226800D01*
X198783334Y-118226800D02*
X198745239Y-118036323D01*
X198745239Y-118036323D02*
X198745239Y-117883942D01*
X198745239Y-117883942D02*
X198783334Y-117693466D01*
X198783334Y-117693466D02*
X198821429Y-117579180D01*
X198821429Y-117579180D02*
X198859524Y-117502990D01*
X198859524Y-117502990D02*
X198935715Y-117388704D01*
X198935715Y-117388704D02*
X198973810Y-117350609D01*
X199659524Y-118264895D02*
X199278572Y-118264895D01*
X199278572Y-118264895D02*
X199278572Y-117464895D01*
X199850000Y-118569657D02*
X199888095Y-118531561D01*
X199888095Y-118531561D02*
X199964286Y-118417276D01*
X199964286Y-118417276D02*
X200002381Y-118341085D01*
X200002381Y-118341085D02*
X200040476Y-118226800D01*
X200040476Y-118226800D02*
X200078572Y-118036323D01*
X200078572Y-118036323D02*
X200078572Y-117883942D01*
X200078572Y-117883942D02*
X200040476Y-117693466D01*
X200040476Y-117693466D02*
X200002381Y-117579180D01*
X200002381Y-117579180D02*
X199964286Y-117502990D01*
X199964286Y-117502990D02*
X199888095Y-117388704D01*
X199888095Y-117388704D02*
X199850000Y-117350609D01*
X199571428Y-114064895D02*
X200028571Y-114064895D01*
X199799999Y-114864895D02*
X199799999Y-114064895D01*
X195147619Y-120264895D02*
X194880952Y-119883942D01*
X194690476Y-120264895D02*
X194690476Y-119464895D01*
X194690476Y-119464895D02*
X194995238Y-119464895D01*
X194995238Y-119464895D02*
X195071428Y-119502990D01*
X195071428Y-119502990D02*
X195109523Y-119541085D01*
X195109523Y-119541085D02*
X195147619Y-119617276D01*
X195147619Y-119617276D02*
X195147619Y-119731561D01*
X195147619Y-119731561D02*
X195109523Y-119807752D01*
X195109523Y-119807752D02*
X195071428Y-119845847D01*
X195071428Y-119845847D02*
X194995238Y-119883942D01*
X194995238Y-119883942D02*
X194690476Y-119883942D01*
D10*
X189509580Y-119866666D02*
X189557200Y-119914285D01*
X189557200Y-119914285D02*
X189604819Y-120057142D01*
X189604819Y-120057142D02*
X189604819Y-120152380D01*
X189604819Y-120152380D02*
X189557200Y-120295237D01*
X189557200Y-120295237D02*
X189461961Y-120390475D01*
X189461961Y-120390475D02*
X189366723Y-120438094D01*
X189366723Y-120438094D02*
X189176247Y-120485713D01*
X189176247Y-120485713D02*
X189033390Y-120485713D01*
X189033390Y-120485713D02*
X188842914Y-120438094D01*
X188842914Y-120438094D02*
X188747676Y-120390475D01*
X188747676Y-120390475D02*
X188652438Y-120295237D01*
X188652438Y-120295237D02*
X188604819Y-120152380D01*
X188604819Y-120152380D02*
X188604819Y-120057142D01*
X188604819Y-120057142D02*
X188652438Y-119914285D01*
X188652438Y-119914285D02*
X188700057Y-119866666D01*
X188700057Y-119485713D02*
X188652438Y-119438094D01*
X188652438Y-119438094D02*
X188604819Y-119342856D01*
X188604819Y-119342856D02*
X188604819Y-119104761D01*
X188604819Y-119104761D02*
X188652438Y-119009523D01*
X188652438Y-119009523D02*
X188700057Y-118961904D01*
X188700057Y-118961904D02*
X188795295Y-118914285D01*
X188795295Y-118914285D02*
X188890533Y-118914285D01*
X188890533Y-118914285D02*
X189033390Y-118961904D01*
X189033390Y-118961904D02*
X189604819Y-119533332D01*
X189604819Y-119533332D02*
X189604819Y-118914285D01*
X191909580Y-119866666D02*
X191957200Y-119914285D01*
X191957200Y-119914285D02*
X192004819Y-120057142D01*
X192004819Y-120057142D02*
X192004819Y-120152380D01*
X192004819Y-120152380D02*
X191957200Y-120295237D01*
X191957200Y-120295237D02*
X191861961Y-120390475D01*
X191861961Y-120390475D02*
X191766723Y-120438094D01*
X191766723Y-120438094D02*
X191576247Y-120485713D01*
X191576247Y-120485713D02*
X191433390Y-120485713D01*
X191433390Y-120485713D02*
X191242914Y-120438094D01*
X191242914Y-120438094D02*
X191147676Y-120390475D01*
X191147676Y-120390475D02*
X191052438Y-120295237D01*
X191052438Y-120295237D02*
X191004819Y-120152380D01*
X191004819Y-120152380D02*
X191004819Y-120057142D01*
X191004819Y-120057142D02*
X191052438Y-119914285D01*
X191052438Y-119914285D02*
X191100057Y-119866666D01*
X192004819Y-118914285D02*
X192004819Y-119485713D01*
X192004819Y-119199999D02*
X191004819Y-119199999D01*
X191004819Y-119199999D02*
X191147676Y-119295237D01*
X191147676Y-119295237D02*
X191242914Y-119390475D01*
X191242914Y-119390475D02*
X191290533Y-119485713D01*
X171888095Y-108754819D02*
X171888095Y-109564342D01*
X171888095Y-109564342D02*
X171935714Y-109659580D01*
X171935714Y-109659580D02*
X171983333Y-109707200D01*
X171983333Y-109707200D02*
X172078571Y-109754819D01*
X172078571Y-109754819D02*
X172269047Y-109754819D01*
X172269047Y-109754819D02*
X172364285Y-109707200D01*
X172364285Y-109707200D02*
X172411904Y-109659580D01*
X172411904Y-109659580D02*
X172459523Y-109564342D01*
X172459523Y-109564342D02*
X172459523Y-108754819D01*
X172840476Y-108754819D02*
X173459523Y-108754819D01*
X173459523Y-108754819D02*
X173126190Y-109135771D01*
X173126190Y-109135771D02*
X173269047Y-109135771D01*
X173269047Y-109135771D02*
X173364285Y-109183390D01*
X173364285Y-109183390D02*
X173411904Y-109231009D01*
X173411904Y-109231009D02*
X173459523Y-109326247D01*
X173459523Y-109326247D02*
X173459523Y-109564342D01*
X173459523Y-109564342D02*
X173411904Y-109659580D01*
X173411904Y-109659580D02*
X173364285Y-109707200D01*
X173364285Y-109707200D02*
X173269047Y-109754819D01*
X173269047Y-109754819D02*
X172983333Y-109754819D01*
X172983333Y-109754819D02*
X172888095Y-109707200D01*
X172888095Y-109707200D02*
X172840476Y-109659580D01*
X94166667Y-124957200D02*
X94309524Y-125004819D01*
X94309524Y-125004819D02*
X94547619Y-125004819D01*
X94547619Y-125004819D02*
X94642857Y-124957200D01*
X94642857Y-124957200D02*
X94690476Y-124909580D01*
X94690476Y-124909580D02*
X94738095Y-124814342D01*
X94738095Y-124814342D02*
X94738095Y-124719104D01*
X94738095Y-124719104D02*
X94690476Y-124623866D01*
X94690476Y-124623866D02*
X94642857Y-124576247D01*
X94642857Y-124576247D02*
X94547619Y-124528628D01*
X94547619Y-124528628D02*
X94357143Y-124481009D01*
X94357143Y-124481009D02*
X94261905Y-124433390D01*
X94261905Y-124433390D02*
X94214286Y-124385771D01*
X94214286Y-124385771D02*
X94166667Y-124290533D01*
X94166667Y-124290533D02*
X94166667Y-124195295D01*
X94166667Y-124195295D02*
X94214286Y-124100057D01*
X94214286Y-124100057D02*
X94261905Y-124052438D01*
X94261905Y-124052438D02*
X94357143Y-124004819D01*
X94357143Y-124004819D02*
X94595238Y-124004819D01*
X94595238Y-124004819D02*
X94738095Y-124052438D01*
X95071429Y-124004819D02*
X95309524Y-125004819D01*
X95309524Y-125004819D02*
X95500000Y-124290533D01*
X95500000Y-124290533D02*
X95690476Y-125004819D01*
X95690476Y-125004819D02*
X95928572Y-124004819D01*
X96785714Y-124004819D02*
X96309524Y-124004819D01*
X96309524Y-124004819D02*
X96261905Y-124481009D01*
X96261905Y-124481009D02*
X96309524Y-124433390D01*
X96309524Y-124433390D02*
X96404762Y-124385771D01*
X96404762Y-124385771D02*
X96642857Y-124385771D01*
X96642857Y-124385771D02*
X96738095Y-124433390D01*
X96738095Y-124433390D02*
X96785714Y-124481009D01*
X96785714Y-124481009D02*
X96833333Y-124576247D01*
X96833333Y-124576247D02*
X96833333Y-124814342D01*
X96833333Y-124814342D02*
X96785714Y-124909580D01*
X96785714Y-124909580D02*
X96738095Y-124957200D01*
X96738095Y-124957200D02*
X96642857Y-125004819D01*
X96642857Y-125004819D02*
X96404762Y-125004819D01*
X96404762Y-125004819D02*
X96309524Y-124957200D01*
X96309524Y-124957200D02*
X96261905Y-124909580D01*
X186883333Y-93184819D02*
X186550000Y-92708628D01*
X186311905Y-93184819D02*
X186311905Y-92184819D01*
X186311905Y-92184819D02*
X186692857Y-92184819D01*
X186692857Y-92184819D02*
X186788095Y-92232438D01*
X186788095Y-92232438D02*
X186835714Y-92280057D01*
X186835714Y-92280057D02*
X186883333Y-92375295D01*
X186883333Y-92375295D02*
X186883333Y-92518152D01*
X186883333Y-92518152D02*
X186835714Y-92613390D01*
X186835714Y-92613390D02*
X186788095Y-92661009D01*
X186788095Y-92661009D02*
X186692857Y-92708628D01*
X186692857Y-92708628D02*
X186311905Y-92708628D01*
X187835714Y-93184819D02*
X187264286Y-93184819D01*
X187550000Y-93184819D02*
X187550000Y-92184819D01*
X187550000Y-92184819D02*
X187454762Y-92327676D01*
X187454762Y-92327676D02*
X187359524Y-92422914D01*
X187359524Y-92422914D02*
X187264286Y-92470533D01*
X178666666Y-99699819D02*
X178666666Y-100414104D01*
X178666666Y-100414104D02*
X178619047Y-100556961D01*
X178619047Y-100556961D02*
X178523809Y-100652200D01*
X178523809Y-100652200D02*
X178380952Y-100699819D01*
X178380952Y-100699819D02*
X178285714Y-100699819D01*
X179666666Y-100699819D02*
X179095238Y-100699819D01*
X179380952Y-100699819D02*
X179380952Y-99699819D01*
X179380952Y-99699819D02*
X179285714Y-99842676D01*
X179285714Y-99842676D02*
X179190476Y-99937914D01*
X179190476Y-99937914D02*
X179095238Y-99985533D01*
X190957200Y-100011904D02*
X191004819Y-99869047D01*
X191004819Y-99869047D02*
X191004819Y-99630952D01*
X191004819Y-99630952D02*
X190957200Y-99535714D01*
X190957200Y-99535714D02*
X190909580Y-99488095D01*
X190909580Y-99488095D02*
X190814342Y-99440476D01*
X190814342Y-99440476D02*
X190719104Y-99440476D01*
X190719104Y-99440476D02*
X190623866Y-99488095D01*
X190623866Y-99488095D02*
X190576247Y-99535714D01*
X190576247Y-99535714D02*
X190528628Y-99630952D01*
X190528628Y-99630952D02*
X190481009Y-99821428D01*
X190481009Y-99821428D02*
X190433390Y-99916666D01*
X190433390Y-99916666D02*
X190385771Y-99964285D01*
X190385771Y-99964285D02*
X190290533Y-100011904D01*
X190290533Y-100011904D02*
X190195295Y-100011904D01*
X190195295Y-100011904D02*
X190100057Y-99964285D01*
X190100057Y-99964285D02*
X190052438Y-99916666D01*
X190052438Y-99916666D02*
X190004819Y-99821428D01*
X190004819Y-99821428D02*
X190004819Y-99583333D01*
X190004819Y-99583333D02*
X190052438Y-99440476D01*
X191004819Y-99011904D02*
X190004819Y-99011904D01*
X190004819Y-99011904D02*
X190004819Y-98773809D01*
X190004819Y-98773809D02*
X190052438Y-98630952D01*
X190052438Y-98630952D02*
X190147676Y-98535714D01*
X190147676Y-98535714D02*
X190242914Y-98488095D01*
X190242914Y-98488095D02*
X190433390Y-98440476D01*
X190433390Y-98440476D02*
X190576247Y-98440476D01*
X190576247Y-98440476D02*
X190766723Y-98488095D01*
X190766723Y-98488095D02*
X190861961Y-98535714D01*
X190861961Y-98535714D02*
X190957200Y-98630952D01*
X190957200Y-98630952D02*
X191004819Y-98773809D01*
X191004819Y-98773809D02*
X191004819Y-99011904D01*
X191004819Y-97488095D02*
X191004819Y-98059523D01*
X191004819Y-97773809D02*
X190004819Y-97773809D01*
X190004819Y-97773809D02*
X190147676Y-97869047D01*
X190147676Y-97869047D02*
X190242914Y-97964285D01*
X190242914Y-97964285D02*
X190290533Y-98059523D01*
X151316667Y-124957200D02*
X151459524Y-125004819D01*
X151459524Y-125004819D02*
X151697619Y-125004819D01*
X151697619Y-125004819D02*
X151792857Y-124957200D01*
X151792857Y-124957200D02*
X151840476Y-124909580D01*
X151840476Y-124909580D02*
X151888095Y-124814342D01*
X151888095Y-124814342D02*
X151888095Y-124719104D01*
X151888095Y-124719104D02*
X151840476Y-124623866D01*
X151840476Y-124623866D02*
X151792857Y-124576247D01*
X151792857Y-124576247D02*
X151697619Y-124528628D01*
X151697619Y-124528628D02*
X151507143Y-124481009D01*
X151507143Y-124481009D02*
X151411905Y-124433390D01*
X151411905Y-124433390D02*
X151364286Y-124385771D01*
X151364286Y-124385771D02*
X151316667Y-124290533D01*
X151316667Y-124290533D02*
X151316667Y-124195295D01*
X151316667Y-124195295D02*
X151364286Y-124100057D01*
X151364286Y-124100057D02*
X151411905Y-124052438D01*
X151411905Y-124052438D02*
X151507143Y-124004819D01*
X151507143Y-124004819D02*
X151745238Y-124004819D01*
X151745238Y-124004819D02*
X151888095Y-124052438D01*
X152221429Y-124004819D02*
X152459524Y-125004819D01*
X152459524Y-125004819D02*
X152650000Y-124290533D01*
X152650000Y-124290533D02*
X152840476Y-125004819D01*
X152840476Y-125004819D02*
X153078572Y-124004819D01*
X153602381Y-124433390D02*
X153507143Y-124385771D01*
X153507143Y-124385771D02*
X153459524Y-124338152D01*
X153459524Y-124338152D02*
X153411905Y-124242914D01*
X153411905Y-124242914D02*
X153411905Y-124195295D01*
X153411905Y-124195295D02*
X153459524Y-124100057D01*
X153459524Y-124100057D02*
X153507143Y-124052438D01*
X153507143Y-124052438D02*
X153602381Y-124004819D01*
X153602381Y-124004819D02*
X153792857Y-124004819D01*
X153792857Y-124004819D02*
X153888095Y-124052438D01*
X153888095Y-124052438D02*
X153935714Y-124100057D01*
X153935714Y-124100057D02*
X153983333Y-124195295D01*
X153983333Y-124195295D02*
X153983333Y-124242914D01*
X153983333Y-124242914D02*
X153935714Y-124338152D01*
X153935714Y-124338152D02*
X153888095Y-124385771D01*
X153888095Y-124385771D02*
X153792857Y-124433390D01*
X153792857Y-124433390D02*
X153602381Y-124433390D01*
X153602381Y-124433390D02*
X153507143Y-124481009D01*
X153507143Y-124481009D02*
X153459524Y-124528628D01*
X153459524Y-124528628D02*
X153411905Y-124623866D01*
X153411905Y-124623866D02*
X153411905Y-124814342D01*
X153411905Y-124814342D02*
X153459524Y-124909580D01*
X153459524Y-124909580D02*
X153507143Y-124957200D01*
X153507143Y-124957200D02*
X153602381Y-125004819D01*
X153602381Y-125004819D02*
X153792857Y-125004819D01*
X153792857Y-125004819D02*
X153888095Y-124957200D01*
X153888095Y-124957200D02*
X153935714Y-124909580D01*
X153935714Y-124909580D02*
X153983333Y-124814342D01*
X153983333Y-124814342D02*
X153983333Y-124623866D01*
X153983333Y-124623866D02*
X153935714Y-124528628D01*
X153935714Y-124528628D02*
X153888095Y-124481009D01*
X153888095Y-124481009D02*
X153792857Y-124433390D01*
X187211009Y-100483333D02*
X187211009Y-100816666D01*
X187734819Y-100816666D02*
X186734819Y-100816666D01*
X186734819Y-100816666D02*
X186734819Y-100340476D01*
X187734819Y-99435714D02*
X187734819Y-100007142D01*
X187734819Y-99721428D02*
X186734819Y-99721428D01*
X186734819Y-99721428D02*
X186877676Y-99816666D01*
X186877676Y-99816666D02*
X186972914Y-99911904D01*
X186972914Y-99911904D02*
X187020533Y-100007142D01*
X186300000Y-91727200D02*
X186442857Y-91774819D01*
X186442857Y-91774819D02*
X186680952Y-91774819D01*
X186680952Y-91774819D02*
X186776190Y-91727200D01*
X186776190Y-91727200D02*
X186823809Y-91679580D01*
X186823809Y-91679580D02*
X186871428Y-91584342D01*
X186871428Y-91584342D02*
X186871428Y-91489104D01*
X186871428Y-91489104D02*
X186823809Y-91393866D01*
X186823809Y-91393866D02*
X186776190Y-91346247D01*
X186776190Y-91346247D02*
X186680952Y-91298628D01*
X186680952Y-91298628D02*
X186490476Y-91251009D01*
X186490476Y-91251009D02*
X186395238Y-91203390D01*
X186395238Y-91203390D02*
X186347619Y-91155771D01*
X186347619Y-91155771D02*
X186300000Y-91060533D01*
X186300000Y-91060533D02*
X186300000Y-90965295D01*
X186300000Y-90965295D02*
X186347619Y-90870057D01*
X186347619Y-90870057D02*
X186395238Y-90822438D01*
X186395238Y-90822438D02*
X186490476Y-90774819D01*
X186490476Y-90774819D02*
X186728571Y-90774819D01*
X186728571Y-90774819D02*
X186871428Y-90822438D01*
X187157143Y-90774819D02*
X187728571Y-90774819D01*
X187442857Y-91774819D02*
X187442857Y-90774819D01*
X188538095Y-91774819D02*
X188061905Y-91774819D01*
X188061905Y-91774819D02*
X188061905Y-90774819D01*
X188871429Y-91251009D02*
X189204762Y-91251009D01*
X189347619Y-91774819D02*
X188871429Y-91774819D01*
X188871429Y-91774819D02*
X188871429Y-90774819D01*
X188871429Y-90774819D02*
X189347619Y-90774819D01*
X189776191Y-91774819D02*
X189776191Y-90774819D01*
X189776191Y-90774819D02*
X190014286Y-90774819D01*
X190014286Y-90774819D02*
X190157143Y-90822438D01*
X190157143Y-90822438D02*
X190252381Y-90917676D01*
X190252381Y-90917676D02*
X190300000Y-91012914D01*
X190300000Y-91012914D02*
X190347619Y-91203390D01*
X190347619Y-91203390D02*
X190347619Y-91346247D01*
X190347619Y-91346247D02*
X190300000Y-91536723D01*
X190300000Y-91536723D02*
X190252381Y-91631961D01*
X190252381Y-91631961D02*
X190157143Y-91727200D01*
X190157143Y-91727200D02*
X190014286Y-91774819D01*
X190014286Y-91774819D02*
X189776191Y-91774819D01*
X191300000Y-91774819D02*
X190728572Y-91774819D01*
X191014286Y-91774819D02*
X191014286Y-90774819D01*
X191014286Y-90774819D02*
X190919048Y-90917676D01*
X190919048Y-90917676D02*
X190823810Y-91012914D01*
X190823810Y-91012914D02*
X190728572Y-91060533D01*
X147554819Y-121888094D02*
X146554819Y-121888094D01*
X146554819Y-121888094D02*
X146554819Y-121649999D01*
X146554819Y-121649999D02*
X146602438Y-121507142D01*
X146602438Y-121507142D02*
X146697676Y-121411904D01*
X146697676Y-121411904D02*
X146792914Y-121364285D01*
X146792914Y-121364285D02*
X146983390Y-121316666D01*
X146983390Y-121316666D02*
X147126247Y-121316666D01*
X147126247Y-121316666D02*
X147316723Y-121364285D01*
X147316723Y-121364285D02*
X147411961Y-121411904D01*
X147411961Y-121411904D02*
X147507200Y-121507142D01*
X147507200Y-121507142D02*
X147554819Y-121649999D01*
X147554819Y-121649999D02*
X147554819Y-121888094D01*
X146554819Y-120983332D02*
X146554819Y-120316666D01*
X146554819Y-120316666D02*
X147554819Y-120745237D01*
X109454819Y-102738094D02*
X108454819Y-102738094D01*
X108454819Y-102738094D02*
X108454819Y-102499999D01*
X108454819Y-102499999D02*
X108502438Y-102357142D01*
X108502438Y-102357142D02*
X108597676Y-102261904D01*
X108597676Y-102261904D02*
X108692914Y-102214285D01*
X108692914Y-102214285D02*
X108883390Y-102166666D01*
X108883390Y-102166666D02*
X109026247Y-102166666D01*
X109026247Y-102166666D02*
X109216723Y-102214285D01*
X109216723Y-102214285D02*
X109311961Y-102261904D01*
X109311961Y-102261904D02*
X109407200Y-102357142D01*
X109407200Y-102357142D02*
X109454819Y-102499999D01*
X109454819Y-102499999D02*
X109454819Y-102738094D01*
X109454819Y-101214285D02*
X109454819Y-101785713D01*
X109454819Y-101499999D02*
X108454819Y-101499999D01*
X108454819Y-101499999D02*
X108597676Y-101595237D01*
X108597676Y-101595237D02*
X108692914Y-101690475D01*
X108692914Y-101690475D02*
X108740533Y-101785713D01*
X166554819Y-121938094D02*
X165554819Y-121938094D01*
X165554819Y-121938094D02*
X165554819Y-121699999D01*
X165554819Y-121699999D02*
X165602438Y-121557142D01*
X165602438Y-121557142D02*
X165697676Y-121461904D01*
X165697676Y-121461904D02*
X165792914Y-121414285D01*
X165792914Y-121414285D02*
X165983390Y-121366666D01*
X165983390Y-121366666D02*
X166126247Y-121366666D01*
X166126247Y-121366666D02*
X166316723Y-121414285D01*
X166316723Y-121414285D02*
X166411961Y-121461904D01*
X166411961Y-121461904D02*
X166507200Y-121557142D01*
X166507200Y-121557142D02*
X166554819Y-121699999D01*
X166554819Y-121699999D02*
X166554819Y-121938094D01*
X165983390Y-120795237D02*
X165935771Y-120890475D01*
X165935771Y-120890475D02*
X165888152Y-120938094D01*
X165888152Y-120938094D02*
X165792914Y-120985713D01*
X165792914Y-120985713D02*
X165745295Y-120985713D01*
X165745295Y-120985713D02*
X165650057Y-120938094D01*
X165650057Y-120938094D02*
X165602438Y-120890475D01*
X165602438Y-120890475D02*
X165554819Y-120795237D01*
X165554819Y-120795237D02*
X165554819Y-120604761D01*
X165554819Y-120604761D02*
X165602438Y-120509523D01*
X165602438Y-120509523D02*
X165650057Y-120461904D01*
X165650057Y-120461904D02*
X165745295Y-120414285D01*
X165745295Y-120414285D02*
X165792914Y-120414285D01*
X165792914Y-120414285D02*
X165888152Y-120461904D01*
X165888152Y-120461904D02*
X165935771Y-120509523D01*
X165935771Y-120509523D02*
X165983390Y-120604761D01*
X165983390Y-120604761D02*
X165983390Y-120795237D01*
X165983390Y-120795237D02*
X166031009Y-120890475D01*
X166031009Y-120890475D02*
X166078628Y-120938094D01*
X166078628Y-120938094D02*
X166173866Y-120985713D01*
X166173866Y-120985713D02*
X166364342Y-120985713D01*
X166364342Y-120985713D02*
X166459580Y-120938094D01*
X166459580Y-120938094D02*
X166507200Y-120890475D01*
X166507200Y-120890475D02*
X166554819Y-120795237D01*
X166554819Y-120795237D02*
X166554819Y-120604761D01*
X166554819Y-120604761D02*
X166507200Y-120509523D01*
X166507200Y-120509523D02*
X166459580Y-120461904D01*
X166459580Y-120461904D02*
X166364342Y-120414285D01*
X166364342Y-120414285D02*
X166173866Y-120414285D01*
X166173866Y-120414285D02*
X166078628Y-120461904D01*
X166078628Y-120461904D02*
X166031009Y-120509523D01*
X166031009Y-120509523D02*
X165983390Y-120604761D01*
X168133333Y-102074819D02*
X167800000Y-101598628D01*
X167561905Y-102074819D02*
X167561905Y-101074819D01*
X167561905Y-101074819D02*
X167942857Y-101074819D01*
X167942857Y-101074819D02*
X168038095Y-101122438D01*
X168038095Y-101122438D02*
X168085714Y-101170057D01*
X168085714Y-101170057D02*
X168133333Y-101265295D01*
X168133333Y-101265295D02*
X168133333Y-101408152D01*
X168133333Y-101408152D02*
X168085714Y-101503390D01*
X168085714Y-101503390D02*
X168038095Y-101551009D01*
X168038095Y-101551009D02*
X167942857Y-101598628D01*
X167942857Y-101598628D02*
X167561905Y-101598628D01*
X168466667Y-101074819D02*
X169133333Y-101074819D01*
X169133333Y-101074819D02*
X168704762Y-102074819D01*
X180584819Y-107516666D02*
X180108628Y-107849999D01*
X180584819Y-108088094D02*
X179584819Y-108088094D01*
X179584819Y-108088094D02*
X179584819Y-107707142D01*
X179584819Y-107707142D02*
X179632438Y-107611904D01*
X179632438Y-107611904D02*
X179680057Y-107564285D01*
X179680057Y-107564285D02*
X179775295Y-107516666D01*
X179775295Y-107516666D02*
X179918152Y-107516666D01*
X179918152Y-107516666D02*
X180013390Y-107564285D01*
X180013390Y-107564285D02*
X180061009Y-107611904D01*
X180061009Y-107611904D02*
X180108628Y-107707142D01*
X180108628Y-107707142D02*
X180108628Y-108088094D01*
X179584819Y-106611904D02*
X179584819Y-107088094D01*
X179584819Y-107088094D02*
X180061009Y-107135713D01*
X180061009Y-107135713D02*
X180013390Y-107088094D01*
X180013390Y-107088094D02*
X179965771Y-106992856D01*
X179965771Y-106992856D02*
X179965771Y-106754761D01*
X179965771Y-106754761D02*
X180013390Y-106659523D01*
X180013390Y-106659523D02*
X180061009Y-106611904D01*
X180061009Y-106611904D02*
X180156247Y-106564285D01*
X180156247Y-106564285D02*
X180394342Y-106564285D01*
X180394342Y-106564285D02*
X180489580Y-106611904D01*
X180489580Y-106611904D02*
X180537200Y-106659523D01*
X180537200Y-106659523D02*
X180584819Y-106754761D01*
X180584819Y-106754761D02*
X180584819Y-106992856D01*
X180584819Y-106992856D02*
X180537200Y-107088094D01*
X180537200Y-107088094D02*
X180489580Y-107135713D01*
X170242857Y-122031009D02*
X170385714Y-122078628D01*
X170385714Y-122078628D02*
X170433333Y-122126247D01*
X170433333Y-122126247D02*
X170480952Y-122221485D01*
X170480952Y-122221485D02*
X170480952Y-122364342D01*
X170480952Y-122364342D02*
X170433333Y-122459580D01*
X170433333Y-122459580D02*
X170385714Y-122507200D01*
X170385714Y-122507200D02*
X170290476Y-122554819D01*
X170290476Y-122554819D02*
X169909524Y-122554819D01*
X169909524Y-122554819D02*
X169909524Y-121554819D01*
X169909524Y-121554819D02*
X170242857Y-121554819D01*
X170242857Y-121554819D02*
X170338095Y-121602438D01*
X170338095Y-121602438D02*
X170385714Y-121650057D01*
X170385714Y-121650057D02*
X170433333Y-121745295D01*
X170433333Y-121745295D02*
X170433333Y-121840533D01*
X170433333Y-121840533D02*
X170385714Y-121935771D01*
X170385714Y-121935771D02*
X170338095Y-121983390D01*
X170338095Y-121983390D02*
X170242857Y-122031009D01*
X170242857Y-122031009D02*
X169909524Y-122031009D01*
X171100000Y-121554819D02*
X171290476Y-121554819D01*
X171290476Y-121554819D02*
X171385714Y-121602438D01*
X171385714Y-121602438D02*
X171480952Y-121697676D01*
X171480952Y-121697676D02*
X171528571Y-121888152D01*
X171528571Y-121888152D02*
X171528571Y-122221485D01*
X171528571Y-122221485D02*
X171480952Y-122411961D01*
X171480952Y-122411961D02*
X171385714Y-122507200D01*
X171385714Y-122507200D02*
X171290476Y-122554819D01*
X171290476Y-122554819D02*
X171100000Y-122554819D01*
X171100000Y-122554819D02*
X171004762Y-122507200D01*
X171004762Y-122507200D02*
X170909524Y-122411961D01*
X170909524Y-122411961D02*
X170861905Y-122221485D01*
X170861905Y-122221485D02*
X170861905Y-121888152D01*
X170861905Y-121888152D02*
X170909524Y-121697676D01*
X170909524Y-121697676D02*
X171004762Y-121602438D01*
X171004762Y-121602438D02*
X171100000Y-121554819D01*
X172147619Y-121554819D02*
X172338095Y-121554819D01*
X172338095Y-121554819D02*
X172433333Y-121602438D01*
X172433333Y-121602438D02*
X172528571Y-121697676D01*
X172528571Y-121697676D02*
X172576190Y-121888152D01*
X172576190Y-121888152D02*
X172576190Y-122221485D01*
X172576190Y-122221485D02*
X172528571Y-122411961D01*
X172528571Y-122411961D02*
X172433333Y-122507200D01*
X172433333Y-122507200D02*
X172338095Y-122554819D01*
X172338095Y-122554819D02*
X172147619Y-122554819D01*
X172147619Y-122554819D02*
X172052381Y-122507200D01*
X172052381Y-122507200D02*
X171957143Y-122411961D01*
X171957143Y-122411961D02*
X171909524Y-122221485D01*
X171909524Y-122221485D02*
X171909524Y-121888152D01*
X171909524Y-121888152D02*
X171957143Y-121697676D01*
X171957143Y-121697676D02*
X172052381Y-121602438D01*
X172052381Y-121602438D02*
X172147619Y-121554819D01*
X172861905Y-121554819D02*
X173433333Y-121554819D01*
X173147619Y-122554819D02*
X173147619Y-121554819D01*
X182349580Y-105666666D02*
X182397200Y-105714285D01*
X182397200Y-105714285D02*
X182444819Y-105857142D01*
X182444819Y-105857142D02*
X182444819Y-105952380D01*
X182444819Y-105952380D02*
X182397200Y-106095237D01*
X182397200Y-106095237D02*
X182301961Y-106190475D01*
X182301961Y-106190475D02*
X182206723Y-106238094D01*
X182206723Y-106238094D02*
X182016247Y-106285713D01*
X182016247Y-106285713D02*
X181873390Y-106285713D01*
X181873390Y-106285713D02*
X181682914Y-106238094D01*
X181682914Y-106238094D02*
X181587676Y-106190475D01*
X181587676Y-106190475D02*
X181492438Y-106095237D01*
X181492438Y-106095237D02*
X181444819Y-105952380D01*
X181444819Y-105952380D02*
X181444819Y-105857142D01*
X181444819Y-105857142D02*
X181492438Y-105714285D01*
X181492438Y-105714285D02*
X181540057Y-105666666D01*
X181444819Y-104809523D02*
X181444819Y-104999999D01*
X181444819Y-104999999D02*
X181492438Y-105095237D01*
X181492438Y-105095237D02*
X181540057Y-105142856D01*
X181540057Y-105142856D02*
X181682914Y-105238094D01*
X181682914Y-105238094D02*
X181873390Y-105285713D01*
X181873390Y-105285713D02*
X182254342Y-105285713D01*
X182254342Y-105285713D02*
X182349580Y-105238094D01*
X182349580Y-105238094D02*
X182397200Y-105190475D01*
X182397200Y-105190475D02*
X182444819Y-105095237D01*
X182444819Y-105095237D02*
X182444819Y-104904761D01*
X182444819Y-104904761D02*
X182397200Y-104809523D01*
X182397200Y-104809523D02*
X182349580Y-104761904D01*
X182349580Y-104761904D02*
X182254342Y-104714285D01*
X182254342Y-104714285D02*
X182016247Y-104714285D01*
X182016247Y-104714285D02*
X181921009Y-104761904D01*
X181921009Y-104761904D02*
X181873390Y-104809523D01*
X181873390Y-104809523D02*
X181825771Y-104904761D01*
X181825771Y-104904761D02*
X181825771Y-105095237D01*
X181825771Y-105095237D02*
X181873390Y-105190475D01*
X181873390Y-105190475D02*
X181921009Y-105238094D01*
X181921009Y-105238094D02*
X182016247Y-105285713D01*
X172157142Y-102969580D02*
X172109523Y-103017200D01*
X172109523Y-103017200D02*
X171966666Y-103064819D01*
X171966666Y-103064819D02*
X171871428Y-103064819D01*
X171871428Y-103064819D02*
X171728571Y-103017200D01*
X171728571Y-103017200D02*
X171633333Y-102921961D01*
X171633333Y-102921961D02*
X171585714Y-102826723D01*
X171585714Y-102826723D02*
X171538095Y-102636247D01*
X171538095Y-102636247D02*
X171538095Y-102493390D01*
X171538095Y-102493390D02*
X171585714Y-102302914D01*
X171585714Y-102302914D02*
X171633333Y-102207676D01*
X171633333Y-102207676D02*
X171728571Y-102112438D01*
X171728571Y-102112438D02*
X171871428Y-102064819D01*
X171871428Y-102064819D02*
X171966666Y-102064819D01*
X171966666Y-102064819D02*
X172109523Y-102112438D01*
X172109523Y-102112438D02*
X172157142Y-102160057D01*
X173109523Y-103064819D02*
X172538095Y-103064819D01*
X172823809Y-103064819D02*
X172823809Y-102064819D01*
X172823809Y-102064819D02*
X172728571Y-102207676D01*
X172728571Y-102207676D02*
X172633333Y-102302914D01*
X172633333Y-102302914D02*
X172538095Y-102350533D01*
X174014285Y-102064819D02*
X173538095Y-102064819D01*
X173538095Y-102064819D02*
X173490476Y-102541009D01*
X173490476Y-102541009D02*
X173538095Y-102493390D01*
X173538095Y-102493390D02*
X173633333Y-102445771D01*
X173633333Y-102445771D02*
X173871428Y-102445771D01*
X173871428Y-102445771D02*
X173966666Y-102493390D01*
X173966666Y-102493390D02*
X174014285Y-102541009D01*
X174014285Y-102541009D02*
X174061904Y-102636247D01*
X174061904Y-102636247D02*
X174061904Y-102874342D01*
X174061904Y-102874342D02*
X174014285Y-102969580D01*
X174014285Y-102969580D02*
X173966666Y-103017200D01*
X173966666Y-103017200D02*
X173871428Y-103064819D01*
X173871428Y-103064819D02*
X173633333Y-103064819D01*
X173633333Y-103064819D02*
X173538095Y-103017200D01*
X173538095Y-103017200D02*
X173490476Y-102969580D01*
X151316667Y-105907200D02*
X151459524Y-105954819D01*
X151459524Y-105954819D02*
X151697619Y-105954819D01*
X151697619Y-105954819D02*
X151792857Y-105907200D01*
X151792857Y-105907200D02*
X151840476Y-105859580D01*
X151840476Y-105859580D02*
X151888095Y-105764342D01*
X151888095Y-105764342D02*
X151888095Y-105669104D01*
X151888095Y-105669104D02*
X151840476Y-105573866D01*
X151840476Y-105573866D02*
X151792857Y-105526247D01*
X151792857Y-105526247D02*
X151697619Y-105478628D01*
X151697619Y-105478628D02*
X151507143Y-105431009D01*
X151507143Y-105431009D02*
X151411905Y-105383390D01*
X151411905Y-105383390D02*
X151364286Y-105335771D01*
X151364286Y-105335771D02*
X151316667Y-105240533D01*
X151316667Y-105240533D02*
X151316667Y-105145295D01*
X151316667Y-105145295D02*
X151364286Y-105050057D01*
X151364286Y-105050057D02*
X151411905Y-105002438D01*
X151411905Y-105002438D02*
X151507143Y-104954819D01*
X151507143Y-104954819D02*
X151745238Y-104954819D01*
X151745238Y-104954819D02*
X151888095Y-105002438D01*
X152221429Y-104954819D02*
X152459524Y-105954819D01*
X152459524Y-105954819D02*
X152650000Y-105240533D01*
X152650000Y-105240533D02*
X152840476Y-105954819D01*
X152840476Y-105954819D02*
X153078572Y-104954819D01*
X153888095Y-105288152D02*
X153888095Y-105954819D01*
X153650000Y-104907200D02*
X153411905Y-105621485D01*
X153411905Y-105621485D02*
X154030952Y-105621485D01*
X182569580Y-120766666D02*
X182617200Y-120814285D01*
X182617200Y-120814285D02*
X182664819Y-120957142D01*
X182664819Y-120957142D02*
X182664819Y-121052380D01*
X182664819Y-121052380D02*
X182617200Y-121195237D01*
X182617200Y-121195237D02*
X182521961Y-121290475D01*
X182521961Y-121290475D02*
X182426723Y-121338094D01*
X182426723Y-121338094D02*
X182236247Y-121385713D01*
X182236247Y-121385713D02*
X182093390Y-121385713D01*
X182093390Y-121385713D02*
X181902914Y-121338094D01*
X181902914Y-121338094D02*
X181807676Y-121290475D01*
X181807676Y-121290475D02*
X181712438Y-121195237D01*
X181712438Y-121195237D02*
X181664819Y-121052380D01*
X181664819Y-121052380D02*
X181664819Y-120957142D01*
X181664819Y-120957142D02*
X181712438Y-120814285D01*
X181712438Y-120814285D02*
X181760057Y-120766666D01*
X181998152Y-119909523D02*
X182664819Y-119909523D01*
X181617200Y-120147618D02*
X182331485Y-120385713D01*
X182331485Y-120385713D02*
X182331485Y-119766666D01*
X176333333Y-121174819D02*
X176000000Y-120698628D01*
X175761905Y-121174819D02*
X175761905Y-120174819D01*
X175761905Y-120174819D02*
X176142857Y-120174819D01*
X176142857Y-120174819D02*
X176238095Y-120222438D01*
X176238095Y-120222438D02*
X176285714Y-120270057D01*
X176285714Y-120270057D02*
X176333333Y-120365295D01*
X176333333Y-120365295D02*
X176333333Y-120508152D01*
X176333333Y-120508152D02*
X176285714Y-120603390D01*
X176285714Y-120603390D02*
X176238095Y-120651009D01*
X176238095Y-120651009D02*
X176142857Y-120698628D01*
X176142857Y-120698628D02*
X175761905Y-120698628D01*
X177190476Y-120174819D02*
X177000000Y-120174819D01*
X177000000Y-120174819D02*
X176904762Y-120222438D01*
X176904762Y-120222438D02*
X176857143Y-120270057D01*
X176857143Y-120270057D02*
X176761905Y-120412914D01*
X176761905Y-120412914D02*
X176714286Y-120603390D01*
X176714286Y-120603390D02*
X176714286Y-120984342D01*
X176714286Y-120984342D02*
X176761905Y-121079580D01*
X176761905Y-121079580D02*
X176809524Y-121127200D01*
X176809524Y-121127200D02*
X176904762Y-121174819D01*
X176904762Y-121174819D02*
X177095238Y-121174819D01*
X177095238Y-121174819D02*
X177190476Y-121127200D01*
X177190476Y-121127200D02*
X177238095Y-121079580D01*
X177238095Y-121079580D02*
X177285714Y-120984342D01*
X177285714Y-120984342D02*
X177285714Y-120746247D01*
X177285714Y-120746247D02*
X177238095Y-120651009D01*
X177238095Y-120651009D02*
X177190476Y-120603390D01*
X177190476Y-120603390D02*
X177095238Y-120555771D01*
X177095238Y-120555771D02*
X176904762Y-120555771D01*
X176904762Y-120555771D02*
X176809524Y-120603390D01*
X176809524Y-120603390D02*
X176761905Y-120651009D01*
X176761905Y-120651009D02*
X176714286Y-120746247D01*
X168133333Y-103124819D02*
X167800000Y-102648628D01*
X167561905Y-103124819D02*
X167561905Y-102124819D01*
X167561905Y-102124819D02*
X167942857Y-102124819D01*
X167942857Y-102124819D02*
X168038095Y-102172438D01*
X168038095Y-102172438D02*
X168085714Y-102220057D01*
X168085714Y-102220057D02*
X168133333Y-102315295D01*
X168133333Y-102315295D02*
X168133333Y-102458152D01*
X168133333Y-102458152D02*
X168085714Y-102553390D01*
X168085714Y-102553390D02*
X168038095Y-102601009D01*
X168038095Y-102601009D02*
X167942857Y-102648628D01*
X167942857Y-102648628D02*
X167561905Y-102648628D01*
X168704762Y-102553390D02*
X168609524Y-102505771D01*
X168609524Y-102505771D02*
X168561905Y-102458152D01*
X168561905Y-102458152D02*
X168514286Y-102362914D01*
X168514286Y-102362914D02*
X168514286Y-102315295D01*
X168514286Y-102315295D02*
X168561905Y-102220057D01*
X168561905Y-102220057D02*
X168609524Y-102172438D01*
X168609524Y-102172438D02*
X168704762Y-102124819D01*
X168704762Y-102124819D02*
X168895238Y-102124819D01*
X168895238Y-102124819D02*
X168990476Y-102172438D01*
X168990476Y-102172438D02*
X169038095Y-102220057D01*
X169038095Y-102220057D02*
X169085714Y-102315295D01*
X169085714Y-102315295D02*
X169085714Y-102362914D01*
X169085714Y-102362914D02*
X169038095Y-102458152D01*
X169038095Y-102458152D02*
X168990476Y-102505771D01*
X168990476Y-102505771D02*
X168895238Y-102553390D01*
X168895238Y-102553390D02*
X168704762Y-102553390D01*
X168704762Y-102553390D02*
X168609524Y-102601009D01*
X168609524Y-102601009D02*
X168561905Y-102648628D01*
X168561905Y-102648628D02*
X168514286Y-102743866D01*
X168514286Y-102743866D02*
X168514286Y-102934342D01*
X168514286Y-102934342D02*
X168561905Y-103029580D01*
X168561905Y-103029580D02*
X168609524Y-103077200D01*
X168609524Y-103077200D02*
X168704762Y-103124819D01*
X168704762Y-103124819D02*
X168895238Y-103124819D01*
X168895238Y-103124819D02*
X168990476Y-103077200D01*
X168990476Y-103077200D02*
X169038095Y-103029580D01*
X169038095Y-103029580D02*
X169085714Y-102934342D01*
X169085714Y-102934342D02*
X169085714Y-102743866D01*
X169085714Y-102743866D02*
X169038095Y-102648628D01*
X169038095Y-102648628D02*
X168990476Y-102601009D01*
X168990476Y-102601009D02*
X168895238Y-102553390D01*
X132266667Y-105907200D02*
X132409524Y-105954819D01*
X132409524Y-105954819D02*
X132647619Y-105954819D01*
X132647619Y-105954819D02*
X132742857Y-105907200D01*
X132742857Y-105907200D02*
X132790476Y-105859580D01*
X132790476Y-105859580D02*
X132838095Y-105764342D01*
X132838095Y-105764342D02*
X132838095Y-105669104D01*
X132838095Y-105669104D02*
X132790476Y-105573866D01*
X132790476Y-105573866D02*
X132742857Y-105526247D01*
X132742857Y-105526247D02*
X132647619Y-105478628D01*
X132647619Y-105478628D02*
X132457143Y-105431009D01*
X132457143Y-105431009D02*
X132361905Y-105383390D01*
X132361905Y-105383390D02*
X132314286Y-105335771D01*
X132314286Y-105335771D02*
X132266667Y-105240533D01*
X132266667Y-105240533D02*
X132266667Y-105145295D01*
X132266667Y-105145295D02*
X132314286Y-105050057D01*
X132314286Y-105050057D02*
X132361905Y-105002438D01*
X132361905Y-105002438D02*
X132457143Y-104954819D01*
X132457143Y-104954819D02*
X132695238Y-104954819D01*
X132695238Y-104954819D02*
X132838095Y-105002438D01*
X133171429Y-104954819D02*
X133409524Y-105954819D01*
X133409524Y-105954819D02*
X133600000Y-105240533D01*
X133600000Y-105240533D02*
X133790476Y-105954819D01*
X133790476Y-105954819D02*
X134028572Y-104954819D01*
X134314286Y-104954819D02*
X134933333Y-104954819D01*
X134933333Y-104954819D02*
X134600000Y-105335771D01*
X134600000Y-105335771D02*
X134742857Y-105335771D01*
X134742857Y-105335771D02*
X134838095Y-105383390D01*
X134838095Y-105383390D02*
X134885714Y-105431009D01*
X134885714Y-105431009D02*
X134933333Y-105526247D01*
X134933333Y-105526247D02*
X134933333Y-105764342D01*
X134933333Y-105764342D02*
X134885714Y-105859580D01*
X134885714Y-105859580D02*
X134838095Y-105907200D01*
X134838095Y-105907200D02*
X134742857Y-105954819D01*
X134742857Y-105954819D02*
X134457143Y-105954819D01*
X134457143Y-105954819D02*
X134361905Y-105907200D01*
X134361905Y-105907200D02*
X134314286Y-105859580D01*
X183349580Y-105666666D02*
X183397200Y-105714285D01*
X183397200Y-105714285D02*
X183444819Y-105857142D01*
X183444819Y-105857142D02*
X183444819Y-105952380D01*
X183444819Y-105952380D02*
X183397200Y-106095237D01*
X183397200Y-106095237D02*
X183301961Y-106190475D01*
X183301961Y-106190475D02*
X183206723Y-106238094D01*
X183206723Y-106238094D02*
X183016247Y-106285713D01*
X183016247Y-106285713D02*
X182873390Y-106285713D01*
X182873390Y-106285713D02*
X182682914Y-106238094D01*
X182682914Y-106238094D02*
X182587676Y-106190475D01*
X182587676Y-106190475D02*
X182492438Y-106095237D01*
X182492438Y-106095237D02*
X182444819Y-105952380D01*
X182444819Y-105952380D02*
X182444819Y-105857142D01*
X182444819Y-105857142D02*
X182492438Y-105714285D01*
X182492438Y-105714285D02*
X182540057Y-105666666D01*
X182444819Y-105333332D02*
X182444819Y-104666666D01*
X182444819Y-104666666D02*
X183444819Y-105095237D01*
X186083333Y-115999580D02*
X186035714Y-116047200D01*
X186035714Y-116047200D02*
X185892857Y-116094819D01*
X185892857Y-116094819D02*
X185797619Y-116094819D01*
X185797619Y-116094819D02*
X185654762Y-116047200D01*
X185654762Y-116047200D02*
X185559524Y-115951961D01*
X185559524Y-115951961D02*
X185511905Y-115856723D01*
X185511905Y-115856723D02*
X185464286Y-115666247D01*
X185464286Y-115666247D02*
X185464286Y-115523390D01*
X185464286Y-115523390D02*
X185511905Y-115332914D01*
X185511905Y-115332914D02*
X185559524Y-115237676D01*
X185559524Y-115237676D02*
X185654762Y-115142438D01*
X185654762Y-115142438D02*
X185797619Y-115094819D01*
X185797619Y-115094819D02*
X185892857Y-115094819D01*
X185892857Y-115094819D02*
X186035714Y-115142438D01*
X186035714Y-115142438D02*
X186083333Y-115190057D01*
X186654762Y-115523390D02*
X186559524Y-115475771D01*
X186559524Y-115475771D02*
X186511905Y-115428152D01*
X186511905Y-115428152D02*
X186464286Y-115332914D01*
X186464286Y-115332914D02*
X186464286Y-115285295D01*
X186464286Y-115285295D02*
X186511905Y-115190057D01*
X186511905Y-115190057D02*
X186559524Y-115142438D01*
X186559524Y-115142438D02*
X186654762Y-115094819D01*
X186654762Y-115094819D02*
X186845238Y-115094819D01*
X186845238Y-115094819D02*
X186940476Y-115142438D01*
X186940476Y-115142438D02*
X186988095Y-115190057D01*
X186988095Y-115190057D02*
X187035714Y-115285295D01*
X187035714Y-115285295D02*
X187035714Y-115332914D01*
X187035714Y-115332914D02*
X186988095Y-115428152D01*
X186988095Y-115428152D02*
X186940476Y-115475771D01*
X186940476Y-115475771D02*
X186845238Y-115523390D01*
X186845238Y-115523390D02*
X186654762Y-115523390D01*
X186654762Y-115523390D02*
X186559524Y-115571009D01*
X186559524Y-115571009D02*
X186511905Y-115618628D01*
X186511905Y-115618628D02*
X186464286Y-115713866D01*
X186464286Y-115713866D02*
X186464286Y-115904342D01*
X186464286Y-115904342D02*
X186511905Y-115999580D01*
X186511905Y-115999580D02*
X186559524Y-116047200D01*
X186559524Y-116047200D02*
X186654762Y-116094819D01*
X186654762Y-116094819D02*
X186845238Y-116094819D01*
X186845238Y-116094819D02*
X186940476Y-116047200D01*
X186940476Y-116047200D02*
X186988095Y-115999580D01*
X186988095Y-115999580D02*
X187035714Y-115904342D01*
X187035714Y-115904342D02*
X187035714Y-115713866D01*
X187035714Y-115713866D02*
X186988095Y-115618628D01*
X186988095Y-115618628D02*
X186940476Y-115571009D01*
X186940476Y-115571009D02*
X186845238Y-115523390D01*
X177688095Y-108334819D02*
X177688095Y-109144342D01*
X177688095Y-109144342D02*
X177735714Y-109239580D01*
X177735714Y-109239580D02*
X177783333Y-109287200D01*
X177783333Y-109287200D02*
X177878571Y-109334819D01*
X177878571Y-109334819D02*
X178069047Y-109334819D01*
X178069047Y-109334819D02*
X178164285Y-109287200D01*
X178164285Y-109287200D02*
X178211904Y-109239580D01*
X178211904Y-109239580D02*
X178259523Y-109144342D01*
X178259523Y-109144342D02*
X178259523Y-108334819D01*
X178688095Y-108430057D02*
X178735714Y-108382438D01*
X178735714Y-108382438D02*
X178830952Y-108334819D01*
X178830952Y-108334819D02*
X179069047Y-108334819D01*
X179069047Y-108334819D02*
X179164285Y-108382438D01*
X179164285Y-108382438D02*
X179211904Y-108430057D01*
X179211904Y-108430057D02*
X179259523Y-108525295D01*
X179259523Y-108525295D02*
X179259523Y-108620533D01*
X179259523Y-108620533D02*
X179211904Y-108763390D01*
X179211904Y-108763390D02*
X178640476Y-109334819D01*
X178640476Y-109334819D02*
X179259523Y-109334819D01*
X128454819Y-102738094D02*
X127454819Y-102738094D01*
X127454819Y-102738094D02*
X127454819Y-102499999D01*
X127454819Y-102499999D02*
X127502438Y-102357142D01*
X127502438Y-102357142D02*
X127597676Y-102261904D01*
X127597676Y-102261904D02*
X127692914Y-102214285D01*
X127692914Y-102214285D02*
X127883390Y-102166666D01*
X127883390Y-102166666D02*
X128026247Y-102166666D01*
X128026247Y-102166666D02*
X128216723Y-102214285D01*
X128216723Y-102214285D02*
X128311961Y-102261904D01*
X128311961Y-102261904D02*
X128407200Y-102357142D01*
X128407200Y-102357142D02*
X128454819Y-102499999D01*
X128454819Y-102499999D02*
X128454819Y-102738094D01*
X127550057Y-101785713D02*
X127502438Y-101738094D01*
X127502438Y-101738094D02*
X127454819Y-101642856D01*
X127454819Y-101642856D02*
X127454819Y-101404761D01*
X127454819Y-101404761D02*
X127502438Y-101309523D01*
X127502438Y-101309523D02*
X127550057Y-101261904D01*
X127550057Y-101261904D02*
X127645295Y-101214285D01*
X127645295Y-101214285D02*
X127740533Y-101214285D01*
X127740533Y-101214285D02*
X127883390Y-101261904D01*
X127883390Y-101261904D02*
X128454819Y-101833332D01*
X128454819Y-101833332D02*
X128454819Y-101214285D01*
X168957142Y-111369580D02*
X168909523Y-111417200D01*
X168909523Y-111417200D02*
X168766666Y-111464819D01*
X168766666Y-111464819D02*
X168671428Y-111464819D01*
X168671428Y-111464819D02*
X168528571Y-111417200D01*
X168528571Y-111417200D02*
X168433333Y-111321961D01*
X168433333Y-111321961D02*
X168385714Y-111226723D01*
X168385714Y-111226723D02*
X168338095Y-111036247D01*
X168338095Y-111036247D02*
X168338095Y-110893390D01*
X168338095Y-110893390D02*
X168385714Y-110702914D01*
X168385714Y-110702914D02*
X168433333Y-110607676D01*
X168433333Y-110607676D02*
X168528571Y-110512438D01*
X168528571Y-110512438D02*
X168671428Y-110464819D01*
X168671428Y-110464819D02*
X168766666Y-110464819D01*
X168766666Y-110464819D02*
X168909523Y-110512438D01*
X168909523Y-110512438D02*
X168957142Y-110560057D01*
X169909523Y-111464819D02*
X169338095Y-111464819D01*
X169623809Y-111464819D02*
X169623809Y-110464819D01*
X169623809Y-110464819D02*
X169528571Y-110607676D01*
X169528571Y-110607676D02*
X169433333Y-110702914D01*
X169433333Y-110702914D02*
X169338095Y-110750533D01*
X170861904Y-111464819D02*
X170290476Y-111464819D01*
X170576190Y-111464819D02*
X170576190Y-110464819D01*
X170576190Y-110464819D02*
X170480952Y-110607676D01*
X170480952Y-110607676D02*
X170385714Y-110702914D01*
X170385714Y-110702914D02*
X170290476Y-110750533D01*
X178449580Y-107466666D02*
X178497200Y-107514285D01*
X178497200Y-107514285D02*
X178544819Y-107657142D01*
X178544819Y-107657142D02*
X178544819Y-107752380D01*
X178544819Y-107752380D02*
X178497200Y-107895237D01*
X178497200Y-107895237D02*
X178401961Y-107990475D01*
X178401961Y-107990475D02*
X178306723Y-108038094D01*
X178306723Y-108038094D02*
X178116247Y-108085713D01*
X178116247Y-108085713D02*
X177973390Y-108085713D01*
X177973390Y-108085713D02*
X177782914Y-108038094D01*
X177782914Y-108038094D02*
X177687676Y-107990475D01*
X177687676Y-107990475D02*
X177592438Y-107895237D01*
X177592438Y-107895237D02*
X177544819Y-107752380D01*
X177544819Y-107752380D02*
X177544819Y-107657142D01*
X177544819Y-107657142D02*
X177592438Y-107514285D01*
X177592438Y-107514285D02*
X177640057Y-107466666D01*
X177544819Y-106561904D02*
X177544819Y-107038094D01*
X177544819Y-107038094D02*
X178021009Y-107085713D01*
X178021009Y-107085713D02*
X177973390Y-107038094D01*
X177973390Y-107038094D02*
X177925771Y-106942856D01*
X177925771Y-106942856D02*
X177925771Y-106704761D01*
X177925771Y-106704761D02*
X177973390Y-106609523D01*
X177973390Y-106609523D02*
X178021009Y-106561904D01*
X178021009Y-106561904D02*
X178116247Y-106514285D01*
X178116247Y-106514285D02*
X178354342Y-106514285D01*
X178354342Y-106514285D02*
X178449580Y-106561904D01*
X178449580Y-106561904D02*
X178497200Y-106609523D01*
X178497200Y-106609523D02*
X178544819Y-106704761D01*
X178544819Y-106704761D02*
X178544819Y-106942856D01*
X178544819Y-106942856D02*
X178497200Y-107038094D01*
X178497200Y-107038094D02*
X178449580Y-107085713D01*
X113216667Y-124957200D02*
X113359524Y-125004819D01*
X113359524Y-125004819D02*
X113597619Y-125004819D01*
X113597619Y-125004819D02*
X113692857Y-124957200D01*
X113692857Y-124957200D02*
X113740476Y-124909580D01*
X113740476Y-124909580D02*
X113788095Y-124814342D01*
X113788095Y-124814342D02*
X113788095Y-124719104D01*
X113788095Y-124719104D02*
X113740476Y-124623866D01*
X113740476Y-124623866D02*
X113692857Y-124576247D01*
X113692857Y-124576247D02*
X113597619Y-124528628D01*
X113597619Y-124528628D02*
X113407143Y-124481009D01*
X113407143Y-124481009D02*
X113311905Y-124433390D01*
X113311905Y-124433390D02*
X113264286Y-124385771D01*
X113264286Y-124385771D02*
X113216667Y-124290533D01*
X113216667Y-124290533D02*
X113216667Y-124195295D01*
X113216667Y-124195295D02*
X113264286Y-124100057D01*
X113264286Y-124100057D02*
X113311905Y-124052438D01*
X113311905Y-124052438D02*
X113407143Y-124004819D01*
X113407143Y-124004819D02*
X113645238Y-124004819D01*
X113645238Y-124004819D02*
X113788095Y-124052438D01*
X114121429Y-124004819D02*
X114359524Y-125004819D01*
X114359524Y-125004819D02*
X114550000Y-124290533D01*
X114550000Y-124290533D02*
X114740476Y-125004819D01*
X114740476Y-125004819D02*
X114978572Y-124004819D01*
X115788095Y-124004819D02*
X115597619Y-124004819D01*
X115597619Y-124004819D02*
X115502381Y-124052438D01*
X115502381Y-124052438D02*
X115454762Y-124100057D01*
X115454762Y-124100057D02*
X115359524Y-124242914D01*
X115359524Y-124242914D02*
X115311905Y-124433390D01*
X115311905Y-124433390D02*
X115311905Y-124814342D01*
X115311905Y-124814342D02*
X115359524Y-124909580D01*
X115359524Y-124909580D02*
X115407143Y-124957200D01*
X115407143Y-124957200D02*
X115502381Y-125004819D01*
X115502381Y-125004819D02*
X115692857Y-125004819D01*
X115692857Y-125004819D02*
X115788095Y-124957200D01*
X115788095Y-124957200D02*
X115835714Y-124909580D01*
X115835714Y-124909580D02*
X115883333Y-124814342D01*
X115883333Y-124814342D02*
X115883333Y-124576247D01*
X115883333Y-124576247D02*
X115835714Y-124481009D01*
X115835714Y-124481009D02*
X115788095Y-124433390D01*
X115788095Y-124433390D02*
X115692857Y-124385771D01*
X115692857Y-124385771D02*
X115502381Y-124385771D01*
X115502381Y-124385771D02*
X115407143Y-124433390D01*
X115407143Y-124433390D02*
X115359524Y-124481009D01*
X115359524Y-124481009D02*
X115311905Y-124576247D01*
X172107142Y-101969580D02*
X172059523Y-102017200D01*
X172059523Y-102017200D02*
X171916666Y-102064819D01*
X171916666Y-102064819D02*
X171821428Y-102064819D01*
X171821428Y-102064819D02*
X171678571Y-102017200D01*
X171678571Y-102017200D02*
X171583333Y-101921961D01*
X171583333Y-101921961D02*
X171535714Y-101826723D01*
X171535714Y-101826723D02*
X171488095Y-101636247D01*
X171488095Y-101636247D02*
X171488095Y-101493390D01*
X171488095Y-101493390D02*
X171535714Y-101302914D01*
X171535714Y-101302914D02*
X171583333Y-101207676D01*
X171583333Y-101207676D02*
X171678571Y-101112438D01*
X171678571Y-101112438D02*
X171821428Y-101064819D01*
X171821428Y-101064819D02*
X171916666Y-101064819D01*
X171916666Y-101064819D02*
X172059523Y-101112438D01*
X172059523Y-101112438D02*
X172107142Y-101160057D01*
X173059523Y-102064819D02*
X172488095Y-102064819D01*
X172773809Y-102064819D02*
X172773809Y-101064819D01*
X172773809Y-101064819D02*
X172678571Y-101207676D01*
X172678571Y-101207676D02*
X172583333Y-101302914D01*
X172583333Y-101302914D02*
X172488095Y-101350533D01*
X173916666Y-101398152D02*
X173916666Y-102064819D01*
X173678571Y-101017200D02*
X173440476Y-101731485D01*
X173440476Y-101731485D02*
X174059523Y-101731485D01*
X181369580Y-120766666D02*
X181417200Y-120814285D01*
X181417200Y-120814285D02*
X181464819Y-120957142D01*
X181464819Y-120957142D02*
X181464819Y-121052380D01*
X181464819Y-121052380D02*
X181417200Y-121195237D01*
X181417200Y-121195237D02*
X181321961Y-121290475D01*
X181321961Y-121290475D02*
X181226723Y-121338094D01*
X181226723Y-121338094D02*
X181036247Y-121385713D01*
X181036247Y-121385713D02*
X180893390Y-121385713D01*
X180893390Y-121385713D02*
X180702914Y-121338094D01*
X180702914Y-121338094D02*
X180607676Y-121290475D01*
X180607676Y-121290475D02*
X180512438Y-121195237D01*
X180512438Y-121195237D02*
X180464819Y-121052380D01*
X180464819Y-121052380D02*
X180464819Y-120957142D01*
X180464819Y-120957142D02*
X180512438Y-120814285D01*
X180512438Y-120814285D02*
X180560057Y-120766666D01*
X181464819Y-120290475D02*
X181464819Y-120099999D01*
X181464819Y-120099999D02*
X181417200Y-120004761D01*
X181417200Y-120004761D02*
X181369580Y-119957142D01*
X181369580Y-119957142D02*
X181226723Y-119861904D01*
X181226723Y-119861904D02*
X181036247Y-119814285D01*
X181036247Y-119814285D02*
X180655295Y-119814285D01*
X180655295Y-119814285D02*
X180560057Y-119861904D01*
X180560057Y-119861904D02*
X180512438Y-119909523D01*
X180512438Y-119909523D02*
X180464819Y-120004761D01*
X180464819Y-120004761D02*
X180464819Y-120195237D01*
X180464819Y-120195237D02*
X180512438Y-120290475D01*
X180512438Y-120290475D02*
X180560057Y-120338094D01*
X180560057Y-120338094D02*
X180655295Y-120385713D01*
X180655295Y-120385713D02*
X180893390Y-120385713D01*
X180893390Y-120385713D02*
X180988628Y-120338094D01*
X180988628Y-120338094D02*
X181036247Y-120290475D01*
X181036247Y-120290475D02*
X181083866Y-120195237D01*
X181083866Y-120195237D02*
X181083866Y-120004761D01*
X181083866Y-120004761D02*
X181036247Y-119909523D01*
X181036247Y-119909523D02*
X180988628Y-119861904D01*
X180988628Y-119861904D02*
X180893390Y-119814285D01*
X109454819Y-121938094D02*
X108454819Y-121938094D01*
X108454819Y-121938094D02*
X108454819Y-121699999D01*
X108454819Y-121699999D02*
X108502438Y-121557142D01*
X108502438Y-121557142D02*
X108597676Y-121461904D01*
X108597676Y-121461904D02*
X108692914Y-121414285D01*
X108692914Y-121414285D02*
X108883390Y-121366666D01*
X108883390Y-121366666D02*
X109026247Y-121366666D01*
X109026247Y-121366666D02*
X109216723Y-121414285D01*
X109216723Y-121414285D02*
X109311961Y-121461904D01*
X109311961Y-121461904D02*
X109407200Y-121557142D01*
X109407200Y-121557142D02*
X109454819Y-121699999D01*
X109454819Y-121699999D02*
X109454819Y-121938094D01*
X108454819Y-120461904D02*
X108454819Y-120938094D01*
X108454819Y-120938094D02*
X108931009Y-120985713D01*
X108931009Y-120985713D02*
X108883390Y-120938094D01*
X108883390Y-120938094D02*
X108835771Y-120842856D01*
X108835771Y-120842856D02*
X108835771Y-120604761D01*
X108835771Y-120604761D02*
X108883390Y-120509523D01*
X108883390Y-120509523D02*
X108931009Y-120461904D01*
X108931009Y-120461904D02*
X109026247Y-120414285D01*
X109026247Y-120414285D02*
X109264342Y-120414285D01*
X109264342Y-120414285D02*
X109359580Y-120461904D01*
X109359580Y-120461904D02*
X109407200Y-120509523D01*
X109407200Y-120509523D02*
X109454819Y-120604761D01*
X109454819Y-120604761D02*
X109454819Y-120842856D01*
X109454819Y-120842856D02*
X109407200Y-120938094D01*
X109407200Y-120938094D02*
X109359580Y-120985713D01*
X181674819Y-101866666D02*
X181198628Y-102199999D01*
X181674819Y-102438094D02*
X180674819Y-102438094D01*
X180674819Y-102438094D02*
X180674819Y-102057142D01*
X180674819Y-102057142D02*
X180722438Y-101961904D01*
X180722438Y-101961904D02*
X180770057Y-101914285D01*
X180770057Y-101914285D02*
X180865295Y-101866666D01*
X180865295Y-101866666D02*
X181008152Y-101866666D01*
X181008152Y-101866666D02*
X181103390Y-101914285D01*
X181103390Y-101914285D02*
X181151009Y-101961904D01*
X181151009Y-101961904D02*
X181198628Y-102057142D01*
X181198628Y-102057142D02*
X181198628Y-102438094D01*
X180770057Y-101485713D02*
X180722438Y-101438094D01*
X180722438Y-101438094D02*
X180674819Y-101342856D01*
X180674819Y-101342856D02*
X180674819Y-101104761D01*
X180674819Y-101104761D02*
X180722438Y-101009523D01*
X180722438Y-101009523D02*
X180770057Y-100961904D01*
X180770057Y-100961904D02*
X180865295Y-100914285D01*
X180865295Y-100914285D02*
X180960533Y-100914285D01*
X180960533Y-100914285D02*
X181103390Y-100961904D01*
X181103390Y-100961904D02*
X181674819Y-101533332D01*
X181674819Y-101533332D02*
X181674819Y-100914285D01*
X168857142Y-115019580D02*
X168809523Y-115067200D01*
X168809523Y-115067200D02*
X168666666Y-115114819D01*
X168666666Y-115114819D02*
X168571428Y-115114819D01*
X168571428Y-115114819D02*
X168428571Y-115067200D01*
X168428571Y-115067200D02*
X168333333Y-114971961D01*
X168333333Y-114971961D02*
X168285714Y-114876723D01*
X168285714Y-114876723D02*
X168238095Y-114686247D01*
X168238095Y-114686247D02*
X168238095Y-114543390D01*
X168238095Y-114543390D02*
X168285714Y-114352914D01*
X168285714Y-114352914D02*
X168333333Y-114257676D01*
X168333333Y-114257676D02*
X168428571Y-114162438D01*
X168428571Y-114162438D02*
X168571428Y-114114819D01*
X168571428Y-114114819D02*
X168666666Y-114114819D01*
X168666666Y-114114819D02*
X168809523Y-114162438D01*
X168809523Y-114162438D02*
X168857142Y-114210057D01*
X169809523Y-115114819D02*
X169238095Y-115114819D01*
X169523809Y-115114819D02*
X169523809Y-114114819D01*
X169523809Y-114114819D02*
X169428571Y-114257676D01*
X169428571Y-114257676D02*
X169333333Y-114352914D01*
X169333333Y-114352914D02*
X169238095Y-114400533D01*
X170428571Y-114114819D02*
X170523809Y-114114819D01*
X170523809Y-114114819D02*
X170619047Y-114162438D01*
X170619047Y-114162438D02*
X170666666Y-114210057D01*
X170666666Y-114210057D02*
X170714285Y-114305295D01*
X170714285Y-114305295D02*
X170761904Y-114495771D01*
X170761904Y-114495771D02*
X170761904Y-114733866D01*
X170761904Y-114733866D02*
X170714285Y-114924342D01*
X170714285Y-114924342D02*
X170666666Y-115019580D01*
X170666666Y-115019580D02*
X170619047Y-115067200D01*
X170619047Y-115067200D02*
X170523809Y-115114819D01*
X170523809Y-115114819D02*
X170428571Y-115114819D01*
X170428571Y-115114819D02*
X170333333Y-115067200D01*
X170333333Y-115067200D02*
X170285714Y-115019580D01*
X170285714Y-115019580D02*
X170238095Y-114924342D01*
X170238095Y-114924342D02*
X170190476Y-114733866D01*
X170190476Y-114733866D02*
X170190476Y-114495771D01*
X170190476Y-114495771D02*
X170238095Y-114305295D01*
X170238095Y-114305295D02*
X170285714Y-114210057D01*
X170285714Y-114210057D02*
X170333333Y-114162438D01*
X170333333Y-114162438D02*
X170428571Y-114114819D01*
X147454819Y-102738094D02*
X146454819Y-102738094D01*
X146454819Y-102738094D02*
X146454819Y-102499999D01*
X146454819Y-102499999D02*
X146502438Y-102357142D01*
X146502438Y-102357142D02*
X146597676Y-102261904D01*
X146597676Y-102261904D02*
X146692914Y-102214285D01*
X146692914Y-102214285D02*
X146883390Y-102166666D01*
X146883390Y-102166666D02*
X147026247Y-102166666D01*
X147026247Y-102166666D02*
X147216723Y-102214285D01*
X147216723Y-102214285D02*
X147311961Y-102261904D01*
X147311961Y-102261904D02*
X147407200Y-102357142D01*
X147407200Y-102357142D02*
X147454819Y-102499999D01*
X147454819Y-102499999D02*
X147454819Y-102738094D01*
X146454819Y-101833332D02*
X146454819Y-101214285D01*
X146454819Y-101214285D02*
X146835771Y-101547618D01*
X146835771Y-101547618D02*
X146835771Y-101404761D01*
X146835771Y-101404761D02*
X146883390Y-101309523D01*
X146883390Y-101309523D02*
X146931009Y-101261904D01*
X146931009Y-101261904D02*
X147026247Y-101214285D01*
X147026247Y-101214285D02*
X147264342Y-101214285D01*
X147264342Y-101214285D02*
X147359580Y-101261904D01*
X147359580Y-101261904D02*
X147407200Y-101309523D01*
X147407200Y-101309523D02*
X147454819Y-101404761D01*
X147454819Y-101404761D02*
X147454819Y-101690475D01*
X147454819Y-101690475D02*
X147407200Y-101785713D01*
X147407200Y-101785713D02*
X147359580Y-101833332D01*
X183947618Y-122554819D02*
X183614285Y-122078628D01*
X183376190Y-122554819D02*
X183376190Y-121554819D01*
X183376190Y-121554819D02*
X183757142Y-121554819D01*
X183757142Y-121554819D02*
X183852380Y-121602438D01*
X183852380Y-121602438D02*
X183899999Y-121650057D01*
X183899999Y-121650057D02*
X183947618Y-121745295D01*
X183947618Y-121745295D02*
X183947618Y-121888152D01*
X183947618Y-121888152D02*
X183899999Y-121983390D01*
X183899999Y-121983390D02*
X183852380Y-122031009D01*
X183852380Y-122031009D02*
X183757142Y-122078628D01*
X183757142Y-122078628D02*
X183376190Y-122078628D01*
X184376190Y-122031009D02*
X184709523Y-122031009D01*
X184852380Y-122554819D02*
X184376190Y-122554819D01*
X184376190Y-122554819D02*
X184376190Y-121554819D01*
X184376190Y-121554819D02*
X184852380Y-121554819D01*
X185233333Y-122507200D02*
X185376190Y-122554819D01*
X185376190Y-122554819D02*
X185614285Y-122554819D01*
X185614285Y-122554819D02*
X185709523Y-122507200D01*
X185709523Y-122507200D02*
X185757142Y-122459580D01*
X185757142Y-122459580D02*
X185804761Y-122364342D01*
X185804761Y-122364342D02*
X185804761Y-122269104D01*
X185804761Y-122269104D02*
X185757142Y-122173866D01*
X185757142Y-122173866D02*
X185709523Y-122126247D01*
X185709523Y-122126247D02*
X185614285Y-122078628D01*
X185614285Y-122078628D02*
X185423809Y-122031009D01*
X185423809Y-122031009D02*
X185328571Y-121983390D01*
X185328571Y-121983390D02*
X185280952Y-121935771D01*
X185280952Y-121935771D02*
X185233333Y-121840533D01*
X185233333Y-121840533D02*
X185233333Y-121745295D01*
X185233333Y-121745295D02*
X185280952Y-121650057D01*
X185280952Y-121650057D02*
X185328571Y-121602438D01*
X185328571Y-121602438D02*
X185423809Y-121554819D01*
X185423809Y-121554819D02*
X185661904Y-121554819D01*
X185661904Y-121554819D02*
X185804761Y-121602438D01*
X186233333Y-122031009D02*
X186566666Y-122031009D01*
X186709523Y-122554819D02*
X186233333Y-122554819D01*
X186233333Y-122554819D02*
X186233333Y-121554819D01*
X186233333Y-121554819D02*
X186709523Y-121554819D01*
X186995238Y-121554819D02*
X187566666Y-121554819D01*
X187280952Y-122554819D02*
X187280952Y-121554819D01*
X179584819Y-107516666D02*
X179108628Y-107849999D01*
X179584819Y-108088094D02*
X178584819Y-108088094D01*
X178584819Y-108088094D02*
X178584819Y-107707142D01*
X178584819Y-107707142D02*
X178632438Y-107611904D01*
X178632438Y-107611904D02*
X178680057Y-107564285D01*
X178680057Y-107564285D02*
X178775295Y-107516666D01*
X178775295Y-107516666D02*
X178918152Y-107516666D01*
X178918152Y-107516666D02*
X179013390Y-107564285D01*
X179013390Y-107564285D02*
X179061009Y-107611904D01*
X179061009Y-107611904D02*
X179108628Y-107707142D01*
X179108628Y-107707142D02*
X179108628Y-108088094D01*
X178918152Y-106659523D02*
X179584819Y-106659523D01*
X178537200Y-106897618D02*
X179251485Y-107135713D01*
X179251485Y-107135713D02*
X179251485Y-106516666D01*
X128554819Y-121938094D02*
X127554819Y-121938094D01*
X127554819Y-121938094D02*
X127554819Y-121699999D01*
X127554819Y-121699999D02*
X127602438Y-121557142D01*
X127602438Y-121557142D02*
X127697676Y-121461904D01*
X127697676Y-121461904D02*
X127792914Y-121414285D01*
X127792914Y-121414285D02*
X127983390Y-121366666D01*
X127983390Y-121366666D02*
X128126247Y-121366666D01*
X128126247Y-121366666D02*
X128316723Y-121414285D01*
X128316723Y-121414285D02*
X128411961Y-121461904D01*
X128411961Y-121461904D02*
X128507200Y-121557142D01*
X128507200Y-121557142D02*
X128554819Y-121699999D01*
X128554819Y-121699999D02*
X128554819Y-121938094D01*
X127554819Y-120509523D02*
X127554819Y-120699999D01*
X127554819Y-120699999D02*
X127602438Y-120795237D01*
X127602438Y-120795237D02*
X127650057Y-120842856D01*
X127650057Y-120842856D02*
X127792914Y-120938094D01*
X127792914Y-120938094D02*
X127983390Y-120985713D01*
X127983390Y-120985713D02*
X128364342Y-120985713D01*
X128364342Y-120985713D02*
X128459580Y-120938094D01*
X128459580Y-120938094D02*
X128507200Y-120890475D01*
X128507200Y-120890475D02*
X128554819Y-120795237D01*
X128554819Y-120795237D02*
X128554819Y-120604761D01*
X128554819Y-120604761D02*
X128507200Y-120509523D01*
X128507200Y-120509523D02*
X128459580Y-120461904D01*
X128459580Y-120461904D02*
X128364342Y-120414285D01*
X128364342Y-120414285D02*
X128126247Y-120414285D01*
X128126247Y-120414285D02*
X128031009Y-120461904D01*
X128031009Y-120461904D02*
X127983390Y-120509523D01*
X127983390Y-120509523D02*
X127935771Y-120604761D01*
X127935771Y-120604761D02*
X127935771Y-120795237D01*
X127935771Y-120795237D02*
X127983390Y-120890475D01*
X127983390Y-120890475D02*
X128031009Y-120938094D01*
X128031009Y-120938094D02*
X128126247Y-120985713D01*
X177349580Y-107466666D02*
X177397200Y-107514285D01*
X177397200Y-107514285D02*
X177444819Y-107657142D01*
X177444819Y-107657142D02*
X177444819Y-107752380D01*
X177444819Y-107752380D02*
X177397200Y-107895237D01*
X177397200Y-107895237D02*
X177301961Y-107990475D01*
X177301961Y-107990475D02*
X177206723Y-108038094D01*
X177206723Y-108038094D02*
X177016247Y-108085713D01*
X177016247Y-108085713D02*
X176873390Y-108085713D01*
X176873390Y-108085713D02*
X176682914Y-108038094D01*
X176682914Y-108038094D02*
X176587676Y-107990475D01*
X176587676Y-107990475D02*
X176492438Y-107895237D01*
X176492438Y-107895237D02*
X176444819Y-107752380D01*
X176444819Y-107752380D02*
X176444819Y-107657142D01*
X176444819Y-107657142D02*
X176492438Y-107514285D01*
X176492438Y-107514285D02*
X176540057Y-107466666D01*
X176444819Y-107133332D02*
X176444819Y-106514285D01*
X176444819Y-106514285D02*
X176825771Y-106847618D01*
X176825771Y-106847618D02*
X176825771Y-106704761D01*
X176825771Y-106704761D02*
X176873390Y-106609523D01*
X176873390Y-106609523D02*
X176921009Y-106561904D01*
X176921009Y-106561904D02*
X177016247Y-106514285D01*
X177016247Y-106514285D02*
X177254342Y-106514285D01*
X177254342Y-106514285D02*
X177349580Y-106561904D01*
X177349580Y-106561904D02*
X177397200Y-106609523D01*
X177397200Y-106609523D02*
X177444819Y-106704761D01*
X177444819Y-106704761D02*
X177444819Y-106990475D01*
X177444819Y-106990475D02*
X177397200Y-107085713D01*
X177397200Y-107085713D02*
X177349580Y-107133332D01*
X166654819Y-102738094D02*
X165654819Y-102738094D01*
X165654819Y-102738094D02*
X165654819Y-102499999D01*
X165654819Y-102499999D02*
X165702438Y-102357142D01*
X165702438Y-102357142D02*
X165797676Y-102261904D01*
X165797676Y-102261904D02*
X165892914Y-102214285D01*
X165892914Y-102214285D02*
X166083390Y-102166666D01*
X166083390Y-102166666D02*
X166226247Y-102166666D01*
X166226247Y-102166666D02*
X166416723Y-102214285D01*
X166416723Y-102214285D02*
X166511961Y-102261904D01*
X166511961Y-102261904D02*
X166607200Y-102357142D01*
X166607200Y-102357142D02*
X166654819Y-102499999D01*
X166654819Y-102499999D02*
X166654819Y-102738094D01*
X165988152Y-101309523D02*
X166654819Y-101309523D01*
X165607200Y-101547618D02*
X166321485Y-101785713D01*
X166321485Y-101785713D02*
X166321485Y-101166666D01*
X182699580Y-108342857D02*
X182747200Y-108390476D01*
X182747200Y-108390476D02*
X182794819Y-108533333D01*
X182794819Y-108533333D02*
X182794819Y-108628571D01*
X182794819Y-108628571D02*
X182747200Y-108771428D01*
X182747200Y-108771428D02*
X182651961Y-108866666D01*
X182651961Y-108866666D02*
X182556723Y-108914285D01*
X182556723Y-108914285D02*
X182366247Y-108961904D01*
X182366247Y-108961904D02*
X182223390Y-108961904D01*
X182223390Y-108961904D02*
X182032914Y-108914285D01*
X182032914Y-108914285D02*
X181937676Y-108866666D01*
X181937676Y-108866666D02*
X181842438Y-108771428D01*
X181842438Y-108771428D02*
X181794819Y-108628571D01*
X181794819Y-108628571D02*
X181794819Y-108533333D01*
X181794819Y-108533333D02*
X181842438Y-108390476D01*
X181842438Y-108390476D02*
X181890057Y-108342857D01*
X182794819Y-107390476D02*
X182794819Y-107961904D01*
X182794819Y-107676190D02*
X181794819Y-107676190D01*
X181794819Y-107676190D02*
X181937676Y-107771428D01*
X181937676Y-107771428D02*
X182032914Y-107866666D01*
X182032914Y-107866666D02*
X182080533Y-107961904D01*
X181794819Y-107057142D02*
X181794819Y-106438095D01*
X181794819Y-106438095D02*
X182175771Y-106771428D01*
X182175771Y-106771428D02*
X182175771Y-106628571D01*
X182175771Y-106628571D02*
X182223390Y-106533333D01*
X182223390Y-106533333D02*
X182271009Y-106485714D01*
X182271009Y-106485714D02*
X182366247Y-106438095D01*
X182366247Y-106438095D02*
X182604342Y-106438095D01*
X182604342Y-106438095D02*
X182699580Y-106485714D01*
X182699580Y-106485714D02*
X182747200Y-106533333D01*
X182747200Y-106533333D02*
X182794819Y-106628571D01*
X182794819Y-106628571D02*
X182794819Y-106914285D01*
X182794819Y-106914285D02*
X182747200Y-107009523D01*
X182747200Y-107009523D02*
X182699580Y-107057142D01*
X177973809Y-124978628D02*
X177973809Y-125454819D01*
X177640476Y-124454819D02*
X177973809Y-124978628D01*
X177973809Y-124978628D02*
X178307142Y-124454819D01*
X179164285Y-125454819D02*
X178592857Y-125454819D01*
X178878571Y-125454819D02*
X178878571Y-124454819D01*
X178878571Y-124454819D02*
X178783333Y-124597676D01*
X178783333Y-124597676D02*
X178688095Y-124692914D01*
X178688095Y-124692914D02*
X178592857Y-124740533D01*
X113216667Y-105907200D02*
X113359524Y-105954819D01*
X113359524Y-105954819D02*
X113597619Y-105954819D01*
X113597619Y-105954819D02*
X113692857Y-105907200D01*
X113692857Y-105907200D02*
X113740476Y-105859580D01*
X113740476Y-105859580D02*
X113788095Y-105764342D01*
X113788095Y-105764342D02*
X113788095Y-105669104D01*
X113788095Y-105669104D02*
X113740476Y-105573866D01*
X113740476Y-105573866D02*
X113692857Y-105526247D01*
X113692857Y-105526247D02*
X113597619Y-105478628D01*
X113597619Y-105478628D02*
X113407143Y-105431009D01*
X113407143Y-105431009D02*
X113311905Y-105383390D01*
X113311905Y-105383390D02*
X113264286Y-105335771D01*
X113264286Y-105335771D02*
X113216667Y-105240533D01*
X113216667Y-105240533D02*
X113216667Y-105145295D01*
X113216667Y-105145295D02*
X113264286Y-105050057D01*
X113264286Y-105050057D02*
X113311905Y-105002438D01*
X113311905Y-105002438D02*
X113407143Y-104954819D01*
X113407143Y-104954819D02*
X113645238Y-104954819D01*
X113645238Y-104954819D02*
X113788095Y-105002438D01*
X114121429Y-104954819D02*
X114359524Y-105954819D01*
X114359524Y-105954819D02*
X114550000Y-105240533D01*
X114550000Y-105240533D02*
X114740476Y-105954819D01*
X114740476Y-105954819D02*
X114978572Y-104954819D01*
X115311905Y-105050057D02*
X115359524Y-105002438D01*
X115359524Y-105002438D02*
X115454762Y-104954819D01*
X115454762Y-104954819D02*
X115692857Y-104954819D01*
X115692857Y-104954819D02*
X115788095Y-105002438D01*
X115788095Y-105002438D02*
X115835714Y-105050057D01*
X115835714Y-105050057D02*
X115883333Y-105145295D01*
X115883333Y-105145295D02*
X115883333Y-105240533D01*
X115883333Y-105240533D02*
X115835714Y-105383390D01*
X115835714Y-105383390D02*
X115264286Y-105954819D01*
X115264286Y-105954819D02*
X115883333Y-105954819D01*
X94166667Y-105907200D02*
X94309524Y-105954819D01*
X94309524Y-105954819D02*
X94547619Y-105954819D01*
X94547619Y-105954819D02*
X94642857Y-105907200D01*
X94642857Y-105907200D02*
X94690476Y-105859580D01*
X94690476Y-105859580D02*
X94738095Y-105764342D01*
X94738095Y-105764342D02*
X94738095Y-105669104D01*
X94738095Y-105669104D02*
X94690476Y-105573866D01*
X94690476Y-105573866D02*
X94642857Y-105526247D01*
X94642857Y-105526247D02*
X94547619Y-105478628D01*
X94547619Y-105478628D02*
X94357143Y-105431009D01*
X94357143Y-105431009D02*
X94261905Y-105383390D01*
X94261905Y-105383390D02*
X94214286Y-105335771D01*
X94214286Y-105335771D02*
X94166667Y-105240533D01*
X94166667Y-105240533D02*
X94166667Y-105145295D01*
X94166667Y-105145295D02*
X94214286Y-105050057D01*
X94214286Y-105050057D02*
X94261905Y-105002438D01*
X94261905Y-105002438D02*
X94357143Y-104954819D01*
X94357143Y-104954819D02*
X94595238Y-104954819D01*
X94595238Y-104954819D02*
X94738095Y-105002438D01*
X95071429Y-104954819D02*
X95309524Y-105954819D01*
X95309524Y-105954819D02*
X95500000Y-105240533D01*
X95500000Y-105240533D02*
X95690476Y-105954819D01*
X95690476Y-105954819D02*
X95928572Y-104954819D01*
X96833333Y-105954819D02*
X96261905Y-105954819D01*
X96547619Y-105954819D02*
X96547619Y-104954819D01*
X96547619Y-104954819D02*
X96452381Y-105097676D01*
X96452381Y-105097676D02*
X96357143Y-105192914D01*
X96357143Y-105192914D02*
X96261905Y-105240533D01*
X177574819Y-101816666D02*
X177098628Y-102149999D01*
X177574819Y-102388094D02*
X176574819Y-102388094D01*
X176574819Y-102388094D02*
X176574819Y-102007142D01*
X176574819Y-102007142D02*
X176622438Y-101911904D01*
X176622438Y-101911904D02*
X176670057Y-101864285D01*
X176670057Y-101864285D02*
X176765295Y-101816666D01*
X176765295Y-101816666D02*
X176908152Y-101816666D01*
X176908152Y-101816666D02*
X177003390Y-101864285D01*
X177003390Y-101864285D02*
X177051009Y-101911904D01*
X177051009Y-101911904D02*
X177098628Y-102007142D01*
X177098628Y-102007142D02*
X177098628Y-102388094D01*
X176574819Y-101483332D02*
X176574819Y-100864285D01*
X176574819Y-100864285D02*
X176955771Y-101197618D01*
X176955771Y-101197618D02*
X176955771Y-101054761D01*
X176955771Y-101054761D02*
X177003390Y-100959523D01*
X177003390Y-100959523D02*
X177051009Y-100911904D01*
X177051009Y-100911904D02*
X177146247Y-100864285D01*
X177146247Y-100864285D02*
X177384342Y-100864285D01*
X177384342Y-100864285D02*
X177479580Y-100911904D01*
X177479580Y-100911904D02*
X177527200Y-100959523D01*
X177527200Y-100959523D02*
X177574819Y-101054761D01*
X177574819Y-101054761D02*
X177574819Y-101340475D01*
X177574819Y-101340475D02*
X177527200Y-101435713D01*
X177527200Y-101435713D02*
X177479580Y-101483332D01*
X196866666Y-104504819D02*
X196866666Y-105219104D01*
X196866666Y-105219104D02*
X196819047Y-105361961D01*
X196819047Y-105361961D02*
X196723809Y-105457200D01*
X196723809Y-105457200D02*
X196580952Y-105504819D01*
X196580952Y-105504819D02*
X196485714Y-105504819D01*
X197295238Y-104600057D02*
X197342857Y-104552438D01*
X197342857Y-104552438D02*
X197438095Y-104504819D01*
X197438095Y-104504819D02*
X197676190Y-104504819D01*
X197676190Y-104504819D02*
X197771428Y-104552438D01*
X197771428Y-104552438D02*
X197819047Y-104600057D01*
X197819047Y-104600057D02*
X197866666Y-104695295D01*
X197866666Y-104695295D02*
X197866666Y-104790533D01*
X197866666Y-104790533D02*
X197819047Y-104933390D01*
X197819047Y-104933390D02*
X197247619Y-105504819D01*
X197247619Y-105504819D02*
X197866666Y-105504819D01*
X132266667Y-124957200D02*
X132409524Y-125004819D01*
X132409524Y-125004819D02*
X132647619Y-125004819D01*
X132647619Y-125004819D02*
X132742857Y-124957200D01*
X132742857Y-124957200D02*
X132790476Y-124909580D01*
X132790476Y-124909580D02*
X132838095Y-124814342D01*
X132838095Y-124814342D02*
X132838095Y-124719104D01*
X132838095Y-124719104D02*
X132790476Y-124623866D01*
X132790476Y-124623866D02*
X132742857Y-124576247D01*
X132742857Y-124576247D02*
X132647619Y-124528628D01*
X132647619Y-124528628D02*
X132457143Y-124481009D01*
X132457143Y-124481009D02*
X132361905Y-124433390D01*
X132361905Y-124433390D02*
X132314286Y-124385771D01*
X132314286Y-124385771D02*
X132266667Y-124290533D01*
X132266667Y-124290533D02*
X132266667Y-124195295D01*
X132266667Y-124195295D02*
X132314286Y-124100057D01*
X132314286Y-124100057D02*
X132361905Y-124052438D01*
X132361905Y-124052438D02*
X132457143Y-124004819D01*
X132457143Y-124004819D02*
X132695238Y-124004819D01*
X132695238Y-124004819D02*
X132838095Y-124052438D01*
X133171429Y-124004819D02*
X133409524Y-125004819D01*
X133409524Y-125004819D02*
X133600000Y-124290533D01*
X133600000Y-124290533D02*
X133790476Y-125004819D01*
X133790476Y-125004819D02*
X134028572Y-124004819D01*
X134314286Y-124004819D02*
X134980952Y-124004819D01*
X134980952Y-124004819D02*
X134552381Y-125004819D01*
X181499580Y-108392857D02*
X181547200Y-108440476D01*
X181547200Y-108440476D02*
X181594819Y-108583333D01*
X181594819Y-108583333D02*
X181594819Y-108678571D01*
X181594819Y-108678571D02*
X181547200Y-108821428D01*
X181547200Y-108821428D02*
X181451961Y-108916666D01*
X181451961Y-108916666D02*
X181356723Y-108964285D01*
X181356723Y-108964285D02*
X181166247Y-109011904D01*
X181166247Y-109011904D02*
X181023390Y-109011904D01*
X181023390Y-109011904D02*
X180832914Y-108964285D01*
X180832914Y-108964285D02*
X180737676Y-108916666D01*
X180737676Y-108916666D02*
X180642438Y-108821428D01*
X180642438Y-108821428D02*
X180594819Y-108678571D01*
X180594819Y-108678571D02*
X180594819Y-108583333D01*
X180594819Y-108583333D02*
X180642438Y-108440476D01*
X180642438Y-108440476D02*
X180690057Y-108392857D01*
X181594819Y-107440476D02*
X181594819Y-108011904D01*
X181594819Y-107726190D02*
X180594819Y-107726190D01*
X180594819Y-107726190D02*
X180737676Y-107821428D01*
X180737676Y-107821428D02*
X180832914Y-107916666D01*
X180832914Y-107916666D02*
X180880533Y-108011904D01*
X180690057Y-107059523D02*
X180642438Y-107011904D01*
X180642438Y-107011904D02*
X180594819Y-106916666D01*
X180594819Y-106916666D02*
X180594819Y-106678571D01*
X180594819Y-106678571D02*
X180642438Y-106583333D01*
X180642438Y-106583333D02*
X180690057Y-106535714D01*
X180690057Y-106535714D02*
X180785295Y-106488095D01*
X180785295Y-106488095D02*
X180880533Y-106488095D01*
X180880533Y-106488095D02*
X181023390Y-106535714D01*
X181023390Y-106535714D02*
X181594819Y-107107142D01*
X181594819Y-107107142D02*
X181594819Y-106488095D01*
D13*
%TO.C,C2*%
X190010000Y-115688748D02*
X190010000Y-117111252D01*
X188190000Y-115688748D02*
X188190000Y-117111252D01*
%TO.C,C1*%
X192510000Y-115688748D02*
X192510000Y-117111252D01*
X190690000Y-115688748D02*
X190690000Y-117111252D01*
%TO.C,J4*%
X195350000Y-106650000D02*
X199450000Y-106650000D01*
X195350000Y-108650000D02*
X195350000Y-106650000D01*
X199450000Y-106650000D02*
X199450000Y-108650000D01*
X199450000Y-108650000D02*
X195350000Y-108650000D01*
%TO.C,U3*%
X169650000Y-108510000D02*
X175650000Y-108510000D01*
X172650000Y-103290000D02*
X175650000Y-103290000D01*
D10*
%TO.C,SW5*%
X93500000Y-112550000D02*
X93500000Y-114550000D01*
X93500000Y-125550000D02*
X93500000Y-123550000D01*
X93500000Y-125550000D02*
X95500000Y-125550000D01*
X95500000Y-112550000D02*
X93500000Y-112550000D01*
X104500000Y-125550000D02*
X106500000Y-125550000D01*
X106500000Y-112550000D02*
X104500000Y-112550000D01*
X106500000Y-114550000D02*
X106500000Y-112550000D01*
X106500000Y-125550000D02*
X106500000Y-123550000D01*
D13*
%TO.C,R1*%
X184746359Y-92120000D02*
X185053641Y-92120000D01*
X184746359Y-92880000D02*
X185053641Y-92880000D01*
%TO.C,J1*%
X183200000Y-96200000D02*
X183200000Y-94200000D01*
X183200000Y-92300000D02*
X183200000Y-90400000D01*
X183200000Y-90400000D02*
X173800000Y-90400000D01*
X173800000Y-96200000D02*
X173800000Y-94200000D01*
X173800000Y-92300000D02*
X173800000Y-90400000D01*
%TO.C,SD1*%
X189550000Y-104800000D02*
X191550000Y-104800000D01*
X189550000Y-104800000D02*
X189550000Y-100900000D01*
X191550000Y-104800000D02*
X191550000Y-100900000D01*
D10*
%TO.C,SW8*%
X150650000Y-112550000D02*
X150650000Y-114550000D01*
X150650000Y-125550000D02*
X150650000Y-123550000D01*
X150650000Y-125550000D02*
X152650000Y-125550000D01*
X152650000Y-112550000D02*
X150650000Y-112550000D01*
X161650000Y-125550000D02*
X163650000Y-125550000D01*
X163650000Y-112550000D02*
X161650000Y-112550000D01*
X163650000Y-114550000D02*
X163650000Y-112550000D01*
X163650000Y-125550000D02*
X163650000Y-123550000D01*
D13*
%TO.C,F1*%
X187760000Y-102337221D02*
X187760000Y-102662779D01*
X186740000Y-102337221D02*
X186740000Y-102662779D01*
D12*
%TO.C,STLED1*%
X186040000Y-91300000D02*
G75*
G03*
X186040000Y-91300000I-50000J0D01*
G01*
D13*
%TO.C,D7*%
X146100000Y-126700000D02*
X148100000Y-126700000D01*
X146100000Y-126700000D02*
X146100000Y-122800000D01*
X148100000Y-126700000D02*
X148100000Y-122800000D01*
%TO.C,D1*%
X108000000Y-107650000D02*
X110000000Y-107650000D01*
X108000000Y-107650000D02*
X108000000Y-103750000D01*
X110000000Y-107650000D02*
X110000000Y-103750000D01*
%TO.C,D8*%
X165100000Y-126750000D02*
X167100000Y-126750000D01*
X165100000Y-126750000D02*
X165100000Y-122850000D01*
X167100000Y-126750000D02*
X167100000Y-122850000D01*
%TO.C,R7*%
X170403641Y-101980000D02*
X170096359Y-101980000D01*
X170403641Y-101220000D02*
X170096359Y-101220000D01*
%TO.C,U1*%
X185490000Y-113550000D02*
X185490000Y-107540000D01*
X192310000Y-111300000D02*
X192310000Y-107540000D01*
X185490000Y-107540000D02*
X186750000Y-107540000D01*
X192310000Y-107540000D02*
X191050000Y-107540000D01*
%TO.C,R5*%
X179770000Y-105653641D02*
X179770000Y-105346359D01*
X180530000Y-105653641D02*
X180530000Y-105346359D01*
%TO.C,SW9*%
X169800000Y-127800000D02*
X169920000Y-127800000D01*
X170930000Y-127800000D02*
X172070000Y-127800000D01*
X173080000Y-127800000D02*
X173200000Y-127800000D01*
X173200000Y-127800000D02*
X173200000Y-123400000D01*
X169800000Y-123400000D02*
X169800000Y-127800000D01*
X169920000Y-123400000D02*
X169800000Y-123400000D01*
X172070000Y-123400000D02*
X170930000Y-123400000D01*
X173200000Y-123400000D02*
X173080000Y-123400000D01*
%TO.C,C6*%
X182790000Y-105607836D02*
X182790000Y-105392164D01*
X183510000Y-105607836D02*
X183510000Y-105392164D01*
%TO.C,C15*%
X175157836Y-102960000D02*
X174942164Y-102960000D01*
X175157836Y-102240000D02*
X174942164Y-102240000D01*
D10*
%TO.C,SW4*%
X150650000Y-93500000D02*
X150650000Y-95500000D01*
X150650000Y-106500000D02*
X150650000Y-104500000D01*
X150650000Y-106500000D02*
X152650000Y-106500000D01*
X152650000Y-93500000D02*
X150650000Y-93500000D01*
X161650000Y-106500000D02*
X163650000Y-106500000D01*
X163650000Y-93500000D02*
X161650000Y-93500000D01*
X163650000Y-95500000D02*
X163650000Y-93500000D01*
X163650000Y-106500000D02*
X163650000Y-104500000D01*
D13*
%TO.C,C4*%
X182510000Y-122392164D02*
X182510000Y-122607836D01*
X181790000Y-122392164D02*
X181790000Y-122607836D01*
%TO.C,R6*%
X178653641Y-121130000D02*
X178346359Y-121130000D01*
X178653641Y-120370000D02*
X178346359Y-120370000D01*
%TO.C,R8*%
X170403641Y-102980000D02*
X170096359Y-102980000D01*
X170403641Y-102220000D02*
X170096359Y-102220000D01*
D10*
%TO.C,SW3*%
X131600000Y-93500000D02*
X131600000Y-95500000D01*
X131600000Y-106500000D02*
X131600000Y-104500000D01*
X131600000Y-106500000D02*
X133600000Y-106500000D01*
X133600000Y-93500000D02*
X131600000Y-93500000D01*
X142600000Y-106500000D02*
X144600000Y-106500000D01*
X144600000Y-93500000D02*
X142600000Y-93500000D01*
X144600000Y-95500000D02*
X144600000Y-93500000D01*
X144600000Y-106500000D02*
X144600000Y-104500000D01*
D13*
%TO.C,C7*%
X183790000Y-105607836D02*
X183790000Y-105392164D01*
X184510000Y-105607836D02*
X184510000Y-105392164D01*
%TO.C,C8*%
X186142164Y-114140000D02*
X186357836Y-114140000D01*
X186142164Y-114860000D02*
X186357836Y-114860000D01*
%TO.C,U2*%
X174840000Y-117210000D02*
X174840000Y-116560000D01*
X175490000Y-109990000D02*
X174840000Y-109990000D01*
X175490000Y-117210000D02*
X174840000Y-117210000D01*
X181410000Y-109990000D02*
X182060000Y-109990000D01*
X181410000Y-117210000D02*
X182060000Y-117210000D01*
X182060000Y-109990000D02*
X182060000Y-110640000D01*
X182060000Y-117210000D02*
X182060000Y-116560000D01*
%TO.C,D2*%
X127000000Y-107650000D02*
X129000000Y-107650000D01*
X127000000Y-107650000D02*
X127000000Y-103750000D01*
X129000000Y-107650000D02*
X129000000Y-103750000D01*
%TO.C,C11*%
X171957836Y-111360000D02*
X171742164Y-111360000D01*
X171957836Y-110640000D02*
X171742164Y-110640000D01*
%TO.C,C5*%
X177690000Y-105607836D02*
X177690000Y-105392164D01*
X178410000Y-105607836D02*
X178410000Y-105392164D01*
D10*
%TO.C,SW6*%
X112550000Y-112550000D02*
X112550000Y-114550000D01*
X112550000Y-125550000D02*
X112550000Y-123550000D01*
X112550000Y-125550000D02*
X114550000Y-125550000D01*
X114550000Y-112550000D02*
X112550000Y-112550000D01*
X123550000Y-125550000D02*
X125550000Y-125550000D01*
X125550000Y-112550000D02*
X123550000Y-112550000D01*
X125550000Y-114550000D02*
X125550000Y-112550000D01*
X125550000Y-125550000D02*
X125550000Y-123550000D01*
D13*
%TO.C,C14*%
X175157836Y-101960000D02*
X174942164Y-101960000D01*
X175157836Y-101240000D02*
X174942164Y-101240000D01*
%TO.C,C9*%
X181410000Y-122392164D02*
X181410000Y-122607836D01*
X180690000Y-122392164D02*
X180690000Y-122607836D01*
%TO.C,D5*%
X108000000Y-126750000D02*
X110000000Y-126750000D01*
X108000000Y-126750000D02*
X108000000Y-122850000D01*
X110000000Y-126750000D02*
X110000000Y-122850000D01*
%TO.C,R2*%
X181530000Y-103346359D02*
X181530000Y-103653641D01*
X180770000Y-103346359D02*
X180770000Y-103653641D01*
%TO.C,C10*%
X171957836Y-114960000D02*
X171742164Y-114960000D01*
X171957836Y-114240000D02*
X171742164Y-114240000D01*
%TO.C,D3*%
X146000000Y-107650000D02*
X148000000Y-107650000D01*
X146000000Y-107650000D02*
X146000000Y-103750000D01*
X148000000Y-107650000D02*
X148000000Y-103750000D01*
%TO.C,SW10*%
X183700000Y-127800000D02*
X183820000Y-127800000D01*
X184830000Y-127800000D02*
X185970000Y-127800000D01*
X186980000Y-127800000D02*
X187100000Y-127800000D01*
X187100000Y-127800000D02*
X187100000Y-123400000D01*
X183700000Y-123400000D02*
X183700000Y-127800000D01*
X183820000Y-123400000D02*
X183700000Y-123400000D01*
X185970000Y-123400000D02*
X184830000Y-123400000D01*
X187100000Y-123400000D02*
X186980000Y-123400000D01*
%TO.C,J3*%
X195350000Y-110050000D02*
X199450000Y-110050000D01*
X195350000Y-112050000D02*
X195350000Y-110050000D01*
X199450000Y-110050000D02*
X199450000Y-112050000D01*
X199450000Y-112050000D02*
X195350000Y-112050000D01*
%TO.C,R4*%
X178670000Y-105653641D02*
X178670000Y-105346359D01*
X179430000Y-105653641D02*
X179430000Y-105346359D01*
%TO.C,D6*%
X127100000Y-126750000D02*
X129100000Y-126750000D01*
X127100000Y-126750000D02*
X127100000Y-122850000D01*
X129100000Y-126750000D02*
X129100000Y-122850000D01*
%TO.C,C3*%
X176690000Y-105607836D02*
X176690000Y-105392164D01*
X177410000Y-105607836D02*
X177410000Y-105392164D01*
%TO.C,D4*%
X165200000Y-107650000D02*
X167200000Y-107650000D01*
X165200000Y-107650000D02*
X165200000Y-103750000D01*
X167200000Y-107650000D02*
X167200000Y-103750000D01*
%TO.C,C13*%
X181790000Y-105607836D02*
X181790000Y-105392164D01*
X182510000Y-105607836D02*
X182510000Y-105392164D01*
%TO.C,Y1*%
X176450000Y-121400000D02*
X176450000Y-123400000D01*
X176450000Y-123400000D02*
X176450000Y-123800000D01*
X176650000Y-121400000D02*
X177650000Y-121400000D01*
X176650000Y-123400000D02*
X176650000Y-121400000D01*
X176650000Y-123400000D02*
X176650000Y-123800000D01*
X177650000Y-123800000D02*
X176650000Y-123800000D01*
X177650000Y-123800000D02*
X177650000Y-124200000D01*
X179450000Y-121400000D02*
X180250000Y-121400000D01*
X180250000Y-121400000D02*
X180250000Y-123400000D01*
X180250000Y-123400000D02*
X180250000Y-123800000D01*
X180250000Y-123800000D02*
X179450000Y-123800000D01*
D10*
%TO.C,SW2*%
X112550000Y-93500000D02*
X112550000Y-95500000D01*
X112550000Y-106500000D02*
X112550000Y-104500000D01*
X112550000Y-106500000D02*
X114550000Y-106500000D01*
X114550000Y-93500000D02*
X112550000Y-93500000D01*
X123550000Y-106500000D02*
X125550000Y-106500000D01*
X125550000Y-93500000D02*
X123550000Y-93500000D01*
X125550000Y-95500000D02*
X125550000Y-93500000D01*
X125550000Y-106500000D02*
X125550000Y-104500000D01*
%TO.C,SW1*%
X93500000Y-93500000D02*
X93500000Y-95500000D01*
X93500000Y-106500000D02*
X93500000Y-104500000D01*
X93500000Y-106500000D02*
X95500000Y-106500000D01*
X95500000Y-93500000D02*
X93500000Y-93500000D01*
X104500000Y-106500000D02*
X106500000Y-106500000D01*
X106500000Y-93500000D02*
X104500000Y-93500000D01*
X106500000Y-95500000D02*
X106500000Y-93500000D01*
X106500000Y-106500000D02*
X106500000Y-104500000D01*
D13*
%TO.C,R3*%
X177430000Y-103346359D02*
X177430000Y-103653641D01*
X176670000Y-103346359D02*
X176670000Y-103653641D01*
D10*
%TO.C,J2*%
X194200000Y-92350000D02*
X194700000Y-92350000D01*
X194200000Y-104350000D02*
X194200000Y-92350000D01*
X194700000Y-90450000D02*
X199700000Y-90450000D01*
X194700000Y-92350000D02*
X194700000Y-90450000D01*
X199700000Y-92350000D02*
X199700000Y-90450000D01*
X200200000Y-92350000D02*
X199700000Y-92350000D01*
X200200000Y-92350000D02*
X200200000Y-104350000D01*
X200200000Y-104350000D02*
X194200000Y-104350000D01*
%TO.C,SW7*%
X131600000Y-112550000D02*
X131600000Y-114550000D01*
X131600000Y-125550000D02*
X131600000Y-123550000D01*
X131600000Y-125550000D02*
X133600000Y-125550000D01*
X133600000Y-112550000D02*
X131600000Y-112550000D01*
X142600000Y-125550000D02*
X144600000Y-125550000D01*
X144600000Y-112550000D02*
X142600000Y-112550000D01*
X144600000Y-114550000D02*
X144600000Y-112550000D01*
X144600000Y-125550000D02*
X144600000Y-123550000D01*
D13*
%TO.C,C12*%
X180790000Y-105607836D02*
X180790000Y-105392164D01*
X181510000Y-105607836D02*
X181510000Y-105392164D01*
%TD*%
D14*
%TO.C,J2*%
X197200000Y-93850000D03*
X197200000Y-100850000D03*
%TD*%
M02*
