%TF.GenerationSoftware,KiCad,Pcbnew,7.0.7*%
%TF.CreationDate,2023-12-20T03:25:26+09:00*%
%TF.ProjectId,RP2040_8key,52503230-3430-45f3-986b-65792e6b6963,rev?*%
%TF.SameCoordinates,Original*%
%TF.FileFunction,Copper,L2,Bot*%
%TF.FilePolarity,Positive*%
%FSLAX46Y46*%
G04 Gerber Fmt 4.6, Leading zero omitted, Abs format (unit mm)*
G04 Created by KiCad (PCBNEW 7.0.7) date 2023-12-20 03:25:26*
%MOMM*%
%LPD*%
G01*
G04 APERTURE LIST*
%TA.AperFunction,WasherPad*%
%ADD10C,1.910000*%
%TD*%
%TA.AperFunction,ComponentPad*%
%ADD11C,2.800000*%
%TD*%
%TA.AperFunction,ComponentPad*%
%ADD12O,1.000000X2.100000*%
%TD*%
%TA.AperFunction,ComponentPad*%
%ADD13O,1.000000X1.600000*%
%TD*%
%TA.AperFunction,ComponentPad*%
%ADD14R,1.200000X2.100000*%
%TD*%
%TA.AperFunction,SMDPad,CuDef*%
%ADD15C,1.000000*%
%TD*%
%TA.AperFunction,ViaPad*%
%ADD16C,0.800000*%
%TD*%
%TA.AperFunction,ViaPad*%
%ADD17C,0.600000*%
%TD*%
%TA.AperFunction,ViaPad*%
%ADD18C,0.700000*%
%TD*%
%TA.AperFunction,Conductor*%
%ADD19C,0.500000*%
%TD*%
%TA.AperFunction,Conductor*%
%ADD20C,0.200000*%
%TD*%
%TA.AperFunction,Conductor*%
%ADD21C,0.600000*%
%TD*%
G04 APERTURE END LIST*
D10*
%TO.P,SW5,*%
%TO.N,*%
X94920000Y-119050000D03*
X105080000Y-119050000D03*
D11*
%TO.P,SW5,1,1*%
%TO.N,col0*%
X96190000Y-116510000D03*
%TO.P,SW5,2,2*%
%TO.N,Net-(D5-A)*%
X102540000Y-113970000D03*
%TD*%
D12*
%TO.P,J1,S1,SHIELD*%
%TO.N,GND*%
X182820000Y-97430000D03*
D13*
X182820000Y-93250000D03*
D12*
X174180000Y-97430000D03*
D13*
X174180000Y-93250000D03*
%TD*%
D10*
%TO.P,SW8,*%
%TO.N,*%
X152070000Y-119050000D03*
X162230000Y-119050000D03*
D11*
%TO.P,SW8,1,1*%
%TO.N,col3*%
X153340000Y-116510000D03*
%TO.P,SW8,2,2*%
%TO.N,Net-(D8-A)*%
X159690000Y-113970000D03*
%TD*%
D10*
%TO.P,SW4,*%
%TO.N,*%
X152070000Y-100000000D03*
X162230000Y-100000000D03*
D11*
%TO.P,SW4,1,1*%
%TO.N,col3*%
X153340000Y-97460000D03*
%TO.P,SW4,2,2*%
%TO.N,rotary*%
X159690000Y-94920000D03*
%TD*%
D10*
%TO.P,SW3,*%
%TO.N,*%
X133020000Y-100000000D03*
X143180000Y-100000000D03*
D11*
%TO.P,SW3,1,1*%
%TO.N,col2*%
X134290000Y-97460000D03*
%TO.P,SW3,2,2*%
%TO.N,Net-(D3-A)*%
X140640000Y-94920000D03*
%TD*%
D10*
%TO.P,SW6,*%
%TO.N,*%
X113970000Y-119050000D03*
X124130000Y-119050000D03*
D11*
%TO.P,SW6,1,1*%
%TO.N,col1*%
X115240000Y-116510000D03*
%TO.P,SW6,2,2*%
%TO.N,Net-(D6-A)*%
X121590000Y-113970000D03*
%TD*%
D10*
%TO.P,SW2,*%
%TO.N,*%
X113970000Y-100000000D03*
X124130000Y-100000000D03*
D11*
%TO.P,SW2,1,1*%
%TO.N,col1*%
X115240000Y-97460000D03*
%TO.P,SW2,2,2*%
%TO.N,Net-(D2-A)*%
X121590000Y-94920000D03*
%TD*%
D10*
%TO.P,SW1,*%
%TO.N,*%
X94920000Y-100000000D03*
X105080000Y-100000000D03*
D11*
%TO.P,SW1,1,1*%
%TO.N,col0*%
X96190000Y-97460000D03*
%TO.P,SW1,2,2*%
%TO.N,Net-(D1-A)*%
X102540000Y-94920000D03*
%TD*%
D14*
%TO.P,J2,R1*%
%TO.N,R1*%
X199300000Y-98650000D03*
%TO.P,J2,R2*%
%TO.N,R2*%
X199300000Y-95650000D03*
%TO.P,J2,S*%
%TO.N,GND*%
X195100000Y-104150000D03*
%TO.P,J2,T*%
%TO.N,+5V*%
X199300000Y-102650000D03*
%TD*%
D10*
%TO.P,SW7,*%
%TO.N,*%
X133020000Y-119050000D03*
X143180000Y-119050000D03*
D11*
%TO.P,SW7,1,1*%
%TO.N,col2*%
X134290000Y-116510000D03*
%TO.P,SW7,2,2*%
%TO.N,Net-(D7-A)*%
X140640000Y-113970000D03*
%TD*%
D15*
%TO.P,J7,1,Pin_1*%
%TO.N,SWD*%
X180520000Y-124970000D03*
%TD*%
%TO.P,J6,1,Pin_1*%
%TO.N,GND*%
X178430000Y-124910000D03*
%TD*%
%TO.P,J5,1,Pin_1*%
%TO.N,SWCLK*%
X176390000Y-124940000D03*
%TD*%
D16*
%TO.N,+5V*%
X193950000Y-110050000D03*
D17*
%TO.N,GND*%
X178451364Y-112390534D03*
D16*
X182600000Y-118200000D03*
D17*
X169250384Y-108391994D03*
D16*
X174500000Y-118200000D03*
D17*
X177351364Y-114790534D03*
X178451364Y-114790534D03*
D16*
X178075901Y-104275107D03*
D17*
X177351364Y-112390534D03*
D16*
X178400000Y-126400000D03*
D17*
X179651364Y-113590534D03*
D16*
X171300000Y-112200000D03*
X174600000Y-100749500D03*
X182900000Y-109100000D03*
D17*
X179651364Y-114790534D03*
D16*
X178050000Y-100300000D03*
D17*
X178451364Y-113590534D03*
D16*
X177100000Y-119600000D03*
D17*
X179651364Y-112390534D03*
X177351364Y-113590534D03*
D18*
%TO.N,+3V3*%
X176551364Y-102090534D03*
D16*
X184950000Y-94900000D03*
X184950000Y-104100000D03*
X172200500Y-115600000D03*
D17*
%TO.N,+1V1*%
X178001864Y-107990534D03*
D16*
X180844622Y-119755378D03*
D17*
X179951364Y-111190534D03*
X179151364Y-115690036D03*
D16*
%TO.N,row0*%
X171200000Y-116600000D03*
X166200000Y-108400000D03*
%TO.N,row1*%
X169200000Y-125000000D03*
X172000000Y-117700000D03*
%TO.N,SWCLK*%
X181931127Y-124131127D03*
%TO.N,SWD*%
X182000000Y-125150000D03*
%TO.N,USB_BOOT*%
X171900000Y-102600000D03*
X168550000Y-103220000D03*
%TO.N,col0*%
X175979471Y-127734400D03*
%TO.N,col1*%
X175272716Y-127027645D03*
%TO.N,col2*%
X174565961Y-126320891D03*
%TO.N,col3*%
X173859206Y-125614135D03*
%TO.N,R1*%
X197400000Y-109350000D03*
%TO.N,RX*%
X196100000Y-112850000D03*
X173677931Y-112977931D03*
%TO.N,TX*%
X172906663Y-112342202D03*
X198700000Y-112850000D03*
%TD*%
D19*
%TO.N,+5V*%
X194700000Y-110800000D02*
X198600000Y-110800000D01*
X193950000Y-110050000D02*
X194700000Y-110800000D01*
X199300000Y-110100000D02*
X199300000Y-102650000D01*
X198600000Y-110800000D02*
X199300000Y-110100000D01*
D20*
%TO.N,GND*%
X178430000Y-124910000D02*
X178430000Y-126370000D01*
X178430000Y-126370000D02*
X178400000Y-126400000D01*
D19*
%TO.N,+3V3*%
X184950000Y-94900000D02*
X177850000Y-94900000D01*
X177850000Y-94900000D02*
X176551364Y-96198636D01*
X176551364Y-96198636D02*
X176551364Y-102090534D01*
X184950000Y-104100000D02*
X184950000Y-94900000D01*
D20*
%TO.N,+1V1*%
X180844622Y-119755378D02*
X179151364Y-118062120D01*
D21*
X178251364Y-108240034D02*
X178251364Y-110890534D01*
X178001864Y-107990534D02*
X178251364Y-108240034D01*
D20*
X179151364Y-118062120D02*
X179151364Y-115690036D01*
D21*
X178251364Y-110890534D02*
X178551364Y-111190534D01*
X178551364Y-111190534D02*
X179951364Y-111190534D01*
D20*
%TO.N,row0*%
X166200000Y-111600000D02*
X166200000Y-108400000D01*
X171200000Y-116600000D02*
X166200000Y-111600000D01*
%TO.N,row1*%
X172000000Y-122200000D02*
X169200000Y-125000000D01*
X172000000Y-117700000D02*
X172000000Y-122200000D01*
%TO.N,SWCLK*%
X177220000Y-124110000D02*
X181910000Y-124110000D01*
X176390000Y-124940000D02*
X177220000Y-124110000D01*
X181910000Y-124110000D02*
X181931127Y-124131127D01*
%TO.N,SWD*%
X182000000Y-125150000D02*
X180700000Y-125150000D01*
X180700000Y-125150000D02*
X180520000Y-124970000D01*
%TO.N,USB_BOOT*%
X169170000Y-102600000D02*
X168550000Y-103220000D01*
X171900000Y-102600000D02*
X169170000Y-102600000D01*
%TO.N,col0*%
X175713871Y-128000000D02*
X105626596Y-128000000D01*
X97589999Y-115110001D02*
X96190000Y-116510000D01*
X175979471Y-127734400D02*
X175713871Y-128000000D01*
X96190000Y-118563404D02*
X96190000Y-116510000D01*
X96190000Y-97460000D02*
X97589999Y-98859999D01*
X105626596Y-128000000D02*
X96190000Y-118563404D01*
X97589999Y-98859999D02*
X97589999Y-115110001D01*
%TO.N,col1*%
X175000361Y-127300000D02*
X123800000Y-127300000D01*
X115240000Y-118740000D02*
X115240000Y-116510000D01*
X116639999Y-98859999D02*
X116639999Y-115110001D01*
X175272716Y-127027645D02*
X175000361Y-127300000D01*
X115240000Y-97460000D02*
X116639999Y-98859999D01*
X116639999Y-115110001D02*
X115240000Y-116510000D01*
X123800000Y-127300000D02*
X115240000Y-118740000D01*
%TO.N,col2*%
X134290000Y-118563404D02*
X134290000Y-116510000D01*
X174565961Y-126320891D02*
X174186852Y-126700000D01*
X174186852Y-126700000D02*
X142426596Y-126700000D01*
X134290000Y-116510000D02*
X135689999Y-115110001D01*
X135689999Y-115110001D02*
X135689999Y-98859999D01*
X135689999Y-98859999D02*
X134290000Y-97460000D01*
X142426596Y-126700000D02*
X134290000Y-118563404D01*
%TO.N,col3*%
X173773341Y-125700000D02*
X160400000Y-125700000D01*
X153340000Y-97460000D02*
X153500000Y-97620000D01*
X160400000Y-125700000D02*
X153340000Y-118640000D01*
X153340000Y-118640000D02*
X153340000Y-116510000D01*
X153500000Y-97620000D02*
X153500000Y-116350000D01*
X173859206Y-125614135D02*
X173773341Y-125700000D01*
X153500000Y-116350000D02*
X153340000Y-116510000D01*
%TO.N,R1*%
X197800000Y-108950000D02*
X197800000Y-102100000D01*
X197800000Y-102100000D02*
X199300000Y-100600000D01*
X197400000Y-109350000D02*
X197800000Y-108950000D01*
X199300000Y-100600000D02*
X199300000Y-98650000D01*
%TO.N,RX*%
X173677931Y-112977931D02*
X173677931Y-123877931D01*
X196100000Y-113800000D02*
X196100000Y-112850000D01*
X173677931Y-123877931D02*
X176900000Y-127100000D01*
X182800000Y-127100000D02*
X196100000Y-113800000D01*
X176900000Y-127100000D02*
X182800000Y-127100000D01*
%TO.N,TX*%
X172900000Y-123665686D02*
X176734314Y-127500000D01*
X198700000Y-113800000D02*
X198700000Y-112850000D01*
X172906663Y-112342202D02*
X172900000Y-112348865D01*
X176734314Y-127500000D02*
X185000000Y-127500000D01*
X172900000Y-112348865D02*
X172900000Y-123665686D01*
X185000000Y-127500000D02*
X198700000Y-113800000D01*
%TD*%
%TA.AperFunction,Conductor*%
%TO.N,GND*%
G36*
X199402736Y-90400740D02*
G01*
X199420871Y-90402326D01*
X199445519Y-90404482D01*
X199571601Y-90416901D01*
X199591847Y-90420584D01*
X199658353Y-90438404D01*
X199732200Y-90460806D01*
X199751421Y-90466637D01*
X199768094Y-90473016D01*
X199804035Y-90489775D01*
X199835366Y-90504385D01*
X199838418Y-90505911D01*
X199922280Y-90550736D01*
X199928718Y-90554692D01*
X199994799Y-90600963D01*
X199998632Y-90603870D01*
X200070774Y-90663076D01*
X200075347Y-90667220D01*
X200132777Y-90724650D01*
X200136922Y-90729224D01*
X200196128Y-90801366D01*
X200199035Y-90805199D01*
X200245306Y-90871280D01*
X200249265Y-90877723D01*
X200294084Y-90961574D01*
X200295621Y-90964648D01*
X200326982Y-91031904D01*
X200333361Y-91048576D01*
X200361601Y-91141669D01*
X200379412Y-91208145D01*
X200383098Y-91228404D01*
X200395522Y-91354553D01*
X200399260Y-91397254D01*
X200399500Y-91402749D01*
X200399500Y-127697248D01*
X200399260Y-127702744D01*
X200395522Y-127745446D01*
X200383098Y-127871594D01*
X200379412Y-127891853D01*
X200361601Y-127958330D01*
X200333361Y-128051422D01*
X200326982Y-128068094D01*
X200295621Y-128135350D01*
X200294084Y-128138424D01*
X200249265Y-128222275D01*
X200245306Y-128228718D01*
X200199035Y-128294799D01*
X200196128Y-128298632D01*
X200136922Y-128370774D01*
X200132768Y-128375358D01*
X200075358Y-128432768D01*
X200070774Y-128436922D01*
X199998632Y-128496128D01*
X199994799Y-128499035D01*
X199928718Y-128545306D01*
X199922275Y-128549265D01*
X199838424Y-128594084D01*
X199835350Y-128595621D01*
X199768094Y-128626982D01*
X199751422Y-128633361D01*
X199658330Y-128661601D01*
X199591853Y-128679412D01*
X199571594Y-128683098D01*
X199445447Y-128695522D01*
X199406272Y-128698951D01*
X199402741Y-128699260D01*
X199397250Y-128699500D01*
X91402749Y-128699500D01*
X91397259Y-128699260D01*
X91392056Y-128698805D01*
X91354553Y-128695522D01*
X91228404Y-128683098D01*
X91208145Y-128679412D01*
X91141669Y-128661601D01*
X91048576Y-128633361D01*
X91031904Y-128626982D01*
X90964648Y-128595621D01*
X90961574Y-128594084D01*
X90877723Y-128549265D01*
X90871280Y-128545306D01*
X90805199Y-128499035D01*
X90801366Y-128496128D01*
X90729224Y-128436922D01*
X90724650Y-128432777D01*
X90667220Y-128375347D01*
X90663076Y-128370774D01*
X90603870Y-128298632D01*
X90600963Y-128294799D01*
X90554692Y-128228718D01*
X90550733Y-128222275D01*
X90505914Y-128138424D01*
X90504385Y-128135366D01*
X90490011Y-128104542D01*
X90473016Y-128068094D01*
X90466637Y-128051421D01*
X90438398Y-127958330D01*
X90420584Y-127891847D01*
X90416901Y-127871601D01*
X90404482Y-127745519D01*
X90402326Y-127720871D01*
X90400740Y-127702736D01*
X90400500Y-127697242D01*
X90400500Y-119161243D01*
X93719500Y-119161243D01*
X93732511Y-119230843D01*
X93760383Y-119379946D01*
X93840751Y-119587396D01*
X93840759Y-119587412D01*
X93957874Y-119776560D01*
X93957875Y-119776561D01*
X94107764Y-119940982D01*
X94285310Y-120075057D01*
X94285315Y-120075061D01*
X94484462Y-120174225D01*
X94484468Y-120174227D01*
X94484472Y-120174229D01*
X94484478Y-120174230D01*
X94484479Y-120174231D01*
X94517618Y-120183660D01*
X94698464Y-120235115D01*
X94864497Y-120250500D01*
X94864504Y-120250500D01*
X94975496Y-120250500D01*
X94975503Y-120250500D01*
X95141536Y-120235115D01*
X95355528Y-120174229D01*
X95355533Y-120174226D01*
X95355537Y-120174225D01*
X95554684Y-120075061D01*
X95554685Y-120075059D01*
X95554689Y-120075058D01*
X95732236Y-119940981D01*
X95882124Y-119776562D01*
X95999247Y-119587401D01*
X96079618Y-119379940D01*
X96114748Y-119192011D01*
X96146926Y-119128729D01*
X96208211Y-119092887D01*
X96279145Y-119095868D01*
X96327697Y-119126072D01*
X105369629Y-128168004D01*
X105375358Y-128174588D01*
X105382638Y-128184229D01*
X105417954Y-128216423D01*
X105420037Y-128218412D01*
X105430343Y-128228718D01*
X105433799Y-128232174D01*
X105435958Y-128233653D01*
X105442795Y-128239069D01*
X105465663Y-128259916D01*
X105471909Y-128262335D01*
X105497592Y-128275873D01*
X105503115Y-128279656D01*
X105533225Y-128286737D01*
X105541562Y-128289318D01*
X105551259Y-128293075D01*
X105570419Y-128300499D01*
X105570421Y-128300499D01*
X105570423Y-128300500D01*
X105577116Y-128300500D01*
X105605962Y-128303846D01*
X105612477Y-128305379D01*
X105634230Y-128302344D01*
X105643118Y-128301105D01*
X105651832Y-128300500D01*
X175650962Y-128300500D01*
X175659676Y-128301105D01*
X175671631Y-128302771D01*
X175671636Y-128302773D01*
X175713194Y-128300851D01*
X175719360Y-128300567D01*
X175722270Y-128300500D01*
X175747545Y-128300500D01*
X175747545Y-128301929D01*
X175799329Y-128309760D01*
X175805545Y-128312334D01*
X175822709Y-128319444D01*
X175979471Y-128340082D01*
X176136233Y-128319444D01*
X176282312Y-128258936D01*
X176407753Y-128162682D01*
X176504007Y-128037241D01*
X176564515Y-127891162D01*
X176564515Y-127891160D01*
X176567675Y-127883532D01*
X176569650Y-127884350D01*
X176600681Y-127833425D01*
X176664536Y-127802393D01*
X176714297Y-127803991D01*
X176720195Y-127805379D01*
X176741948Y-127802344D01*
X176750836Y-127801105D01*
X176759550Y-127800500D01*
X184937091Y-127800500D01*
X184945805Y-127801105D01*
X184957760Y-127802771D01*
X184957765Y-127802773D01*
X184999323Y-127800851D01*
X185005489Y-127800567D01*
X185008399Y-127800500D01*
X185027841Y-127800500D01*
X185027844Y-127800500D01*
X185030404Y-127800021D01*
X185039085Y-127799013D01*
X185039103Y-127799012D01*
X185069992Y-127797585D01*
X185076115Y-127794881D01*
X185103861Y-127786289D01*
X185110433Y-127785061D01*
X185136733Y-127768776D01*
X185144464Y-127764702D01*
X185150284Y-127762131D01*
X185172765Y-127752206D01*
X185177492Y-127747478D01*
X185200264Y-127729441D01*
X185202053Y-127728332D01*
X185205952Y-127725919D01*
X185224601Y-127701221D01*
X185230326Y-127694643D01*
X198868013Y-114056956D01*
X198874594Y-114051231D01*
X198884220Y-114043961D01*
X198884228Y-114043958D01*
X198916445Y-114008616D01*
X198918395Y-114006574D01*
X198932174Y-113992797D01*
X198933644Y-113990649D01*
X198939069Y-113983800D01*
X198959916Y-113960933D01*
X198962333Y-113954694D01*
X198975878Y-113928997D01*
X198975884Y-113928988D01*
X198979657Y-113923481D01*
X198986742Y-113893353D01*
X198989318Y-113885034D01*
X199000500Y-113856173D01*
X199000500Y-113849480D01*
X199003847Y-113820633D01*
X199005379Y-113814118D01*
X199001105Y-113783476D01*
X199000500Y-113774761D01*
X199000500Y-113438469D01*
X199020502Y-113370348D01*
X199049796Y-113338507D01*
X199105525Y-113295743D01*
X199128282Y-113278282D01*
X199224536Y-113152841D01*
X199285044Y-113006762D01*
X199305682Y-112850000D01*
X199301886Y-112821170D01*
X199285044Y-112693239D01*
X199277527Y-112675090D01*
X199224536Y-112547159D01*
X199128282Y-112421718D01*
X199002841Y-112325464D01*
X198856762Y-112264956D01*
X198856760Y-112264955D01*
X198700000Y-112244318D01*
X198543239Y-112264955D01*
X198397160Y-112325463D01*
X198397157Y-112325465D01*
X198271718Y-112421718D01*
X198175465Y-112547157D01*
X198175463Y-112547160D01*
X198114955Y-112693239D01*
X198094318Y-112849999D01*
X198094318Y-112850000D01*
X198114955Y-113006760D01*
X198175463Y-113152839D01*
X198175465Y-113152842D01*
X198271720Y-113278284D01*
X198350204Y-113338507D01*
X198392071Y-113395844D01*
X198399500Y-113438469D01*
X198399500Y-113623338D01*
X198379498Y-113691459D01*
X198362595Y-113712433D01*
X184912434Y-127162595D01*
X184850122Y-127196621D01*
X184823339Y-127199500D01*
X183429661Y-127199500D01*
X183361540Y-127179498D01*
X183315047Y-127125842D01*
X183304943Y-127055568D01*
X183334437Y-126990988D01*
X183340566Y-126984405D01*
X185493204Y-124831767D01*
X196268013Y-114056956D01*
X196274594Y-114051231D01*
X196284220Y-114043961D01*
X196284228Y-114043958D01*
X196316445Y-114008616D01*
X196318395Y-114006574D01*
X196332174Y-113992797D01*
X196333644Y-113990649D01*
X196339069Y-113983800D01*
X196359916Y-113960933D01*
X196362335Y-113954688D01*
X196375877Y-113928997D01*
X196379656Y-113923481D01*
X196386739Y-113893365D01*
X196389320Y-113885029D01*
X196400500Y-113856173D01*
X196400500Y-113849479D01*
X196403847Y-113820631D01*
X196405379Y-113814119D01*
X196402982Y-113796942D01*
X196401105Y-113783476D01*
X196400500Y-113774761D01*
X196400500Y-113438469D01*
X196420502Y-113370348D01*
X196449796Y-113338507D01*
X196505525Y-113295743D01*
X196528282Y-113278282D01*
X196624536Y-113152841D01*
X196685044Y-113006762D01*
X196705682Y-112850000D01*
X196701886Y-112821170D01*
X196685044Y-112693239D01*
X196677527Y-112675090D01*
X196624536Y-112547159D01*
X196528282Y-112421718D01*
X196402841Y-112325464D01*
X196256762Y-112264956D01*
X196256760Y-112264955D01*
X196100000Y-112244318D01*
X195943239Y-112264955D01*
X195797160Y-112325463D01*
X195797157Y-112325465D01*
X195671718Y-112421718D01*
X195575465Y-112547157D01*
X195575463Y-112547160D01*
X195514955Y-112693239D01*
X195494318Y-112849999D01*
X195494318Y-112850000D01*
X195514955Y-113006760D01*
X195575463Y-113152839D01*
X195575465Y-113152842D01*
X195671720Y-113278284D01*
X195750204Y-113338507D01*
X195792071Y-113395844D01*
X195799500Y-113438469D01*
X195799500Y-113623338D01*
X195779498Y-113691459D01*
X195762595Y-113712433D01*
X182712434Y-126762595D01*
X182650122Y-126796621D01*
X182623339Y-126799500D01*
X177076661Y-126799500D01*
X177008540Y-126779498D01*
X176987566Y-126762595D01*
X176041320Y-125816349D01*
X176021447Y-125779956D01*
X177919252Y-125779956D01*
X178042391Y-125845776D01*
X178232393Y-125903414D01*
X178232404Y-125903416D01*
X178429997Y-125922877D01*
X178430003Y-125922877D01*
X178627595Y-125903416D01*
X178627606Y-125903414D01*
X178817608Y-125845776D01*
X178817612Y-125845775D01*
X178940747Y-125779956D01*
X178430001Y-125269210D01*
X178430000Y-125269210D01*
X177919252Y-125779956D01*
X176021447Y-125779956D01*
X176007294Y-125754037D01*
X176012359Y-125683222D01*
X176054906Y-125626386D01*
X176121426Y-125601575D01*
X176160568Y-125604915D01*
X176304944Y-125640500D01*
X176304947Y-125640500D01*
X176475053Y-125640500D01*
X176475056Y-125640500D01*
X176640225Y-125599790D01*
X176790852Y-125520734D01*
X176918183Y-125407929D01*
X177014818Y-125267930D01*
X177075140Y-125108872D01*
X177095645Y-124940000D01*
X177083611Y-124840896D01*
X177075140Y-124771129D01*
X177074095Y-124766887D01*
X177074235Y-124763677D01*
X177074222Y-124763562D01*
X177074241Y-124763559D01*
X177077210Y-124695959D01*
X177107335Y-124647635D01*
X177252463Y-124502507D01*
X177314774Y-124468483D01*
X177385590Y-124473548D01*
X177442425Y-124516095D01*
X177467236Y-124582616D01*
X177462132Y-124628179D01*
X177436584Y-124712399D01*
X177436583Y-124712404D01*
X177417123Y-124909996D01*
X177417123Y-124910003D01*
X177436583Y-125107595D01*
X177436585Y-125107606D01*
X177494223Y-125297608D01*
X177560042Y-125420747D01*
X178340905Y-124639885D01*
X178403217Y-124605859D01*
X178474032Y-124610924D01*
X178519096Y-124639885D01*
X179299957Y-125420746D01*
X179365775Y-125297612D01*
X179365776Y-125297608D01*
X179423414Y-125107606D01*
X179423416Y-125107595D01*
X179442876Y-124910003D01*
X179442876Y-124909996D01*
X179423416Y-124712404D01*
X179423416Y-124712402D01*
X179381152Y-124573076D01*
X179380519Y-124502082D01*
X179418368Y-124442016D01*
X179482683Y-124411947D01*
X179501727Y-124410500D01*
X179814951Y-124410500D01*
X179883072Y-124430502D01*
X179929565Y-124484158D01*
X179939669Y-124554432D01*
X179918648Y-124608073D01*
X179901130Y-124633453D01*
X179895179Y-124642074D01*
X179834859Y-124801128D01*
X179814355Y-124969997D01*
X179814355Y-124970002D01*
X179834859Y-125138871D01*
X179895179Y-125297925D01*
X179895181Y-125297929D01*
X179991816Y-125437928D01*
X179991818Y-125437930D01*
X180061650Y-125499796D01*
X180119148Y-125550734D01*
X180269775Y-125629790D01*
X180269776Y-125629790D01*
X180269778Y-125629791D01*
X180426461Y-125668409D01*
X180434944Y-125670500D01*
X180434947Y-125670500D01*
X180605053Y-125670500D01*
X180605056Y-125670500D01*
X180770225Y-125629790D01*
X180920852Y-125550734D01*
X180998225Y-125482187D01*
X181062477Y-125451987D01*
X181081778Y-125450500D01*
X181411531Y-125450500D01*
X181479652Y-125470502D01*
X181511493Y-125499796D01*
X181571715Y-125578279D01*
X181571716Y-125578280D01*
X181571718Y-125578282D01*
X181697159Y-125674536D01*
X181843238Y-125735044D01*
X182000000Y-125755682D01*
X182156762Y-125735044D01*
X182302841Y-125674536D01*
X182428282Y-125578282D01*
X182524536Y-125452841D01*
X182585044Y-125306762D01*
X182605682Y-125150000D01*
X182585044Y-124993238D01*
X182524536Y-124847159D01*
X182428282Y-124721718D01*
X182406503Y-124705007D01*
X182364638Y-124647672D01*
X182360416Y-124576801D01*
X182383247Y-124528342D01*
X182392645Y-124516095D01*
X182455663Y-124433968D01*
X182516171Y-124287889D01*
X182536809Y-124131127D01*
X182516171Y-123974365D01*
X182455663Y-123828286D01*
X182359409Y-123702845D01*
X182233968Y-123606591D01*
X182224761Y-123602777D01*
X182087887Y-123546082D01*
X181931127Y-123525445D01*
X181774366Y-123546082D01*
X181628287Y-123606590D01*
X181628284Y-123606592D01*
X181502842Y-123702847D01*
X181458831Y-123760204D01*
X181401493Y-123802071D01*
X181358869Y-123809500D01*
X177282909Y-123809500D01*
X177274195Y-123808895D01*
X177262235Y-123807227D01*
X177214511Y-123809433D01*
X177211601Y-123809500D01*
X177192147Y-123809500D01*
X177189575Y-123809981D01*
X177180915Y-123810985D01*
X177150010Y-123812414D01*
X177150004Y-123812416D01*
X177143872Y-123815123D01*
X177116156Y-123823706D01*
X177109571Y-123824937D01*
X177109567Y-123824939D01*
X177083259Y-123841226D01*
X177075537Y-123845296D01*
X177047234Y-123857794D01*
X177042499Y-123862529D01*
X177019746Y-123880552D01*
X177014050Y-123884079D01*
X177014044Y-123884084D01*
X176995398Y-123908774D01*
X176989665Y-123915363D01*
X176678115Y-124226912D01*
X176615803Y-124260938D01*
X176558868Y-124260156D01*
X176475061Y-124239500D01*
X176475056Y-124239500D01*
X176304944Y-124239500D01*
X176304940Y-124239500D01*
X176139778Y-124280208D01*
X176139774Y-124280210D01*
X175989148Y-124359265D01*
X175989142Y-124359270D01*
X175861818Y-124472069D01*
X175861816Y-124472071D01*
X175765181Y-124612070D01*
X175765179Y-124612074D01*
X175704859Y-124771128D01*
X175684355Y-124939997D01*
X175684355Y-124940002D01*
X175704859Y-125108871D01*
X175723392Y-125157739D01*
X175728846Y-125228526D01*
X175695163Y-125291024D01*
X175633038Y-125325391D01*
X175562196Y-125320714D01*
X175516485Y-125291514D01*
X174015336Y-123790364D01*
X173981310Y-123728052D01*
X173978431Y-123701269D01*
X173978431Y-115690036D01*
X178645717Y-115690036D01*
X178666199Y-115832493D01*
X178725987Y-115963409D01*
X178782199Y-116028282D01*
X178820089Y-116072009D01*
X178849582Y-116136590D01*
X178850864Y-116154521D01*
X178850864Y-117999211D01*
X178850259Y-118007925D01*
X178848591Y-118019884D01*
X178850797Y-118067609D01*
X178850864Y-118070519D01*
X178850864Y-118089974D01*
X178851345Y-118092548D01*
X178852349Y-118101208D01*
X178853778Y-118132109D01*
X178853779Y-118132113D01*
X178856484Y-118138239D01*
X178865072Y-118165971D01*
X178866302Y-118172549D01*
X178866305Y-118172557D01*
X178882588Y-118198856D01*
X178886659Y-118206580D01*
X178899158Y-118234885D01*
X178903889Y-118239616D01*
X178921921Y-118262380D01*
X178925446Y-118268073D01*
X178950135Y-118286717D01*
X178956718Y-118292445D01*
X179603030Y-118938757D01*
X180216025Y-119551752D01*
X180250051Y-119614064D01*
X180251852Y-119657292D01*
X180238940Y-119755376D01*
X180238940Y-119755378D01*
X180259577Y-119912138D01*
X180259578Y-119912140D01*
X180320086Y-120058219D01*
X180416340Y-120183660D01*
X180541781Y-120279914D01*
X180687860Y-120340422D01*
X180844622Y-120361060D01*
X181001384Y-120340422D01*
X181147463Y-120279914D01*
X181272904Y-120183660D01*
X181369158Y-120058219D01*
X181429666Y-119912140D01*
X181450304Y-119755378D01*
X181445417Y-119718261D01*
X181429666Y-119598617D01*
X181428696Y-119596274D01*
X181369158Y-119452537D01*
X181272904Y-119327096D01*
X181147463Y-119230842D01*
X181003724Y-119171303D01*
X181001382Y-119170333D01*
X180844622Y-119149696D01*
X180844620Y-119149696D01*
X180746537Y-119162608D01*
X180676389Y-119151668D01*
X180640997Y-119126781D01*
X179488769Y-117974553D01*
X179454743Y-117912241D01*
X179451864Y-117885458D01*
X179451864Y-116154521D01*
X179471866Y-116086400D01*
X179482639Y-116072009D01*
X179509892Y-116040557D01*
X179576741Y-115963409D01*
X179636529Y-115832493D01*
X179657011Y-115690036D01*
X179636529Y-115547579D01*
X179576741Y-115416663D01*
X179482492Y-115307893D01*
X179482491Y-115307892D01*
X179482490Y-115307891D01*
X179361417Y-115230083D01*
X179223325Y-115189536D01*
X179079403Y-115189536D01*
X178941310Y-115230083D01*
X178820237Y-115307891D01*
X178725987Y-115416662D01*
X178666199Y-115547579D01*
X178657280Y-115609616D01*
X178645717Y-115690036D01*
X173978431Y-115690036D01*
X173978431Y-113566400D01*
X173998433Y-113498279D01*
X174027727Y-113466438D01*
X174106210Y-113406215D01*
X174106209Y-113406215D01*
X174106213Y-113406213D01*
X174202467Y-113280772D01*
X174262975Y-113134693D01*
X174283613Y-112977931D01*
X174262975Y-112821169D01*
X174202467Y-112675090D01*
X174106213Y-112549649D01*
X173980772Y-112453395D01*
X173955981Y-112443126D01*
X173834691Y-112392886D01*
X173677931Y-112372249D01*
X173677930Y-112372249D01*
X173643976Y-112376719D01*
X173573827Y-112365779D01*
X173520729Y-112318651D01*
X173502608Y-112268243D01*
X173491707Y-112185441D01*
X173431199Y-112039362D01*
X173431199Y-112039361D01*
X173334945Y-111913920D01*
X173209504Y-111817666D01*
X173181227Y-111805953D01*
X173063423Y-111757157D01*
X172906663Y-111736520D01*
X172749902Y-111757157D01*
X172603823Y-111817665D01*
X172603820Y-111817667D01*
X172478381Y-111913920D01*
X172382128Y-112039359D01*
X172382126Y-112039362D01*
X172321618Y-112185441D01*
X172300981Y-112342201D01*
X172300981Y-112342202D01*
X172321618Y-112498962D01*
X172338424Y-112539534D01*
X172382127Y-112645043D01*
X172478381Y-112770484D01*
X172550203Y-112825594D01*
X172592071Y-112882931D01*
X172599500Y-112925557D01*
X172599500Y-114926722D01*
X172579498Y-114994843D01*
X172525842Y-115041336D01*
X172455568Y-115051440D01*
X172425282Y-115043131D01*
X172357260Y-115014955D01*
X172200500Y-114994318D01*
X172043739Y-115014955D01*
X171897660Y-115075463D01*
X171897657Y-115075465D01*
X171772218Y-115171718D01*
X171675965Y-115297157D01*
X171675963Y-115297160D01*
X171615455Y-115443239D01*
X171594818Y-115599999D01*
X171594818Y-115600000D01*
X171615455Y-115756760D01*
X171615456Y-115756762D01*
X171675964Y-115902841D01*
X171675966Y-115902843D01*
X171675967Y-115902846D01*
X171676904Y-115904470D01*
X171677278Y-115906012D01*
X171679125Y-115910471D01*
X171678429Y-115910759D01*
X171693640Y-115973466D01*
X171670417Y-116040557D01*
X171614608Y-116084442D01*
X171543933Y-116091188D01*
X171504787Y-116076587D01*
X171502846Y-116075467D01*
X171502843Y-116075466D01*
X171502841Y-116075464D01*
X171379535Y-116024389D01*
X171356760Y-116014955D01*
X171200000Y-115994318D01*
X171199998Y-115994318D01*
X171101914Y-116007230D01*
X171031765Y-115996290D01*
X170996374Y-115971403D01*
X166537405Y-111512433D01*
X166503379Y-111450121D01*
X166500500Y-111423338D01*
X166500500Y-108988469D01*
X166520502Y-108920348D01*
X166549796Y-108888507D01*
X166628279Y-108828284D01*
X166628278Y-108828284D01*
X166628282Y-108828282D01*
X166724536Y-108702841D01*
X166785044Y-108556762D01*
X166805682Y-108400000D01*
X166785044Y-108243238D01*
X166724536Y-108097159D01*
X166642718Y-107990532D01*
X177496217Y-107990532D01*
X177503594Y-108041846D01*
X177504074Y-108046317D01*
X177507772Y-108098015D01*
X177507774Y-108098022D01*
X177509385Y-108102342D01*
X177516041Y-108128417D01*
X177516698Y-108132989D01*
X177516700Y-108132996D01*
X177538229Y-108180137D01*
X177539950Y-108184291D01*
X177549847Y-108210825D01*
X177558068Y-108232865D01*
X177558069Y-108232866D01*
X177560832Y-108236558D01*
X177574570Y-108259712D01*
X177576483Y-108263901D01*
X177576485Y-108263904D01*
X177576486Y-108263905D01*
X177576487Y-108263907D01*
X177610429Y-108303078D01*
X177613243Y-108306570D01*
X177622643Y-108319127D01*
X177633728Y-108330212D01*
X177636782Y-108333492D01*
X177670736Y-108372677D01*
X177674609Y-108375166D01*
X177695583Y-108392067D01*
X177713957Y-108410441D01*
X177747984Y-108472751D01*
X177750864Y-108499538D01*
X177750864Y-110823174D01*
X177747985Y-110849954D01*
X177747005Y-110854457D01*
X177747005Y-110854462D01*
X177750703Y-110906168D01*
X177750864Y-110910664D01*
X177750864Y-110926333D01*
X177753093Y-110941845D01*
X177753573Y-110946312D01*
X177757272Y-110998014D01*
X177757274Y-110998022D01*
X177758885Y-111002342D01*
X177765541Y-111028417D01*
X177766198Y-111032989D01*
X177766200Y-111032996D01*
X177787729Y-111080137D01*
X177789450Y-111084291D01*
X177795556Y-111100660D01*
X177807568Y-111132865D01*
X177807569Y-111132866D01*
X177810332Y-111136558D01*
X177824070Y-111159712D01*
X177825983Y-111163901D01*
X177825985Y-111163904D01*
X177825986Y-111163905D01*
X177825987Y-111163907D01*
X177859187Y-111202222D01*
X177859929Y-111203078D01*
X177862743Y-111206570D01*
X177872143Y-111219127D01*
X177883229Y-111230213D01*
X177886284Y-111233494D01*
X177911417Y-111262500D01*
X177920236Y-111272677D01*
X177924115Y-111275169D01*
X177945087Y-111292071D01*
X178149825Y-111496809D01*
X178166726Y-111517780D01*
X178169221Y-111521662D01*
X178204413Y-111552156D01*
X178208402Y-111555612D01*
X178211681Y-111558665D01*
X178222771Y-111569755D01*
X178235327Y-111579154D01*
X178238820Y-111581969D01*
X178277991Y-111615911D01*
X178282178Y-111617823D01*
X178305339Y-111631565D01*
X178309033Y-111634330D01*
X178309036Y-111634332D01*
X178342273Y-111646727D01*
X178357610Y-111652448D01*
X178361740Y-111654158D01*
X178408907Y-111675699D01*
X178413471Y-111676355D01*
X178439566Y-111683015D01*
X178443881Y-111684625D01*
X178495592Y-111688323D01*
X178500021Y-111688798D01*
X178515565Y-111691034D01*
X178531234Y-111691034D01*
X178535730Y-111691195D01*
X178551911Y-111692351D01*
X178587437Y-111694893D01*
X178591937Y-111693913D01*
X178618722Y-111691034D01*
X180023322Y-111691034D01*
X180023325Y-111691034D01*
X180049381Y-111683382D01*
X180066931Y-111679564D01*
X180093821Y-111675699D01*
X180118524Y-111664416D01*
X180135361Y-111658137D01*
X180161417Y-111650487D01*
X180184266Y-111635802D01*
X180200034Y-111627192D01*
X180224737Y-111615911D01*
X180245260Y-111598126D01*
X180259633Y-111587366D01*
X180282492Y-111572677D01*
X180300275Y-111552153D01*
X180312986Y-111539443D01*
X180333507Y-111521662D01*
X180348196Y-111498803D01*
X180358956Y-111484430D01*
X180376741Y-111463907D01*
X180388022Y-111439204D01*
X180396632Y-111423436D01*
X180411317Y-111400587D01*
X180418967Y-111374531D01*
X180425252Y-111357682D01*
X180436529Y-111332991D01*
X180440392Y-111306118D01*
X180444216Y-111288539D01*
X180451863Y-111262500D01*
X180451864Y-111262494D01*
X180451864Y-111235341D01*
X180453147Y-111217408D01*
X180457011Y-111190535D01*
X180453146Y-111163651D01*
X180451864Y-111145721D01*
X180451864Y-111118574D01*
X180451864Y-111118573D01*
X180444211Y-111092512D01*
X180440392Y-111074950D01*
X180436530Y-111048082D01*
X180436529Y-111048080D01*
X180436529Y-111048077D01*
X180425250Y-111023380D01*
X180418966Y-111006533D01*
X180411317Y-110980481D01*
X180411315Y-110980478D01*
X180411315Y-110980477D01*
X180396636Y-110957637D01*
X180388023Y-110941866D01*
X180376741Y-110917161D01*
X180358959Y-110896640D01*
X180348188Y-110882250D01*
X180333507Y-110859406D01*
X180312984Y-110841622D01*
X180300275Y-110828913D01*
X180295302Y-110823174D01*
X180282492Y-110808391D01*
X180259643Y-110793707D01*
X180245255Y-110782936D01*
X180224738Y-110765158D01*
X180224737Y-110765157D01*
X180224734Y-110765155D01*
X180224730Y-110765153D01*
X180200032Y-110753872D01*
X180184263Y-110745261D01*
X180161423Y-110730583D01*
X180161420Y-110730582D01*
X180161417Y-110730581D01*
X180135359Y-110722929D01*
X180118525Y-110716650D01*
X180093821Y-110705369D01*
X180066934Y-110701502D01*
X180049383Y-110697684D01*
X180023325Y-110690034D01*
X180023323Y-110690034D01*
X178877864Y-110690034D01*
X178809743Y-110670032D01*
X178763250Y-110616376D01*
X178751864Y-110564034D01*
X178751864Y-110050000D01*
X193344318Y-110050000D01*
X193364955Y-110206760D01*
X193408794Y-110312595D01*
X193425464Y-110352841D01*
X193521718Y-110478282D01*
X193647159Y-110574536D01*
X193793238Y-110635044D01*
X193871408Y-110645335D01*
X193936335Y-110674057D01*
X193944057Y-110681162D01*
X194361050Y-111098155D01*
X194365760Y-111103425D01*
X194382571Y-111124503D01*
X194390121Y-111133970D01*
X194390124Y-111133972D01*
X194390125Y-111133973D01*
X194409816Y-111147398D01*
X194439271Y-111167480D01*
X194487118Y-111202793D01*
X194487121Y-111202794D01*
X194494660Y-111206779D01*
X194502324Y-111210470D01*
X194502327Y-111210472D01*
X194559177Y-111228007D01*
X194615301Y-111247646D01*
X194615307Y-111247646D01*
X194623715Y-111249237D01*
X194632094Y-111250500D01*
X194691574Y-111250500D01*
X194751010Y-111252724D01*
X194751016Y-111252722D01*
X194760390Y-111251667D01*
X194760487Y-111252528D01*
X194775897Y-111250500D01*
X198571157Y-111250500D01*
X198578211Y-111250895D01*
X198617035Y-111255270D01*
X198617035Y-111255269D01*
X198617036Y-111255270D01*
X198617036Y-111255269D01*
X198642397Y-111250470D01*
X198675478Y-111244212D01*
X198706636Y-111239515D01*
X198734287Y-111235348D01*
X198734295Y-111235343D01*
X198742472Y-111232821D01*
X198750472Y-111230023D01*
X198803073Y-111202222D01*
X198827343Y-111190534D01*
X198856642Y-111176425D01*
X198856646Y-111176421D01*
X198863685Y-111171622D01*
X198870531Y-111166569D01*
X198870538Y-111166566D01*
X198912600Y-111124503D01*
X198956194Y-111084055D01*
X198956197Y-111084048D01*
X198962081Y-111076672D01*
X198962762Y-111077215D01*
X198972219Y-111064883D01*
X199598175Y-110438927D01*
X199603419Y-110434241D01*
X199633970Y-110409879D01*
X199667476Y-110360734D01*
X199702792Y-110312883D01*
X199706789Y-110305320D01*
X199710471Y-110297674D01*
X199710470Y-110297674D01*
X199710472Y-110297673D01*
X199728008Y-110240820D01*
X199747646Y-110184700D01*
X199747646Y-110184693D01*
X199749228Y-110176335D01*
X199750500Y-110167901D01*
X199750500Y-110108426D01*
X199752724Y-110048990D01*
X199752722Y-110048984D01*
X199751667Y-110039610D01*
X199752528Y-110039512D01*
X199750500Y-110024103D01*
X199750500Y-103976500D01*
X199770502Y-103908379D01*
X199824158Y-103861886D01*
X199876500Y-103850500D01*
X199914815Y-103850500D01*
X199914820Y-103850500D01*
X199958722Y-103841767D01*
X200008504Y-103808504D01*
X200041767Y-103758722D01*
X200050500Y-103714820D01*
X200050500Y-101585180D01*
X200041767Y-101541278D01*
X200041765Y-101541274D01*
X200008504Y-101491495D01*
X199958725Y-101458234D01*
X199958721Y-101458232D01*
X199914820Y-101449500D01*
X199179662Y-101449500D01*
X199111541Y-101429498D01*
X199065048Y-101375842D01*
X199054944Y-101305568D01*
X199084438Y-101240988D01*
X199090566Y-101234405D01*
X199336566Y-100988404D01*
X199468009Y-100856960D01*
X199474597Y-100851228D01*
X199484221Y-100843961D01*
X199484228Y-100843958D01*
X199516445Y-100808616D01*
X199518395Y-100806574D01*
X199532174Y-100792797D01*
X199533644Y-100790649D01*
X199539069Y-100783800D01*
X199559916Y-100760933D01*
X199562335Y-100754688D01*
X199575877Y-100728997D01*
X199579656Y-100723481D01*
X199586739Y-100693365D01*
X199589320Y-100685029D01*
X199600500Y-100656173D01*
X199600500Y-100649479D01*
X199603847Y-100620631D01*
X199605379Y-100614119D01*
X199602982Y-100596942D01*
X199601105Y-100583476D01*
X199600500Y-100574761D01*
X199600500Y-99976500D01*
X199620502Y-99908379D01*
X199674158Y-99861886D01*
X199726500Y-99850500D01*
X199914815Y-99850500D01*
X199914820Y-99850500D01*
X199958722Y-99841767D01*
X200008504Y-99808504D01*
X200041767Y-99758722D01*
X200050500Y-99714820D01*
X200050500Y-97585180D01*
X200041767Y-97541278D01*
X200041765Y-97541274D01*
X200008504Y-97491495D01*
X199958725Y-97458234D01*
X199958721Y-97458232D01*
X199914820Y-97449500D01*
X198685180Y-97449500D01*
X198685179Y-97449500D01*
X198641278Y-97458232D01*
X198641274Y-97458234D01*
X198591495Y-97491495D01*
X198558234Y-97541274D01*
X198558232Y-97541278D01*
X198549500Y-97585179D01*
X198549500Y-99714820D01*
X198558232Y-99758721D01*
X198558234Y-99758725D01*
X198591495Y-99808504D01*
X198641274Y-99841765D01*
X198641278Y-99841767D01*
X198685180Y-99850500D01*
X198873500Y-99850500D01*
X198941621Y-99870502D01*
X198988114Y-99924158D01*
X198999500Y-99976500D01*
X198999500Y-100423338D01*
X198979498Y-100491459D01*
X198962599Y-100512428D01*
X198584047Y-100890981D01*
X198210645Y-101264383D01*
X198148333Y-101298408D01*
X198077517Y-101293343D01*
X198020682Y-101250796D01*
X197995871Y-101184276D01*
X198004499Y-101128649D01*
X198024331Y-101078875D01*
X198054260Y-100896317D01*
X198051815Y-100851228D01*
X198045188Y-100728988D01*
X198044245Y-100711593D01*
X198039184Y-100693365D01*
X197994756Y-100533348D01*
X197994755Y-100533347D01*
X197994754Y-100533341D01*
X197954041Y-100456548D01*
X197908100Y-100369895D01*
X197788342Y-100228906D01*
X197788337Y-100228900D01*
X197641064Y-100116946D01*
X197641063Y-100116945D01*
X197641060Y-100116943D01*
X197473166Y-100039267D01*
X197292503Y-99999501D01*
X197292500Y-99999500D01*
X197292497Y-99999500D01*
X197153887Y-99999500D01*
X197153877Y-99999500D01*
X197016096Y-100014484D01*
X197016087Y-100014486D01*
X196840779Y-100073555D01*
X196840776Y-100073557D01*
X196682266Y-100168928D01*
X196682265Y-100168929D01*
X196547961Y-100296148D01*
X196444139Y-100449273D01*
X196375669Y-100621122D01*
X196375668Y-100621125D01*
X196345740Y-100803682D01*
X196345740Y-100803683D01*
X196355754Y-100988404D01*
X196355756Y-100988415D01*
X196405243Y-101166651D01*
X196405246Y-101166659D01*
X196491899Y-101330104D01*
X196611657Y-101471093D01*
X196611663Y-101471100D01*
X196703981Y-101541278D01*
X196758939Y-101583056D01*
X196926832Y-101660732D01*
X196926833Y-101660732D01*
X197107503Y-101700500D01*
X197107506Y-101700500D01*
X197246105Y-101700500D01*
X197246113Y-101700500D01*
X197257365Y-101699276D01*
X197383903Y-101685515D01*
X197383905Y-101685514D01*
X197383910Y-101685514D01*
X197481677Y-101652571D01*
X197552617Y-101649775D01*
X197613809Y-101685776D01*
X197645823Y-101749145D01*
X197638496Y-101819763D01*
X197615022Y-101856864D01*
X197583575Y-101891358D01*
X197581569Y-101893459D01*
X197567826Y-101907203D01*
X197567815Y-101907216D01*
X197566339Y-101909370D01*
X197560926Y-101916202D01*
X197540083Y-101939066D01*
X197537661Y-101945319D01*
X197524128Y-101970993D01*
X197520344Y-101976517D01*
X197520342Y-101976520D01*
X197513259Y-102006633D01*
X197510676Y-102014974D01*
X197499500Y-102043824D01*
X197499500Y-102050519D01*
X197496154Y-102079365D01*
X197494621Y-102085882D01*
X197498895Y-102116522D01*
X197499500Y-102125236D01*
X197499500Y-108620719D01*
X197479498Y-108688840D01*
X197425842Y-108735333D01*
X197389947Y-108745641D01*
X197243239Y-108764955D01*
X197097160Y-108825463D01*
X197097157Y-108825465D01*
X196971718Y-108921718D01*
X196875465Y-109047157D01*
X196875463Y-109047160D01*
X196814955Y-109193239D01*
X196794318Y-109349999D01*
X196794318Y-109350000D01*
X196814955Y-109506760D01*
X196822703Y-109525464D01*
X196875464Y-109652841D01*
X196971718Y-109778282D01*
X197097159Y-109874536D01*
X197243238Y-109935044D01*
X197400000Y-109955682D01*
X197556762Y-109935044D01*
X197702841Y-109874536D01*
X197828282Y-109778282D01*
X197924536Y-109652841D01*
X197985044Y-109506762D01*
X198005682Y-109350000D01*
X197992769Y-109251915D01*
X198003708Y-109181768D01*
X198028605Y-109146365D01*
X198032174Y-109142797D01*
X198033644Y-109140649D01*
X198039069Y-109133800D01*
X198059916Y-109110933D01*
X198062335Y-109104688D01*
X198075877Y-109078997D01*
X198079656Y-109073481D01*
X198086739Y-109043365D01*
X198089320Y-109035029D01*
X198100500Y-109006173D01*
X198100500Y-108999479D01*
X198103847Y-108970631D01*
X198105379Y-108964119D01*
X198102830Y-108945844D01*
X198101105Y-108933476D01*
X198100500Y-108924762D01*
X198100500Y-105650444D01*
X198100500Y-102276657D01*
X198120501Y-102208540D01*
X198137400Y-102187570D01*
X198334405Y-101990565D01*
X198396716Y-101956540D01*
X198467531Y-101961605D01*
X198524367Y-102004152D01*
X198549178Y-102070672D01*
X198549499Y-102079661D01*
X198549499Y-103714815D01*
X198549500Y-103714820D01*
X198558232Y-103758721D01*
X198558234Y-103758725D01*
X198591495Y-103808504D01*
X198641274Y-103841765D01*
X198641278Y-103841767D01*
X198685180Y-103850500D01*
X198723500Y-103850500D01*
X198791621Y-103870502D01*
X198838114Y-103924158D01*
X198849500Y-103976500D01*
X198849500Y-109861205D01*
X198829498Y-109929326D01*
X198812596Y-109950300D01*
X198450302Y-110312595D01*
X198387989Y-110346620D01*
X198361206Y-110349500D01*
X194938793Y-110349500D01*
X194870672Y-110329498D01*
X194849698Y-110312595D01*
X194581162Y-110044059D01*
X194547136Y-109981747D01*
X194545335Y-109971410D01*
X194543264Y-109955682D01*
X194535044Y-109893238D01*
X194474536Y-109747159D01*
X194378282Y-109621718D01*
X194252841Y-109525464D01*
X194207691Y-109506762D01*
X194106760Y-109464955D01*
X193950000Y-109444318D01*
X193793239Y-109464955D01*
X193647160Y-109525463D01*
X193647157Y-109525465D01*
X193521718Y-109621718D01*
X193425465Y-109747157D01*
X193425463Y-109747160D01*
X193364955Y-109893239D01*
X193344318Y-110049999D01*
X193344318Y-110050000D01*
X178751864Y-110050000D01*
X178751864Y-108307391D01*
X178754743Y-108280610D01*
X178755723Y-108276107D01*
X178752894Y-108236558D01*
X178752025Y-108224397D01*
X178751864Y-108219901D01*
X178751864Y-108204235D01*
X178749628Y-108188691D01*
X178749152Y-108184250D01*
X178749004Y-108182187D01*
X178745455Y-108132551D01*
X178743845Y-108128236D01*
X178737185Y-108102141D01*
X178736529Y-108097577D01*
X178714988Y-108050410D01*
X178713274Y-108046271D01*
X178695162Y-107997706D01*
X178695160Y-107997703D01*
X178692395Y-107994009D01*
X178678653Y-107970848D01*
X178676741Y-107966661D01*
X178666169Y-107954460D01*
X178642792Y-107927481D01*
X178639971Y-107923980D01*
X178637475Y-107920646D01*
X178630584Y-107911441D01*
X178619503Y-107900360D01*
X178616449Y-107897080D01*
X178582491Y-107857890D01*
X178578613Y-107855398D01*
X178557638Y-107838495D01*
X178370003Y-107650859D01*
X178366937Y-107647566D01*
X178332993Y-107608392D01*
X178332990Y-107608389D01*
X178289383Y-107580364D01*
X178285689Y-107577799D01*
X178244198Y-107546739D01*
X178243500Y-107546478D01*
X178239872Y-107545125D01*
X178215794Y-107533072D01*
X178211917Y-107530581D01*
X178211915Y-107530580D01*
X178211913Y-107530579D01*
X178162183Y-107515978D01*
X178157915Y-107514557D01*
X178109352Y-107496444D01*
X178109344Y-107496442D01*
X178104749Y-107496114D01*
X178078247Y-107491332D01*
X178073829Y-107490034D01*
X178073825Y-107490034D01*
X178021994Y-107490034D01*
X178017498Y-107489873D01*
X177965791Y-107486175D01*
X177965790Y-107486175D01*
X177961291Y-107487154D01*
X177934506Y-107490034D01*
X177929902Y-107490034D01*
X177880170Y-107504635D01*
X177875814Y-107505747D01*
X177825158Y-107516767D01*
X177825156Y-107516767D01*
X177821103Y-107518981D01*
X177796235Y-107529281D01*
X177791813Y-107530579D01*
X177791805Y-107530583D01*
X177748199Y-107558606D01*
X177744334Y-107560899D01*
X177698843Y-107585741D01*
X177698839Y-107585744D01*
X177695576Y-107589007D01*
X177674622Y-107605893D01*
X177670737Y-107608390D01*
X177636790Y-107647565D01*
X177633726Y-107650856D01*
X177597071Y-107687511D01*
X177597070Y-107687513D01*
X177594857Y-107691566D01*
X177579513Y-107713666D01*
X177576493Y-107717151D01*
X177576486Y-107717163D01*
X177554955Y-107764305D01*
X177552943Y-107768325D01*
X177528099Y-107813825D01*
X177528097Y-107813831D01*
X177527116Y-107818340D01*
X177518615Y-107843880D01*
X177516699Y-107848075D01*
X177516698Y-107848080D01*
X177509323Y-107899373D01*
X177508525Y-107903799D01*
X177497505Y-107954460D01*
X177497504Y-107954467D01*
X177497833Y-107959060D01*
X177496873Y-107985967D01*
X177496217Y-107990531D01*
X177496217Y-107990532D01*
X166642718Y-107990532D01*
X166628282Y-107971718D01*
X166502841Y-107875464D01*
X166460417Y-107857891D01*
X166356760Y-107814955D01*
X166200000Y-107794318D01*
X166043239Y-107814955D01*
X165897160Y-107875463D01*
X165897157Y-107875465D01*
X165771718Y-107971718D01*
X165675465Y-108097157D01*
X165675463Y-108097160D01*
X165614955Y-108243239D01*
X165594318Y-108399999D01*
X165594318Y-108400000D01*
X165614955Y-108556760D01*
X165669665Y-108688840D01*
X165675464Y-108702841D01*
X165769556Y-108825465D01*
X165771720Y-108828284D01*
X165850204Y-108888507D01*
X165892071Y-108945844D01*
X165899500Y-108988469D01*
X165899500Y-111537091D01*
X165898895Y-111545805D01*
X165897227Y-111557764D01*
X165899433Y-111605489D01*
X165899500Y-111608399D01*
X165899500Y-111627854D01*
X165899981Y-111630428D01*
X165900985Y-111639088D01*
X165902414Y-111669989D01*
X165902415Y-111669993D01*
X165905120Y-111676119D01*
X165913708Y-111703851D01*
X165914938Y-111710429D01*
X165914941Y-111710437D01*
X165931224Y-111736736D01*
X165935295Y-111744460D01*
X165947794Y-111772765D01*
X165952525Y-111777496D01*
X165970557Y-111800260D01*
X165974082Y-111805953D01*
X165998771Y-111824597D01*
X166005354Y-111830325D01*
X168396176Y-114221147D01*
X170571403Y-116396374D01*
X170605429Y-116458686D01*
X170607230Y-116501914D01*
X170594318Y-116599998D01*
X170594318Y-116600000D01*
X170614955Y-116756760D01*
X170649294Y-116839660D01*
X170675464Y-116902841D01*
X170771718Y-117028282D01*
X170897159Y-117124536D01*
X171043238Y-117185044D01*
X171200000Y-117205682D01*
X171356762Y-117185044D01*
X171356762Y-117185043D01*
X171364950Y-117183966D01*
X171365281Y-117186482D01*
X171423494Y-117187859D01*
X171482296Y-117227643D01*
X171510254Y-117292903D01*
X171498493Y-117362919D01*
X171485113Y-117384582D01*
X171475470Y-117397149D01*
X171475463Y-117397160D01*
X171414955Y-117543239D01*
X171394318Y-117699999D01*
X171394318Y-117700000D01*
X171414955Y-117856760D01*
X171443541Y-117925771D01*
X171475464Y-118002841D01*
X171570612Y-118126841D01*
X171571720Y-118128284D01*
X171650204Y-118188507D01*
X171692071Y-118245844D01*
X171699500Y-118288469D01*
X171699500Y-122023338D01*
X171679498Y-122091459D01*
X171662595Y-122112433D01*
X169403624Y-124371403D01*
X169341312Y-124405429D01*
X169298084Y-124407230D01*
X169200002Y-124394318D01*
X169200000Y-124394318D01*
X169043239Y-124414955D01*
X168897160Y-124475463D01*
X168897157Y-124475465D01*
X168771718Y-124571718D01*
X168675465Y-124697157D01*
X168675463Y-124697160D01*
X168614955Y-124843239D01*
X168594318Y-124999999D01*
X168594318Y-125000000D01*
X168614955Y-125156760D01*
X168643338Y-125225282D01*
X168650927Y-125295872D01*
X168619147Y-125359359D01*
X168558089Y-125395586D01*
X168526929Y-125399500D01*
X160576661Y-125399500D01*
X160508540Y-125379498D01*
X160487566Y-125362595D01*
X156599971Y-121475000D01*
X156565945Y-121412688D01*
X156571010Y-121341873D01*
X156613557Y-121285037D01*
X156680077Y-121260226D01*
X156705849Y-121261028D01*
X156999347Y-121300500D01*
X156999351Y-121300500D01*
X157225240Y-121300500D01*
X157225244Y-121300500D01*
X157450634Y-121285412D01*
X157745903Y-121225396D01*
X158030537Y-121126560D01*
X158299459Y-120990668D01*
X158547869Y-120820144D01*
X158771333Y-120618032D01*
X158965865Y-120387939D01*
X159127993Y-120133970D01*
X159254823Y-119860658D01*
X159344093Y-119572879D01*
X159394209Y-119275770D01*
X159398038Y-119161243D01*
X161029500Y-119161243D01*
X161042511Y-119230843D01*
X161070383Y-119379946D01*
X161150751Y-119587396D01*
X161150759Y-119587412D01*
X161267874Y-119776560D01*
X161267875Y-119776561D01*
X161417764Y-119940982D01*
X161595310Y-120075057D01*
X161595315Y-120075061D01*
X161794462Y-120174225D01*
X161794468Y-120174227D01*
X161794472Y-120174229D01*
X161794478Y-120174230D01*
X161794479Y-120174231D01*
X161827618Y-120183660D01*
X162008464Y-120235115D01*
X162174497Y-120250500D01*
X162174504Y-120250500D01*
X162285496Y-120250500D01*
X162285503Y-120250500D01*
X162451536Y-120235115D01*
X162665528Y-120174229D01*
X162665533Y-120174226D01*
X162665537Y-120174225D01*
X162864684Y-120075061D01*
X162864685Y-120075059D01*
X162864689Y-120075058D01*
X163042236Y-119940981D01*
X163192124Y-119776562D01*
X163309247Y-119587401D01*
X163389618Y-119379940D01*
X163430500Y-119161243D01*
X163430500Y-118938757D01*
X163389618Y-118720060D01*
X163389616Y-118720056D01*
X163389616Y-118720053D01*
X163324679Y-118552433D01*
X163309247Y-118512599D01*
X163295329Y-118490121D01*
X163192125Y-118323439D01*
X163192124Y-118323438D01*
X163042235Y-118159017D01*
X162864689Y-118024942D01*
X162864684Y-118024938D01*
X162665537Y-117925774D01*
X162665520Y-117925768D01*
X162451539Y-117864885D01*
X162401726Y-117860269D01*
X162285503Y-117849500D01*
X162174497Y-117849500D01*
X162068839Y-117859290D01*
X162008460Y-117864885D01*
X161794479Y-117925768D01*
X161794462Y-117925774D01*
X161595315Y-118024938D01*
X161595310Y-118024942D01*
X161417764Y-118159017D01*
X161267875Y-118323438D01*
X161267874Y-118323439D01*
X161150759Y-118512587D01*
X161150751Y-118512603D01*
X161070383Y-118720053D01*
X161070382Y-118720060D01*
X161029500Y-118938757D01*
X161029500Y-119161243D01*
X159398038Y-119161243D01*
X159404277Y-118974631D01*
X159374118Y-118674838D01*
X159304269Y-118381739D01*
X159247708Y-118234883D01*
X159195979Y-118100570D01*
X159190167Y-118089964D01*
X159051175Y-117836335D01*
X159030911Y-117808833D01*
X158872445Y-117593761D01*
X158823583Y-117543238D01*
X158662980Y-117377176D01*
X158426519Y-117190445D01*
X158426517Y-117190443D01*
X158315240Y-117124534D01*
X158167270Y-117036891D01*
X157889872Y-116919264D01*
X157599271Y-116839660D01*
X157300653Y-116799500D01*
X157074756Y-116799500D01*
X156894444Y-116811570D01*
X156849365Y-116814588D01*
X156849357Y-116814589D01*
X156554100Y-116874603D01*
X156554092Y-116874605D01*
X156269467Y-116973438D01*
X156269458Y-116973442D01*
X156000539Y-117109332D01*
X155752129Y-117279857D01*
X155752123Y-117279862D01*
X155528666Y-117481968D01*
X155528665Y-117481970D01*
X155334135Y-117712060D01*
X155334129Y-117712068D01*
X155172008Y-117966026D01*
X155045178Y-118239336D01*
X155045177Y-118239341D01*
X154955907Y-118527119D01*
X154905791Y-118824226D01*
X154905790Y-118824230D01*
X154905791Y-118824230D01*
X154896710Y-119095868D01*
X154895723Y-119125376D01*
X154925880Y-119425155D01*
X154940206Y-119485269D01*
X154936540Y-119556171D01*
X154895123Y-119613835D01*
X154829106Y-119639954D01*
X154759447Y-119626235D01*
X154728543Y-119603572D01*
X154355814Y-119230843D01*
X153677405Y-118552433D01*
X153643379Y-118490121D01*
X153640500Y-118463338D01*
X153640500Y-118183164D01*
X153660502Y-118115043D01*
X153714158Y-118068550D01*
X153737077Y-118060648D01*
X153836111Y-118036873D01*
X154068859Y-117940466D01*
X154283659Y-117808836D01*
X154475224Y-117645224D01*
X154638836Y-117453659D01*
X154770466Y-117238859D01*
X154866873Y-117006111D01*
X154925683Y-116761148D01*
X154945449Y-116510000D01*
X154925683Y-116258852D01*
X154866873Y-116013889D01*
X154770466Y-115781141D01*
X154638836Y-115566341D01*
X154631796Y-115558098D01*
X154475224Y-115374775D01*
X154283662Y-115211166D01*
X154283660Y-115211165D01*
X154283659Y-115211164D01*
X154068859Y-115079534D01*
X153880369Y-115001459D01*
X153878281Y-115000594D01*
X153823001Y-114956045D01*
X153800580Y-114888682D01*
X153800500Y-114884185D01*
X153800500Y-113970000D01*
X158084551Y-113970000D01*
X158104317Y-114221147D01*
X158163126Y-114466109D01*
X158163127Y-114466111D01*
X158259534Y-114698859D01*
X158373102Y-114884185D01*
X158391165Y-114913660D01*
X158391166Y-114913662D01*
X158554775Y-115105224D01*
X158746337Y-115268833D01*
X158746341Y-115268836D01*
X158961141Y-115400466D01*
X159193889Y-115496873D01*
X159438852Y-115555683D01*
X159690000Y-115575449D01*
X159941148Y-115555683D01*
X160186111Y-115496873D01*
X160418859Y-115400466D01*
X160633659Y-115268836D01*
X160825224Y-115105224D01*
X160988836Y-114913659D01*
X161120466Y-114698859D01*
X161216873Y-114466111D01*
X161275683Y-114221148D01*
X161295449Y-113970000D01*
X161275683Y-113718852D01*
X161216873Y-113473889D01*
X161120466Y-113241141D01*
X160988836Y-113026341D01*
X160972114Y-113006762D01*
X160825224Y-112834775D01*
X160633662Y-112671166D01*
X160633660Y-112671165D01*
X160633659Y-112671164D01*
X160418859Y-112539534D01*
X160320910Y-112498962D01*
X160186109Y-112443126D01*
X160005123Y-112399676D01*
X159941148Y-112384317D01*
X159690000Y-112364551D01*
X159689999Y-112364551D01*
X159438852Y-112384317D01*
X159193890Y-112443126D01*
X158961142Y-112539533D01*
X158746339Y-112671165D01*
X158746337Y-112671166D01*
X158554775Y-112834775D01*
X158391166Y-113026337D01*
X158391165Y-113026339D01*
X158259533Y-113241142D01*
X158163126Y-113473890D01*
X158104317Y-113718852D01*
X158084551Y-113970000D01*
X153800500Y-113970000D01*
X153800500Y-105248597D01*
X193992000Y-105248597D01*
X193998505Y-105309093D01*
X194049555Y-105445964D01*
X194049555Y-105445965D01*
X194137095Y-105562904D01*
X194254034Y-105650444D01*
X194390906Y-105701494D01*
X194451402Y-105707999D01*
X194451415Y-105708000D01*
X194846000Y-105708000D01*
X194846000Y-105057905D01*
X194866002Y-104989784D01*
X194919658Y-104943291D01*
X194989932Y-104933187D01*
X194996582Y-104934326D01*
X195002453Y-104935493D01*
X195002455Y-104935495D01*
X195100000Y-104954898D01*
X195197545Y-104935495D01*
X195197546Y-104935493D01*
X195203418Y-104934326D01*
X195274132Y-104940654D01*
X195330199Y-104984208D01*
X195353819Y-105051160D01*
X195354000Y-105057905D01*
X195354000Y-105708000D01*
X195748585Y-105708000D01*
X195748597Y-105707999D01*
X195809093Y-105701494D01*
X195945964Y-105650444D01*
X195945965Y-105650444D01*
X196062904Y-105562904D01*
X196150444Y-105445965D01*
X196150444Y-105445964D01*
X196201494Y-105309093D01*
X196207999Y-105248597D01*
X196208000Y-105248585D01*
X196208000Y-104404000D01*
X195476000Y-104404000D01*
X195407879Y-104383998D01*
X195361386Y-104330342D01*
X195350000Y-104278000D01*
X195350000Y-104022000D01*
X195370002Y-103953879D01*
X195423658Y-103907386D01*
X195476000Y-103896000D01*
X196208000Y-103896000D01*
X196208000Y-103051414D01*
X196207999Y-103051402D01*
X196201494Y-102990906D01*
X196150444Y-102854035D01*
X196150444Y-102854034D01*
X196062904Y-102737095D01*
X195945965Y-102649555D01*
X195809093Y-102598505D01*
X195748597Y-102592000D01*
X195354000Y-102592000D01*
X195354000Y-103242094D01*
X195333998Y-103310215D01*
X195280342Y-103356708D01*
X195210068Y-103366812D01*
X195203419Y-103365673D01*
X195100000Y-103345102D01*
X194996581Y-103365673D01*
X194925867Y-103359345D01*
X194869800Y-103315790D01*
X194846181Y-103248838D01*
X194846000Y-103242094D01*
X194846000Y-102592000D01*
X194451402Y-102592000D01*
X194390906Y-102598505D01*
X194254035Y-102649555D01*
X194254034Y-102649555D01*
X194137095Y-102737095D01*
X194049555Y-102854034D01*
X194049555Y-102854035D01*
X193998505Y-102990906D01*
X193992000Y-103051402D01*
X193992000Y-103896000D01*
X194724000Y-103896000D01*
X194792121Y-103916002D01*
X194838614Y-103969658D01*
X194850000Y-104022000D01*
X194850000Y-104278000D01*
X194829998Y-104346121D01*
X194776342Y-104392614D01*
X194724000Y-104404000D01*
X193992000Y-104404000D01*
X193992000Y-105248597D01*
X153800500Y-105248597D01*
X153800500Y-103220000D01*
X167944318Y-103220000D01*
X167964955Y-103376760D01*
X167964956Y-103376762D01*
X168025464Y-103522841D01*
X168121718Y-103648282D01*
X168247159Y-103744536D01*
X168393238Y-103805044D01*
X168471619Y-103815363D01*
X168549999Y-103825682D01*
X168549999Y-103825681D01*
X168550000Y-103825682D01*
X168706762Y-103805044D01*
X168852841Y-103744536D01*
X168978282Y-103648282D01*
X169074536Y-103522841D01*
X169135044Y-103376762D01*
X169155682Y-103220000D01*
X169142769Y-103121915D01*
X169153708Y-103051768D01*
X169178596Y-103016374D01*
X169257567Y-102937404D01*
X169319880Y-102903379D01*
X169346662Y-102900500D01*
X171311531Y-102900500D01*
X171379652Y-102920502D01*
X171411493Y-102949796D01*
X171471715Y-103028279D01*
X171471716Y-103028280D01*
X171471718Y-103028282D01*
X171597159Y-103124536D01*
X171743238Y-103185044D01*
X171900000Y-103205682D01*
X172056762Y-103185044D01*
X172202841Y-103124536D01*
X172328282Y-103028282D01*
X172424536Y-102902841D01*
X172485044Y-102756762D01*
X172505682Y-102600000D01*
X172485044Y-102443238D01*
X172424536Y-102297159D01*
X172328282Y-102171718D01*
X172202841Y-102075464D01*
X172191273Y-102070672D01*
X172056760Y-102014955D01*
X171900000Y-101994318D01*
X171743239Y-102014955D01*
X171597160Y-102075463D01*
X171597157Y-102075465D01*
X171471715Y-102171720D01*
X171411493Y-102250204D01*
X171354156Y-102292071D01*
X171311531Y-102299500D01*
X169232909Y-102299500D01*
X169224195Y-102298895D01*
X169212235Y-102297227D01*
X169164511Y-102299433D01*
X169161601Y-102299500D01*
X169142147Y-102299500D01*
X169139575Y-102299981D01*
X169130915Y-102300985D01*
X169100011Y-102302414D01*
X169100004Y-102302416D01*
X169093868Y-102305125D01*
X169066148Y-102313708D01*
X169059568Y-102314938D01*
X169033269Y-102331220D01*
X169025548Y-102335290D01*
X168997235Y-102347792D01*
X168992496Y-102352531D01*
X168969742Y-102370554D01*
X168964052Y-102374077D01*
X168964044Y-102374084D01*
X168945407Y-102398765D01*
X168939673Y-102405354D01*
X168753622Y-102591404D01*
X168691310Y-102625429D01*
X168648081Y-102627230D01*
X168550001Y-102614318D01*
X168550000Y-102614318D01*
X168393239Y-102634955D01*
X168247160Y-102695463D01*
X168247157Y-102695465D01*
X168121718Y-102791718D01*
X168025465Y-102917157D01*
X168025463Y-102917160D01*
X167964955Y-103063239D01*
X167944318Y-103219999D01*
X167944318Y-103220000D01*
X153800500Y-103220000D01*
X153800500Y-100075376D01*
X154895723Y-100075376D01*
X154925880Y-100375153D01*
X154995731Y-100668263D01*
X154995732Y-100668264D01*
X155104020Y-100949429D01*
X155248826Y-101213667D01*
X155407852Y-101429498D01*
X155427554Y-101456238D01*
X155637020Y-101672824D01*
X155873485Y-101859558D01*
X156132730Y-102013109D01*
X156410128Y-102130736D01*
X156700729Y-102210340D01*
X156999347Y-102250500D01*
X156999351Y-102250500D01*
X157225240Y-102250500D01*
X157225244Y-102250500D01*
X157450634Y-102235412D01*
X157745903Y-102175396D01*
X158030537Y-102076560D01*
X158299459Y-101940668D01*
X158547869Y-101770144D01*
X158771333Y-101568032D01*
X158965865Y-101337939D01*
X159127993Y-101083970D01*
X159228119Y-100868203D01*
X159254821Y-100810663D01*
X159254821Y-100810661D01*
X159254823Y-100810658D01*
X159344093Y-100522879D01*
X159394209Y-100225770D01*
X159398038Y-100111243D01*
X161029500Y-100111243D01*
X161064065Y-100296148D01*
X161070383Y-100329946D01*
X161150751Y-100537396D01*
X161150759Y-100537412D01*
X161267874Y-100726560D01*
X161267875Y-100726561D01*
X161417764Y-100890982D01*
X161595310Y-101025057D01*
X161595315Y-101025061D01*
X161794462Y-101124225D01*
X161794468Y-101124227D01*
X161794472Y-101124229D01*
X161794478Y-101124230D01*
X161794479Y-101124231D01*
X161943569Y-101166651D01*
X162008464Y-101185115D01*
X162174497Y-101200500D01*
X162174504Y-101200500D01*
X162285496Y-101200500D01*
X162285503Y-101200500D01*
X162451536Y-101185115D01*
X162665528Y-101124229D01*
X162665533Y-101124226D01*
X162665537Y-101124225D01*
X162864684Y-101025061D01*
X162864685Y-101025059D01*
X162864689Y-101025058D01*
X163042236Y-100890981D01*
X163192124Y-100726562D01*
X163309247Y-100537401D01*
X163389618Y-100329940D01*
X163430500Y-100111243D01*
X163430500Y-99888757D01*
X163389618Y-99670060D01*
X163389616Y-99670056D01*
X163389616Y-99670053D01*
X163344264Y-99552989D01*
X163309247Y-99462599D01*
X163228222Y-99331739D01*
X163192125Y-99273439D01*
X163192124Y-99273438D01*
X163042235Y-99109017D01*
X162864689Y-98974942D01*
X162864684Y-98974938D01*
X162665537Y-98875774D01*
X162665520Y-98875768D01*
X162451539Y-98814885D01*
X162401726Y-98810269D01*
X162285503Y-98799500D01*
X162174497Y-98799500D01*
X162068839Y-98809290D01*
X162008460Y-98814885D01*
X161794479Y-98875768D01*
X161794462Y-98875774D01*
X161595315Y-98974938D01*
X161595310Y-98974942D01*
X161417764Y-99109017D01*
X161267875Y-99273438D01*
X161267874Y-99273439D01*
X161150759Y-99462587D01*
X161150751Y-99462603D01*
X161070383Y-99670053D01*
X161070382Y-99670060D01*
X161029500Y-99888757D01*
X161029500Y-100111243D01*
X159398038Y-100111243D01*
X159404277Y-99924631D01*
X159374118Y-99624838D01*
X159304269Y-99331739D01*
X159209553Y-99085814D01*
X159195979Y-99050570D01*
X159194719Y-99048271D01*
X159051175Y-98786335D01*
X159031958Y-98760254D01*
X158953707Y-98654050D01*
X158872446Y-98543762D01*
X158662980Y-98327176D01*
X158426519Y-98140445D01*
X158426517Y-98140443D01*
X158250317Y-98036080D01*
X158239252Y-98029526D01*
X173172000Y-98029526D01*
X173186583Y-98177594D01*
X173186585Y-98177606D01*
X173244219Y-98367599D01*
X173244225Y-98367614D01*
X173337824Y-98542724D01*
X173463788Y-98696211D01*
X173617275Y-98822175D01*
X173792388Y-98915775D01*
X173926000Y-98956305D01*
X173926000Y-98386488D01*
X173946002Y-98318367D01*
X173999658Y-98271874D01*
X174069932Y-98261770D01*
X174086464Y-98265294D01*
X174151840Y-98283895D01*
X174263521Y-98273546D01*
X174263523Y-98273544D01*
X174273516Y-98270702D01*
X174344510Y-98271297D01*
X174403913Y-98310180D01*
X174432863Y-98375005D01*
X174434000Y-98391891D01*
X174434000Y-98956305D01*
X174567611Y-98915775D01*
X174742724Y-98822175D01*
X174896211Y-98696211D01*
X175022175Y-98542724D01*
X175115774Y-98367614D01*
X175115780Y-98367599D01*
X175173414Y-98177606D01*
X175173416Y-98177594D01*
X175187999Y-98029526D01*
X175188000Y-98029508D01*
X175188000Y-97536690D01*
X175208002Y-97468569D01*
X175261658Y-97422076D01*
X175331932Y-97411972D01*
X175362209Y-97420278D01*
X175459764Y-97460687D01*
X175572280Y-97475500D01*
X175572287Y-97475500D01*
X175647713Y-97475500D01*
X175647720Y-97475500D01*
X175760236Y-97460687D01*
X175900233Y-97402698D01*
X175900239Y-97402693D01*
X175907387Y-97398567D01*
X175908404Y-97400328D01*
X175964378Y-97378688D01*
X176033927Y-97392952D01*
X176084724Y-97442552D01*
X176100864Y-97504251D01*
X176100864Y-101730570D01*
X176080862Y-101798691D01*
X176074827Y-101807273D01*
X176070506Y-101812903D01*
X176070500Y-101812913D01*
X176015034Y-101946824D01*
X175996114Y-102090533D01*
X175996114Y-102090534D01*
X176015034Y-102234243D01*
X176070501Y-102368158D01*
X176158742Y-102483155D01*
X176273739Y-102571396D01*
X176358185Y-102606373D01*
X176407655Y-102626864D01*
X176532443Y-102643292D01*
X176551363Y-102645784D01*
X176551363Y-102645783D01*
X176551364Y-102645784D01*
X176695073Y-102626864D01*
X176780682Y-102591404D01*
X176828988Y-102571396D01*
X176943985Y-102483155D01*
X177032226Y-102368158D01*
X177054269Y-102314939D01*
X177087694Y-102234243D01*
X177106614Y-102090534D01*
X177106001Y-102085881D01*
X177096666Y-102014974D01*
X177087694Y-101946825D01*
X177051545Y-101859553D01*
X177032227Y-101812913D01*
X177032222Y-101812905D01*
X177027904Y-101807278D01*
X177002300Y-101741059D01*
X177001863Y-101730593D01*
X177001863Y-96900000D01*
X180809534Y-96900000D01*
X180829312Y-97050234D01*
X180887301Y-97190231D01*
X180887306Y-97190239D01*
X180979548Y-97310451D01*
X181094383Y-97398567D01*
X181099767Y-97402698D01*
X181239764Y-97460687D01*
X181352280Y-97475500D01*
X181352287Y-97475500D01*
X181427713Y-97475500D01*
X181427720Y-97475500D01*
X181540236Y-97460687D01*
X181637782Y-97420281D01*
X181708370Y-97412692D01*
X181771857Y-97444471D01*
X181808085Y-97505528D01*
X181811999Y-97536690D01*
X181811999Y-98029508D01*
X181812000Y-98029526D01*
X181826583Y-98177594D01*
X181826585Y-98177606D01*
X181884219Y-98367599D01*
X181884225Y-98367614D01*
X181977824Y-98542724D01*
X182103788Y-98696211D01*
X182257275Y-98822175D01*
X182432388Y-98915775D01*
X182566000Y-98956305D01*
X182566000Y-98386488D01*
X182586002Y-98318367D01*
X182639658Y-98271874D01*
X182709932Y-98261770D01*
X182726464Y-98265294D01*
X182791840Y-98283895D01*
X182903521Y-98273546D01*
X182903523Y-98273544D01*
X182913516Y-98270702D01*
X182984510Y-98271297D01*
X183043913Y-98310180D01*
X183072863Y-98375005D01*
X183074000Y-98391891D01*
X183074000Y-98956305D01*
X183207611Y-98915775D01*
X183382724Y-98822175D01*
X183536211Y-98696211D01*
X183662175Y-98542724D01*
X183755774Y-98367614D01*
X183755780Y-98367599D01*
X183813414Y-98177606D01*
X183813416Y-98177594D01*
X183827999Y-98029526D01*
X183828000Y-98029508D01*
X183828000Y-97684000D01*
X183246000Y-97684000D01*
X183177879Y-97663998D01*
X183131386Y-97610342D01*
X183120000Y-97558000D01*
X183120000Y-97302000D01*
X183140002Y-97233879D01*
X183193658Y-97187386D01*
X183246000Y-97176000D01*
X183828000Y-97176000D01*
X183828000Y-96830491D01*
X183827999Y-96830473D01*
X183813416Y-96682405D01*
X183813414Y-96682393D01*
X183755780Y-96492400D01*
X183755774Y-96492385D01*
X183662175Y-96317275D01*
X183536211Y-96163788D01*
X183382724Y-96037824D01*
X183207612Y-95944224D01*
X183207610Y-95944223D01*
X183074000Y-95903692D01*
X183074000Y-96473511D01*
X183053998Y-96541632D01*
X183000342Y-96588125D01*
X182930068Y-96598229D01*
X182913519Y-96594701D01*
X182848158Y-96576104D01*
X182736479Y-96586453D01*
X182726478Y-96589299D01*
X182655484Y-96588701D01*
X182596084Y-96549815D01*
X182567136Y-96484988D01*
X182566000Y-96468108D01*
X182566000Y-95903693D01*
X182565999Y-95903692D01*
X182432389Y-95944223D01*
X182432387Y-95944224D01*
X182257275Y-96037824D01*
X182103788Y-96163788D01*
X181977825Y-96317273D01*
X181930941Y-96404988D01*
X181881188Y-96455636D01*
X181811952Y-96471345D01*
X181745213Y-96447129D01*
X181743115Y-96445553D01*
X181680239Y-96397306D01*
X181680231Y-96397301D01*
X181540234Y-96339312D01*
X181427722Y-96324500D01*
X181427720Y-96324500D01*
X181352280Y-96324500D01*
X181352277Y-96324500D01*
X181239765Y-96339312D01*
X181099768Y-96397301D01*
X181099760Y-96397306D01*
X180979548Y-96489548D01*
X180887306Y-96609760D01*
X180887301Y-96609768D01*
X180829312Y-96749765D01*
X180809534Y-96899999D01*
X180809534Y-96900000D01*
X177001863Y-96900000D01*
X177001863Y-96437428D01*
X177021865Y-96369308D01*
X177038763Y-96348338D01*
X177999700Y-95387402D01*
X178062010Y-95353379D01*
X178088793Y-95350500D01*
X184373500Y-95350500D01*
X184441621Y-95370502D01*
X184488114Y-95424158D01*
X184499500Y-95476500D01*
X184499499Y-103657902D01*
X184479497Y-103726023D01*
X184473463Y-103734604D01*
X184425462Y-103797161D01*
X184364955Y-103943239D01*
X184344318Y-104099999D01*
X184344318Y-104100000D01*
X184364955Y-104256760D01*
X184364956Y-104256762D01*
X184425464Y-104402841D01*
X184521718Y-104528282D01*
X184647159Y-104624536D01*
X184793238Y-104685044D01*
X184871619Y-104695363D01*
X184949999Y-104705682D01*
X184949999Y-104705681D01*
X184950000Y-104705682D01*
X185106762Y-104685044D01*
X185252841Y-104624536D01*
X185378282Y-104528282D01*
X185474536Y-104402841D01*
X185535044Y-104256762D01*
X185555682Y-104100000D01*
X185535044Y-103943238D01*
X185474536Y-103797159D01*
X185445045Y-103758725D01*
X185426537Y-103734604D01*
X185400937Y-103668384D01*
X185400500Y-103657901D01*
X185400500Y-96714820D01*
X198549500Y-96714820D01*
X198558232Y-96758721D01*
X198558234Y-96758725D01*
X198591495Y-96808504D01*
X198641274Y-96841765D01*
X198641278Y-96841767D01*
X198685180Y-96850500D01*
X198685185Y-96850500D01*
X199914815Y-96850500D01*
X199914820Y-96850500D01*
X199958722Y-96841767D01*
X200008504Y-96808504D01*
X200041767Y-96758722D01*
X200050500Y-96714820D01*
X200050500Y-94585180D01*
X200041767Y-94541278D01*
X200041765Y-94541274D01*
X200008504Y-94491495D01*
X199958725Y-94458234D01*
X199958721Y-94458232D01*
X199914820Y-94449500D01*
X198685180Y-94449500D01*
X198685179Y-94449500D01*
X198641278Y-94458232D01*
X198641274Y-94458234D01*
X198591495Y-94491495D01*
X198558234Y-94541274D01*
X198558232Y-94541278D01*
X198549500Y-94585179D01*
X198549500Y-96714820D01*
X185400500Y-96714820D01*
X185400500Y-95342097D01*
X185420502Y-95273976D01*
X185426531Y-95265401D01*
X185474536Y-95202841D01*
X185535044Y-95056762D01*
X185555682Y-94900000D01*
X185535044Y-94743238D01*
X185474536Y-94597159D01*
X185378282Y-94471718D01*
X185252841Y-94375464D01*
X185143333Y-94330104D01*
X185106760Y-94314955D01*
X184950000Y-94294318D01*
X184793239Y-94314955D01*
X184647160Y-94375463D01*
X184647152Y-94375468D01*
X184584604Y-94423463D01*
X184518384Y-94449063D01*
X184507901Y-94449500D01*
X183652195Y-94449500D01*
X183584074Y-94429498D01*
X183537581Y-94375842D01*
X183527477Y-94305568D01*
X183554796Y-94243566D01*
X183662175Y-94112724D01*
X183755774Y-93937614D01*
X183755780Y-93937599D01*
X183796403Y-93803683D01*
X196345740Y-93803683D01*
X196355754Y-93988404D01*
X196355756Y-93988415D01*
X196405243Y-94166651D01*
X196405246Y-94166659D01*
X196491899Y-94330104D01*
X196606185Y-94464651D01*
X196611663Y-94471100D01*
X196703981Y-94541278D01*
X196758939Y-94583056D01*
X196852721Y-94626444D01*
X196926833Y-94660732D01*
X197107503Y-94700500D01*
X197107506Y-94700500D01*
X197246105Y-94700500D01*
X197246113Y-94700500D01*
X197257365Y-94699276D01*
X197383903Y-94685515D01*
X197383905Y-94685514D01*
X197383910Y-94685514D01*
X197559221Y-94626444D01*
X197717736Y-94531070D01*
X197852041Y-94403849D01*
X197955858Y-94250730D01*
X197958713Y-94243566D01*
X198024330Y-94078877D01*
X198024331Y-94078874D01*
X198039161Y-93988415D01*
X198054260Y-93896317D01*
X198048688Y-93793552D01*
X198044245Y-93711595D01*
X198044243Y-93711584D01*
X197994756Y-93533348D01*
X197994755Y-93533347D01*
X197994754Y-93533341D01*
X197954041Y-93456549D01*
X197908100Y-93369895D01*
X197788342Y-93228906D01*
X197788337Y-93228900D01*
X197641064Y-93116946D01*
X197641063Y-93116945D01*
X197641060Y-93116943D01*
X197473166Y-93039267D01*
X197292503Y-92999501D01*
X197292500Y-92999500D01*
X197292497Y-92999500D01*
X197153887Y-92999500D01*
X197153877Y-92999500D01*
X197016096Y-93014484D01*
X197016087Y-93014486D01*
X196840779Y-93073555D01*
X196840776Y-93073557D01*
X196682266Y-93168928D01*
X196682265Y-93168929D01*
X196547961Y-93296148D01*
X196444139Y-93449273D01*
X196375669Y-93621122D01*
X196375668Y-93621125D01*
X196345740Y-93803682D01*
X196345740Y-93803683D01*
X183796403Y-93803683D01*
X183813414Y-93747606D01*
X183813416Y-93747594D01*
X183827999Y-93599526D01*
X183828000Y-93599508D01*
X183828000Y-93504000D01*
X183246000Y-93504000D01*
X183177879Y-93483998D01*
X183131386Y-93430342D01*
X183120000Y-93378000D01*
X183120000Y-93122000D01*
X183140002Y-93053879D01*
X183193658Y-93007386D01*
X183246000Y-92996000D01*
X183828000Y-92996000D01*
X183828000Y-92900491D01*
X183827999Y-92900473D01*
X183813416Y-92752405D01*
X183813414Y-92752393D01*
X183755780Y-92562400D01*
X183755774Y-92562385D01*
X183662175Y-92387275D01*
X183536211Y-92233788D01*
X183382724Y-92107824D01*
X183207612Y-92014224D01*
X183207610Y-92014223D01*
X183074000Y-91973692D01*
X183074000Y-92543511D01*
X183053998Y-92611632D01*
X183000342Y-92658125D01*
X182930068Y-92668229D01*
X182913519Y-92664701D01*
X182848158Y-92646104D01*
X182736479Y-92656453D01*
X182726478Y-92659299D01*
X182655484Y-92658701D01*
X182596084Y-92619815D01*
X182567136Y-92554988D01*
X182566000Y-92538108D01*
X182566000Y-91973693D01*
X182565999Y-91973692D01*
X182432389Y-92014223D01*
X182432387Y-92014224D01*
X182257275Y-92107824D01*
X182103788Y-92233788D01*
X181977824Y-92387275D01*
X181884225Y-92562385D01*
X181884219Y-92562400D01*
X181826585Y-92752393D01*
X181826583Y-92752405D01*
X181812000Y-92900473D01*
X181812000Y-92996000D01*
X182394000Y-92996000D01*
X182462121Y-93016002D01*
X182508614Y-93069658D01*
X182520000Y-93122000D01*
X182520000Y-93378000D01*
X182499998Y-93446121D01*
X182446342Y-93492614D01*
X182394000Y-93504000D01*
X181812000Y-93504000D01*
X181812000Y-93599526D01*
X181826583Y-93747594D01*
X181826585Y-93747606D01*
X181884219Y-93937599D01*
X181884225Y-93937614D01*
X181977824Y-94112724D01*
X182085204Y-94243566D01*
X182112958Y-94308913D01*
X182100976Y-94378892D01*
X182053064Y-94431283D01*
X181987805Y-94449500D01*
X177878844Y-94449500D01*
X177871787Y-94449104D01*
X177832965Y-94444730D01*
X177832964Y-94444730D01*
X177774511Y-94455789D01*
X177715713Y-94464651D01*
X177707553Y-94467168D01*
X177699530Y-94469975D01*
X177646926Y-94497777D01*
X177593356Y-94523575D01*
X177586325Y-94528368D01*
X177579463Y-94533433D01*
X177537413Y-94575483D01*
X177493808Y-94615942D01*
X177487919Y-94623327D01*
X177487244Y-94622789D01*
X177477779Y-94635116D01*
X176253207Y-95859689D01*
X176247936Y-95864400D01*
X176217394Y-95888756D01*
X176183883Y-95937907D01*
X176148568Y-95985756D01*
X176144579Y-95993305D01*
X176140891Y-96000964D01*
X176123356Y-96057813D01*
X176103718Y-96113937D01*
X176102130Y-96122324D01*
X176100864Y-96130732D01*
X176100864Y-96190210D01*
X176098639Y-96249647D01*
X176099696Y-96259023D01*
X176098835Y-96259119D01*
X176100863Y-96274526D01*
X176100863Y-96295748D01*
X176080861Y-96363869D01*
X176027205Y-96410362D01*
X175956931Y-96420466D01*
X175908239Y-96399956D01*
X175907387Y-96401433D01*
X175900231Y-96397301D01*
X175760234Y-96339312D01*
X175647722Y-96324500D01*
X175647720Y-96324500D01*
X175572280Y-96324500D01*
X175572277Y-96324500D01*
X175459765Y-96339312D01*
X175319768Y-96397301D01*
X175319765Y-96397303D01*
X175256884Y-96445554D01*
X175190663Y-96471154D01*
X175121115Y-96456889D01*
X175070319Y-96407288D01*
X175069058Y-96404987D01*
X175022175Y-96317275D01*
X174896211Y-96163788D01*
X174742724Y-96037824D01*
X174567612Y-95944224D01*
X174567610Y-95944223D01*
X174434000Y-95903692D01*
X174434000Y-96473511D01*
X174413998Y-96541632D01*
X174360342Y-96588125D01*
X174290068Y-96598229D01*
X174273519Y-96594701D01*
X174208158Y-96576104D01*
X174096479Y-96586453D01*
X174086478Y-96589299D01*
X174015484Y-96588701D01*
X173956084Y-96549815D01*
X173927136Y-96484988D01*
X173926000Y-96468108D01*
X173926000Y-95903693D01*
X173925999Y-95903692D01*
X173792389Y-95944223D01*
X173792387Y-95944224D01*
X173617275Y-96037824D01*
X173463788Y-96163788D01*
X173337824Y-96317275D01*
X173244225Y-96492385D01*
X173244219Y-96492400D01*
X173186585Y-96682393D01*
X173186583Y-96682405D01*
X173172000Y-96830473D01*
X173172000Y-97176000D01*
X173754000Y-97176000D01*
X173822121Y-97196002D01*
X173868614Y-97249658D01*
X173880000Y-97302000D01*
X173880000Y-97558000D01*
X173859998Y-97626121D01*
X173806342Y-97672614D01*
X173754000Y-97684000D01*
X173172000Y-97684000D01*
X173172000Y-98029526D01*
X158239252Y-98029526D01*
X158167270Y-97986891D01*
X157889872Y-97869264D01*
X157599271Y-97789660D01*
X157300653Y-97749500D01*
X157074756Y-97749500D01*
X156894443Y-97761570D01*
X156849365Y-97764588D01*
X156849357Y-97764589D01*
X156554100Y-97824603D01*
X156554092Y-97824605D01*
X156269467Y-97923438D01*
X156269458Y-97923442D01*
X156000539Y-98059332D01*
X155752129Y-98229857D01*
X155752123Y-98229862D01*
X155528666Y-98431968D01*
X155528665Y-98431970D01*
X155334135Y-98662060D01*
X155334129Y-98662068D01*
X155172008Y-98916026D01*
X155045178Y-99189336D01*
X155045177Y-99189341D01*
X154955907Y-99477119D01*
X154905791Y-99774226D01*
X154905790Y-99774230D01*
X154905791Y-99774230D01*
X154898260Y-99999501D01*
X154895723Y-100075376D01*
X153800500Y-100075376D01*
X153800500Y-99085814D01*
X153820502Y-99017693D01*
X153874158Y-98971200D01*
X153878269Y-98969410D01*
X154068859Y-98890466D01*
X154283659Y-98758836D01*
X154475224Y-98595224D01*
X154638836Y-98403659D01*
X154770466Y-98188859D01*
X154866873Y-97956111D01*
X154925683Y-97711148D01*
X154945449Y-97460000D01*
X154925683Y-97208852D01*
X154866873Y-96963889D01*
X154770466Y-96731141D01*
X154638836Y-96516341D01*
X154638833Y-96516337D01*
X154475224Y-96324775D01*
X154283662Y-96161166D01*
X154283660Y-96161165D01*
X154283659Y-96161164D01*
X154068859Y-96029534D01*
X153999883Y-96000963D01*
X153836109Y-95933126D01*
X153651291Y-95888756D01*
X153591148Y-95874317D01*
X153340000Y-95854551D01*
X153088852Y-95874317D01*
X152843890Y-95933126D01*
X152611142Y-96029533D01*
X152396339Y-96161165D01*
X152396337Y-96161166D01*
X152204775Y-96324775D01*
X152041166Y-96516337D01*
X152041165Y-96516339D01*
X151909533Y-96731142D01*
X151813126Y-96963890D01*
X151757402Y-97196002D01*
X151754317Y-97208852D01*
X151734551Y-97460000D01*
X151754317Y-97711148D01*
X151767147Y-97764588D01*
X151813126Y-97956109D01*
X151889480Y-98140443D01*
X151909534Y-98188859D01*
X152019501Y-98368309D01*
X152041165Y-98403660D01*
X152041166Y-98403662D01*
X152201740Y-98591670D01*
X152230771Y-98656459D01*
X152220166Y-98726659D01*
X152173291Y-98779982D01*
X152105929Y-98799500D01*
X152014497Y-98799500D01*
X151908839Y-98809290D01*
X151848460Y-98814885D01*
X151634479Y-98875768D01*
X151634462Y-98875774D01*
X151435315Y-98974938D01*
X151435310Y-98974942D01*
X151257764Y-99109017D01*
X151107875Y-99273438D01*
X151107874Y-99273439D01*
X150990759Y-99462587D01*
X150990751Y-99462603D01*
X150910383Y-99670053D01*
X150910382Y-99670060D01*
X150869500Y-99888757D01*
X150869500Y-100111243D01*
X150904065Y-100296148D01*
X150910383Y-100329946D01*
X150990751Y-100537396D01*
X150990759Y-100537412D01*
X151107874Y-100726560D01*
X151107875Y-100726561D01*
X151257764Y-100890982D01*
X151435310Y-101025057D01*
X151435315Y-101025061D01*
X151634462Y-101124225D01*
X151634468Y-101124227D01*
X151634472Y-101124229D01*
X151634478Y-101124230D01*
X151634479Y-101124231D01*
X151783569Y-101166651D01*
X151848464Y-101185115D01*
X152014497Y-101200500D01*
X152014504Y-101200500D01*
X152125496Y-101200500D01*
X152125503Y-101200500D01*
X152291536Y-101185115D01*
X152505528Y-101124229D01*
X152505533Y-101124226D01*
X152505537Y-101124225D01*
X152704684Y-101025061D01*
X152704685Y-101025059D01*
X152704689Y-101025058D01*
X152882236Y-100890981D01*
X152980384Y-100783317D01*
X153041059Y-100746451D01*
X153112033Y-100748240D01*
X153170773Y-100788116D01*
X153198630Y-100853419D01*
X153199500Y-100868203D01*
X153199500Y-114799177D01*
X153179498Y-114867298D01*
X153125842Y-114913791D01*
X153093227Y-114923623D01*
X153088866Y-114924314D01*
X153088854Y-114924316D01*
X153088852Y-114924317D01*
X153051277Y-114933338D01*
X152843890Y-114983126D01*
X152611142Y-115079533D01*
X152396339Y-115211165D01*
X152396337Y-115211166D01*
X152204775Y-115374775D01*
X152041166Y-115566337D01*
X152041165Y-115566339D01*
X151909533Y-115781142D01*
X151813126Y-116013890D01*
X151754317Y-116258852D01*
X151738590Y-116458686D01*
X151734551Y-116510000D01*
X151754317Y-116761148D01*
X151767147Y-116814588D01*
X151813126Y-117006109D01*
X151889480Y-117190443D01*
X151909534Y-117238859D01*
X152006541Y-117397160D01*
X152041165Y-117453660D01*
X152041166Y-117453662D01*
X152201740Y-117641670D01*
X152230771Y-117706459D01*
X152220166Y-117776659D01*
X152173291Y-117829982D01*
X152105929Y-117849500D01*
X152014497Y-117849500D01*
X151908839Y-117859290D01*
X151848460Y-117864885D01*
X151634479Y-117925768D01*
X151634462Y-117925774D01*
X151435315Y-118024938D01*
X151435310Y-118024942D01*
X151257764Y-118159017D01*
X151107875Y-118323438D01*
X151107874Y-118323439D01*
X150990759Y-118512587D01*
X150990751Y-118512603D01*
X150910383Y-118720053D01*
X150910382Y-118720060D01*
X150869500Y-118938757D01*
X150869500Y-119161243D01*
X150882511Y-119230843D01*
X150910383Y-119379946D01*
X150990751Y-119587396D01*
X150990759Y-119587412D01*
X151107874Y-119776560D01*
X151107875Y-119776561D01*
X151257764Y-119940982D01*
X151435310Y-120075057D01*
X151435315Y-120075061D01*
X151634462Y-120174225D01*
X151634468Y-120174227D01*
X151634472Y-120174229D01*
X151634478Y-120174230D01*
X151634479Y-120174231D01*
X151667618Y-120183660D01*
X151848464Y-120235115D01*
X152014497Y-120250500D01*
X152014504Y-120250500D01*
X152125496Y-120250500D01*
X152125503Y-120250500D01*
X152291536Y-120235115D01*
X152505528Y-120174229D01*
X152505533Y-120174226D01*
X152505537Y-120174225D01*
X152704684Y-120075061D01*
X152704685Y-120075059D01*
X152704689Y-120075058D01*
X152882236Y-119940981D01*
X153032124Y-119776562D01*
X153149247Y-119587401D01*
X153229618Y-119379940D01*
X153252685Y-119256542D01*
X153284862Y-119193262D01*
X153346146Y-119157419D01*
X153417080Y-119160400D01*
X153465633Y-119190604D01*
X160143033Y-125868004D01*
X160148762Y-125874588D01*
X160156042Y-125884229D01*
X160191358Y-125916423D01*
X160193441Y-125918412D01*
X160207203Y-125932174D01*
X160209362Y-125933653D01*
X160216199Y-125939069D01*
X160239067Y-125959916D01*
X160245308Y-125962334D01*
X160270998Y-125975874D01*
X160276520Y-125979657D01*
X160292205Y-125983346D01*
X160306633Y-125986740D01*
X160314977Y-125989324D01*
X160326982Y-125993974D01*
X160343827Y-126000500D01*
X160350520Y-126000500D01*
X160379367Y-126003847D01*
X160385881Y-126005379D01*
X160408435Y-126002232D01*
X160416522Y-126001105D01*
X160425236Y-126000500D01*
X173336816Y-126000500D01*
X173404937Y-126020502D01*
X173425911Y-126037405D01*
X173430917Y-126042411D01*
X173430922Y-126042415D01*
X173430924Y-126042417D01*
X173556365Y-126138671D01*
X173600837Y-126157092D01*
X173656117Y-126201639D01*
X173678538Y-126269003D01*
X173660980Y-126337794D01*
X173609018Y-126386172D01*
X173552618Y-126399500D01*
X142603258Y-126399500D01*
X142535137Y-126379498D01*
X142514163Y-126362595D01*
X137638470Y-121486902D01*
X137604444Y-121424590D01*
X137609509Y-121353775D01*
X137652056Y-121296939D01*
X137718576Y-121272128D01*
X137744349Y-121272930D01*
X137949347Y-121300500D01*
X137949351Y-121300500D01*
X138175240Y-121300500D01*
X138175244Y-121300500D01*
X138400634Y-121285412D01*
X138695903Y-121225396D01*
X138980537Y-121126560D01*
X139249459Y-120990668D01*
X139497869Y-120820144D01*
X139721333Y-120618032D01*
X139915865Y-120387939D01*
X140077993Y-120133970D01*
X140204823Y-119860658D01*
X140294093Y-119572879D01*
X140344209Y-119275770D01*
X140348038Y-119161243D01*
X141979500Y-119161243D01*
X141992511Y-119230843D01*
X142020383Y-119379946D01*
X142100751Y-119587396D01*
X142100759Y-119587412D01*
X142217874Y-119776560D01*
X142217875Y-119776561D01*
X142367764Y-119940982D01*
X142545310Y-120075057D01*
X142545315Y-120075061D01*
X142744462Y-120174225D01*
X142744468Y-120174227D01*
X142744472Y-120174229D01*
X142744478Y-120174230D01*
X142744479Y-120174231D01*
X142777618Y-120183660D01*
X142958464Y-120235115D01*
X143124497Y-120250500D01*
X143124504Y-120250500D01*
X143235496Y-120250500D01*
X143235503Y-120250500D01*
X143401536Y-120235115D01*
X143615528Y-120174229D01*
X143615533Y-120174226D01*
X143615537Y-120174225D01*
X143814684Y-120075061D01*
X143814685Y-120075059D01*
X143814689Y-120075058D01*
X143992236Y-119940981D01*
X144142124Y-119776562D01*
X144259247Y-119587401D01*
X144339618Y-119379940D01*
X144380500Y-119161243D01*
X144380500Y-118938757D01*
X144339618Y-118720060D01*
X144339616Y-118720056D01*
X144339616Y-118720053D01*
X144274679Y-118552433D01*
X144259247Y-118512599D01*
X144245329Y-118490121D01*
X144142125Y-118323439D01*
X144142124Y-118323438D01*
X143992235Y-118159017D01*
X143814689Y-118024942D01*
X143814684Y-118024938D01*
X143615537Y-117925774D01*
X143615520Y-117925768D01*
X143401539Y-117864885D01*
X143351726Y-117860269D01*
X143235503Y-117849500D01*
X143124497Y-117849500D01*
X143018839Y-117859290D01*
X142958460Y-117864885D01*
X142744479Y-117925768D01*
X142744462Y-117925774D01*
X142545315Y-118024938D01*
X142545310Y-118024942D01*
X142367764Y-118159017D01*
X142217875Y-118323438D01*
X142217874Y-118323439D01*
X142100759Y-118512587D01*
X142100751Y-118512603D01*
X142020383Y-118720053D01*
X142020382Y-118720060D01*
X141979500Y-118938757D01*
X141979500Y-119161243D01*
X140348038Y-119161243D01*
X140354277Y-118974631D01*
X140324118Y-118674838D01*
X140254269Y-118381739D01*
X140197708Y-118234883D01*
X140145979Y-118100570D01*
X140140167Y-118089964D01*
X140001175Y-117836335D01*
X139980911Y-117808833D01*
X139822445Y-117593761D01*
X139773583Y-117543238D01*
X139612980Y-117377176D01*
X139376519Y-117190445D01*
X139376517Y-117190443D01*
X139265240Y-117124534D01*
X139117270Y-117036891D01*
X138839872Y-116919264D01*
X138549271Y-116839660D01*
X138250653Y-116799500D01*
X138024756Y-116799500D01*
X137844444Y-116811570D01*
X137799365Y-116814588D01*
X137799357Y-116814589D01*
X137504100Y-116874603D01*
X137504092Y-116874605D01*
X137219467Y-116973438D01*
X137219458Y-116973442D01*
X136950539Y-117109332D01*
X136702129Y-117279857D01*
X136702123Y-117279862D01*
X136478666Y-117481968D01*
X136478665Y-117481970D01*
X136284135Y-117712060D01*
X136284129Y-117712068D01*
X136122008Y-117966026D01*
X135995178Y-118239336D01*
X135995177Y-118239341D01*
X135905907Y-118527119D01*
X135855791Y-118824226D01*
X135855790Y-118824230D01*
X135855791Y-118824230D01*
X135846710Y-119095868D01*
X135845723Y-119125376D01*
X135873978Y-119406241D01*
X135860895Y-119476022D01*
X135812162Y-119527652D01*
X135743253Y-119544739D01*
X135676044Y-119521858D01*
X135659516Y-119507948D01*
X134627405Y-118475837D01*
X134593379Y-118413525D01*
X134590500Y-118386742D01*
X134590500Y-118183164D01*
X134610502Y-118115043D01*
X134664158Y-118068550D01*
X134687077Y-118060648D01*
X134786111Y-118036873D01*
X135018859Y-117940466D01*
X135233659Y-117808836D01*
X135425224Y-117645224D01*
X135588836Y-117453659D01*
X135720466Y-117238859D01*
X135816873Y-117006111D01*
X135875683Y-116761148D01*
X135895449Y-116510000D01*
X135875683Y-116258852D01*
X135816873Y-116013889D01*
X135720466Y-115781141D01*
X135667253Y-115694306D01*
X135648716Y-115625774D01*
X135670172Y-115558098D01*
X135685587Y-115539383D01*
X135858011Y-115366959D01*
X135864590Y-115361236D01*
X135874227Y-115353959D01*
X135874227Y-115353958D01*
X135906434Y-115318628D01*
X135908384Y-115316586D01*
X135922174Y-115302798D01*
X135923648Y-115300644D01*
X135929073Y-115293795D01*
X135949915Y-115270934D01*
X135952330Y-115264698D01*
X135965880Y-115238993D01*
X135966574Y-115237979D01*
X135969656Y-115233481D01*
X135976738Y-115203362D01*
X135979323Y-115195019D01*
X135990499Y-115166174D01*
X135990499Y-115159479D01*
X135993846Y-115130631D01*
X135995378Y-115124119D01*
X135991104Y-115093475D01*
X135990499Y-115084761D01*
X135990499Y-113969999D01*
X139034551Y-113969999D01*
X139054317Y-114221147D01*
X139113126Y-114466109D01*
X139113127Y-114466111D01*
X139209534Y-114698859D01*
X139323102Y-114884185D01*
X139341165Y-114913660D01*
X139341166Y-114913662D01*
X139504775Y-115105224D01*
X139696337Y-115268833D01*
X139696341Y-115268836D01*
X139911141Y-115400466D01*
X140143889Y-115496873D01*
X140388852Y-115555683D01*
X140640000Y-115575449D01*
X140891148Y-115555683D01*
X141136111Y-115496873D01*
X141368859Y-115400466D01*
X141583659Y-115268836D01*
X141775224Y-115105224D01*
X141938836Y-114913659D01*
X142070466Y-114698859D01*
X142166873Y-114466111D01*
X142225683Y-114221148D01*
X142245449Y-113970000D01*
X142225683Y-113718852D01*
X142166873Y-113473889D01*
X142070466Y-113241141D01*
X141938836Y-113026341D01*
X141922114Y-113006762D01*
X141775224Y-112834775D01*
X141583662Y-112671166D01*
X141583660Y-112671165D01*
X141583659Y-112671164D01*
X141368859Y-112539534D01*
X141270910Y-112498962D01*
X141136109Y-112443126D01*
X140955123Y-112399676D01*
X140891148Y-112384317D01*
X140640000Y-112364551D01*
X140388852Y-112384317D01*
X140143890Y-112443126D01*
X139911142Y-112539533D01*
X139696339Y-112671165D01*
X139696337Y-112671166D01*
X139504775Y-112834775D01*
X139341166Y-113026337D01*
X139341165Y-113026339D01*
X139209533Y-113241142D01*
X139113126Y-113473890D01*
X139054317Y-113718852D01*
X139034551Y-113969999D01*
X135990499Y-113969999D01*
X135990499Y-101314346D01*
X136010501Y-101246225D01*
X136064157Y-101199732D01*
X136134431Y-101189628D01*
X136199011Y-101219122D01*
X136217936Y-101239603D01*
X136377554Y-101456238D01*
X136587020Y-101672824D01*
X136823485Y-101859558D01*
X137082730Y-102013109D01*
X137360128Y-102130736D01*
X137650729Y-102210340D01*
X137949347Y-102250500D01*
X137949351Y-102250500D01*
X138175240Y-102250500D01*
X138175244Y-102250500D01*
X138400634Y-102235412D01*
X138695903Y-102175396D01*
X138980537Y-102076560D01*
X139249459Y-101940668D01*
X139497869Y-101770144D01*
X139721333Y-101568032D01*
X139915865Y-101337939D01*
X140077993Y-101083970D01*
X140178119Y-100868203D01*
X140204821Y-100810663D01*
X140204821Y-100810661D01*
X140204823Y-100810658D01*
X140294093Y-100522879D01*
X140344209Y-100225770D01*
X140348038Y-100111243D01*
X141979500Y-100111243D01*
X142014065Y-100296148D01*
X142020383Y-100329946D01*
X142100751Y-100537396D01*
X142100759Y-100537412D01*
X142217874Y-100726560D01*
X142217875Y-100726561D01*
X142367764Y-100890982D01*
X142545310Y-101025057D01*
X142545315Y-101025061D01*
X142744462Y-101124225D01*
X142744468Y-101124227D01*
X142744472Y-101124229D01*
X142744478Y-101124230D01*
X142744479Y-101124231D01*
X142893569Y-101166651D01*
X142958464Y-101185115D01*
X143124497Y-101200500D01*
X143124504Y-101200500D01*
X143235496Y-101200500D01*
X143235503Y-101200500D01*
X143401536Y-101185115D01*
X143615528Y-101124229D01*
X143615533Y-101124226D01*
X143615537Y-101124225D01*
X143814684Y-101025061D01*
X143814685Y-101025059D01*
X143814689Y-101025058D01*
X143992236Y-100890981D01*
X144142124Y-100726562D01*
X144259247Y-100537401D01*
X144339618Y-100329940D01*
X144380500Y-100111243D01*
X144380500Y-99888757D01*
X144339618Y-99670060D01*
X144339616Y-99670056D01*
X144339616Y-99670053D01*
X144294264Y-99552989D01*
X144259247Y-99462599D01*
X144178222Y-99331739D01*
X144142125Y-99273439D01*
X144142124Y-99273438D01*
X143992235Y-99109017D01*
X143814689Y-98974942D01*
X143814684Y-98974938D01*
X143615537Y-98875774D01*
X143615520Y-98875768D01*
X143401539Y-98814885D01*
X143351726Y-98810269D01*
X143235503Y-98799500D01*
X143124497Y-98799500D01*
X143018839Y-98809290D01*
X142958460Y-98814885D01*
X142744479Y-98875768D01*
X142744462Y-98875774D01*
X142545315Y-98974938D01*
X142545310Y-98974942D01*
X142367764Y-99109017D01*
X142217875Y-99273438D01*
X142217874Y-99273439D01*
X142100759Y-99462587D01*
X142100751Y-99462603D01*
X142020383Y-99670053D01*
X142020382Y-99670060D01*
X141979500Y-99888757D01*
X141979500Y-100111243D01*
X140348038Y-100111243D01*
X140354277Y-99924631D01*
X140324118Y-99624838D01*
X140254269Y-99331739D01*
X140159553Y-99085814D01*
X140145979Y-99050570D01*
X140144719Y-99048271D01*
X140001175Y-98786335D01*
X139981958Y-98760254D01*
X139903707Y-98654050D01*
X139822446Y-98543762D01*
X139612980Y-98327176D01*
X139376519Y-98140445D01*
X139376517Y-98140443D01*
X139200317Y-98036080D01*
X139117270Y-97986891D01*
X138839872Y-97869264D01*
X138549271Y-97789660D01*
X138250653Y-97749500D01*
X138024756Y-97749500D01*
X137844444Y-97761570D01*
X137799365Y-97764588D01*
X137799357Y-97764589D01*
X137504100Y-97824603D01*
X137504092Y-97824605D01*
X137219467Y-97923438D01*
X137219458Y-97923442D01*
X136950539Y-98059332D01*
X136702129Y-98229857D01*
X136702123Y-98229862D01*
X136478666Y-98431968D01*
X136478665Y-98431970D01*
X136284135Y-98662060D01*
X136284129Y-98662068D01*
X136203908Y-98787733D01*
X136150394Y-98834389D01*
X136080151Y-98844706D01*
X136015481Y-98815410D01*
X135979798Y-98760254D01*
X135979279Y-98760456D01*
X135978309Y-98757954D01*
X135976916Y-98755800D01*
X135975993Y-98751975D01*
X135975060Y-98749566D01*
X135958778Y-98723269D01*
X135954705Y-98715543D01*
X135942206Y-98687236D01*
X135942201Y-98687229D01*
X135937474Y-98682502D01*
X135919443Y-98659739D01*
X135915920Y-98654050D01*
X135915917Y-98654046D01*
X135907595Y-98647761D01*
X135891221Y-98635397D01*
X135884644Y-98629673D01*
X135685592Y-98430621D01*
X135651566Y-98368309D01*
X135656631Y-98297494D01*
X135667255Y-98275691D01*
X135720466Y-98188859D01*
X135816873Y-97956111D01*
X135875683Y-97711148D01*
X135895449Y-97460000D01*
X135875683Y-97208852D01*
X135816873Y-96963889D01*
X135720466Y-96731141D01*
X135588836Y-96516341D01*
X135588833Y-96516337D01*
X135425224Y-96324775D01*
X135233662Y-96161166D01*
X135233660Y-96161165D01*
X135233659Y-96161164D01*
X135018859Y-96029534D01*
X134949883Y-96000963D01*
X134786109Y-95933126D01*
X134601291Y-95888756D01*
X134541148Y-95874317D01*
X134290000Y-95854551D01*
X134038852Y-95874317D01*
X133793890Y-95933126D01*
X133561142Y-96029533D01*
X133346339Y-96161165D01*
X133346337Y-96161166D01*
X133154775Y-96324775D01*
X132991166Y-96516337D01*
X132991165Y-96516339D01*
X132859533Y-96731142D01*
X132763126Y-96963890D01*
X132707402Y-97196002D01*
X132704317Y-97208852D01*
X132684551Y-97460000D01*
X132704317Y-97711148D01*
X132717147Y-97764588D01*
X132763126Y-97956109D01*
X132839480Y-98140443D01*
X132859534Y-98188859D01*
X132969501Y-98368309D01*
X132991165Y-98403660D01*
X132991166Y-98403662D01*
X133151740Y-98591670D01*
X133180771Y-98656459D01*
X133170166Y-98726659D01*
X133123291Y-98779982D01*
X133055929Y-98799500D01*
X132964497Y-98799500D01*
X132858839Y-98809290D01*
X132798460Y-98814885D01*
X132584479Y-98875768D01*
X132584462Y-98875774D01*
X132385315Y-98974938D01*
X132385310Y-98974942D01*
X132207764Y-99109017D01*
X132057875Y-99273438D01*
X132057874Y-99273439D01*
X131940759Y-99462587D01*
X131940751Y-99462603D01*
X131860383Y-99670053D01*
X131860382Y-99670060D01*
X131819500Y-99888757D01*
X131819500Y-100111243D01*
X131854065Y-100296148D01*
X131860383Y-100329946D01*
X131940751Y-100537396D01*
X131940759Y-100537412D01*
X132057874Y-100726560D01*
X132057875Y-100726561D01*
X132207764Y-100890982D01*
X132385310Y-101025057D01*
X132385315Y-101025061D01*
X132584462Y-101124225D01*
X132584468Y-101124227D01*
X132584472Y-101124229D01*
X132584478Y-101124230D01*
X132584479Y-101124231D01*
X132733569Y-101166651D01*
X132798464Y-101185115D01*
X132964497Y-101200500D01*
X132964504Y-101200500D01*
X133075496Y-101200500D01*
X133075503Y-101200500D01*
X133241536Y-101185115D01*
X133455528Y-101124229D01*
X133455533Y-101124226D01*
X133455537Y-101124225D01*
X133654684Y-101025061D01*
X133654685Y-101025059D01*
X133654689Y-101025058D01*
X133832236Y-100890981D01*
X133982124Y-100726562D01*
X134099247Y-100537401D01*
X134179618Y-100329940D01*
X134220500Y-100111243D01*
X134220500Y-99888757D01*
X134179618Y-99670060D01*
X134179616Y-99670056D01*
X134179616Y-99670053D01*
X134134264Y-99552989D01*
X134099247Y-99462599D01*
X134018222Y-99331739D01*
X133982125Y-99273439D01*
X133982120Y-99273432D01*
X133968752Y-99258768D01*
X133937641Y-99194951D01*
X133945971Y-99124445D01*
X133991097Y-99069635D01*
X134058692Y-99047923D01*
X134071725Y-99048270D01*
X134290000Y-99065449D01*
X134541148Y-99045683D01*
X134786111Y-98986873D01*
X135018859Y-98890466D01*
X135105692Y-98837253D01*
X135174221Y-98818716D01*
X135241898Y-98840171D01*
X135260619Y-98855591D01*
X135352594Y-98947565D01*
X135386619Y-99009877D01*
X135389499Y-99036661D01*
X135389499Y-114933338D01*
X135369497Y-115001459D01*
X135352594Y-115022434D01*
X135260620Y-115114407D01*
X135198308Y-115148432D01*
X135127492Y-115143366D01*
X135105691Y-115132744D01*
X135018861Y-115079535D01*
X135018856Y-115079533D01*
X134813129Y-114994318D01*
X134786109Y-114983126D01*
X134578723Y-114933338D01*
X134541148Y-114924317D01*
X134290000Y-114904551D01*
X134038852Y-114924317D01*
X133793890Y-114983126D01*
X133561142Y-115079533D01*
X133346339Y-115211165D01*
X133346337Y-115211166D01*
X133154775Y-115374775D01*
X132991166Y-115566337D01*
X132991165Y-115566339D01*
X132859533Y-115781142D01*
X132763126Y-116013890D01*
X132704317Y-116258852D01*
X132688590Y-116458686D01*
X132684551Y-116510000D01*
X132704317Y-116761148D01*
X132717147Y-116814588D01*
X132763126Y-117006109D01*
X132839480Y-117190443D01*
X132859534Y-117238859D01*
X132956541Y-117397160D01*
X132991165Y-117453660D01*
X132991166Y-117453662D01*
X133151740Y-117641670D01*
X133180771Y-117706459D01*
X133170166Y-117776659D01*
X133123291Y-117829982D01*
X133055929Y-117849500D01*
X132964497Y-117849500D01*
X132858839Y-117859290D01*
X132798460Y-117864885D01*
X132584479Y-117925768D01*
X132584462Y-117925774D01*
X132385315Y-118024938D01*
X132385310Y-118024942D01*
X132207764Y-118159017D01*
X132057875Y-118323438D01*
X132057874Y-118323439D01*
X131940759Y-118512587D01*
X131940751Y-118512603D01*
X131860383Y-118720053D01*
X131860382Y-118720060D01*
X131819500Y-118938757D01*
X131819500Y-119161243D01*
X131832511Y-119230843D01*
X131860383Y-119379946D01*
X131940751Y-119587396D01*
X131940759Y-119587412D01*
X132057874Y-119776560D01*
X132057875Y-119776561D01*
X132207764Y-119940982D01*
X132385310Y-120075057D01*
X132385315Y-120075061D01*
X132584462Y-120174225D01*
X132584468Y-120174227D01*
X132584472Y-120174229D01*
X132584478Y-120174230D01*
X132584479Y-120174231D01*
X132617618Y-120183660D01*
X132798464Y-120235115D01*
X132964497Y-120250500D01*
X132964504Y-120250500D01*
X133075496Y-120250500D01*
X133075503Y-120250500D01*
X133241536Y-120235115D01*
X133455528Y-120174229D01*
X133455533Y-120174226D01*
X133455537Y-120174225D01*
X133654684Y-120075061D01*
X133654685Y-120075059D01*
X133654689Y-120075058D01*
X133832236Y-119940981D01*
X133982124Y-119776562D01*
X134099247Y-119587401D01*
X134179618Y-119379940D01*
X134214748Y-119192011D01*
X134246926Y-119128729D01*
X134308211Y-119092887D01*
X134379145Y-119095868D01*
X134427697Y-119126072D01*
X142086030Y-126784405D01*
X142120056Y-126846717D01*
X142114991Y-126917532D01*
X142072444Y-126974368D01*
X142005924Y-126999179D01*
X141996935Y-126999500D01*
X123976661Y-126999500D01*
X123908540Y-126979498D01*
X123887566Y-126962595D01*
X118364835Y-121439864D01*
X118330809Y-121377552D01*
X118335874Y-121306737D01*
X118378421Y-121249901D01*
X118444941Y-121225090D01*
X118487217Y-121229245D01*
X118600729Y-121260340D01*
X118899347Y-121300500D01*
X118899351Y-121300500D01*
X119125240Y-121300500D01*
X119125244Y-121300500D01*
X119350634Y-121285412D01*
X119645903Y-121225396D01*
X119930537Y-121126560D01*
X120199459Y-120990668D01*
X120447869Y-120820144D01*
X120671333Y-120618032D01*
X120865865Y-120387939D01*
X121027993Y-120133970D01*
X121154823Y-119860658D01*
X121244093Y-119572879D01*
X121294209Y-119275770D01*
X121298038Y-119161239D01*
X122929499Y-119161239D01*
X122970383Y-119379946D01*
X123050751Y-119587396D01*
X123050759Y-119587412D01*
X123167874Y-119776560D01*
X123167875Y-119776561D01*
X123317764Y-119940982D01*
X123495310Y-120075057D01*
X123495315Y-120075061D01*
X123694462Y-120174225D01*
X123694468Y-120174227D01*
X123694472Y-120174229D01*
X123694478Y-120174230D01*
X123694479Y-120174231D01*
X123727618Y-120183660D01*
X123908464Y-120235115D01*
X124074497Y-120250500D01*
X124074504Y-120250500D01*
X124185496Y-120250500D01*
X124185503Y-120250500D01*
X124351536Y-120235115D01*
X124565528Y-120174229D01*
X124565533Y-120174226D01*
X124565537Y-120174225D01*
X124764684Y-120075061D01*
X124764685Y-120075059D01*
X124764689Y-120075058D01*
X124942236Y-119940981D01*
X125092124Y-119776562D01*
X125209247Y-119587401D01*
X125289618Y-119379940D01*
X125330500Y-119161243D01*
X125330500Y-118938757D01*
X125289618Y-118720060D01*
X125289616Y-118720056D01*
X125289616Y-118720053D01*
X125224679Y-118552433D01*
X125209247Y-118512599D01*
X125195329Y-118490121D01*
X125092125Y-118323439D01*
X125092124Y-118323438D01*
X124942235Y-118159017D01*
X124764689Y-118024942D01*
X124764684Y-118024938D01*
X124565537Y-117925774D01*
X124565520Y-117925768D01*
X124351539Y-117864885D01*
X124301726Y-117860269D01*
X124185503Y-117849500D01*
X124074497Y-117849500D01*
X123968839Y-117859290D01*
X123908460Y-117864885D01*
X123694479Y-117925768D01*
X123694462Y-117925774D01*
X123495315Y-118024938D01*
X123495310Y-118024942D01*
X123317764Y-118159017D01*
X123167875Y-118323438D01*
X123167874Y-118323439D01*
X123050759Y-118512587D01*
X123050751Y-118512603D01*
X122970383Y-118720053D01*
X122929499Y-118938760D01*
X122929499Y-119161239D01*
X121298038Y-119161239D01*
X121304277Y-118974631D01*
X121274118Y-118674838D01*
X121204269Y-118381739D01*
X121147708Y-118234883D01*
X121095979Y-118100570D01*
X121090167Y-118089964D01*
X120951175Y-117836335D01*
X120930911Y-117808833D01*
X120772445Y-117593761D01*
X120723583Y-117543238D01*
X120562980Y-117377176D01*
X120326519Y-117190445D01*
X120326517Y-117190443D01*
X120215240Y-117124534D01*
X120067270Y-117036891D01*
X119789872Y-116919264D01*
X119499271Y-116839660D01*
X119200653Y-116799500D01*
X118974756Y-116799500D01*
X118794444Y-116811570D01*
X118749365Y-116814588D01*
X118749357Y-116814589D01*
X118454100Y-116874603D01*
X118454092Y-116874605D01*
X118169467Y-116973438D01*
X118169458Y-116973442D01*
X117900539Y-117109332D01*
X117652129Y-117279857D01*
X117652123Y-117279862D01*
X117428666Y-117481968D01*
X117428665Y-117481970D01*
X117234135Y-117712060D01*
X117234129Y-117712068D01*
X117072008Y-117966026D01*
X116945178Y-118239336D01*
X116945177Y-118239341D01*
X116855907Y-118527119D01*
X116805791Y-118824226D01*
X116805790Y-118824230D01*
X116805791Y-118824230D01*
X116796710Y-119095868D01*
X116795723Y-119125376D01*
X116825880Y-119425153D01*
X116871493Y-119616555D01*
X116867827Y-119687457D01*
X116826411Y-119745122D01*
X116760393Y-119771241D01*
X116690735Y-119757522D01*
X116659830Y-119734859D01*
X115577405Y-118652434D01*
X115543379Y-118590122D01*
X115540500Y-118563339D01*
X115540500Y-118183164D01*
X115560502Y-118115043D01*
X115614158Y-118068550D01*
X115637077Y-118060648D01*
X115736111Y-118036873D01*
X115968859Y-117940466D01*
X116183659Y-117808836D01*
X116375224Y-117645224D01*
X116538836Y-117453659D01*
X116670466Y-117238859D01*
X116766873Y-117006111D01*
X116825683Y-116761148D01*
X116845449Y-116510000D01*
X116825683Y-116258852D01*
X116766873Y-116013889D01*
X116670466Y-115781141D01*
X116617253Y-115694306D01*
X116598716Y-115625774D01*
X116620172Y-115558098D01*
X116635587Y-115539383D01*
X116808011Y-115366959D01*
X116814590Y-115361236D01*
X116824227Y-115353959D01*
X116824227Y-115353958D01*
X116856434Y-115318628D01*
X116858384Y-115316586D01*
X116872174Y-115302798D01*
X116873648Y-115300644D01*
X116879073Y-115293795D01*
X116899915Y-115270934D01*
X116902330Y-115264698D01*
X116915880Y-115238993D01*
X116916574Y-115237979D01*
X116919656Y-115233481D01*
X116926738Y-115203362D01*
X116929323Y-115195019D01*
X116940499Y-115166174D01*
X116940499Y-115159479D01*
X116943846Y-115130631D01*
X116945378Y-115124119D01*
X116941104Y-115093475D01*
X116940499Y-115084761D01*
X116940499Y-113970000D01*
X119984551Y-113970000D01*
X120004317Y-114221147D01*
X120063126Y-114466109D01*
X120063127Y-114466111D01*
X120159534Y-114698859D01*
X120273102Y-114884185D01*
X120291165Y-114913660D01*
X120291166Y-114913662D01*
X120454775Y-115105224D01*
X120646337Y-115268833D01*
X120646341Y-115268836D01*
X120861141Y-115400466D01*
X121093889Y-115496873D01*
X121338852Y-115555683D01*
X121590000Y-115575449D01*
X121841148Y-115555683D01*
X122086111Y-115496873D01*
X122318859Y-115400466D01*
X122533659Y-115268836D01*
X122725224Y-115105224D01*
X122888836Y-114913659D01*
X123020466Y-114698859D01*
X123116873Y-114466111D01*
X123175683Y-114221148D01*
X123195449Y-113970000D01*
X123175683Y-113718852D01*
X123116873Y-113473889D01*
X123020466Y-113241141D01*
X122888836Y-113026341D01*
X122872114Y-113006762D01*
X122725224Y-112834775D01*
X122533662Y-112671166D01*
X122533660Y-112671165D01*
X122533659Y-112671164D01*
X122318859Y-112539534D01*
X122220910Y-112498962D01*
X122086109Y-112443126D01*
X121905123Y-112399676D01*
X121841148Y-112384317D01*
X121590000Y-112364551D01*
X121338852Y-112384317D01*
X121093890Y-112443126D01*
X120861142Y-112539533D01*
X120646339Y-112671165D01*
X120646337Y-112671166D01*
X120454775Y-112834775D01*
X120291166Y-113026337D01*
X120291165Y-113026339D01*
X120159533Y-113241142D01*
X120063126Y-113473890D01*
X120004317Y-113718852D01*
X119984551Y-113970000D01*
X116940499Y-113970000D01*
X116940499Y-101314346D01*
X116960501Y-101246225D01*
X117014157Y-101199732D01*
X117084431Y-101189628D01*
X117149011Y-101219122D01*
X117167936Y-101239603D01*
X117327554Y-101456238D01*
X117537020Y-101672824D01*
X117773485Y-101859558D01*
X118032730Y-102013109D01*
X118310128Y-102130736D01*
X118600729Y-102210340D01*
X118899347Y-102250500D01*
X118899351Y-102250500D01*
X119125240Y-102250500D01*
X119125244Y-102250500D01*
X119350634Y-102235412D01*
X119645903Y-102175396D01*
X119930537Y-102076560D01*
X120199459Y-101940668D01*
X120447869Y-101770144D01*
X120671333Y-101568032D01*
X120865865Y-101337939D01*
X121027993Y-101083970D01*
X121128119Y-100868203D01*
X121154821Y-100810663D01*
X121154821Y-100810661D01*
X121154823Y-100810658D01*
X121244093Y-100522879D01*
X121294209Y-100225770D01*
X121298038Y-100111239D01*
X122929499Y-100111239D01*
X122970383Y-100329946D01*
X123050751Y-100537396D01*
X123050759Y-100537412D01*
X123167874Y-100726560D01*
X123167875Y-100726561D01*
X123317764Y-100890982D01*
X123495310Y-101025057D01*
X123495315Y-101025061D01*
X123694462Y-101124225D01*
X123694468Y-101124227D01*
X123694472Y-101124229D01*
X123694478Y-101124230D01*
X123694479Y-101124231D01*
X123843569Y-101166651D01*
X123908464Y-101185115D01*
X124074497Y-101200500D01*
X124074504Y-101200500D01*
X124185496Y-101200500D01*
X124185503Y-101200500D01*
X124351536Y-101185115D01*
X124565528Y-101124229D01*
X124565533Y-101124226D01*
X124565537Y-101124225D01*
X124764684Y-101025061D01*
X124764685Y-101025059D01*
X124764689Y-101025058D01*
X124942236Y-100890981D01*
X125092124Y-100726562D01*
X125209247Y-100537401D01*
X125289618Y-100329940D01*
X125330500Y-100111243D01*
X125330500Y-99888757D01*
X125289618Y-99670060D01*
X125289616Y-99670056D01*
X125289616Y-99670053D01*
X125244264Y-99552989D01*
X125209247Y-99462599D01*
X125128222Y-99331739D01*
X125092125Y-99273439D01*
X125092124Y-99273438D01*
X124942235Y-99109017D01*
X124764689Y-98974942D01*
X124764684Y-98974938D01*
X124565537Y-98875774D01*
X124565520Y-98875768D01*
X124351539Y-98814885D01*
X124301726Y-98810269D01*
X124185503Y-98799500D01*
X124074497Y-98799500D01*
X123968839Y-98809290D01*
X123908460Y-98814885D01*
X123694479Y-98875768D01*
X123694462Y-98875774D01*
X123495315Y-98974938D01*
X123495310Y-98974942D01*
X123317764Y-99109017D01*
X123167875Y-99273438D01*
X123167874Y-99273439D01*
X123050759Y-99462587D01*
X123050751Y-99462603D01*
X122970383Y-99670053D01*
X122929499Y-99888760D01*
X122929499Y-100111239D01*
X121298038Y-100111239D01*
X121304277Y-99924631D01*
X121274118Y-99624838D01*
X121204269Y-99331739D01*
X121109553Y-99085814D01*
X121095979Y-99050570D01*
X121094719Y-99048271D01*
X120951175Y-98786335D01*
X120931958Y-98760254D01*
X120853707Y-98654050D01*
X120772446Y-98543762D01*
X120562980Y-98327176D01*
X120326519Y-98140445D01*
X120326517Y-98140443D01*
X120150317Y-98036080D01*
X120067270Y-97986891D01*
X119789872Y-97869264D01*
X119499271Y-97789660D01*
X119200653Y-97749500D01*
X118974756Y-97749500D01*
X118794443Y-97761570D01*
X118749365Y-97764588D01*
X118749357Y-97764589D01*
X118454100Y-97824603D01*
X118454092Y-97824605D01*
X118169467Y-97923438D01*
X118169458Y-97923442D01*
X117900539Y-98059332D01*
X117652129Y-98229857D01*
X117652123Y-98229862D01*
X117428666Y-98431968D01*
X117428665Y-98431970D01*
X117234135Y-98662060D01*
X117234129Y-98662068D01*
X117153908Y-98787733D01*
X117100394Y-98834389D01*
X117030151Y-98844706D01*
X116965481Y-98815410D01*
X116929798Y-98760254D01*
X116929279Y-98760456D01*
X116928309Y-98757954D01*
X116926916Y-98755800D01*
X116925993Y-98751975D01*
X116925060Y-98749566D01*
X116908778Y-98723269D01*
X116904705Y-98715543D01*
X116892206Y-98687236D01*
X116892201Y-98687229D01*
X116887474Y-98682502D01*
X116869443Y-98659739D01*
X116865920Y-98654050D01*
X116865917Y-98654046D01*
X116857595Y-98647761D01*
X116841221Y-98635397D01*
X116834644Y-98629673D01*
X116635592Y-98430621D01*
X116601566Y-98368309D01*
X116606631Y-98297494D01*
X116617255Y-98275691D01*
X116670466Y-98188859D01*
X116766873Y-97956111D01*
X116825683Y-97711148D01*
X116845449Y-97460000D01*
X116825683Y-97208852D01*
X116766873Y-96963889D01*
X116670466Y-96731141D01*
X116538836Y-96516341D01*
X116538833Y-96516337D01*
X116375224Y-96324775D01*
X116183662Y-96161166D01*
X116183660Y-96161165D01*
X116183659Y-96161164D01*
X115968859Y-96029534D01*
X115899883Y-96000963D01*
X115736109Y-95933126D01*
X115551291Y-95888756D01*
X115491148Y-95874317D01*
X115240000Y-95854551D01*
X114988852Y-95874317D01*
X114743890Y-95933126D01*
X114511142Y-96029533D01*
X114296339Y-96161165D01*
X114296337Y-96161166D01*
X114104775Y-96324775D01*
X113941166Y-96516337D01*
X113941165Y-96516339D01*
X113809533Y-96731142D01*
X113713126Y-96963890D01*
X113657402Y-97196002D01*
X113654317Y-97208852D01*
X113634551Y-97460000D01*
X113654317Y-97711148D01*
X113667147Y-97764588D01*
X113713126Y-97956109D01*
X113789480Y-98140443D01*
X113809534Y-98188859D01*
X113919501Y-98368309D01*
X113941165Y-98403660D01*
X113941166Y-98403662D01*
X114101740Y-98591670D01*
X114130771Y-98656459D01*
X114120166Y-98726659D01*
X114073291Y-98779982D01*
X114005929Y-98799500D01*
X113914497Y-98799500D01*
X113808839Y-98809290D01*
X113748460Y-98814885D01*
X113534479Y-98875768D01*
X113534462Y-98875774D01*
X113335315Y-98974938D01*
X113335310Y-98974942D01*
X113157764Y-99109017D01*
X113007875Y-99273438D01*
X113007874Y-99273439D01*
X112890759Y-99462587D01*
X112890751Y-99462603D01*
X112810383Y-99670053D01*
X112810382Y-99670060D01*
X112769500Y-99888757D01*
X112769500Y-100111243D01*
X112804065Y-100296148D01*
X112810383Y-100329946D01*
X112890751Y-100537396D01*
X112890759Y-100537412D01*
X113007874Y-100726560D01*
X113007875Y-100726561D01*
X113157764Y-100890982D01*
X113335310Y-101025057D01*
X113335315Y-101025061D01*
X113534462Y-101124225D01*
X113534468Y-101124227D01*
X113534472Y-101124229D01*
X113534478Y-101124230D01*
X113534479Y-101124231D01*
X113683569Y-101166651D01*
X113748464Y-101185115D01*
X113914497Y-101200500D01*
X113914504Y-101200500D01*
X114025496Y-101200500D01*
X114025503Y-101200500D01*
X114191536Y-101185115D01*
X114405528Y-101124229D01*
X114405533Y-101124226D01*
X114405537Y-101124225D01*
X114604684Y-101025061D01*
X114604685Y-101025059D01*
X114604689Y-101025058D01*
X114782236Y-100890981D01*
X114932124Y-100726562D01*
X115049247Y-100537401D01*
X115129618Y-100329940D01*
X115170500Y-100111243D01*
X115170500Y-99888757D01*
X115129618Y-99670060D01*
X115129616Y-99670056D01*
X115129616Y-99670053D01*
X115084264Y-99552989D01*
X115049247Y-99462599D01*
X114968222Y-99331739D01*
X114932125Y-99273439D01*
X114932120Y-99273432D01*
X114918752Y-99258768D01*
X114887641Y-99194951D01*
X114895971Y-99124445D01*
X114941097Y-99069635D01*
X115008692Y-99047923D01*
X115021725Y-99048270D01*
X115240000Y-99065449D01*
X115491148Y-99045683D01*
X115736111Y-98986873D01*
X115968859Y-98890466D01*
X116055692Y-98837253D01*
X116124221Y-98818716D01*
X116191898Y-98840171D01*
X116210619Y-98855591D01*
X116302594Y-98947565D01*
X116336619Y-99009877D01*
X116339499Y-99036661D01*
X116339499Y-114933338D01*
X116319497Y-115001459D01*
X116302594Y-115022434D01*
X116210620Y-115114407D01*
X116148308Y-115148432D01*
X116077492Y-115143366D01*
X116055691Y-115132744D01*
X115968861Y-115079535D01*
X115968856Y-115079533D01*
X115763129Y-114994318D01*
X115736109Y-114983126D01*
X115528723Y-114933338D01*
X115491148Y-114924317D01*
X115240000Y-114904551D01*
X114988852Y-114924317D01*
X114743890Y-114983126D01*
X114511142Y-115079533D01*
X114296339Y-115211165D01*
X114296337Y-115211166D01*
X114104775Y-115374775D01*
X113941166Y-115566337D01*
X113941165Y-115566339D01*
X113809533Y-115781142D01*
X113713126Y-116013890D01*
X113667082Y-116205682D01*
X113654317Y-116258852D01*
X113634551Y-116510000D01*
X113654317Y-116761148D01*
X113667147Y-116814588D01*
X113713126Y-117006109D01*
X113789480Y-117190443D01*
X113809534Y-117238859D01*
X113906541Y-117397160D01*
X113941165Y-117453660D01*
X113941166Y-117453662D01*
X114101740Y-117641670D01*
X114130771Y-117706459D01*
X114120166Y-117776659D01*
X114073291Y-117829982D01*
X114005929Y-117849500D01*
X113914497Y-117849500D01*
X113808839Y-117859290D01*
X113748460Y-117864885D01*
X113534479Y-117925768D01*
X113534462Y-117925774D01*
X113335315Y-118024938D01*
X113335310Y-118024942D01*
X113157764Y-118159017D01*
X113007875Y-118323438D01*
X113007874Y-118323439D01*
X112890759Y-118512587D01*
X112890751Y-118512603D01*
X112810383Y-118720053D01*
X112810382Y-118720060D01*
X112769500Y-118938757D01*
X112769500Y-119161243D01*
X112782511Y-119230843D01*
X112810383Y-119379946D01*
X112890751Y-119587396D01*
X112890759Y-119587412D01*
X113007874Y-119776560D01*
X113007875Y-119776561D01*
X113157764Y-119940982D01*
X113335310Y-120075057D01*
X113335315Y-120075061D01*
X113534462Y-120174225D01*
X113534468Y-120174227D01*
X113534472Y-120174229D01*
X113534478Y-120174230D01*
X113534479Y-120174231D01*
X113567618Y-120183660D01*
X113748464Y-120235115D01*
X113914497Y-120250500D01*
X113914504Y-120250500D01*
X114025496Y-120250500D01*
X114025503Y-120250500D01*
X114191536Y-120235115D01*
X114405528Y-120174229D01*
X114405533Y-120174226D01*
X114405537Y-120174225D01*
X114604684Y-120075061D01*
X114604685Y-120075059D01*
X114604689Y-120075058D01*
X114782236Y-119940981D01*
X114932124Y-119776562D01*
X115049247Y-119587401D01*
X115129618Y-119379940D01*
X115136935Y-119340796D01*
X115169112Y-119277513D01*
X115230397Y-119241670D01*
X115301331Y-119244651D01*
X115349884Y-119274855D01*
X123543033Y-127468004D01*
X123548762Y-127474588D01*
X123563079Y-127493548D01*
X123560847Y-127495233D01*
X123588692Y-127541058D01*
X123586904Y-127612032D01*
X123547028Y-127670773D01*
X123481725Y-127698630D01*
X123466940Y-127699500D01*
X105803257Y-127699500D01*
X105735136Y-127679498D01*
X105714162Y-127662595D01*
X99538469Y-121486902D01*
X99504443Y-121424590D01*
X99509508Y-121353775D01*
X99552055Y-121296939D01*
X99618575Y-121272128D01*
X99644350Y-121272930D01*
X99849347Y-121300500D01*
X99849351Y-121300500D01*
X100075240Y-121300500D01*
X100075244Y-121300500D01*
X100300634Y-121285412D01*
X100595903Y-121225396D01*
X100880537Y-121126560D01*
X101149459Y-120990668D01*
X101397869Y-120820144D01*
X101621333Y-120618032D01*
X101815865Y-120387939D01*
X101977993Y-120133970D01*
X102104823Y-119860658D01*
X102194093Y-119572879D01*
X102244209Y-119275770D01*
X102248038Y-119161243D01*
X103879500Y-119161243D01*
X103892511Y-119230843D01*
X103920383Y-119379946D01*
X104000751Y-119587396D01*
X104000759Y-119587412D01*
X104117874Y-119776560D01*
X104117875Y-119776561D01*
X104267764Y-119940982D01*
X104445310Y-120075057D01*
X104445315Y-120075061D01*
X104644462Y-120174225D01*
X104644468Y-120174227D01*
X104644472Y-120174229D01*
X104644478Y-120174230D01*
X104644479Y-120174231D01*
X104677618Y-120183660D01*
X104858464Y-120235115D01*
X105024497Y-120250500D01*
X105024504Y-120250500D01*
X105135496Y-120250500D01*
X105135503Y-120250500D01*
X105301536Y-120235115D01*
X105515528Y-120174229D01*
X105515533Y-120174226D01*
X105515537Y-120174225D01*
X105714684Y-120075061D01*
X105714685Y-120075059D01*
X105714689Y-120075058D01*
X105892236Y-119940981D01*
X106042124Y-119776562D01*
X106159247Y-119587401D01*
X106239618Y-119379940D01*
X106280500Y-119161243D01*
X106280500Y-118938757D01*
X106239618Y-118720060D01*
X106239616Y-118720056D01*
X106239616Y-118720053D01*
X106174679Y-118552433D01*
X106159247Y-118512599D01*
X106145329Y-118490121D01*
X106042125Y-118323439D01*
X106042124Y-118323438D01*
X105892235Y-118159017D01*
X105714689Y-118024942D01*
X105714684Y-118024938D01*
X105515537Y-117925774D01*
X105515520Y-117925768D01*
X105301539Y-117864885D01*
X105251726Y-117860269D01*
X105135503Y-117849500D01*
X105024497Y-117849500D01*
X104918839Y-117859290D01*
X104858460Y-117864885D01*
X104644479Y-117925768D01*
X104644462Y-117925774D01*
X104445315Y-118024938D01*
X104445310Y-118024942D01*
X104267764Y-118159017D01*
X104117875Y-118323438D01*
X104117874Y-118323439D01*
X104000759Y-118512587D01*
X104000751Y-118512603D01*
X103920383Y-118720053D01*
X103920382Y-118720060D01*
X103879500Y-118938757D01*
X103879500Y-119161243D01*
X102248038Y-119161243D01*
X102254277Y-118974631D01*
X102224118Y-118674838D01*
X102154269Y-118381739D01*
X102097708Y-118234883D01*
X102045979Y-118100570D01*
X102040167Y-118089964D01*
X101901175Y-117836335D01*
X101880911Y-117808833D01*
X101722445Y-117593761D01*
X101673583Y-117543238D01*
X101512980Y-117377176D01*
X101276519Y-117190445D01*
X101276517Y-117190443D01*
X101165240Y-117124534D01*
X101017270Y-117036891D01*
X100739872Y-116919264D01*
X100449271Y-116839660D01*
X100150653Y-116799500D01*
X99924756Y-116799500D01*
X99744443Y-116811570D01*
X99699365Y-116814588D01*
X99699357Y-116814589D01*
X99404100Y-116874603D01*
X99404092Y-116874605D01*
X99119467Y-116973438D01*
X99119458Y-116973442D01*
X98850539Y-117109332D01*
X98602129Y-117279857D01*
X98602123Y-117279862D01*
X98378666Y-117481968D01*
X98378665Y-117481970D01*
X98184135Y-117712060D01*
X98184129Y-117712068D01*
X98022008Y-117966026D01*
X97895178Y-118239336D01*
X97895177Y-118239341D01*
X97805907Y-118527119D01*
X97755791Y-118824226D01*
X97755790Y-118824230D01*
X97755791Y-118824230D01*
X97746710Y-119095868D01*
X97745723Y-119125376D01*
X97773978Y-119406241D01*
X97760895Y-119476022D01*
X97712162Y-119527652D01*
X97643253Y-119544739D01*
X97576044Y-119521858D01*
X97559516Y-119507948D01*
X96527405Y-118475837D01*
X96493379Y-118413525D01*
X96490500Y-118386742D01*
X96490500Y-118183164D01*
X96510502Y-118115043D01*
X96564158Y-118068550D01*
X96587077Y-118060648D01*
X96686111Y-118036873D01*
X96918859Y-117940466D01*
X97133659Y-117808836D01*
X97325224Y-117645224D01*
X97488836Y-117453659D01*
X97620466Y-117238859D01*
X97716873Y-117006111D01*
X97775683Y-116761148D01*
X97795449Y-116510000D01*
X97775683Y-116258852D01*
X97716873Y-116013889D01*
X97620466Y-115781141D01*
X97567253Y-115694306D01*
X97548716Y-115625774D01*
X97570172Y-115558098D01*
X97585587Y-115539383D01*
X97758011Y-115366959D01*
X97764590Y-115361236D01*
X97774227Y-115353959D01*
X97774227Y-115353958D01*
X97806434Y-115318628D01*
X97808384Y-115316586D01*
X97822174Y-115302798D01*
X97823648Y-115300644D01*
X97829073Y-115293795D01*
X97849915Y-115270934D01*
X97852330Y-115264698D01*
X97865880Y-115238993D01*
X97866574Y-115237979D01*
X97869656Y-115233481D01*
X97876738Y-115203362D01*
X97879323Y-115195019D01*
X97890499Y-115166174D01*
X97890499Y-115159480D01*
X97893846Y-115130631D01*
X97895378Y-115124119D01*
X97891104Y-115093475D01*
X97890499Y-115084761D01*
X97890499Y-113969999D01*
X100934551Y-113969999D01*
X100954317Y-114221147D01*
X101013126Y-114466109D01*
X101013127Y-114466111D01*
X101109534Y-114698859D01*
X101223102Y-114884185D01*
X101241165Y-114913660D01*
X101241166Y-114913662D01*
X101404775Y-115105224D01*
X101596337Y-115268833D01*
X101596341Y-115268836D01*
X101811141Y-115400466D01*
X102043889Y-115496873D01*
X102288852Y-115555683D01*
X102540000Y-115575449D01*
X102791148Y-115555683D01*
X103036111Y-115496873D01*
X103268859Y-115400466D01*
X103483659Y-115268836D01*
X103675224Y-115105224D01*
X103838836Y-114913659D01*
X103970466Y-114698859D01*
X104066873Y-114466111D01*
X104125683Y-114221148D01*
X104145449Y-113970000D01*
X104125683Y-113718852D01*
X104066873Y-113473889D01*
X103970466Y-113241141D01*
X103838836Y-113026341D01*
X103822114Y-113006762D01*
X103675224Y-112834775D01*
X103483662Y-112671166D01*
X103483660Y-112671165D01*
X103483659Y-112671164D01*
X103268859Y-112539534D01*
X103170910Y-112498962D01*
X103036109Y-112443126D01*
X102855123Y-112399676D01*
X102791148Y-112384317D01*
X102540000Y-112364551D01*
X102539999Y-112364551D01*
X102288852Y-112384317D01*
X102043890Y-112443126D01*
X101811142Y-112539533D01*
X101596339Y-112671165D01*
X101596337Y-112671166D01*
X101404775Y-112834775D01*
X101241166Y-113026337D01*
X101241165Y-113026339D01*
X101109533Y-113241142D01*
X101013126Y-113473890D01*
X100954317Y-113718852D01*
X100934551Y-113969999D01*
X97890499Y-113969999D01*
X97890499Y-101314346D01*
X97910501Y-101246225D01*
X97964157Y-101199732D01*
X98034431Y-101189628D01*
X98099011Y-101219122D01*
X98117936Y-101239603D01*
X98277554Y-101456238D01*
X98487020Y-101672824D01*
X98723485Y-101859558D01*
X98982730Y-102013109D01*
X99260128Y-102130736D01*
X99550729Y-102210340D01*
X99849347Y-102250500D01*
X99849351Y-102250500D01*
X100075240Y-102250500D01*
X100075244Y-102250500D01*
X100300634Y-102235412D01*
X100595903Y-102175396D01*
X100880537Y-102076560D01*
X101149459Y-101940668D01*
X101397869Y-101770144D01*
X101621333Y-101568032D01*
X101815865Y-101337939D01*
X101977993Y-101083970D01*
X102078119Y-100868203D01*
X102104821Y-100810663D01*
X102104821Y-100810661D01*
X102104823Y-100810658D01*
X102194093Y-100522879D01*
X102244209Y-100225770D01*
X102248038Y-100111243D01*
X103879500Y-100111243D01*
X103914065Y-100296148D01*
X103920383Y-100329946D01*
X104000751Y-100537396D01*
X104000759Y-100537412D01*
X104117874Y-100726560D01*
X104117875Y-100726561D01*
X104267764Y-100890982D01*
X104445310Y-101025057D01*
X104445315Y-101025061D01*
X104644462Y-101124225D01*
X104644468Y-101124227D01*
X104644472Y-101124229D01*
X104644478Y-101124230D01*
X104644479Y-101124231D01*
X104793569Y-101166651D01*
X104858464Y-101185115D01*
X105024497Y-101200500D01*
X105024504Y-101200500D01*
X105135496Y-101200500D01*
X105135503Y-101200500D01*
X105301536Y-101185115D01*
X105515528Y-101124229D01*
X105515533Y-101124226D01*
X105515537Y-101124225D01*
X105714684Y-101025061D01*
X105714685Y-101025059D01*
X105714689Y-101025058D01*
X105892236Y-100890981D01*
X106042124Y-100726562D01*
X106159247Y-100537401D01*
X106239618Y-100329940D01*
X106280500Y-100111243D01*
X106280500Y-99888757D01*
X106239618Y-99670060D01*
X106239616Y-99670056D01*
X106239616Y-99670053D01*
X106194264Y-99552989D01*
X106159247Y-99462599D01*
X106078222Y-99331739D01*
X106042125Y-99273439D01*
X106042124Y-99273438D01*
X105892235Y-99109017D01*
X105714689Y-98974942D01*
X105714684Y-98974938D01*
X105515537Y-98875774D01*
X105515520Y-98875768D01*
X105301539Y-98814885D01*
X105251726Y-98810269D01*
X105135503Y-98799500D01*
X105024497Y-98799500D01*
X104918839Y-98809290D01*
X104858460Y-98814885D01*
X104644479Y-98875768D01*
X104644462Y-98875774D01*
X104445315Y-98974938D01*
X104445310Y-98974942D01*
X104267764Y-99109017D01*
X104117875Y-99273438D01*
X104117874Y-99273439D01*
X104000759Y-99462587D01*
X104000751Y-99462603D01*
X103920383Y-99670053D01*
X103920382Y-99670060D01*
X103879500Y-99888757D01*
X103879500Y-100111243D01*
X102248038Y-100111243D01*
X102254277Y-99924631D01*
X102224118Y-99624838D01*
X102154269Y-99331739D01*
X102059553Y-99085814D01*
X102045979Y-99050570D01*
X102044719Y-99048271D01*
X101901175Y-98786335D01*
X101881958Y-98760254D01*
X101803707Y-98654050D01*
X101722446Y-98543762D01*
X101512980Y-98327176D01*
X101276519Y-98140445D01*
X101276517Y-98140443D01*
X101100317Y-98036080D01*
X101017270Y-97986891D01*
X100739872Y-97869264D01*
X100449271Y-97789660D01*
X100150653Y-97749500D01*
X99924756Y-97749500D01*
X99744444Y-97761570D01*
X99699365Y-97764588D01*
X99699357Y-97764589D01*
X99404100Y-97824603D01*
X99404092Y-97824605D01*
X99119467Y-97923438D01*
X99119458Y-97923442D01*
X98850539Y-98059332D01*
X98602129Y-98229857D01*
X98602123Y-98229862D01*
X98378666Y-98431968D01*
X98378665Y-98431970D01*
X98184135Y-98662060D01*
X98184129Y-98662068D01*
X98103908Y-98787733D01*
X98050394Y-98834389D01*
X97980151Y-98844706D01*
X97915481Y-98815410D01*
X97879798Y-98760254D01*
X97879279Y-98760456D01*
X97878309Y-98757954D01*
X97876916Y-98755800D01*
X97875993Y-98751975D01*
X97875060Y-98749566D01*
X97858778Y-98723269D01*
X97854705Y-98715543D01*
X97842206Y-98687236D01*
X97842201Y-98687229D01*
X97837474Y-98682502D01*
X97819443Y-98659739D01*
X97815920Y-98654050D01*
X97815917Y-98654046D01*
X97807595Y-98647761D01*
X97791221Y-98635397D01*
X97784644Y-98629673D01*
X97585592Y-98430621D01*
X97551566Y-98368309D01*
X97556631Y-98297494D01*
X97567255Y-98275691D01*
X97620466Y-98188859D01*
X97716873Y-97956111D01*
X97775683Y-97711148D01*
X97795449Y-97460000D01*
X97775683Y-97208852D01*
X97716873Y-96963889D01*
X97620466Y-96731141D01*
X97488836Y-96516341D01*
X97488833Y-96516337D01*
X97325224Y-96324775D01*
X97133662Y-96161166D01*
X97133660Y-96161165D01*
X97133659Y-96161164D01*
X96918859Y-96029534D01*
X96849883Y-96000963D01*
X96686109Y-95933126D01*
X96501291Y-95888756D01*
X96441148Y-95874317D01*
X96190000Y-95854551D01*
X95938852Y-95874317D01*
X95693890Y-95933126D01*
X95461142Y-96029533D01*
X95246339Y-96161165D01*
X95246337Y-96161166D01*
X95054775Y-96324775D01*
X94891166Y-96516337D01*
X94891165Y-96516339D01*
X94759533Y-96731142D01*
X94663126Y-96963890D01*
X94607402Y-97196002D01*
X94604317Y-97208852D01*
X94584551Y-97460000D01*
X94604317Y-97711148D01*
X94617147Y-97764588D01*
X94663126Y-97956109D01*
X94739480Y-98140443D01*
X94759534Y-98188859D01*
X94869501Y-98368309D01*
X94891165Y-98403660D01*
X94891166Y-98403662D01*
X95051740Y-98591670D01*
X95080771Y-98656459D01*
X95070166Y-98726659D01*
X95023291Y-98779982D01*
X94955929Y-98799500D01*
X94864497Y-98799500D01*
X94758839Y-98809290D01*
X94698460Y-98814885D01*
X94484479Y-98875768D01*
X94484462Y-98875774D01*
X94285315Y-98974938D01*
X94285310Y-98974942D01*
X94107764Y-99109017D01*
X93957875Y-99273438D01*
X93957874Y-99273439D01*
X93840759Y-99462587D01*
X93840751Y-99462603D01*
X93760383Y-99670053D01*
X93760382Y-99670060D01*
X93719500Y-99888757D01*
X93719500Y-100111243D01*
X93754065Y-100296148D01*
X93760383Y-100329946D01*
X93840751Y-100537396D01*
X93840759Y-100537412D01*
X93957874Y-100726560D01*
X93957875Y-100726561D01*
X94107764Y-100890982D01*
X94285310Y-101025057D01*
X94285315Y-101025061D01*
X94484462Y-101124225D01*
X94484468Y-101124227D01*
X94484472Y-101124229D01*
X94484478Y-101124230D01*
X94484479Y-101124231D01*
X94633569Y-101166651D01*
X94698464Y-101185115D01*
X94864497Y-101200500D01*
X94864504Y-101200500D01*
X94975496Y-101200500D01*
X94975503Y-101200500D01*
X95141536Y-101185115D01*
X95355528Y-101124229D01*
X95355533Y-101124226D01*
X95355537Y-101124225D01*
X95554684Y-101025061D01*
X95554685Y-101025059D01*
X95554689Y-101025058D01*
X95732236Y-100890981D01*
X95882124Y-100726562D01*
X95999247Y-100537401D01*
X96079618Y-100329940D01*
X96120500Y-100111243D01*
X96120500Y-99888757D01*
X96079618Y-99670060D01*
X96079616Y-99670056D01*
X96079616Y-99670053D01*
X96034264Y-99552989D01*
X95999247Y-99462599D01*
X95918222Y-99331739D01*
X95882125Y-99273439D01*
X95882120Y-99273432D01*
X95868752Y-99258768D01*
X95837641Y-99194951D01*
X95845971Y-99124445D01*
X95891097Y-99069635D01*
X95958692Y-99047923D01*
X95971725Y-99048270D01*
X96190000Y-99065449D01*
X96441148Y-99045683D01*
X96686111Y-98986873D01*
X96918859Y-98890466D01*
X97005692Y-98837253D01*
X97074221Y-98818716D01*
X97141898Y-98840171D01*
X97160619Y-98855591D01*
X97252594Y-98947565D01*
X97286619Y-99009877D01*
X97289499Y-99036661D01*
X97289499Y-114933338D01*
X97269497Y-115001459D01*
X97252594Y-115022434D01*
X97160620Y-115114407D01*
X97098308Y-115148432D01*
X97027492Y-115143366D01*
X97005691Y-115132744D01*
X96918861Y-115079535D01*
X96918856Y-115079533D01*
X96713129Y-114994318D01*
X96686109Y-114983126D01*
X96478723Y-114933338D01*
X96441148Y-114924317D01*
X96190000Y-114904551D01*
X95938852Y-114924317D01*
X95693890Y-114983126D01*
X95461142Y-115079533D01*
X95246339Y-115211165D01*
X95246337Y-115211166D01*
X95054775Y-115374775D01*
X94891166Y-115566337D01*
X94891165Y-115566339D01*
X94759533Y-115781142D01*
X94663126Y-116013890D01*
X94604317Y-116258852D01*
X94588590Y-116458686D01*
X94584551Y-116510000D01*
X94604317Y-116761148D01*
X94617147Y-116814588D01*
X94663126Y-117006109D01*
X94739480Y-117190443D01*
X94759534Y-117238859D01*
X94856541Y-117397160D01*
X94891165Y-117453660D01*
X94891166Y-117453662D01*
X95051740Y-117641670D01*
X95080771Y-117706459D01*
X95070166Y-117776659D01*
X95023291Y-117829982D01*
X94955929Y-117849500D01*
X94864497Y-117849500D01*
X94758839Y-117859290D01*
X94698460Y-117864885D01*
X94484479Y-117925768D01*
X94484462Y-117925774D01*
X94285315Y-118024938D01*
X94285310Y-118024942D01*
X94107764Y-118159017D01*
X93957875Y-118323438D01*
X93957874Y-118323439D01*
X93840759Y-118512587D01*
X93840751Y-118512603D01*
X93760383Y-118720053D01*
X93760382Y-118720060D01*
X93719500Y-118938757D01*
X93719500Y-119161243D01*
X90400500Y-119161243D01*
X90400500Y-94920000D01*
X100934551Y-94920000D01*
X100954317Y-95171147D01*
X101013126Y-95416109D01*
X101013127Y-95416111D01*
X101109534Y-95648859D01*
X101238731Y-95859689D01*
X101241165Y-95863660D01*
X101241166Y-95863662D01*
X101404775Y-96055224D01*
X101562823Y-96190209D01*
X101596341Y-96218836D01*
X101811141Y-96350466D01*
X102043889Y-96446873D01*
X102288852Y-96505683D01*
X102540000Y-96525449D01*
X102791148Y-96505683D01*
X103036111Y-96446873D01*
X103268859Y-96350466D01*
X103483659Y-96218836D01*
X103675224Y-96055224D01*
X103838836Y-95863659D01*
X103970466Y-95648859D01*
X104066873Y-95416111D01*
X104125683Y-95171148D01*
X104145449Y-94920000D01*
X104145449Y-94919999D01*
X119984551Y-94919999D01*
X120004317Y-95171147D01*
X120063126Y-95416109D01*
X120063127Y-95416111D01*
X120159534Y-95648859D01*
X120288731Y-95859689D01*
X120291165Y-95863660D01*
X120291166Y-95863662D01*
X120454775Y-96055224D01*
X120612823Y-96190209D01*
X120646341Y-96218836D01*
X120861141Y-96350466D01*
X121093889Y-96446873D01*
X121338852Y-96505683D01*
X121590000Y-96525449D01*
X121841148Y-96505683D01*
X122086111Y-96446873D01*
X122318859Y-96350466D01*
X122533659Y-96218836D01*
X122725224Y-96055224D01*
X122888836Y-95863659D01*
X123020466Y-95648859D01*
X123116873Y-95416111D01*
X123175683Y-95171148D01*
X123195449Y-94920000D01*
X139034551Y-94920000D01*
X139054317Y-95171147D01*
X139113126Y-95416109D01*
X139113127Y-95416111D01*
X139209534Y-95648859D01*
X139338731Y-95859689D01*
X139341165Y-95863660D01*
X139341166Y-95863662D01*
X139504775Y-96055224D01*
X139662823Y-96190209D01*
X139696341Y-96218836D01*
X139911141Y-96350466D01*
X140143889Y-96446873D01*
X140388852Y-96505683D01*
X140640000Y-96525449D01*
X140891148Y-96505683D01*
X141136111Y-96446873D01*
X141368859Y-96350466D01*
X141583659Y-96218836D01*
X141775224Y-96055224D01*
X141938836Y-95863659D01*
X142070466Y-95648859D01*
X142166873Y-95416111D01*
X142225683Y-95171148D01*
X142245449Y-94920000D01*
X158084551Y-94920000D01*
X158104317Y-95171147D01*
X158163126Y-95416109D01*
X158163127Y-95416111D01*
X158259534Y-95648859D01*
X158388731Y-95859689D01*
X158391165Y-95863660D01*
X158391166Y-95863662D01*
X158554775Y-96055224D01*
X158712823Y-96190209D01*
X158746341Y-96218836D01*
X158961141Y-96350466D01*
X159193889Y-96446873D01*
X159438852Y-96505683D01*
X159690000Y-96525449D01*
X159941148Y-96505683D01*
X160186111Y-96446873D01*
X160418859Y-96350466D01*
X160633659Y-96218836D01*
X160825224Y-96055224D01*
X160988836Y-95863659D01*
X161120466Y-95648859D01*
X161216873Y-95416111D01*
X161275683Y-95171148D01*
X161295449Y-94920000D01*
X161275683Y-94668852D01*
X161216873Y-94423889D01*
X161120466Y-94191141D01*
X160988836Y-93976341D01*
X160962073Y-93945005D01*
X160825224Y-93784775D01*
X160633662Y-93621166D01*
X160633660Y-93621165D01*
X160633659Y-93621164D01*
X160598349Y-93599526D01*
X173172000Y-93599526D01*
X173186583Y-93747594D01*
X173186585Y-93747606D01*
X173244219Y-93937599D01*
X173244225Y-93937614D01*
X173337824Y-94112724D01*
X173463788Y-94266211D01*
X173617275Y-94392175D01*
X173792388Y-94485775D01*
X173926000Y-94526305D01*
X173926000Y-93956488D01*
X173946002Y-93888367D01*
X173999658Y-93841874D01*
X174069932Y-93831770D01*
X174086464Y-93835294D01*
X174151840Y-93853895D01*
X174263521Y-93843546D01*
X174263523Y-93843544D01*
X174273516Y-93840702D01*
X174344510Y-93841297D01*
X174403913Y-93880180D01*
X174432863Y-93945005D01*
X174434000Y-93961891D01*
X174434000Y-94526305D01*
X174567611Y-94485775D01*
X174742724Y-94392175D01*
X174896211Y-94266211D01*
X175022175Y-94112724D01*
X175115774Y-93937614D01*
X175115780Y-93937599D01*
X175173414Y-93747606D01*
X175173416Y-93747594D01*
X175187999Y-93599526D01*
X175188000Y-93599508D01*
X175188000Y-93504000D01*
X174606000Y-93504000D01*
X174537879Y-93483998D01*
X174491386Y-93430342D01*
X174480000Y-93378000D01*
X174480000Y-93122000D01*
X174500002Y-93053879D01*
X174553658Y-93007386D01*
X174606000Y-92996000D01*
X175188000Y-92996000D01*
X175188000Y-92900491D01*
X175187999Y-92900473D01*
X175173416Y-92752405D01*
X175173414Y-92752393D01*
X175115780Y-92562400D01*
X175115774Y-92562385D01*
X175022175Y-92387275D01*
X174896211Y-92233788D01*
X174742724Y-92107824D01*
X174567612Y-92014224D01*
X174567610Y-92014223D01*
X174434000Y-91973692D01*
X174434000Y-92543511D01*
X174413998Y-92611632D01*
X174360342Y-92658125D01*
X174290068Y-92668229D01*
X174273519Y-92664701D01*
X174208158Y-92646104D01*
X174096479Y-92656453D01*
X174086478Y-92659299D01*
X174015484Y-92658701D01*
X173956084Y-92619815D01*
X173927136Y-92554988D01*
X173926000Y-92538108D01*
X173926000Y-91973693D01*
X173925999Y-91973692D01*
X173792389Y-92014223D01*
X173792387Y-92014224D01*
X173617275Y-92107824D01*
X173463788Y-92233788D01*
X173337824Y-92387275D01*
X173244225Y-92562385D01*
X173244219Y-92562400D01*
X173186585Y-92752393D01*
X173186583Y-92752405D01*
X173172000Y-92900473D01*
X173172000Y-92996000D01*
X173754000Y-92996000D01*
X173822121Y-93016002D01*
X173868614Y-93069658D01*
X173880000Y-93122000D01*
X173880000Y-93378000D01*
X173859998Y-93446121D01*
X173806342Y-93492614D01*
X173754000Y-93504000D01*
X173172000Y-93504000D01*
X173172000Y-93599526D01*
X160598349Y-93599526D01*
X160418859Y-93489534D01*
X160314051Y-93446121D01*
X160186109Y-93393126D01*
X160018536Y-93352896D01*
X159941148Y-93334317D01*
X159690000Y-93314551D01*
X159689999Y-93314551D01*
X159438852Y-93334317D01*
X159193890Y-93393126D01*
X158961142Y-93489533D01*
X158746339Y-93621165D01*
X158746337Y-93621166D01*
X158554775Y-93784775D01*
X158391166Y-93976337D01*
X158391165Y-93976339D01*
X158259533Y-94191142D01*
X158163126Y-94423890D01*
X158104317Y-94668852D01*
X158084551Y-94920000D01*
X142245449Y-94920000D01*
X142225683Y-94668852D01*
X142166873Y-94423889D01*
X142070466Y-94191141D01*
X141938836Y-93976341D01*
X141912073Y-93945005D01*
X141775224Y-93784775D01*
X141583662Y-93621166D01*
X141583660Y-93621165D01*
X141583659Y-93621164D01*
X141368859Y-93489534D01*
X141264051Y-93446121D01*
X141136109Y-93393126D01*
X140968536Y-93352896D01*
X140891148Y-93334317D01*
X140640000Y-93314551D01*
X140388852Y-93334317D01*
X140143890Y-93393126D01*
X139911142Y-93489533D01*
X139696339Y-93621165D01*
X139696337Y-93621166D01*
X139504775Y-93784775D01*
X139341166Y-93976337D01*
X139341165Y-93976339D01*
X139209533Y-94191142D01*
X139113126Y-94423890D01*
X139054317Y-94668852D01*
X139034551Y-94920000D01*
X123195449Y-94920000D01*
X123175683Y-94668852D01*
X123116873Y-94423889D01*
X123020466Y-94191141D01*
X122888836Y-93976341D01*
X122862073Y-93945005D01*
X122725224Y-93784775D01*
X122533662Y-93621166D01*
X122533660Y-93621165D01*
X122533659Y-93621164D01*
X122318859Y-93489534D01*
X122214051Y-93446121D01*
X122086109Y-93393126D01*
X121918536Y-93352896D01*
X121841148Y-93334317D01*
X121590000Y-93314551D01*
X121338852Y-93334317D01*
X121093890Y-93393126D01*
X120861142Y-93489533D01*
X120646339Y-93621165D01*
X120646337Y-93621166D01*
X120454775Y-93784775D01*
X120291166Y-93976337D01*
X120291165Y-93976339D01*
X120159533Y-94191142D01*
X120063126Y-94423890D01*
X120004317Y-94668852D01*
X119984551Y-94919999D01*
X104145449Y-94919999D01*
X104125683Y-94668852D01*
X104066873Y-94423889D01*
X103970466Y-94191141D01*
X103838836Y-93976341D01*
X103812073Y-93945005D01*
X103675224Y-93784775D01*
X103483662Y-93621166D01*
X103483660Y-93621165D01*
X103483659Y-93621164D01*
X103268859Y-93489534D01*
X103164051Y-93446121D01*
X103036109Y-93393126D01*
X102868536Y-93352896D01*
X102791148Y-93334317D01*
X102540000Y-93314551D01*
X102288852Y-93334317D01*
X102043890Y-93393126D01*
X101811142Y-93489533D01*
X101596339Y-93621165D01*
X101596337Y-93621166D01*
X101404775Y-93784775D01*
X101241166Y-93976337D01*
X101241165Y-93976339D01*
X101109533Y-94191142D01*
X101013126Y-94423890D01*
X100954317Y-94668852D01*
X100934551Y-94920000D01*
X90400500Y-94920000D01*
X90400500Y-91402755D01*
X90400740Y-91397262D01*
X90404475Y-91354561D01*
X90404476Y-91354553D01*
X90416901Y-91228394D01*
X90420583Y-91208158D01*
X90438406Y-91141641D01*
X90466641Y-91048562D01*
X90473016Y-91031904D01*
X90504399Y-90964603D01*
X90505895Y-90961610D01*
X90550744Y-90877703D01*
X90554684Y-90871292D01*
X90600970Y-90805189D01*
X90603849Y-90801392D01*
X90663086Y-90729212D01*
X90667200Y-90724672D01*
X90724672Y-90667200D01*
X90729212Y-90663086D01*
X90801392Y-90603849D01*
X90805189Y-90600970D01*
X90871292Y-90554684D01*
X90877703Y-90550744D01*
X90961610Y-90505895D01*
X90964603Y-90504399D01*
X91031907Y-90473014D01*
X91048562Y-90466641D01*
X91141641Y-90438406D01*
X91208158Y-90420583D01*
X91228394Y-90416901D01*
X91354471Y-90404483D01*
X91378786Y-90402355D01*
X91397265Y-90400740D01*
X91402758Y-90400500D01*
X199397242Y-90400500D01*
X199402736Y-90400740D01*
G37*
%TD.AperFunction*%
%TD*%
M02*
