%TF.GenerationSoftware,KiCad,Pcbnew,(6.0.9-0)*%
%TF.CreationDate,2022-12-20T20:03:51+09:00*%
%TF.ProjectId,RP2040_8key,52503230-3430-45f3-986b-65792e6b6963,rev?*%
%TF.SameCoordinates,Original*%
%TF.FileFunction,Soldermask,Top*%
%TF.FilePolarity,Negative*%
%FSLAX46Y46*%
G04 Gerber Fmt 4.6, Leading zero omitted, Abs format (unit mm)*
G04 Created by KiCad (PCBNEW (6.0.9-0)) date 2022-12-20 20:03:51*
%MOMM*%
%LPD*%
G01*
G04 APERTURE LIST*
G04 Aperture macros list*
%AMRoundRect*
0 Rectangle with rounded corners*
0 $1 Rounding radius*
0 $2 $3 $4 $5 $6 $7 $8 $9 X,Y pos of 4 corners*
0 Add a 4 corners polygon primitive as box body*
4,1,4,$2,$3,$4,$5,$6,$7,$8,$9,$2,$3,0*
0 Add four circle primitives for the rounded corners*
1,1,$1+$1,$2,$3*
1,1,$1+$1,$4,$5*
1,1,$1+$1,$6,$7*
1,1,$1+$1,$8,$9*
0 Add four rect primitives between the rounded corners*
20,1,$1+$1,$2,$3,$4,$5,0*
20,1,$1+$1,$4,$5,$6,$7,0*
20,1,$1+$1,$6,$7,$8,$9,0*
20,1,$1+$1,$8,$9,$2,$3,0*%
G04 Aperture macros list end*
%ADD10R,1.000000X1.500000*%
%ADD11R,3.400000X4.300000*%
%ADD12RoundRect,0.125000X-0.250000X-0.125000X0.250000X-0.125000X0.250000X0.125000X-0.250000X0.125000X0*%
%ADD13C,1.910000*%
%ADD14C,4.000000*%
%ADD15C,2.800000*%
%ADD16RoundRect,0.135000X-0.135000X-0.185000X0.135000X-0.185000X0.135000X0.185000X-0.135000X0.185000X0*%
%ADD17O,1.000000X2.100000*%
%ADD18O,1.000000X1.600000*%
%ADD19R,0.600000X1.450000*%
%ADD20R,0.300000X1.450000*%
%ADD21C,0.650000*%
%ADD22R,1.200000X0.900000*%
%ADD23RoundRect,0.218750X-0.256250X0.218750X-0.256250X-0.218750X0.256250X-0.218750X0.256250X0.218750X0*%
%ADD24RoundRect,0.147500X0.147500X0.172500X-0.147500X0.172500X-0.147500X-0.172500X0.147500X-0.172500X0*%
%ADD25RoundRect,0.140000X0.140000X0.170000X-0.140000X0.170000X-0.140000X-0.170000X0.140000X-0.170000X0*%
%ADD26RoundRect,0.135000X0.135000X0.185000X-0.135000X0.185000X-0.135000X-0.185000X0.135000X-0.185000X0*%
%ADD27R,3.800000X2.000000*%
%ADD28R,1.500000X2.000000*%
%ADD29RoundRect,0.135000X0.185000X-0.135000X0.185000X0.135000X-0.185000X0.135000X-0.185000X-0.135000X0*%
%ADD30R,0.650000X1.050000*%
%ADD31RoundRect,0.140000X0.170000X-0.140000X0.170000X0.140000X-0.170000X0.140000X-0.170000X-0.140000X0*%
%ADD32RoundRect,0.140000X-0.170000X0.140000X-0.170000X-0.140000X0.170000X-0.140000X0.170000X0.140000X0*%
%ADD33RoundRect,0.140000X-0.140000X-0.170000X0.140000X-0.170000X0.140000X0.170000X-0.140000X0.170000X0*%
%ADD34R,3.200000X3.200000*%
%ADD35RoundRect,0.050000X-0.050000X-0.387500X0.050000X-0.387500X0.050000X0.387500X-0.050000X0.387500X0*%
%ADD36RoundRect,0.050000X-0.387500X-0.050000X0.387500X-0.050000X0.387500X0.050000X-0.387500X0.050000X0*%
%ADD37RoundRect,0.135000X-0.185000X0.135000X-0.185000X-0.135000X0.185000X-0.135000X0.185000X0.135000X0*%
%ADD38R,0.400000X1.900000*%
%ADD39C,1.200000*%
%ADD40R,1.200000X2.100000*%
G04 APERTURE END LIST*
D10*
%TO.C,J4*%
X196100000Y-107650000D03*
X197400000Y-107650000D03*
X198700000Y-107650000D03*
%TD*%
D11*
%TO.C,U3*%
X172650000Y-105900000D03*
D12*
X175350000Y-103995000D03*
X175350000Y-105265000D03*
X175350000Y-106535000D03*
X175350000Y-107805000D03*
X169950000Y-107805000D03*
X169950000Y-106535000D03*
X169950000Y-105265000D03*
X169950000Y-103995000D03*
%TD*%
D13*
%TO.C,SW5*%
X105080000Y-119050000D03*
D14*
X100000000Y-119050000D03*
D13*
X94920000Y-119050000D03*
D15*
X96190000Y-116510000D03*
X102540000Y-113970000D03*
%TD*%
D16*
%TO.C,R1*%
X185410000Y-92500000D03*
X184390000Y-92500000D03*
%TD*%
D17*
%TO.C,J1*%
X182820000Y-97430000D03*
D18*
X174180000Y-93250000D03*
X182820000Y-93250000D03*
D17*
X174180000Y-97430000D03*
D19*
X181750000Y-98345000D03*
X180950000Y-98345000D03*
D20*
X180250000Y-98345000D03*
X179250000Y-98345000D03*
X177750000Y-98345000D03*
X176750000Y-98345000D03*
D19*
X176050000Y-98345000D03*
X175250000Y-98345000D03*
X175250000Y-98345000D03*
X176050000Y-98345000D03*
D20*
X177250000Y-98345000D03*
X178250000Y-98345000D03*
X178750000Y-98345000D03*
X179750000Y-98345000D03*
D19*
X180950000Y-98345000D03*
X181750000Y-98345000D03*
D21*
X181390000Y-96900000D03*
X175610000Y-96900000D03*
%TD*%
D22*
%TO.C,SD1*%
X190550000Y-100900000D03*
X190550000Y-104200000D03*
%TD*%
D13*
%TO.C,SW8*%
X152070000Y-119050000D03*
D14*
X157150000Y-119050000D03*
D13*
X162230000Y-119050000D03*
D15*
X153340000Y-116510000D03*
X159690000Y-113970000D03*
%TD*%
D23*
%TO.C,F1*%
X187250000Y-103287500D03*
X187250000Y-101712500D03*
%TD*%
D24*
%TO.C,STLED1*%
X184415000Y-91300000D03*
X185385000Y-91300000D03*
%TD*%
D25*
%TO.C,C1*%
X191020000Y-114500000D03*
X191980000Y-114500000D03*
%TD*%
D22*
%TO.C,D7*%
X147100000Y-126100000D03*
X147100000Y-122800000D03*
%TD*%
%TO.C,D1*%
X109000000Y-107050000D03*
X109000000Y-103750000D03*
%TD*%
%TO.C,D8*%
X166100000Y-126150000D03*
X166100000Y-122850000D03*
%TD*%
D26*
%TO.C,R7*%
X169740000Y-101600000D03*
X170760000Y-101600000D03*
%TD*%
D27*
%TO.C,U1*%
X188900000Y-106300000D03*
D28*
X191200000Y-112600000D03*
X188900000Y-112600000D03*
X186600000Y-112600000D03*
%TD*%
D29*
%TO.C,R5*%
X180150000Y-104990000D03*
X180150000Y-106010000D03*
%TD*%
D30*
%TO.C,SW9*%
X172575000Y-127675000D03*
X172575000Y-123525000D03*
X170425000Y-127675000D03*
X170425000Y-123525000D03*
%TD*%
D31*
%TO.C,C6*%
X183150000Y-105020000D03*
X183150000Y-105980000D03*
%TD*%
D25*
%TO.C,C15*%
X174570000Y-102600000D03*
X175530000Y-102600000D03*
%TD*%
D13*
%TO.C,SW4*%
X162230000Y-100000000D03*
D14*
X157150000Y-100000000D03*
D13*
X152070000Y-100000000D03*
D15*
X153340000Y-97460000D03*
X159690000Y-94920000D03*
%TD*%
D32*
%TO.C,C4*%
X182150000Y-122980000D03*
X182150000Y-122020000D03*
%TD*%
D26*
%TO.C,R6*%
X177990000Y-120750000D03*
X179010000Y-120750000D03*
%TD*%
%TO.C,R8*%
X169740000Y-102600000D03*
X170760000Y-102600000D03*
%TD*%
D13*
%TO.C,SW3*%
X143180000Y-100000000D03*
D14*
X138100000Y-100000000D03*
D13*
X133020000Y-100000000D03*
D15*
X134290000Y-97460000D03*
X140640000Y-94920000D03*
%TD*%
D31*
%TO.C,C7*%
X184150000Y-105020000D03*
X184150000Y-105980000D03*
%TD*%
D33*
%TO.C,C8*%
X186730000Y-114500000D03*
X185770000Y-114500000D03*
%TD*%
D34*
%TO.C,U2*%
X178450000Y-113600000D03*
D35*
X175850000Y-110162500D03*
X176250000Y-110162500D03*
X176650000Y-110162500D03*
X177050000Y-110162500D03*
X177450000Y-110162500D03*
X177850000Y-110162500D03*
X178250000Y-110162500D03*
X178650000Y-110162500D03*
X179050000Y-110162500D03*
X179450000Y-110162500D03*
X179850000Y-110162500D03*
X180250000Y-110162500D03*
X180650000Y-110162500D03*
X181050000Y-110162500D03*
D36*
X181887500Y-111000000D03*
X181887500Y-111400000D03*
X181887500Y-111800000D03*
X181887500Y-112200000D03*
X181887500Y-112600000D03*
X181887500Y-113000000D03*
X181887500Y-113400000D03*
X181887500Y-113800000D03*
X181887500Y-114200000D03*
X181887500Y-114600000D03*
X181887500Y-115000000D03*
X181887500Y-115400000D03*
X181887500Y-115800000D03*
X181887500Y-116200000D03*
D35*
X181050000Y-117037500D03*
X180650000Y-117037500D03*
X180250000Y-117037500D03*
X179850000Y-117037500D03*
X179450000Y-117037500D03*
X179050000Y-117037500D03*
X178650000Y-117037500D03*
X178250000Y-117037500D03*
X177850000Y-117037500D03*
X177450000Y-117037500D03*
X177050000Y-117037500D03*
X176650000Y-117037500D03*
X176250000Y-117037500D03*
X175850000Y-117037500D03*
D36*
X175012500Y-116200000D03*
X175012500Y-115800000D03*
X175012500Y-115400000D03*
X175012500Y-115000000D03*
X175012500Y-114600000D03*
X175012500Y-114200000D03*
X175012500Y-113800000D03*
X175012500Y-113400000D03*
X175012500Y-113000000D03*
X175012500Y-112600000D03*
X175012500Y-112200000D03*
X175012500Y-111800000D03*
X175012500Y-111400000D03*
X175012500Y-111000000D03*
%TD*%
D22*
%TO.C,D2*%
X128000000Y-107050000D03*
X128000000Y-103750000D03*
%TD*%
D25*
%TO.C,C11*%
X171370000Y-111000000D03*
X172330000Y-111000000D03*
%TD*%
D31*
%TO.C,C5*%
X178050000Y-105020000D03*
X178050000Y-105980000D03*
%TD*%
D14*
%TO.C,SW6*%
X119050000Y-119050000D03*
D13*
X124130000Y-119050000D03*
X113970000Y-119050000D03*
D15*
X115240000Y-116510000D03*
X121590000Y-113970000D03*
%TD*%
D25*
%TO.C,C14*%
X174570000Y-101600000D03*
X175530000Y-101600000D03*
%TD*%
D32*
%TO.C,C9*%
X181050000Y-122980000D03*
X181050000Y-122020000D03*
%TD*%
D22*
%TO.C,D5*%
X109000000Y-126150000D03*
X109000000Y-122850000D03*
%TD*%
D37*
%TO.C,R2*%
X181150000Y-104010000D03*
X181150000Y-102990000D03*
%TD*%
D25*
%TO.C,C2*%
X188520000Y-114500000D03*
X189480000Y-114500000D03*
%TD*%
%TO.C,C10*%
X171370000Y-114600000D03*
X172330000Y-114600000D03*
%TD*%
D22*
%TO.C,D3*%
X147000000Y-107050000D03*
X147000000Y-103750000D03*
%TD*%
D30*
%TO.C,SW10*%
X186475000Y-123525000D03*
X186475000Y-127675000D03*
X184325000Y-127675000D03*
X184325000Y-123525000D03*
%TD*%
D10*
%TO.C,J3*%
X196100000Y-111050000D03*
X197400000Y-111050000D03*
X198700000Y-111050000D03*
%TD*%
D29*
%TO.C,R4*%
X179050000Y-104990000D03*
X179050000Y-106010000D03*
%TD*%
D22*
%TO.C,D6*%
X128100000Y-126150000D03*
X128100000Y-122850000D03*
%TD*%
D31*
%TO.C,C3*%
X177050000Y-105020000D03*
X177050000Y-105980000D03*
%TD*%
D22*
%TO.C,D4*%
X166200000Y-103750000D03*
X166200000Y-107050000D03*
%TD*%
D31*
%TO.C,C13*%
X182150000Y-105020000D03*
X182150000Y-105980000D03*
%TD*%
D38*
%TO.C,Y1*%
X179650000Y-122600000D03*
X178450000Y-122600000D03*
X177250000Y-122600000D03*
%TD*%
D13*
%TO.C,SW2*%
X113970000Y-100000000D03*
X124130000Y-100000000D03*
D14*
X119050000Y-100000000D03*
D15*
X115240000Y-97460000D03*
X121590000Y-94920000D03*
%TD*%
D13*
%TO.C,SW1*%
X94920000Y-100000000D03*
X105080000Y-100000000D03*
D14*
X100000000Y-100000000D03*
D15*
X96190000Y-97460000D03*
X102540000Y-94920000D03*
%TD*%
D37*
%TO.C,R3*%
X177050000Y-104010000D03*
X177050000Y-102990000D03*
%TD*%
D39*
%TO.C,J2*%
X197200000Y-100850000D03*
X197200000Y-93850000D03*
D40*
X199300000Y-98650000D03*
X199300000Y-95650000D03*
X195100000Y-104150000D03*
X199300000Y-102650000D03*
%TD*%
D13*
%TO.C,SW7*%
X143180000Y-119050000D03*
X133020000Y-119050000D03*
D14*
X138100000Y-119050000D03*
D15*
X134290000Y-116510000D03*
X140640000Y-113970000D03*
%TD*%
D31*
%TO.C,C12*%
X181150000Y-105020000D03*
X181150000Y-105980000D03*
%TD*%
M02*
