%TF.GenerationSoftware,KiCad,Pcbnew,7.0.7*%
%TF.CreationDate,2023-12-20T03:25:26+09:00*%
%TF.ProjectId,RP2040_8key,52503230-3430-45f3-986b-65792e6b6963,rev?*%
%TF.SameCoordinates,Original*%
%TF.FileFunction,Legend,Bot*%
%TF.FilePolarity,Positive*%
%FSLAX46Y46*%
G04 Gerber Fmt 4.6, Leading zero omitted, Abs format (unit mm)*
G04 Created by KiCad (PCBNEW 7.0.7) date 2023-12-20 03:25:26*
%MOMM*%
%LPD*%
G01*
G04 APERTURE LIST*
%ADD10C,0.100000*%
%ADD11C,0.150000*%
%ADD12C,0.120000*%
G04 APERTURE END LIST*
D10*
X188027553Y-119542953D02*
X188027553Y-118542953D01*
X187360887Y-118542953D02*
X187170411Y-118542953D01*
X187170411Y-118542953D02*
X187075173Y-118590572D01*
X187075173Y-118590572D02*
X186979935Y-118685810D01*
X186979935Y-118685810D02*
X186932316Y-118876286D01*
X186932316Y-118876286D02*
X186932316Y-119209619D01*
X186932316Y-119209619D02*
X186979935Y-119400095D01*
X186979935Y-119400095D02*
X187075173Y-119495334D01*
X187075173Y-119495334D02*
X187170411Y-119542953D01*
X187170411Y-119542953D02*
X187360887Y-119542953D01*
X187360887Y-119542953D02*
X187456125Y-119495334D01*
X187456125Y-119495334D02*
X187551363Y-119400095D01*
X187551363Y-119400095D02*
X187598982Y-119209619D01*
X187598982Y-119209619D02*
X187598982Y-118876286D01*
X187598982Y-118876286D02*
X187551363Y-118685810D01*
X187551363Y-118685810D02*
X187456125Y-118590572D01*
X187456125Y-118590572D02*
X187360887Y-118542953D01*
X186551363Y-118638191D02*
X186503744Y-118590572D01*
X186503744Y-118590572D02*
X186408506Y-118542953D01*
X186408506Y-118542953D02*
X186170411Y-118542953D01*
X186170411Y-118542953D02*
X186075173Y-118590572D01*
X186075173Y-118590572D02*
X186027554Y-118638191D01*
X186027554Y-118638191D02*
X185979935Y-118733429D01*
X185979935Y-118733429D02*
X185979935Y-118828667D01*
X185979935Y-118828667D02*
X186027554Y-118971524D01*
X186027554Y-118971524D02*
X186598982Y-119542953D01*
X186598982Y-119542953D02*
X185979935Y-119542953D01*
X185408506Y-118971524D02*
X185503744Y-118923905D01*
X185503744Y-118923905D02*
X185551363Y-118876286D01*
X185551363Y-118876286D02*
X185598982Y-118781048D01*
X185598982Y-118781048D02*
X185598982Y-118733429D01*
X185598982Y-118733429D02*
X185551363Y-118638191D01*
X185551363Y-118638191D02*
X185503744Y-118590572D01*
X185503744Y-118590572D02*
X185408506Y-118542953D01*
X185408506Y-118542953D02*
X185218030Y-118542953D01*
X185218030Y-118542953D02*
X185122792Y-118590572D01*
X185122792Y-118590572D02*
X185075173Y-118638191D01*
X185075173Y-118638191D02*
X185027554Y-118733429D01*
X185027554Y-118733429D02*
X185027554Y-118781048D01*
X185027554Y-118781048D02*
X185075173Y-118876286D01*
X185075173Y-118876286D02*
X185122792Y-118923905D01*
X185122792Y-118923905D02*
X185218030Y-118971524D01*
X185218030Y-118971524D02*
X185408506Y-118971524D01*
X185408506Y-118971524D02*
X185503744Y-119019143D01*
X185503744Y-119019143D02*
X185551363Y-119066762D01*
X185551363Y-119066762D02*
X185598982Y-119162000D01*
X185598982Y-119162000D02*
X185598982Y-119352476D01*
X185598982Y-119352476D02*
X185551363Y-119447714D01*
X185551363Y-119447714D02*
X185503744Y-119495334D01*
X185503744Y-119495334D02*
X185408506Y-119542953D01*
X185408506Y-119542953D02*
X185218030Y-119542953D01*
X185218030Y-119542953D02*
X185122792Y-119495334D01*
X185122792Y-119495334D02*
X185075173Y-119447714D01*
X185075173Y-119447714D02*
X185027554Y-119352476D01*
X185027554Y-119352476D02*
X185027554Y-119162000D01*
X185027554Y-119162000D02*
X185075173Y-119066762D01*
X185075173Y-119066762D02*
X185122792Y-119019143D01*
X185122792Y-119019143D02*
X185218030Y-118971524D01*
X188027553Y-121152953D02*
X188027553Y-120152953D01*
X187360887Y-120152953D02*
X187170411Y-120152953D01*
X187170411Y-120152953D02*
X187075173Y-120200572D01*
X187075173Y-120200572D02*
X186979935Y-120295810D01*
X186979935Y-120295810D02*
X186932316Y-120486286D01*
X186932316Y-120486286D02*
X186932316Y-120819619D01*
X186932316Y-120819619D02*
X186979935Y-121010095D01*
X186979935Y-121010095D02*
X187075173Y-121105334D01*
X187075173Y-121105334D02*
X187170411Y-121152953D01*
X187170411Y-121152953D02*
X187360887Y-121152953D01*
X187360887Y-121152953D02*
X187456125Y-121105334D01*
X187456125Y-121105334D02*
X187551363Y-121010095D01*
X187551363Y-121010095D02*
X187598982Y-120819619D01*
X187598982Y-120819619D02*
X187598982Y-120486286D01*
X187598982Y-120486286D02*
X187551363Y-120295810D01*
X187551363Y-120295810D02*
X187456125Y-120200572D01*
X187456125Y-120200572D02*
X187360887Y-120152953D01*
X186551363Y-120248191D02*
X186503744Y-120200572D01*
X186503744Y-120200572D02*
X186408506Y-120152953D01*
X186408506Y-120152953D02*
X186170411Y-120152953D01*
X186170411Y-120152953D02*
X186075173Y-120200572D01*
X186075173Y-120200572D02*
X186027554Y-120248191D01*
X186027554Y-120248191D02*
X185979935Y-120343429D01*
X185979935Y-120343429D02*
X185979935Y-120438667D01*
X185979935Y-120438667D02*
X186027554Y-120581524D01*
X186027554Y-120581524D02*
X186598982Y-121152953D01*
X186598982Y-121152953D02*
X185979935Y-121152953D01*
X185646601Y-120152953D02*
X184979935Y-120152953D01*
X184979935Y-120152953D02*
X185408506Y-121152953D01*
D11*
X197061904Y-107354819D02*
X197061904Y-108164342D01*
X197061904Y-108164342D02*
X197014285Y-108259580D01*
X197014285Y-108259580D02*
X196966666Y-108307200D01*
X196966666Y-108307200D02*
X196871428Y-108354819D01*
X196871428Y-108354819D02*
X196680952Y-108354819D01*
X196680952Y-108354819D02*
X196585714Y-108307200D01*
X196585714Y-108307200D02*
X196538095Y-108259580D01*
X196538095Y-108259580D02*
X196490476Y-108164342D01*
X196490476Y-108164342D02*
X196490476Y-107354819D01*
X195490476Y-108354819D02*
X196061904Y-108354819D01*
X195776190Y-108354819D02*
X195776190Y-107354819D01*
X195776190Y-107354819D02*
X195871428Y-107497676D01*
X195871428Y-107497676D02*
X195966666Y-107592914D01*
X195966666Y-107592914D02*
X196061904Y-107640533D01*
X180853333Y-122976819D02*
X180853333Y-123691104D01*
X180853333Y-123691104D02*
X180900952Y-123833961D01*
X180900952Y-123833961D02*
X180996190Y-123929200D01*
X180996190Y-123929200D02*
X181139047Y-123976819D01*
X181139047Y-123976819D02*
X181234285Y-123976819D01*
X180472380Y-122976819D02*
X179805714Y-122976819D01*
X179805714Y-122976819D02*
X180234285Y-123976819D01*
X178763333Y-122916819D02*
X178763333Y-123631104D01*
X178763333Y-123631104D02*
X178810952Y-123773961D01*
X178810952Y-123773961D02*
X178906190Y-123869200D01*
X178906190Y-123869200D02*
X179049047Y-123916819D01*
X179049047Y-123916819D02*
X179144285Y-123916819D01*
X177858571Y-122916819D02*
X178049047Y-122916819D01*
X178049047Y-122916819D02*
X178144285Y-122964438D01*
X178144285Y-122964438D02*
X178191904Y-123012057D01*
X178191904Y-123012057D02*
X178287142Y-123154914D01*
X178287142Y-123154914D02*
X178334761Y-123345390D01*
X178334761Y-123345390D02*
X178334761Y-123726342D01*
X178334761Y-123726342D02*
X178287142Y-123821580D01*
X178287142Y-123821580D02*
X178239523Y-123869200D01*
X178239523Y-123869200D02*
X178144285Y-123916819D01*
X178144285Y-123916819D02*
X177953809Y-123916819D01*
X177953809Y-123916819D02*
X177858571Y-123869200D01*
X177858571Y-123869200D02*
X177810952Y-123821580D01*
X177810952Y-123821580D02*
X177763333Y-123726342D01*
X177763333Y-123726342D02*
X177763333Y-123488247D01*
X177763333Y-123488247D02*
X177810952Y-123393009D01*
X177810952Y-123393009D02*
X177858571Y-123345390D01*
X177858571Y-123345390D02*
X177953809Y-123297771D01*
X177953809Y-123297771D02*
X178144285Y-123297771D01*
X178144285Y-123297771D02*
X178239523Y-123345390D01*
X178239523Y-123345390D02*
X178287142Y-123393009D01*
X178287142Y-123393009D02*
X178334761Y-123488247D01*
X176723333Y-122946819D02*
X176723333Y-123661104D01*
X176723333Y-123661104D02*
X176770952Y-123803961D01*
X176770952Y-123803961D02*
X176866190Y-123899200D01*
X176866190Y-123899200D02*
X177009047Y-123946819D01*
X177009047Y-123946819D02*
X177104285Y-123946819D01*
X175770952Y-122946819D02*
X176247142Y-122946819D01*
X176247142Y-122946819D02*
X176294761Y-123423009D01*
X176294761Y-123423009D02*
X176247142Y-123375390D01*
X176247142Y-123375390D02*
X176151904Y-123327771D01*
X176151904Y-123327771D02*
X175913809Y-123327771D01*
X175913809Y-123327771D02*
X175818571Y-123375390D01*
X175818571Y-123375390D02*
X175770952Y-123423009D01*
X175770952Y-123423009D02*
X175723333Y-123518247D01*
X175723333Y-123518247D02*
X175723333Y-123756342D01*
X175723333Y-123756342D02*
X175770952Y-123851580D01*
X175770952Y-123851580D02*
X175818571Y-123899200D01*
X175818571Y-123899200D02*
X175913809Y-123946819D01*
X175913809Y-123946819D02*
X176151904Y-123946819D01*
X176151904Y-123946819D02*
X176247142Y-123899200D01*
X176247142Y-123899200D02*
X176294761Y-123851580D01*
D12*
%TO.C,J7*%
X181220000Y-124970000D02*
G75*
G03*
X181220000Y-124970000I-700000J0D01*
G01*
%TO.C,J6*%
X179130000Y-124910000D02*
G75*
G03*
X179130000Y-124910000I-700000J0D01*
G01*
%TO.C,J5*%
X177090000Y-124940000D02*
G75*
G03*
X177090000Y-124940000I-700000J0D01*
G01*
%TD*%
M02*
